<svg width="121" height="70" fill="none" xmlns="http://www.w3.org/2000/svg"><g clip-path="url(#a)" fill="#F3F0FF"><path d="M59.23 4.107a30.633 30.633 0 0 1 2.132-12.086 30.737 30.737 0 0 1 6.71-10.294 30.905 30.905 0 0 1 10.219-6.864 31.023 31.023 0 0 1 12.102-2.34c17.225.152 30.803 14.536 30.605 31.68-.615 53.392-54.297 65.8-54.297 65.8l-2.374-7.57s22.89-8.278 31.739-28.986c-4.407.862-8.95.757-13.313-.307a30.958 30.958 0 0 1-11.947-5.854 30.786 30.786 0 0 1-8.362-10.316 30.642 30.642 0 0 1-3.225-12.86l.011-.003Zm-76.316 0a30.614 30.614 0 0 1 2.131-12.086 30.739 30.739 0 0 1 6.71-10.294 30.904 30.904 0 0 1 10.22-6.864 31.023 31.023 0 0 1 12.101-2.34c17.226.152 30.804 14.536 30.605 31.68-.614 53.392-54.297 65.8-54.297 65.8l-2.374-7.57s22.89-8.278 31.74-28.986a31.043 31.043 0 0 1-13.313-.307 30.959 30.959 0 0 1-11.948-5.854 30.784 30.784 0 0 1-8.362-10.316 30.64 30.64 0 0 1-3.225-12.86l.012-.003Z"/></g><defs><clipPath id="a"><path fill="#fff" d="M0 0h121v70H0z"/></clipPath></defs></svg>