<svg width="24" height="24" fill="none" xmlns="http://www.w3.org/2000/svg"><path d="M3 7.85h18c.465 0 .85-.385.85-.85a.855.855 0 0 0-.85-.85H3a.855.855 0 0 0-.85.85c0 .465.385.85.85.85Z" fill="url(#a)" stroke="url(#b)" stroke-width=".2"/><path d="M3 12.85h18c.465 0 .85-.385.85-.85a.855.855 0 0 0-.85-.85H3a.855.855 0 0 0-.85.85c0 .465.385.85.85.85Z" fill="url(#c)" stroke="url(#d)" stroke-width=".2"/><path d="M3 17.85h18c.465 0 .85-.385.85-.85a.855.855 0 0 0-.85-.85H3a.855.855 0 0 0-.85.85c0 .465.385.85.85.85Z" fill="url(#e)" stroke="url(#f)" stroke-width=".2"/><defs><linearGradient id="a" x1="30.038" y1="6.3" x2="27.201" y2="-2.621" gradientUnits="userSpaceOnUse"><stop stop-color="#D65986"/><stop offset="1" stop-color="#A261F9"/></linearGradient><linearGradient id="b" x1="30.038" y1="6.3" x2="27.201" y2="-2.621" gradientUnits="userSpaceOnUse"><stop stop-color="#D65986"/><stop offset="1" stop-color="#A261F9"/></linearGradient><linearGradient id="c" x1="30.038" y1="11.3" x2="27.201" y2="2.379" gradientUnits="userSpaceOnUse"><stop stop-color="#D65986"/><stop offset="1" stop-color="#A261F9"/></linearGradient><linearGradient id="d" x1="30.038" y1="11.3" x2="27.201" y2="2.379" gradientUnits="userSpaceOnUse"><stop stop-color="#D65986"/><stop offset="1" stop-color="#A261F9"/></linearGradient><linearGradient id="e" x1="30.038" y1="16.3" x2="27.201" y2="7.379" gradientUnits="userSpaceOnUse"><stop stop-color="#D65986"/><stop offset="1" stop-color="#A261F9"/></linearGradient><linearGradient id="f" x1="30.038" y1="16.3" x2="27.201" y2="7.379" gradientUnits="userSpaceOnUse"><stop stop-color="#D65986"/><stop offset="1" stop-color="#A261F9"/></linearGradient></defs></svg>