<svg width="116" height="100" fill="none" xmlns="http://www.w3.org/2000/svg"><rect x=".5" y=".5" width="115" height="99" rx="19.5" stroke="#fff"/><rect width="108" height="100" rx="20" fill="#fff"/><path d="m34.61 33.06 1.89 8.05-1.89 8.015 7.035 4.34L45.95 60.5 54 58.61l8.05 1.89 4.305-7.035 7.035-4.34-1.89-8.015 1.89-8.05-7-4.34-4.34-7.035L54 23.61l-8.015-1.89-4.375 7-7 4.34Zm19.425 22.19a14 14 0 0 1 0-28c7.7 0 13.965 6.265 13.965 13.965 0 7.77-6.265 14.035-13.965 14.035Zm-.07-3.5c-5.81 0-10.465-4.69-10.465-10.5 0-5.775 4.655-10.5 10.465-10.5S64.5 35.475 64.5 41.25c0 5.81-4.725 10.5-10.535 10.5Zm13.44 3.85-4.48 7.84-7.28-1.645L64.5 82.2l4.9-7.7h8.75L67.405 55.6Zm-26.95.245 4.375 7.875 7.455-1.785L43.5 82.2l-4.9-7.7h-8.75l10.605-18.655Z" fill="url(#a)"/><defs><linearGradient id="a" x1="98.677" y1="23.702" x2="24.907" y2="9.458" gradientUnits="userSpaceOnUse"><stop stop-color="#D65986"/><stop offset="1" stop-color="#A261F9"/></linearGradient></defs></svg>