<svg width="12" height="9" fill="none" xmlns="http://www.w3.org/2000/svg"><path d="M4.162 6.862 10.518.506a.73.73 0 0 1 .535-.225.73.73 0 0 1 .534.225.73.73 0 0 1 .225.535.728.728 0 0 1-.225.534l-6.9 6.9a.72.72 0 0 1-.525.225.72.72 0 0 1-.525-.225L.412 5.25a.7.7 0 0 1-.216-.535.76.76 0 0 1 .234-.534.73.73 0 0 1 .535-.225c.207 0 .385.075.534.225l2.663 2.681Z" fill="url(#a)"/><defs><linearGradient id="a" x1="16.749" y1=".562" x2=".19" y2="-4.966" gradientUnits="userSpaceOnUse"><stop stop-color="#D65986"/><stop offset="1" stop-color="#A261F9"/></linearGradient></defs></svg>