<svg width="116" height="100" fill="none" xmlns="http://www.w3.org/2000/svg"><rect width="108" height="100" rx="20" fill="#fff"/><rect x=".5" y=".5" width="115" height="99" rx="19.5" stroke="#fff"/><g clip-path="url(#a)" fill-rule="evenodd" clip-rule="evenodd"><path d="m54 15.826-.504.875-4.881 8.443h3.635V55.23L26.194 70.273l-1.818-3.148L19 76.448h1.009l9.753.006-1.818-3.149L54 58.262l26.056 15.043-1.819 3.149L89 76.448l-.504-.875-4.872-8.448-1.818 3.149L55.75 55.231V25.144h3.635L54 15.826Z" fill="url(#b)"/><path d="M53.34 34.916 32.87 48.342c-.472.34-.599.728-.607 1.081v20.062c0 .441.23.851.607 1.082L53.34 83.99c.493.27.995.224 1.328-.007l20.463-13.417a1.266 1.266 0 0 0 .607-1.082V49.423c-.005-.535-.231-.817-.627-1.095L54.66 34.916c-.488-.277-.87-.145-1.32 0Zm.66 2.562 17.86 11.835-17.87 12.044-18.029-11.934 18.04-11.945ZM34.792 51.676 52.735 63.56v17.097L34.794 68.774l-.002-17.098Zm38.416 0v17.097L55.266 80.656V63.558l17.942-11.882Z" fill="url(#c)"/></g><defs><linearGradient id="b" x1="118.75" y1="17.847" x2="15.877" y2="-10.888" gradientUnits="userSpaceOnUse"><stop stop-color="#D65986"/><stop offset="1" stop-color="#A261F9"/></linearGradient><linearGradient id="c" x1="94.216" y1="36.401" x2="28.321" y2="22.377" gradientUnits="userSpaceOnUse"><stop stop-color="#D65986"/><stop offset="1" stop-color="#A261F9"/></linearGradient><clipPath id="a"><path fill="#fff" transform="translate(19 15)" d="M0 0h70v70H0z"/></clipPath></defs></svg>