<svg width="54" height="54" fill="none" xmlns="http://www.w3.org/2000/svg"><path d="M38.25 47.813h-22.5c-8.213 0-12.938-4.726-12.938-12.938v-15.75c0-8.213 4.726-12.938 12.938-12.938h22.5c8.212 0 12.938 4.725 12.938 12.938v15.75c0 8.212-4.726 12.938-12.938 12.938Zm-22.5-38.25c-6.435 0-9.563 3.127-9.563 9.562v15.75c0 6.435 3.128 9.563 9.563 9.563h22.5c6.435 0 9.563-3.128 9.563-9.563v-15.75c0-6.435-3.128-9.563-9.563-9.563h-22.5Z" fill="url(#a)"/><path d="M26.998 28.957c-1.89 0-3.802-.585-5.265-1.777l-7.042-5.625c-.72-.585-.855-1.643-.27-2.363s1.642-.855 2.362-.27l7.043 5.625c1.71 1.373 4.612 1.373 6.322 0l7.043-5.625c.72-.585 1.8-.472 2.362.27.585.72.473 1.8-.27 2.363l-7.042 5.625c-1.44 1.192-3.353 1.777-5.243 1.777Z" fill="url(#b)"/><defs><linearGradient id="a" x1="71.747" y1="7.575" x2=".722" y2="-12.394" gradientUnits="userSpaceOnUse"><stop stop-color="#D65986"/><stop offset="1" stop-color="#A261F9"/></linearGradient><linearGradient id="b" x1="50.922" y1="18.896" x2="20.82" y2=".794" gradientUnits="userSpaceOnUse"><stop stop-color="#D65986"/><stop offset="1" stop-color="#A261F9"/></linearGradient></defs></svg>