<svg width="24" height="24" fill="none" xmlns="http://www.w3.org/2000/svg"><g clip-path="url(#a)"><path d="M9.834 0c5.432 0 9.835 4.344 9.835 9.7a9.587 9.587 0 0 1-2.372 6.321l6.465 6.568a.823.823 0 0 1-.018 1.176.852.852 0 0 1-1.191-.017l-6.46-6.564a9.876 9.876 0 0 1-6.259 2.219C4.404 19.403 0 15.059 0 9.7 0 4.344 4.404 0 9.834 0Zm0 1.663c-4.5 0-8.148 3.599-8.148 8.038 0 4.44 3.648 8.039 8.148 8.039s8.15-3.6 8.15-8.04c0-4.44-3.649-8.037-8.149-8.037h-.001Z" fill="#BB416C"/><path d="M9.834 0c5.432 0 9.835 4.344 9.835 9.7a9.587 9.587 0 0 1-2.372 6.321l6.465 6.568a.823.823 0 0 1-.018 1.176.852.852 0 0 1-1.191-.017l-6.46-6.564a9.876 9.876 0 0 1-6.259 2.219C4.404 19.403 0 15.059 0 9.7 0 4.344 4.404 0 9.834 0Zm0 1.663c-4.5 0-8.148 3.599-8.148 8.038 0 4.44 3.648 8.039 8.148 8.039s8.15-3.6 8.15-8.04c0-4.44-3.649-8.037-8.149-8.037h-.001Z" fill="url(#b)"/></g><defs><linearGradient id="b" x1=".348" y1="1.8" x2="24.662" y2="2.55" gradientUnits="userSpaceOnUse"><stop stop-color="#D65986"/><stop offset="1" stop-color="#A261F9"/></linearGradient><clipPath id="a"><path fill="#fff" d="M0 0h24v24H0z"/></clipPath></defs></svg>