<svg width="6" height="184" fill="none" xmlns="http://www.w3.org/2000/svg"><path d="M3 41.333a2.667 2.667 0 1 0 0 5.334 2.667 2.667 0 0 0 0-5.334ZM2.5 0v44h1V0h-1Z" fill="url(#a)"/><path d="M3 85.333a2.667 2.667 0 1 0 0 5.334 2.667 2.667 0 0 0 0-5.334ZM2.5 44v44h1V44h-1Z" fill="url(#b)"/><path d="M3 132.005a2.667 2.667 0 1 0 0 5.334 2.667 2.667 0 0 0 0-5.334Zm-.5-41.333v44h1v-44h-1Z" fill="#E9E5FD"/><path d="M3 178.333a2.667 2.667 0 1 0 0 5.334 2.667 2.667 0 0 0 0-5.334ZM2.5 137v44h1v-44h-1Z" fill="#E9E5FD"/><defs><linearGradient id="a" x1="2.967" y1="62.7" x2="9.458" y2="62.09" gradientUnits="userSpaceOnUse"><stop stop-color="#D65986"/><stop offset="1" stop-color="#A261F9"/></linearGradient><linearGradient id="b" x1="2.967" y1="106.7" x2="9.458" y2="106.09" gradientUnits="userSpaceOnUse"><stop stop-color="#D65986"/><stop offset="1" stop-color="#A261F9"/></linearGradient></defs></svg>