<svg width="74" height="93" fill="none" xmlns="http://www.w3.org/2000/svg"><path d="M8.828 80.518a4.533 4.533 0 0 0-.415-1.644 3.154 3.154 0 0 0-1.047-1.264c-.458-.325-1.042-.487-1.752-.487-.746 0-1.318.21-1.716.632a2.09 2.09 0 0 0-.595 1.48c0 .506.144.933.433 1.283a4.28 4.28 0 0 0 1.12.903c.47.252.963.5 1.48.74.458.205.915.427 1.373.668.457.229.873.494 1.246.795.373.3.668.662.885 1.083.228.41.343.903.343 1.48a3.17 3.17 0 0 1-.506 1.77c-.325.518-.8.928-1.426 1.229-.626.288-1.391.433-2.294.433a6.414 6.414 0 0 1-1.68-.235 5.1 5.1 0 0 1-1.534-.686l.09.777h-.939l-.108-3.847h.704c.06 1.06.427 1.866 1.101 2.42.675.542 1.487.813 2.438.813.47 0 .903-.085 1.3-.253.398-.18.71-.44.94-.777.24-.337.36-.746.36-1.228 0-.541-.144-.993-.433-1.354a3.937 3.937 0 0 0-1.12-.94 18.432 18.432 0 0 0-1.462-.758 27.84 27.84 0 0 1-1.354-.65 7.87 7.87 0 0 1-1.228-.776 3.768 3.768 0 0 1-.885-1.066c-.217-.409-.325-.903-.325-1.48 0-.313.054-.65.162-1.012.109-.36.295-.704.56-1.029.277-.337.65-.608 1.12-.813.481-.216 1.09-.325 1.824-.325.457 0 .969.067 1.535.199a4.12 4.12 0 0 1 1.607.722l-.072-.776h.92v3.973h-.65Zm3.15 8.812v-.596c.457-.024.77-.126.938-.307.169-.193.26-.451.271-.776.024-.337.036-.717.036-1.138v-7.801c0-.241.006-.47.018-.686.013-.23.025-.434.037-.614l-.65.036-.65.036v-.795h8.379l.09 3.16h-.596c0-.71-.114-1.246-.343-1.607-.229-.373-.53-.62-.903-.74a3.433 3.433 0 0 0-1.246-.18l-1.319.035c-.445.013-.752.12-.92.326-.169.192-.265.451-.29.776-.023.325-.036.698-.036 1.12v3.106l3.143.018-.127-1.571h.795v3.81h-.578c0-.542-.078-.927-.235-1.156-.144-.228-.373-.367-.686-.415-.313-.048-.722-.06-1.228-.036l-1.084.054v3.792c0 .325-.005.608-.018.849 0 .229-.012.421-.036.578.205-.012.41-.018.614-.018l.614-.036c.205-.013.41-.019.614-.019v.795h-4.605ZM36.6 80.716c-.12-1.131-.518-2.01-1.192-2.636-.662-.626-1.517-.94-2.564-.94-.639 0-1.24.14-1.806.416a4.325 4.325 0 0 0-1.463 1.156c-.421.505-.752 1.113-.993 1.824-.24.71-.361 1.51-.361 2.401 0 1.132.216 2.131.65 2.998.433.867 1.017 1.541 1.751 2.023a4.353 4.353 0 0 0 2.438.722c.783 0 1.553-.175 2.312-.524a4.763 4.763 0 0 0 1.86-1.553l.47.38c-.518.71-1.078 1.258-1.68 1.643-.602.385-1.204.644-1.806.776a6.872 6.872 0 0 1-1.625.217c-.903 0-1.734-.162-2.492-.488a5.978 5.978 0 0 1-1.95-1.354 6.462 6.462 0 0 1-1.265-2.04 7.24 7.24 0 0 1-.433-2.529c0-.854.126-1.685.38-2.492a6.964 6.964 0 0 1 1.173-2.185 5.635 5.635 0 0 1 1.95-1.553c.795-.385 1.716-.578 2.763-.578.674 0 1.312.09 1.914.271.602.18 1.18.458 1.734.83l-.09-.974h.975v4.19h-.65Zm2.26 8.072c.374 0 .633-.09.777-.27.145-.193.23-.452.253-.777.024-.337.036-.722.036-1.156v-9.083c.012-.18.03-.391.054-.632l-.65.036-.632.036v-.758c.53 0 .94-.024 1.228-.073.301-.048.524-.108.669-.18a1.25 1.25 0 0 0 .36-.235h.524l.018 11.72c0 .24-.006.457-.018.65-.012.18-.036.373-.072.578.193-.012.38-.018.56-.018l.578-.036v.74h-3.684v-.542Zm5.102 0c.373 0 .632-.09.776-.27.145-.193.229-.452.253-.777.024-.337.036-.722.036-1.156v-4.117c0-.193.006-.373.018-.542.012-.18.03-.391.054-.632a1415.288 1415.288 0 0 0-1.282.072v-.758c.53 0 .94-.024 1.228-.072.29-.048.506-.109.65-.18.157-.073.277-.151.361-.236h.524v7.296c0 .24-.006.457-.018.65 0 .18-.018.373-.054.578.193-.012.38-.018.56-.018l.578-.036v.74h-3.684v-.542Zm1.751-10.455a.892.892 0 0 1-.668-.307 1.065 1.065 0 0 1-.289-.759c0-.3.097-.554.29-.758.204-.217.433-.325.685-.325.277 0 .506.108.687.325.192.204.289.457.289.758s-.103.554-.307.759a.91.91 0 0 1-.687.307Zm3.328 10.997v-.542c.373 0 .632-.09.776-.27.145-.193.229-.452.253-.777.024-.337.036-.722.036-1.156l.018-4.117v-.578c.012-.192.036-.391.072-.596l-.65.036-.632.036v-.758c.53 0 .927-.024 1.192-.072.277-.048.482-.109.614-.18.132-.073.24-.151.325-.236h.524c.012.085.018.181.018.29.012.108.024.228.036.36.012.133.018.283.018.452.265-.229.554-.433.867-.614a5.34 5.34 0 0 1 1.011-.434 3.697 3.697 0 0 1 1.066-.162c1.047 0 1.811.331 2.293.993.481.65.722 1.668.722 3.052v3.359c0 .24-.006.457-.018.65 0 .18-.018.373-.054.578.193-.012.38-.018.56-.018l.578-.036v.74h-3.684v-.542c.373 0 .632-.09.776-.27.145-.193.229-.452.253-.777.024-.337.036-.722.036-1.156v-2.528c-.012-1.035-.186-1.818-.523-2.347-.326-.53-.843-.789-1.553-.777a2.96 2.96 0 0 0-1.283.343 3.33 3.33 0 0 0-1.029.83c.012.097.018.205.018.326v.379l-.018 4.605c0 .24-.006.457-.018.65 0 .18-.018.373-.054.578a8.99 8.99 0 0 1 .56-.018l.577-.036v.74h-3.683Zm10.968-.542c.374 0 .633-.09.777-.27.145-.193.229-.452.253-.777.024-.337.036-.722.036-1.156v-4.117c0-.193.006-.373.018-.542.012-.18.03-.391.054-.632l-.65.036-.632.036v-.758c.53 0 .94-.024 1.228-.072.289-.048.506-.109.65-.18a1.25 1.25 0 0 0 .361-.236h.524v7.296c0 .24-.006.457-.018.65 0 .18-.018.373-.054.578a8.99 8.99 0 0 1 .56-.018l.577-.036v.74H60.01v-.542Zm1.752-10.455a.893.893 0 0 1-.668-.307 1.064 1.064 0 0 1-.289-.759c0-.3.096-.554.289-.758.205-.217.433-.325.686-.325.277 0 .506.108.687.325.192.204.288.457.288.758s-.102.554-.307.759a.911.911 0 0 1-.686.307Zm7.734 11.286c-.807 0-1.553-.18-2.24-.542a4.287 4.287 0 0 1-1.625-1.589c-.397-.698-.596-1.535-.596-2.51 0-.626.115-1.234.343-1.824.23-.59.548-1.12.957-1.589a4.63 4.63 0 0 1 1.5-1.138 4.372 4.372 0 0 1 1.914-.415c.674 0 1.258.102 1.751.307.506.205.897.475 1.174.813.277.337.415.704.415 1.101 0 .265-.072.494-.216.686-.145.181-.356.271-.633.271-.3.012-.517-.078-.65-.27-.12-.205-.18-.386-.18-.542 0-.12.018-.241.054-.362a.809.809 0 0 1 .217-.36 1.076 1.076 0 0 0-.506-.633 1.983 1.983 0 0 0-.758-.27 3.497 3.497 0 0 0-.632-.073c-.82 0-1.511.331-2.077.993-.554.65-.83 1.602-.83 2.854 0 .806.126 1.522.378 2.148.265.627.632 1.12 1.102 1.481a2.65 2.65 0 0 0 1.625.524c.566 0 1.108-.15 1.626-.452.517-.3.92-.668 1.21-1.101l.469.361a4.136 4.136 0 0 1-1.138 1.228 4.64 4.64 0 0 1-1.354.686 4.32 4.32 0 0 1-1.3.217Z" fill="url(#a)"/><path fill-rule="evenodd" clip-rule="evenodd" d="M52.415 39.938c2.721-.694 5.297-1.676 7.268-2.818 3.647-2.112 6.095-8.195 7.033-12.142.38-1.59.883-3.953.834-5.69-7.256-3.119-16.03-5.74-22.602.656a15.544 15.544 0 0 0-.539-.3c1.941-1.603 2.727-1.345 2.727-3.941C47.136 8.925 40.8 3.995 36.131 0c-3.743 3.217-11.35 7.17-11.35 15.58 0 2.603.877 2.375 2.582 4.008-.163.086-.326.172-.483.264-1.935-2.075-5.376-3.64-8.175-3.836C15.258 15.77 6.762 17.44 4.35 19.41c.036 1.688.574 3.923.943 5.519C6.06 28.238 7.13 31.227 9 34.014c.665.994 2.261 2.51 3.362 3.13 1.566.885 4.928 2.26 6.802 2.738l.073.019c.066.184.139.362.211.546l-.29-.067c-.84-.197-3.023-.921-3.561-.952-3.798 3.603-5.346 8.907-5.69 14.07 3.404 1.841 10.823 3.787 14.566 2.111.829-.368 4.046-2.148 3.979-3.02a18.291 18.291 0 0 1 .012-3.05c.17.073.339.147.508.214v.05c-.58 5.825 2.896 8.274 7.202 11.595 3.604-2.738 7.455-6.82 6.869-11.676l-.012-.104c.163-.067.326-.141.49-.22.096.84.133 1.742.15 3 2.274 2.677 5.636 3.942 9.047 3.844 1.801-.05 3.84-.516 5.339-1.032l4.765-1.657c-.006-4.242-2.4-11.215-5.739-14.162-1.294.05-3.513.878-4.922 1.191.091-.209.176-.423.254-.638v-.006Z" fill="url(#b)"/><path fill-rule="evenodd" clip-rule="evenodd" d="M35.222 39.447c0 .37-.018.696-.012.96l.012.58h2.01v.899h-5.174v-.678c.385-.012.672-.08.861-.21a1.02 1.02 0 0 0 .404-.517c.079-.215.122-.48.128-.788v-.191c.042-4.084.08-6.776.018-10.453l-.012-.684h-.843v-.887h8.85l.117 3.659h-.672c0-.61-.073-1.097-.226-1.479-.147-.375-.348-.67-.605-.874a1.997 1.997 0 0 0-.892-.42 5.082 5.082 0 0 0-1.08-.098l-1.479.044c-.379.012-.666.086-.855.215-.196.13-.33.308-.416.53a2.557 2.557 0 0 0-.122.794c0 .302-.006.635-.006.986v3.542h3.525v-1.762h.757v4.306h-.666c0-.4-.036-.715-.104-.949a1.13 1.13 0 0 0-.323-.548 1.153 1.153 0 0 0-.568-.252 4.557 4.557 0 0 0-.825-.062h-.287c-.098 0-.599.025-1.509.074v4.281l-.006-.018Zm-5.528 6.615v-1.614c.452.308.947.573 1.485.807a11.78 11.78 0 0 0 1.661.58c.574.147 1.148.264 1.729.344.586.08 1.154.117 1.704.117 1.374 0 2.59-.166 3.67-.51 1.076-.34 1.986-.814 2.719-1.418a5.981 5.981 0 0 0 1.68-2.162c.378-.838.58-1.755.58-2.753 0-1.072-.202-1.996-.611-2.785a7.15 7.15 0 0 0-1.594-2.07 11.33 11.33 0 0 0-1.912-1.373v4.294c.122.16.238.32.342.492.403.629.599 1.392.599 2.267 0 .733-.14 1.38-.428 1.94a4.09 4.09 0 0 1-1.148 1.411 5.347 5.347 0 0 1-1.698.869c-.642.19-1.326.29-2.047.29a8.889 8.889 0 0 1-2.748-.413 6.628 6.628 0 0 1-2.248-1.22 6.13 6.13 0 0 1-1.558-2.014c-.403-.807-.635-1.738-.708-2.81h-1.197v7.75h1.728v-.019Zm2.431-13.551v-3.998a5.715 5.715 0 0 1-.678-.826c-.403-.61-.604-1.324-.604-2.143 0-.567.103-1.103.305-1.614a3.85 3.85 0 0 1 .904-1.35 4.27 4.27 0 0 1 1.478-.923c.593-.228 1.27-.345 2.04-.345 1.081 0 2.028.19 2.822.573.794.382 1.46.88 2.004 1.503a6.642 6.642 0 0 1 1.24 2.162c.28.813.305.924.348 1.256h1.502v-6.739h-1.728v1.64a8.12 8.12 0 0 0-1.588-.894 11.562 11.562 0 0 0-1.668-.567 13.476 13.476 0 0 0-1.649-.295 15.163 15.163 0 0 0-1.54-.087c-.995 0-1.868.105-2.632.302-.757.197-1.41.462-1.967.8a5.52 5.52 0 0 0-1.38 1.159 6.207 6.207 0 0 0-.886 1.367 6.74 6.74 0 0 0-.482 1.405 6.91 6.91 0 0 0-.14 1.324c0 1.072.195 1.99.598 2.766A6.91 6.91 0 0 0 30 31.02a11.782 11.782 0 0 0 2.138 1.478l-.013.013Z" fill="#fff"/><defs><linearGradient id="a" x1="106.188" y1="72.063" x2="35.657" y2="14.668" gradientUnits="userSpaceOnUse"><stop stop-color="#D65986"/><stop offset="1" stop-color="#A261F9"/></linearGradient><linearGradient id="b" x1="94.415" y1="2.047" x2=".13" y2="-21.434" gradientUnits="userSpaceOnUse"><stop stop-color="#D65986"/><stop offset="1" stop-color="#A261F9"/></linearGradient></defs></svg>