<svg width="48" height="60" fill="none" xmlns="http://www.w3.org/2000/svg"><path fill-rule="evenodd" clip-rule="evenodd" d="M35.73 29.412c2.003-.511 3.9-1.235 5.352-2.075 2.685-1.555 4.489-6.035 5.179-8.942.28-1.171.65-2.912.614-4.191-5.343-2.296-11.805-4.227-16.645.484-.13-.077-.263-.15-.396-.222 1.43-1.18 2.008-.99 2.008-2.902 0-4.99-4.667-8.621-8.105-11.564-2.756 2.369-8.358 5.28-8.358 11.473 0 1.917.646 1.75 1.901 2.952-.12.064-.24.127-.356.195-1.425-1.528-3.959-2.68-6.02-2.825-2.539-.181-8.795 1.048-10.572 2.5.027 1.243.423 2.888.695 4.064.565 2.436 1.353 4.638 2.73 6.69.49.733 1.665 1.85 2.475 2.306 1.154.65 3.63 1.663 5.01 2.016l.053.014c.05.135.103.266.156.402l-.213-.05c-.62-.144-2.227-.678-2.623-.7-2.797 2.653-3.937 6.559-4.19 10.36 2.506 1.357 7.97 2.79 10.727 1.556.61-.271 2.979-1.582 2.93-2.224a13.465 13.465 0 0 1 .009-2.247c.125.054.25.108.374.158v.036c-.428 4.29 2.133 6.094 5.303 8.54 2.655-2.016 5.491-5.023 5.06-8.598l-.01-.077c.12-.05.24-.104.361-.163.071.62.098 1.284.111 2.21 1.675 1.972 4.15 2.903 6.662 2.83 1.327-.035 2.828-.38 3.932-.759l3.51-1.22c-.005-3.124-1.769-8.26-4.227-10.43-.953.037-2.587.647-3.625.877.067-.153.13-.312.188-.47v-.004Z" fill="url(#a)"/><path fill-rule="evenodd" clip-rule="evenodd" d="M23.072 29.051c0 .273-.013.513-.009.708l.01.427h1.48v.662h-3.81v-.5c.283-.008.494-.058.634-.153a.755.755 0 0 0 .296-.381c.059-.16.09-.354.095-.581v-.14c.031-3.008.058-4.99.013-7.699l-.009-.503h-.62v-.654h6.518l.085 2.695h-.495c0-.45-.054-.808-.166-1.089a1.494 1.494 0 0 0-.446-.644 1.47 1.47 0 0 0-.656-.309 3.744 3.744 0 0 0-.796-.072l-1.089.032c-.279.009-.49.063-.63.158a.795.795 0 0 0-.306.39 1.88 1.88 0 0 0-.09.586c0 .222-.004.467-.004.726v2.608h2.595v-1.297h.558v3.17h-.49c0-.294-.027-.526-.077-.698a.832.832 0 0 0-.238-.404.848.848 0 0 0-.418-.186 3.349 3.349 0 0 0-.608-.045h-.211c-.072 0-.44.018-1.111.054v3.153l-.005-.014Zm-4.07 4.872v-1.188c.332.227.697.422 1.093.594.395.173.8.313 1.223.427.423.109.846.195 1.273.254.432.059.85.086 1.255.086 1.012 0 1.907-.123 2.704-.377.791-.25 1.462-.598 2.001-1.043a4.404 4.404 0 0 0 1.237-1.592 4.87 4.87 0 0 0 .428-2.028c0-.79-.149-1.47-.45-2.05a5.266 5.266 0 0 0-1.174-1.525 8.348 8.348 0 0 0-1.408-1.011v3.162c.09.117.175.235.252.362.297.463.44 1.026.44 1.67 0 .54-.103 1.016-.314 1.429-.207.413-.49.762-.846 1.039-.364.28-.774.49-1.25.64-.473.14-.977.212-1.507.212-.72 0-1.39-.1-2.025-.303a4.884 4.884 0 0 1-1.655-.899 4.5 4.5 0 0 1-1.147-1.483c-.297-.594-.468-1.28-.522-2.069h-.881v5.707h1.273v-.014Zm1.79-9.98V21a4.196 4.196 0 0 1-.5-.607c-.296-.45-.445-.976-.445-1.58 0-.417.077-.811.225-1.188a2.84 2.84 0 0 1 .666-.993 3.145 3.145 0 0 1 1.088-.68 4.16 4.16 0 0 1 1.503-.255c.796 0 1.493.14 2.078.422a4.54 4.54 0 0 1 1.475 1.107c.4.463.702.993.914 1.592.207.6.224.68.256.926h1.107V14.78h-1.273v1.207a5.977 5.977 0 0 0-1.17-.658 8.521 8.521 0 0 0-1.228-.418 9.909 9.909 0 0 0-1.215-.217c-.4-.041-.773-.064-1.133-.064-.733 0-1.377.077-1.939.222a5.36 5.36 0 0 0-1.448.59 4.07 4.07 0 0 0-1.017.853c-.27.322-.49.658-.652 1.007-.162.345-.28.69-.355 1.035a5.11 5.11 0 0 0-.104.975c0 .79.144 1.465.44 2.037.289.567.68 1.066 1.161 1.497.468.408.99.77 1.575 1.088l-.01.01Z" fill="#fff"/><path d="M5.1 57.025c-.768 0-1.428-.18-1.98-.54a2.888 2.888 0 0 1-1.14-1.512l.72-.42c.152.52.432.928.84 1.224.408.288.932.432 1.572.432.624 0 1.108-.136 1.452-.408.352-.28.528-.648.528-1.104 0-.44-.16-.772-.48-.996-.32-.224-.848-.456-1.584-.696-.872-.288-1.448-.52-1.728-.696-.64-.384-.96-.94-.96-1.668 0-.712.248-1.272.744-1.68.496-.416 1.108-.624 1.836-.624.656 0 1.224.172 1.704.516.48.336.836.768 1.068 1.296l-.708.396c-.384-.928-1.072-1.392-2.064-1.392-.52 0-.94.128-1.26.384-.32.256-.48.612-.48 1.068 0 .416.144.728.432.936.288.208.764.42 1.428.636.304.104.52.18.648.228.136.04.328.112.576.216.256.096.444.184.564.264.12.072.264.176.432.312.176.128.3.26.372.396.08.128.148.288.204.48.064.184.096.384.096.6 0 .712-.26 1.284-.78 1.716-.52.424-1.204.636-2.052.636Zm8.956-7.752h-3.9v3.096h3.72v.792h-3.72v3.72h-.84v-8.4h4.74v.792Zm8.36 7.752c-1.273 0-2.325-.42-3.157-1.26-.832-.84-1.248-1.868-1.248-3.084s.416-2.244 1.248-3.084c.832-.84 1.884-1.26 3.156-1.26a4.18 4.18 0 0 1 2.136.564 3.862 3.862 0 0 1 1.5 1.5l-.744.432a2.983 2.983 0 0 0-1.176-1.224 3.339 3.339 0 0 0-1.716-.456c-1.048 0-1.904.34-2.568 1.02-.664.68-.996 1.516-.996 2.508s.332 1.828.996 2.508c.664.68 1.52 1.02 2.568 1.02.624 0 1.196-.152 1.716-.456.52-.304.912-.712 1.176-1.224l.744.42a3.838 3.838 0 0 1-1.5 1.512 4.18 4.18 0 0 1-2.136.564Zm4.897-.144v-8.76h.792v8.76h-.792Zm3.276-7.44a.555.555 0 0 1-.408.168.555.555 0 0 1-.408-.168.555.555 0 0 1-.168-.408c0-.16.056-.296.168-.408a.555.555 0 0 1 .408-.168c.16 0 .296.056.408.168a.555.555 0 0 1 .168.408c0 .16-.056.296-.168.408Zm-.804 7.44v-6h.792v6h-.792Zm5.281-6.144c.728 0 1.3.224 1.716.672.424.44.636 1.036.636 1.788v3.684h-.792v-3.684c0-.536-.144-.952-.432-1.248-.28-.296-.68-.444-1.2-.444-.576 0-1.044.184-1.404.552-.36.36-.54.92-.54 1.68v3.144h-.792v-6h.792v.936c.448-.72 1.12-1.08 2.016-1.08Zm4.687-1.296a.555.555 0 0 1-.408.168.555.555 0 0 1-.408-.168.555.555 0 0 1-.168-.408c0-.16.056-.296.168-.408a.555.555 0 0 1 .408-.168c.16 0 .296.056.408.168a.555.555 0 0 1 .168.408c0 .16-.056.296-.168.408Zm-.804 7.44v-6h.792v6h-.792Zm5.269.144c-.904 0-1.656-.3-2.256-.9-.6-.608-.9-1.356-.9-2.244 0-.888.3-1.632.9-2.232.6-.608 1.352-.912 2.256-.912.592 0 1.124.144 1.596.432.472.28.816.66 1.032 1.14l-.648.372c-.16-.36-.42-.644-.78-.852a2.248 2.248 0 0 0-1.2-.324c-.664 0-1.224.232-1.68.696-.456.456-.684 1.016-.684 1.68 0 .664.228 1.228.684 1.692.456.456 1.016.684 1.68.684.448 0 .848-.104 1.2-.312a2.32 2.32 0 0 0 .828-.864l.66.384c-.248.48-.612.86-1.092 1.14a3.11 3.11 0 0 1-1.596.42Z" fill="url(#b)"/><defs><linearGradient id="a" x1="66.66" y1="1.507" x2="-2.775" y2="-15.785" gradientUnits="userSpaceOnUse"><stop stop-color="#D65986"/><stop offset="1" stop-color="#A261F9"/></linearGradient><linearGradient id="b" x1="67.05" y1="46.348" x2="22.392" y2="10.848" gradientUnits="userSpaceOnUse"><stop stop-color="#D65986"/><stop offset="1" stop-color="#A261F9"/></linearGradient></defs></svg>