<svg width="24" height="24" fill="none" xmlns="http://www.w3.org/2000/svg"><g clip-path="url(#a)"><path fill-rule="evenodd" clip-rule="evenodd" d="M.857 4.286a4.286 4.286 0 1 1 8.571 0 4.286 4.286 0 0 1-8.57 0Zm18-4.286a4.286 4.286 0 1 0 0 8.571 4.286 4.286 0 0 0 0-8.571Zm-3.233 12.614c.657-1.228 1.687-2.328 3.233-2.328s2.575 1.1 3.233 2.328c.667 1.243 1.087 2.847 1.361 4.378a37.38 37.38 0 0 1 .48 4.224c.036.594.059 1.188.069 1.783v.142l-.857.002H24a.857.857 0 0 1-.857.857H14.57a.857.857 0 0 1-.857-.857v-.148l.009-.39c.05-1.882.23-3.758.54-5.615.274-1.53.694-3.133 1.361-4.376ZM0 11.143a.857.857 0 0 1 .857-.857H9.43a.857.857 0 0 1 .857.857v.147l-.009.393c-.012.463-.032.926-.06 1.388a37.668 37.668 0 0 1-.48 4.224c-.274 1.531-.694 3.136-1.361 4.379C7.719 22.899 6.689 24 5.143 24s-2.577-1.1-3.233-2.328C1.243 20.429.823 18.825.549 17.294a37.71 37.71 0 0 1-.48-4.226A41.325 41.325 0 0 1 0 11.288v-.145Z" fill="#fff"/></g><defs><clipPath id="a"><path fill="#fff" d="M0 0h24v24H0z"/></clipPath></defs></svg>