<svg width="36" height="37" fill="none" xmlns="http://www.w3.org/2000/svg"><path d="M26.175 34.625c-1.695 0-3.48-.405-5.325-1.185-1.8-.765-3.615-1.815-5.385-3.09a46.822 46.822 0 0 1-5.055-4.305 44.814 44.814 0 0 1-4.305-5.04c-1.29-1.8-2.325-3.6-3.06-5.34-.78-1.86-1.17-3.66-1.17-5.355 0-1.17.21-2.28.615-3.315.42-1.065 1.095-2.055 2.01-2.91 1.155-1.14 2.475-1.71 3.885-1.71.585 0 1.185.135 1.695.375.585.27 1.08.675 1.44 1.215L15 8.87c.315.435.555.855.72 1.275.195.45.3.9.3 1.335 0 .57-.165 1.125-.48 1.65-.225.405-.57.84-1.005 1.275l-1.02 1.065c.015.045.03.075.045.105.18.315.54.855 1.23 1.665.735.84 1.425 1.605 2.115 2.31.885.87 1.62 1.56 2.31 2.13.855.72 1.41 1.08 1.74 1.245l-.03.075 1.095-1.08c.465-.465.915-.81 1.35-1.035.825-.51 1.875-.6 2.925-.165.39.165.81.39 1.26.705l4.98 3.54c.555.375.96.855 1.2 1.425.225.57.33 1.095.33 1.62 0 .72-.165 1.44-.48 2.115a6.986 6.986 0 0 1-1.2 1.8c-.855.945-1.785 1.62-2.865 2.055a8.856 8.856 0 0 1-3.345.645Zm-17.79-30c-.825 0-1.59.36-2.325 1.08-.69.645-1.17 1.35-1.47 2.115a6.563 6.563 0 0 0-.465 2.49c0 1.395.33 2.91.99 4.47.675 1.59 1.62 3.24 2.82 4.89A41.5 41.5 0 0 0 12 24.44a42.235 42.235 0 0 0 4.785 4.08c1.62 1.185 3.285 2.145 4.935 2.835 2.565 1.095 4.965 1.35 6.945.525.765-.315 1.44-.795 2.055-1.485.345-.375.615-.78.84-1.26.18-.375.27-.765.27-1.155 0-.24-.045-.48-.165-.75-.045-.09-.135-.255-.42-.45l-4.98-3.54a4.3 4.3 0 0 0-.825-.465c-.33-.135-.465-.27-.975.045-.3.15-.57.375-.87.675l-1.14 1.125c-.585.57-1.485.705-2.175.45l-.405-.18c-.615-.33-1.335-.84-2.13-1.515-.72-.615-1.5-1.335-2.445-2.265a52.397 52.397 0 0 1-2.235-2.43c-.705-.825-1.215-1.53-1.53-2.115l-.18-.45c-.09-.345-.12-.54-.12-.75 0-.54.195-1.02.57-1.395l1.125-1.17c.3-.3.525-.585.675-.84a.962.962 0 0 0 .165-.51c0-.12-.045-.3-.12-.48-.105-.24-.27-.51-.48-.795l-3.48-4.92c-.15-.21-.33-.36-.555-.465a1.878 1.878 0 0 0-.75-.165Zm12.54 18.39-.24 1.02.405-1.05c-.075-.015-.135 0-.165.03Z" fill="#BB416C"/><path d="M26.175 34.625c-1.695 0-3.48-.405-5.325-1.185-1.8-.765-3.615-1.815-5.385-3.09a46.822 46.822 0 0 1-5.055-4.305 44.814 44.814 0 0 1-4.305-5.04c-1.29-1.8-2.325-3.6-3.06-5.34-.78-1.86-1.17-3.66-1.17-5.355 0-1.17.21-2.28.615-3.315.42-1.065 1.095-2.055 2.01-2.91 1.155-1.14 2.475-1.71 3.885-1.71.585 0 1.185.135 1.695.375.585.27 1.08.675 1.44 1.215L15 8.87c.315.435.555.855.72 1.275.195.45.3.9.3 1.335 0 .57-.165 1.125-.48 1.65-.225.405-.57.84-1.005 1.275l-1.02 1.065c.015.045.03.075.045.105.18.315.54.855 1.23 1.665.735.84 1.425 1.605 2.115 2.31.885.87 1.62 1.56 2.31 2.13.855.72 1.41 1.08 1.74 1.245l-.03.075 1.095-1.08c.465-.465.915-.81 1.35-1.035.825-.51 1.875-.6 2.925-.165.39.165.81.39 1.26.705l4.98 3.54c.555.375.96.855 1.2 1.425.225.57.33 1.095.33 1.62 0 .72-.165 1.44-.48 2.115a6.986 6.986 0 0 1-1.2 1.8c-.855.945-1.785 1.62-2.865 2.055a8.856 8.856 0 0 1-3.345.645Zm-17.79-30c-.825 0-1.59.36-2.325 1.08-.69.645-1.17 1.35-1.47 2.115a6.563 6.563 0 0 0-.465 2.49c0 1.395.33 2.91.99 4.47.675 1.59 1.62 3.24 2.82 4.89A41.5 41.5 0 0 0 12 24.44a42.235 42.235 0 0 0 4.785 4.08c1.62 1.185 3.285 2.145 4.935 2.835 2.565 1.095 4.965 1.35 6.945.525.765-.315 1.44-.795 2.055-1.485.345-.375.615-.78.84-1.26.18-.375.27-.765.27-1.155 0-.24-.045-.48-.165-.75-.045-.09-.135-.255-.42-.45l-4.98-3.54a4.3 4.3 0 0 0-.825-.465c-.33-.135-.465-.27-.975.045-.3.15-.57.375-.87.675l-1.14 1.125c-.585.57-1.485.705-2.175.45l-.405-.18c-.615-.33-1.335-.84-2.13-1.515-.72-.615-1.5-1.335-2.445-2.265a52.397 52.397 0 0 1-2.235-2.43c-.705-.825-1.215-1.53-1.53-2.115l-.18-.45c-.09-.345-.12-.54-.12-.75 0-.54.195-1.02.57-1.395l1.125-1.17c.3-.3.525-.585.675-.84a.962.962 0 0 0 .165-.51c0-.12-.045-.3-.12-.48-.105-.24-.27-.51-.48-.795l-3.48-4.92c-.15-.21-.33-.36-.555-.465a1.878 1.878 0 0 0-.75-.165Zm12.54 18.39-.24 1.02.405-1.05c-.075-.015-.135 0-.165.03Z" fill="url(#a)"/><defs><linearGradient id="a" x1="2.342" y1="4.794" x2="34.952" y2="5.797" gradientUnits="userSpaceOnUse"><stop stop-color="#D65986"/><stop offset="1" stop-color="#A261F9"/></linearGradient></defs></svg>