<svg width="115" height="29" fill="none" xmlns="http://www.w3.org/2000/svg"><path d="M87.235 15.9a1.972 1.972 0 0 1 0-2.8l11.77-11.7a2 2 0 0 1 2.816 0l11.77 11.7a1.971 1.971 0 0 1 0 2.8l-11.77 11.7a2 2 0 0 1-2.816 0l-11.77-11.7Z" fill="#070707"/><path d="M108.358 14.5c0 4.694-3.594 8.5-8.026 8.5-4.433 0-8.027-3.806-8.027-8.5 0-4.695 3.594-8.5 8.027-8.5 4.432 0 8.026 3.805 8.026 8.5Z" fill="#FCFCFC"/><path d="M95.315 11.086c0-1.152.85-2.086 1.897-2.086h6.238c1.048 0 1.898.934 1.898 2.086v6.828c0 1.152-.85 2.086-1.898 2.086h-6.238c-1.048 0-1.897-.934-1.897-2.086v-6.828Z" fill="#070707"/><path d="M104.345 14.504c0 1.933-1.797 3.5-4.013 3.5-2.217 0-4.013-1.567-4.013-3.5s1.796-3.5 4.013-3.5c2.216 0 4.013 1.567 4.013 3.5Z" fill="#FCFCFC"/><path d="M99.349 14.967a.657.657 0 0 1 0-.934l.729-.725a.667.667 0 0 1 .939 0l.73.725a.658.658 0 0 1 0 .934l-.73.725a.667.667 0 0 1-.939 0l-.73-.725Z" fill="#070707"/><path d="M1.465 23.569H0v-8.537c.175 0 .623-.004 1.346-.012l1.19-.012c2.016 0 3.024.878 3.024 2.634 0 .658-.162 1.195-.488 1.61-.325.406-.698.682-1.119.829l2.608 3.488H4.787l-2.298-3.196H1.465v3.195Zm1-7.159c-.143 0-.476.008-1 .024v2.537h.952c.453 0 .83-.114 1.131-.341.31-.236.465-.561.465-.976 0-.83-.516-1.244-1.548-1.244Zm8.694 5.622.393.988c-.524.455-1.207.683-2.048.683-.865 0-1.564-.265-2.096-.793-.524-.529-.786-1.224-.786-2.085 0-.822.258-1.504.774-2.05.516-.552 1.203-.828 2.06-.828.707 0 1.306.24 1.798.72.492.47.738 1.08.738 1.828 0 .31-.028.561-.083.756h-3.87c.056.407.23.724.524.952.294.22.655.329 1.084.329.603 0 1.107-.167 1.512-.5Zm-1.762-2.915c-.778 0-1.247.399-1.405 1.195h2.63a1.127 1.127 0 0 0-.32-.853c-.223-.228-.524-.342-.905-.342Zm7.437 6.89v-2.719a2.37 2.37 0 0 1-1.321.415c-.85 0-1.528-.26-2.036-.78-.5-.53-.75-1.228-.75-2.098 0-.813.29-1.496.869-2.05.58-.552 1.313-.828 2.203-.828.92 0 1.722.22 2.405.658v7.402h-1.37Zm-1.143-3.61c.46 0 .842-.166 1.143-.5v-2.365c-.365-.179-.714-.268-1.047-.268-.5 0-.893.158-1.18.475-.277.31-.416.691-.416 1.147 0 .439.135.8.405 1.085.278.285.643.427 1.095.427Zm8.866-4.317v5.489h-1.37v-.671c-.428.536-1 .805-1.714.805-.556 0-1.008-.191-1.357-.573-.35-.383-.524-.948-.524-1.696v-3.353h1.369v3.06c0 .838.341 1.257 1.024 1.257.468 0 .87-.224 1.203-.671v-3.646h1.369Zm5.728 3.952.393.988c-.523.455-1.206.683-2.047.683-.866 0-1.564-.265-2.096-.793-.524-.529-.786-1.224-.786-2.085 0-.822.258-1.504.774-2.05.516-.552 1.203-.828 2.06-.828.706 0 1.306.24 1.798.72.492.47.738 1.08.738 1.828 0 .31-.028.561-.083.756h-3.87c.056.407.23.724.524.952.294.22.655.329 1.083.329.604 0 1.108-.167 1.512-.5Zm-1.762-2.915c-.777 0-1.246.399-1.404 1.195h2.63a1.127 1.127 0 0 0-.32-.853c-.223-.228-.525-.342-.906-.342Zm6.211 3.281a.428.428 0 0 0 .202-.378c0-.163-.099-.293-.297-.39a3.288 3.288 0 0 0-.727-.269c-.277-.081-.56-.175-.845-.28a1.766 1.766 0 0 1-.726-.537c-.199-.244-.298-.553-.298-.927 0-.52.183-.927.548-1.22.373-.3.845-.45 1.417-.45.873 0 1.551.231 2.036.695l-.512 1a2.268 2.268 0 0 0-1.453-.525.778.778 0 0 0-.488.147.4.4 0 0 0-.179.329c0 .163.1.297.298.402.198.106.437.195.715.269.285.073.571.162.857.268.286.106.528.28.726.524.198.236.298.533.298.89 0 .537-.199.964-.596 1.281-.389.317-.913.476-1.571.476-.46 0-.917-.102-1.37-.305-.444-.203-.734-.415-.869-.634l.667-.915c.159.179.409.337.75.476.341.138.647.207.917.207a.855.855 0 0 0 .5-.134Zm2.659-.915v-4.927h1.37v1.525h1.726v1.317h-1.727v2c0 .658.215.988.643.988.27 0 .544-.106.822-.317l.417 1.085c-.43.358-.957.536-1.584.536-.587 0-1.012-.183-1.274-.548-.262-.374-.393-.927-.393-1.659Zm7.422 2.086v-8.063h.123c.18 0 .48-.004.9-.011.42-.015.75-.023.99-.023.764 0 1.435.107 2.012.322.577.208 1.038.5 1.383.876.345.368.6.787.765 1.255.172.46.259.96.259 1.497 0 1.213-.394 2.212-1.181 2.995-.78.783-1.89 1.174-3.329 1.174-.187 0-.483-.003-.888-.011a52.67 52.67 0 0 0-.933-.011h-.101Zm1.99-7.498c-.172 0-.334.003-.484.011-.15 0-.31.004-.483.012a9.01 9.01 0 0 1-.405.011v6.865l1.327.023c1.222 0 2.166-.33 2.834-.99.667-.669 1-1.529 1-2.58 0-.991-.318-1.797-.955-2.42-.638-.621-1.582-.932-2.834-.932Zm9.889 6.403.191.461c-.457.491-1.08.737-1.867.737-.802 0-1.45-.246-1.945-.737-.495-.491-.742-1.144-.742-1.958 0-.783.225-1.428.674-1.935.458-.507 1.087-.76 1.89-.76.66 0 1.207.215 1.641.645.435.43.653.994.653 1.693 0 .184-.012.345-.034.484h-4.172c.023.622.221 1.113.596 1.474.375.353.866.53 1.473.53.697 0 1.245-.211 1.642-.634Zm-1.856-3.628c-.547 0-.985.165-1.315.496-.33.322-.521.744-.574 1.267h3.644c-.008-.546-.169-.976-.484-1.29-.315-.315-.738-.473-1.27-.473Zm6.37 3.364a.685.685 0 0 0-.293-.576 2.137 2.137 0 0 0-.697-.346c-.27-.084-.543-.177-.82-.276a1.785 1.785 0 0 1-.71-.496c-.187-.222-.28-.51-.28-.863 0-.415.15-.745.45-.99.3-.254.693-.381 1.18-.381.697 0 1.226.192 1.586.576l-.248.45c-.344-.331-.787-.496-1.326-.496-.308 0-.555.08-.743.242a.748.748 0 0 0-.28.587.75.75 0 0 0 .28.61c.195.154.428.277.697.369.278.084.555.177.833.276.277.1.51.258.697.473.195.207.292.48.292.817 0 .484-.176.853-.528 1.106-.345.253-.776.38-1.294.38-.344 0-.69-.077-1.034-.23-.345-.154-.577-.326-.697-.518l.326-.392c.135.177.349.322.64.438.293.115.57.172.833.172.315 0 .58-.08.798-.241.225-.162.338-.392.338-.692Zm2.361 1.359v-5.183h.584v5.183h-.584Zm-.102-7.199c0-.115.042-.207.124-.276a.441.441 0 0 1 .293-.104.35.35 0 0 1 .258.115.33.33 0 0 1 .124.265c0 .13-.038.234-.113.311a.364.364 0 0 1-.27.115.429.429 0 0 1-.303-.115.426.426 0 0 1-.112-.31Zm2.022 7.959c0-.4.135-.73.404-.99.278-.27.66-.458 1.147-.565a.76.76 0 0 1-.168-.495c0-.2.064-.373.191-.519a1.73 1.73 0 0 1-.776-.656 1.793 1.793 0 0 1-.281-.99c0-.53.184-.968.551-1.314.367-.345.85-.518 1.45-.518.48 0 .904.13 1.271.392h.011l1.44-.392v.564l-1.023.265c.202.307.303.641.303 1.002 0 .522-.187.96-.562 1.313-.367.346-.847.519-1.44.519-.194 0-.363-.016-.506-.047a.665.665 0 0 0-.1.38c0 .17.048.308.145.415.21-.015.368-.023.473-.023.764 0 1.375.146 1.833.438.465.284.697.69.697 1.22 0 .523-.233.926-.697 1.21-.465.284-1.076.426-1.833.426-.765 0-1.38-.142-1.844-.426-.458-.276-.686-.68-.686-1.21Zm.596 0c0 .337.172.602.517.794.352.2.825.3 1.417.3.592 0 1.06-.1 1.405-.3.353-.192.529-.457.529-.794 0-.338-.176-.607-.529-.807-.344-.207-.813-.31-1.405-.31-.585 0-1.053.1-1.406.299-.352.2-.528.472-.528.818Zm.91-5.137a1.21 1.21 0 0 0-.393.921c0 .369.131.676.394.922.262.245.6.368 1.012.368.412 0 .75-.123 1.012-.368a1.21 1.21 0 0 0 .393-.922c0-.368-.135-.675-.405-.921-.262-.246-.596-.369-1-.369-.405 0-.743.123-1.012.369Zm4.737 4.377v-5.183h.585v.725c.202-.23.469-.422.798-.576a2.35 2.35 0 0 1 1.024-.241c.697 0 1.222.188 1.574.564.36.368.54.952.54 1.75v2.96h-.585v-2.844c0-1.244-.555-1.866-1.664-1.866-.33 0-.649.077-.956.23a2.164 2.164 0 0 0-.731.565v3.916h-.585Z" fill="#2C2A3B"/><path d="M12.04 1.178h2.687c.677 0 1.245.237 1.703.71.459.473.688 1.055.688 1.747 0 .691-.23 1.273-.688 1.746-.458.473-1.026.71-1.703.71h-1.704v2.73h-.984V1.177Zm.983 3.963h1.704c.416 0 .755-.142 1.015-.426a1.56 1.56 0 0 0 .402-1.08c0-.437-.133-.797-.401-1.081a1.338 1.338 0 0 0-1.016-.426h-1.704v3.013Zm9.139-.841v-.938h.92V8.82h-.92v-.939c-.451.72-1.118 1.081-2 1.081a2.487 2.487 0 0 1-1.893-.83c-.522-.56-.783-1.24-.783-2.041 0-.793.26-1.47.783-2.03.522-.56 1.153-.841 1.894-.841.881 0 1.548.36 2 1.08ZM20.28 8.046c.536 0 .984-.185 1.344-.557.36-.385.54-.851.54-1.397 0-.553-.18-1.015-.54-1.386a1.778 1.778 0 0 0-1.344-.568c-.53 0-.974.19-1.333.568-.36.37-.54.833-.54 1.386 0 .546.18 1.012.54 1.397.36.372.804.557 1.333.557Zm7.054-2.02c.585.254.878.687.878 1.299 0 .473-.18.866-.54 1.179-.36.305-.856.458-1.491.458-1.058 0-1.767-.437-2.127-1.31l.773-.47c.197.597.652.896 1.364.896.346 0 .618-.077.815-.23a.734.734 0 0 0 .296-.61.67.67 0 0 0-.243-.536c-.155-.138-.367-.207-.635-.207h-.772v-.862h.571c.268 0 .476-.066.624-.197a.725.725 0 0 0 .223-.557.68.68 0 0 0-.265-.567c-.176-.146-.413-.219-.709-.219-.592 0-.994.259-1.206.775l-.751-.447c.374-.8 1.026-1.201 1.957-1.201.564 0 1.016.153 1.354.458.346.299.519.674.519 1.125 0 .553-.212.96-.635 1.223ZM32.13 3.22c.74 0 1.372.28 1.894.84.522.56.783 1.238.783 2.031 0 .8-.261 1.481-.783 2.041a2.487 2.487 0 0 1-1.894.83c-.875 0-1.541-.36-2-1.08v3.122h-.92V3.362h.92V4.3c.459-.72 1.125-1.081 2-1.081Zm-.117 4.825c.53 0 .974-.185 1.334-.557.36-.385.54-.851.54-1.397 0-.553-.18-1.015-.54-1.386a1.766 1.766 0 0 0-1.334-.568c-.536 0-.984.19-1.343.568-.36.37-.54.833-.54 1.386 0 .546.18 1.012.54 1.397.36.372.807.557 1.343.557ZM40.285 4.3v-.938h.92V8.82h-.92v-.939c-.451.72-1.118 1.081-2 1.081a2.487 2.487 0 0 1-1.893-.83c-.522-.56-.783-1.24-.783-2.041 0-.793.26-1.47.783-2.03.522-.56 1.153-.841 1.894-.841.881 0 1.548.36 2 1.08Zm-1.883 3.745c.536 0 .984-.185 1.344-.557.36-.385.54-.851.54-1.397 0-.553-.18-1.015-.54-1.386a1.778 1.778 0 0 0-1.344-.568c-.529 0-.973.19-1.333.568-.36.37-.54.833-.54 1.386 0 .546.18 1.012.54 1.397.36.372.804.557 1.333.557Zm6.6.917c-.783 0-1.428-.266-1.936-.797-.508-.538-.762-1.222-.762-2.052 0-.939.13-1.656.392-2.15.268-.503.81-.958 1.629-1.365l.148-.077.222-.098.233-.11.572-.261c.564-.291.864-.64.899-1.048l.74.436c-.049.255-.13.459-.243.612a1.062 1.062 0 0 1-.063.098c-.036.044-.06.076-.075.098l-.074.077a1.17 1.17 0 0 1-.095.087.558.558 0 0 1-.116.087 5.189 5.189 0 0 1-.698.393l-.106.055-.064.033-.349.153-.339.141c-.472.212-.821.426-1.047.645a1.861 1.861 0 0 0-.487.83c.22-.277.494-.488.826-.634a2.602 2.602 0 0 1 1.036-.218c.67 0 1.231.233 1.683.698.465.473.698 1.074.698 1.802 0 .742-.247 1.357-.74 1.845-.501.48-1.13.72-1.884.72Zm1.704-2.565c0-.488-.156-.885-.466-1.19-.303-.313-.705-.47-1.206-.47-.444 0-.854.15-1.227.448-.36.298-.54.684-.54 1.157 0 .495.166.903.497 1.223.332.32.744.48 1.238.48.501 0 .907-.156 1.217-.47a1.57 1.57 0 0 0 .487-1.178Zm6.363 1.735c-.537.554-1.196.83-1.979.83-.783 0-1.443-.276-1.979-.83-.536-.553-.804-1.233-.804-2.041 0-.808.268-1.488.804-2.041.537-.554 1.196-.83 1.979-.83.783 0 1.442.276 1.978.83.544.56.815 1.24.815 2.041 0 .8-.271 1.481-.815 2.041Zm-1.979-.098a1.78 1.78 0 0 0 1.333-.557c.36-.37.54-.833.54-1.386 0-.553-.18-1.015-.54-1.386a1.783 1.783 0 0 0-1.333-.557 1.77 1.77 0 0 0-1.323.557c-.36.37-.54.833-.54 1.386 0 .553.18 1.015.54 1.386.36.372.801.557 1.323.557Zm3.08-4.672h4.528v.917h-1.799V8.82h-.92V4.28h-1.81v-.917Zm9.508.938v-.938h.92V8.82h-.92v-.939c-.451.72-1.118 1.081-2 1.081a2.487 2.487 0 0 1-1.894-.83c-.522-.56-.783-1.24-.783-2.041 0-.793.261-1.47.783-2.03.522-.56 1.154-.841 1.894-.841.882 0 1.549.36 2 1.08Zm-1.883 3.745c.536 0 .984-.185 1.343-.557.36-.385.54-.851.54-1.397 0-.553-.18-1.015-.54-1.386a1.778 1.778 0 0 0-1.343-.568c-.53 0-.974.19-1.334.568-.36.37-.54.833-.54 1.386 0 .546.18 1.012.54 1.397.36.372.805.557 1.334.557Zm7.859-2.412V3.362h.92V8.82h-.92V6.54h-2.74v2.28h-.92V3.362h.92v2.27h2.74Zm6.786 2.499c-.536.554-1.195.83-1.978.83-.783 0-1.443-.276-1.979-.83-.536-.553-.804-1.233-.804-2.041 0-.808.268-1.488.804-2.041.536-.554 1.196-.83 1.979-.83.783 0 1.442.276 1.978.83.544.56.815 1.24.815 2.041 0 .8-.271 1.481-.814 2.041Zm-1.978-.098a1.78 1.78 0 0 0 1.333-.557c.36-.37.54-.833.54-1.386 0-.553-.18-1.015-.54-1.386a1.783 1.783 0 0 0-1.333-.557 1.77 1.77 0 0 0-1.323.557c-.36.37-.54.833-.54 1.386 0 .553.18 1.015.54 1.386.36.372.801.557 1.323.557Z" fill="#98A0B1"/></svg>