<svg width="144" height="32" fill="none" xmlns="http://www.w3.org/2000/svg"><path d="M44.688 15.946v4.137h-1.942V9.032c.547 0 1.142-.006 1.784-.016.642-.01 1.168-.016 1.579-.016 2.673 0 4.01 1.137 4.01 3.41 0 .842-.216 1.537-.648 2.084-.431.526-.926.884-1.484 1.073l3.458 4.516h-2.352l-3.047-4.137h-1.358Zm1.326-5.13c-.053 0-.137.005-.253.015-.115 0-.279.006-.489.016h-.584v3.284h1.263c.62 0 1.126-.153 1.515-.458.4-.305.6-.721.6-1.247 0-1.074-.684-1.61-2.052-1.61Zm11.527 7.277.521 1.28c-.705.588-1.61.883-2.715.883-1.137 0-2.063-.342-2.779-1.026-.694-.674-1.042-1.573-1.042-2.7 0-1.052.342-1.936 1.026-2.652.685-.716 1.595-1.073 2.732-1.073.936 0 1.731.31 2.384.931.652.621.978 1.41.978 2.368 0 .421-.037.748-.11.979h-5.13c.074.516.3.92.679 1.216.39.294.873.442 1.452.442.79 0 1.458-.216 2.005-.648Zm-2.336-3.773c-1.032 0-1.653.516-1.863 1.547h3.489c.01-.452-.137-.82-.442-1.105-.295-.294-.69-.442-1.184-.442Zm11.678 8.92h-1.816v-3.52a3.147 3.147 0 0 1-1.752.536c-1.126 0-2.026-.337-2.7-1.01-.663-.684-.994-1.59-.994-2.715 0-1.063.384-1.948 1.152-2.653.78-.716 1.753-1.073 2.92-1.073 1.222 0 2.285.284 3.19.852v9.583Zm-3.331-4.673c.61 0 1.115-.216 1.515-.647v-3.063c-.473-.231-.936-.347-1.389-.347-.652 0-1.168.2-1.547.6-.379.389-.568.889-.568 1.5 0 .568.178 1.036.536 1.405.369.368.853.552 1.453.552Zm9.939-5.589h1.815v7.105h-1.815v-.869c-.569.695-1.326 1.042-2.274 1.042-.757 0-1.363-.252-1.815-.758-.453-.505-.679-1.23-.679-2.178v-4.342h1.816v3.963c0 1.084.452 1.626 1.357 1.626.621 0 1.153-.29 1.595-.868v-4.72Zm9.41 5.115.522 1.28c-.706.588-1.61.883-2.716.883-1.136 0-2.063-.342-2.778-1.026-.695-.674-1.042-1.573-1.042-2.7 0-1.052.342-1.936 1.026-2.652.684-.716 1.594-1.073 2.731-1.073.937 0 1.731.31 2.384.931.652.621.979 1.41.979 2.368 0 .421-.037.748-.11.979h-5.132c.074.516.3.92.68 1.216.389.294.873.442 1.452.442.789 0 1.457-.216 2.005-.648Zm-2.336-3.773c-1.031 0-1.652.516-1.863 1.547h3.49c.01-.452-.138-.82-.443-1.105-.295-.294-.69-.442-1.184-.442Zm4.668.647c0-.662.242-1.189.726-1.578.484-.39 1.11-.584 1.879-.584 1.157 0 2.057.3 2.7.9l-.68 1.294a3.052 3.052 0 0 0-1.926-.679c-.252 0-.463.063-.631.19-.169.116-.253.258-.253.426 0 .347.448.637 1.342.868.326.074.616.158.868.253.253.084.511.21.774.379.274.158.484.368.632.631.147.263.22.569.22.916 0 .694-.263 1.247-.789 1.657-.516.411-1.21.616-2.084.616a4.41 4.41 0 0 1-1.815-.394c-.6-.274-.984-.548-1.153-.821l.884-1.184c.2.242.532.447.995.615.474.18.879.269 1.216.269.41.042.7-.09.868-.395.168-.316.058-.574-.332-.774-.158-.084-.405-.173-.742-.268a24.54 24.54 0 0 1-.915-.284 7.573 7.573 0 0 1-.853-.395 1.822 1.822 0 0 1-.679-.647c-.168-.284-.252-.621-.252-1.01Zm7.093 2.416v-6.378h1.816v1.973h2.29v1.705h-2.29v2.59c0 .852.284 1.278.853 1.278.357 0 .72-.137 1.089-.41l.552 1.405c-.578.463-1.278.694-2.1.694-.768 0-1.33-.231-1.689-.694-.347-.474-.52-1.195-.52-2.163Zm9.975 2.7h-.134V9.646h.164c.428 0 .825-.006 1.193-.015a71.78 71.78 0 0 1 1.312-.03c1.004 0 1.889.14 2.654.417.775.269 1.392.647 1.849 1.133a4.562 4.562 0 0 1 1.014 1.626c.229.596.343 1.242.343 1.938 0 1.57-.522 2.863-1.566 3.877-1.033 1.013-2.505 1.52-4.413 1.52-.427 0-.82-.005-1.178-.014a42.585 42.585 0 0 0-1.238-.015Zm2.505-9.707c-.218 0-.541.01-.969.03-.417.01-.701.015-.85.015v8.886c.328 0 .637.006.925.015.288 0 .497.005.626.015h.209c1.62 0 2.873-.427 3.757-1.282.885-.865 1.327-1.978 1.327-3.34 0-1.282-.422-2.326-1.267-3.131-.855-.805-2.107-1.208-3.758-1.208Zm13.113 8.29.254.596c-.607.636-1.432.955-2.475.955-1.074 0-1.934-.319-2.58-.954-.656-.636-.984-1.482-.984-2.535 0-1.014.298-1.849.895-2.505.606-.656 1.441-.984 2.505-.984.864 0 1.59.278 2.176.835.577.546.865 1.277.865 2.192 0 .238-.015.447-.044.626h-5.532c.03.805.293 1.44.79 1.908.497.457 1.148.686 1.953.686.934 0 1.66-.274 2.177-.82Zm-2.46-4.697c-.716 0-1.297.21-1.744.627-.438.417-.692.969-.761 1.655h4.831c-.011-.706-.224-1.263-.641-1.67-.418-.408-.98-.612-1.685-.612Zm8.445 4.354a.884.884 0 0 0-.387-.745 2.87 2.87 0 0 0-.925-.448c-.358-.11-.721-.228-1.088-.357a2.365 2.365 0 0 1-.94-.642c-.249-.298-.372-.67-.372-1.118 0-.537.198-.965.596-1.282.397-.328.919-.492 1.566-.492.924 0 1.625.248 2.102.745l-.328.582c-.458-.427-1.044-.641-1.759-.641-.399 0-.727.104-.985.313a.929.929 0 0 0-.372.76c0 .319.123.582.372.79.258.2.567.358.925.478.367.11.735.228 1.103.357.368.13.676.334.925.612.258.278.387.631.387 1.058 0 .606-.229 1.08-.686 1.417-.447.337-1.024.507-1.729.507-.438 0-.895-.1-1.372-.298-.447-.189-.756-.413-.924-.671l.432-.507c.189.228.472.417.85.566.388.15.755.224 1.103.224.437 0 .795-.104 1.074-.313.288-.22.432-.518.432-.895Zm3.906 1.76h-.775v-6.71h.775v6.71Zm-.91-9.32a.438.438 0 0 1 .164-.357.597.597 0 0 1 .388-.134c.129 0 .244.05.343.149a.424.424 0 0 1 .164.342.55.55 0 0 1-.149.403.456.456 0 0 1-.358.15.579.579 0 0 1-.403-.15.545.545 0 0 1-.149-.402Zm2.681 10.304c0-.507.179-.934.536-1.283.358-.348.865-.59 1.521-.73a.967.967 0 0 1-.223-.641c0-.249.084-.472.253-.671a2.283 2.283 0 0 1-1.029-.85 2.287 2.287 0 0 1-.373-1.282c0-.686.243-1.253.731-1.7.487-.447 1.128-.671 1.923-.671.636 0 1.198.17 1.685.507h.015l1.909-.507v.73l-1.357.343c.268.408.402.84.402 1.298 0 .666-.249 1.232-.745 1.7-.497.447-1.133.67-1.909.67-.278 0-.502-.02-.67-.06a.84.84 0 0 0-.135.493c0 .228.064.407.194.536.377-.02.586-.03.626-.03 1.024 0 1.839.19 2.446.567.606.377.909.904.909 1.58 0 .667-.303 1.184-.909 1.551-.607.377-1.422.567-2.446.567-1.034 0-1.854-.184-2.46-.552-.596-.368-.894-.89-.894-1.565Zm.79 0c0 .437.228.78.686 1.028.466.26 1.093.388 1.878.388.776 0 1.397-.129 1.864-.388.467-.258.701-.601.701-1.028 0-.438-.234-.785-.701-1.044-.458-.268-1.079-.403-1.864-.403-.775 0-1.397.13-1.863.388-.468.259-.701.611-.701 1.059Zm1.208-6.65a1.54 1.54 0 0 0-.522 1.193c0 .477.173.874.522 1.192.347.319.794.477 1.341.477.547 0 .994-.158 1.342-.477a1.55 1.55 0 0 0 .522-1.192 1.53 1.53 0 0 0-.537-1.193c-.348-.319-.79-.477-1.327-.477-.527 0-.974.158-1.341.477Zm7.056 5.666h-.776v-6.71h.776v.94a3.21 3.21 0 0 1 1.073-.761 3.28 3.28 0 0 1 1.342-.298c.934 0 1.635.244 2.102.73.467.487.701 1.243.701 2.267v3.832h-.775V16.4c0-1.61-.736-2.416-2.207-2.416-.428 0-.845.1-1.252.299a2.76 2.76 0 0 0-.984.73v5.07ZM13.81 2.19 2.19 13.81a3.097 3.097 0 0 0 0 4.38l11.62 11.62a3.097 3.097 0 0 0 4.38 0l11.62-11.62a3.097 3.097 0 0 0 0-4.38L18.19 2.19a3.097 3.097 0 0 0-4.38 0Z" fill="#3B3C40"/><path d="M16.035 25.163a9.163 9.163 0 1 0 0-18.327 9.163 9.163 0 0 0 0 18.327Z" fill="#fff"/><path d="M18.746 10.274h-5.342a3.097 3.097 0 0 0-3.096 3.097v5.341a3.097 3.097 0 0 0 3.096 3.097h5.342a3.097 3.097 0 0 0 3.097-3.097v-5.341a3.097 3.097 0 0 0-3.097-3.097Z" fill="#3B3C40"/><path d="M16.02 19.978a3.993 3.993 0 1 0 0-7.986 3.993 3.993 0 0 0 0 7.986Z" fill="#fff"/><path d="m15.42 14.9-.37.37a1.032 1.032 0 0 0 0 1.46l.37.37a1.032 1.032 0 0 0 1.46 0l.37-.37a1.032 1.032 0 0 0 0-1.46l-.37-.37a1.032 1.032 0 0 0-1.46 0Z" fill="#3B3C40"/></svg>