<svg width="120" height="60" fill="none" xmlns="http://www.w3.org/2000/svg"><rect width="120" height="60" rx="30" fill="#fff"/><path d="M89 30.5a1 1 0 1 0 2 0h-2ZM72.814 41.624a1 1 0 0 0-.233-1.395l-7.328-5.225a1 1 0 1 0-1.161 1.628l6.513 4.645-4.645 6.513a1 1 0 1 0 1.629 1.162l5.225-7.328ZM60 41c-8.194 0-15.567-1.275-20.855-3.302-2.648-1.015-4.722-2.199-6.116-3.463C31.635 32.972 31 31.708 31 30.5h-2c0 1.968 1.044 3.73 2.686 5.217 1.642 1.488 3.961 2.782 6.743 3.849C43.999 41.7 51.625 43 60 43v-2ZM31 30.5c0-1.208.635-2.472 2.03-3.735 1.393-1.264 3.467-2.448 6.115-3.463C44.433 21.275 51.806 20 60 20v-2c-8.375 0-16.001 1.3-21.571 3.434-2.782 1.067-5.101 2.36-6.743 3.849C30.044 26.77 29 28.533 29 30.5h2ZM60 20c8.194 0 15.567 1.275 20.855 3.302 2.648 1.015 4.721 2.199 6.116 3.463C88.365 28.028 89 29.292 89 30.5h2c0-1.968-1.044-3.73-2.686-5.217-1.642-1.488-3.961-2.782-6.743-3.849C76.001 19.3 68.375 18 60 18v2Zm11.835 20.057C68.218 40.663 64.215 41 60 41v2c4.319 0 8.433-.346 12.165-.97l-.33-1.973Z" fill="url(#a)"/><rect width="120" height="60" rx="30" fill="url(#b)"/><defs><linearGradient id="a" x1="115.5" y1="19.767" x2="47.52" y2="-23.137" gradientUnits="userSpaceOnUse"><stop stop-color="#D65986"/><stop offset="1" stop-color="#A261F9"/></linearGradient><linearGradient id="b" x1="89.5" y1="32" x2="74" y2="32" gradientUnits="userSpaceOnUse"><stop stop-color="#fff"/><stop offset="1" stop-color="#fff" stop-opacity="0"/></linearGradient></defs></svg>