<svg width="24" height="24" viewBox="0 0 24 24" fill="none" xmlns="http://www.w3.org/2000/svg">
<path d="M17.25 18.7504C17.1516 18.7516 17.0541 18.7322 16.9637 18.6934C16.8733 18.6547 16.792 18.5974 16.725 18.5254L4.725 6.52535C4.425 6.22535 4.425 5.76035 4.725 5.46035C5.025 5.16035 5.49 5.16035 5.79 5.46035L17.775 17.4754C18.075 17.7754 18.075 18.2404 17.775 18.5404C17.625 18.6904 17.43 18.7654 17.25 18.7654V18.7504Z" fill="#282828"/>
<path d="M5.25 18.75C5.15164 18.7512 5.05411 18.7318 4.96369 18.6931C4.87328 18.6543 4.79197 18.5971 4.725 18.525C4.425 18.225 4.425 17.76 4.725 17.46L16.725 5.475C17.025 5.175 17.49 5.175 17.79 5.475C18.09 5.775 18.09 6.24 17.79 6.54L5.775 18.525C5.625 18.675 5.43 18.75 5.25 18.75Z" fill="#282828"/>
</svg>
