<svg width="54" height="54" viewBox="0 0 54 54" fill="none" xmlns="http://www.w3.org/2000/svg">
<path d="M38.25 47.8125H15.75C7.5375 47.8125 2.8125 43.0875 2.8125 34.875V19.125C2.8125 10.9125 7.5375 6.1875 15.75 6.1875H38.25C46.4625 6.1875 51.1875 10.9125 51.1875 19.125V34.875C51.1875 43.0875 46.4625 47.8125 38.25 47.8125ZM15.75 9.5625C9.315 9.5625 6.1875 12.69 6.1875 19.125V34.875C6.1875 41.31 9.315 44.4375 15.75 44.4375H38.25C44.685 44.4375 47.8125 41.31 47.8125 34.875V19.125C47.8125 12.69 44.685 9.5625 38.25 9.5625H15.75Z" fill="url(#paint0_linear_1029_6450)"/>
<path d="M26.9983 28.9574C25.1083 28.9574 23.1958 28.3724 21.7333 27.1799L14.6908 21.5549C13.9708 20.9699 13.8358 19.9124 14.4208 19.1924C15.0058 18.4724 16.0633 18.3374 16.7833 18.9224L23.8258 24.5474C25.5358 25.9199 28.4383 25.9199 30.1483 24.5474L37.1908 18.9224C37.9108 18.3374 38.9908 18.4499 39.5533 19.1924C40.1383 19.9124 40.0258 20.9924 39.2833 21.5549L32.2408 27.1799C30.8008 28.3724 28.8883 28.9574 26.9983 28.9574Z" fill="url(#paint1_linear_1029_6450)"/>
<defs>
<linearGradient id="paint0_linear_1029_6450" x1="71.7469" y1="7.57498" x2="0.721884" y2="-12.3944" gradientUnits="userSpaceOnUse">
<stop stop-color="#D65986"/>
<stop offset="1" stop-color="#A261F9"/>
</linearGradient>
<linearGradient id="paint1_linear_1029_6450" x1="50.9219" y1="18.8962" x2="20.82" y2="0.793927" gradientUnits="userSpaceOnUse">
<stop stop-color="#D65986"/>
<stop offset="1" stop-color="#A261F9"/>
</linearGradient>
</defs>
</svg>
