<svg width="36" height="37" viewBox="0 0 36 37" fill="none" xmlns="http://www.w3.org/2000/svg">
<path d="M26.175 34.625C24.48 34.625 22.695 34.22 20.85 33.44C19.05 32.675 17.235 31.625 15.465 30.35C13.71 29.06 12.015 27.62 10.41 26.045C8.82 24.44 7.38 22.745 6.105 21.005C4.815 19.205 3.78 17.405 3.045 15.665C2.265 13.805 1.875 12.005 1.875 10.31C1.875 9.14 2.085 8.03 2.49 6.995C2.91 5.93 3.585 4.94 4.5 4.085C5.655 2.945 6.975 2.375 8.385 2.375C8.97 2.375 9.57 2.51 10.08 2.75C10.665 3.02 11.16 3.425 11.52 3.965L15 8.87C15.315 9.305 15.555 9.725 15.72 10.145C15.915 10.595 16.02 11.045 16.02 11.48C16.02 12.05 15.855 12.605 15.54 13.13C15.315 13.535 14.97 13.97 14.535 14.405L13.515 15.47C13.53 15.515 13.545 15.545 13.56 15.575C13.74 15.89 14.1 16.43 14.79 17.24C15.525 18.08 16.215 18.845 16.905 19.55C17.79 20.42 18.525 21.11 19.215 21.68C20.07 22.4 20.625 22.76 20.955 22.925L20.925 23L22.02 21.92C22.485 21.455 22.935 21.11 23.37 20.885C24.195 20.375 25.245 20.285 26.295 20.72C26.685 20.885 27.105 21.11 27.555 21.425L32.535 24.965C33.09 25.34 33.495 25.82 33.735 26.39C33.96 26.96 34.065 27.485 34.065 28.01C34.065 28.73 33.9 29.45 33.585 30.125C33.27 30.8 32.88 31.385 32.385 31.925C31.53 32.87 30.6 33.545 29.52 33.98C28.485 34.4 27.36 34.625 26.175 34.625ZM8.385 4.625C7.56 4.625 6.795 4.985 6.06 5.705C5.37 6.35 4.89 7.055 4.59 7.82C4.275 8.6 4.125 9.425 4.125 10.31C4.125 11.705 4.455 13.22 5.115 14.78C5.79 16.37 6.735 18.02 7.935 19.67C9.135 21.32 10.5 22.925 12 24.44C13.5 25.925 15.12 27.305 16.785 28.52C18.405 29.705 20.07 30.665 21.72 31.355C24.285 32.45 26.685 32.705 28.665 31.88C29.43 31.565 30.105 31.085 30.72 30.395C31.065 30.02 31.335 29.615 31.56 29.135C31.74 28.76 31.83 28.37 31.83 27.98C31.83 27.74 31.785 27.5 31.665 27.23C31.62 27.14 31.53 26.975 31.245 26.78L26.265 23.24C25.965 23.03 25.695 22.88 25.44 22.775C25.11 22.64 24.975 22.505 24.465 22.82C24.165 22.97 23.895 23.195 23.595 23.495L22.455 24.62C21.87 25.19 20.97 25.325 20.28 25.07L19.875 24.89C19.26 24.56 18.54 24.05 17.745 23.375C17.025 22.76 16.245 22.04 15.3 21.11C14.565 20.36 13.83 19.565 13.065 18.68C12.36 17.855 11.85 17.15 11.535 16.565L11.355 16.115C11.265 15.77 11.235 15.575 11.235 15.365C11.235 14.825 11.43 14.345 11.805 13.97L12.93 12.8C13.23 12.5 13.455 12.215 13.605 11.96C13.725 11.765 13.77 11.6 13.77 11.45C13.77 11.33 13.725 11.15 13.65 10.97C13.545 10.73 13.38 10.46 13.17 10.175L9.69 5.255C9.54 5.045 9.36 4.895 9.135 4.79C8.895 4.685 8.64 4.625 8.385 4.625ZM20.925 23.015L20.685 24.035L21.09 22.985C21.015 22.97 20.955 22.985 20.925 23.015Z" fill="#BB416C"/>
<path d="M26.175 34.625C24.48 34.625 22.695 34.22 20.85 33.44C19.05 32.675 17.235 31.625 15.465 30.35C13.71 29.06 12.015 27.62 10.41 26.045C8.82 24.44 7.38 22.745 6.105 21.005C4.815 19.205 3.78 17.405 3.045 15.665C2.265 13.805 1.875 12.005 1.875 10.31C1.875 9.14 2.085 8.03 2.49 6.995C2.91 5.93 3.585 4.94 4.5 4.085C5.655 2.945 6.975 2.375 8.385 2.375C8.97 2.375 9.57 2.51 10.08 2.75C10.665 3.02 11.16 3.425 11.52 3.965L15 8.87C15.315 9.305 15.555 9.725 15.72 10.145C15.915 10.595 16.02 11.045 16.02 11.48C16.02 12.05 15.855 12.605 15.54 13.13C15.315 13.535 14.97 13.97 14.535 14.405L13.515 15.47C13.53 15.515 13.545 15.545 13.56 15.575C13.74 15.89 14.1 16.43 14.79 17.24C15.525 18.08 16.215 18.845 16.905 19.55C17.79 20.42 18.525 21.11 19.215 21.68C20.07 22.4 20.625 22.76 20.955 22.925L20.925 23L22.02 21.92C22.485 21.455 22.935 21.11 23.37 20.885C24.195 20.375 25.245 20.285 26.295 20.72C26.685 20.885 27.105 21.11 27.555 21.425L32.535 24.965C33.09 25.34 33.495 25.82 33.735 26.39C33.96 26.96 34.065 27.485 34.065 28.01C34.065 28.73 33.9 29.45 33.585 30.125C33.27 30.8 32.88 31.385 32.385 31.925C31.53 32.87 30.6 33.545 29.52 33.98C28.485 34.4 27.36 34.625 26.175 34.625ZM8.385 4.625C7.56 4.625 6.795 4.985 6.06 5.705C5.37 6.35 4.89 7.055 4.59 7.82C4.275 8.6 4.125 9.425 4.125 10.31C4.125 11.705 4.455 13.22 5.115 14.78C5.79 16.37 6.735 18.02 7.935 19.67C9.135 21.32 10.5 22.925 12 24.44C13.5 25.925 15.12 27.305 16.785 28.52C18.405 29.705 20.07 30.665 21.72 31.355C24.285 32.45 26.685 32.705 28.665 31.88C29.43 31.565 30.105 31.085 30.72 30.395C31.065 30.02 31.335 29.615 31.56 29.135C31.74 28.76 31.83 28.37 31.83 27.98C31.83 27.74 31.785 27.5 31.665 27.23C31.62 27.14 31.53 26.975 31.245 26.78L26.265 23.24C25.965 23.03 25.695 22.88 25.44 22.775C25.11 22.64 24.975 22.505 24.465 22.82C24.165 22.97 23.895 23.195 23.595 23.495L22.455 24.62C21.87 25.19 20.97 25.325 20.28 25.07L19.875 24.89C19.26 24.56 18.54 24.05 17.745 23.375C17.025 22.76 16.245 22.04 15.3 21.11C14.565 20.36 13.83 19.565 13.065 18.68C12.36 17.855 11.85 17.15 11.535 16.565L11.355 16.115C11.265 15.77 11.235 15.575 11.235 15.365C11.235 14.825 11.43 14.345 11.805 13.97L12.93 12.8C13.23 12.5 13.455 12.215 13.605 11.96C13.725 11.765 13.77 11.6 13.77 11.45C13.77 11.33 13.725 11.15 13.65 10.97C13.545 10.73 13.38 10.46 13.17 10.175L9.69 5.255C9.54 5.045 9.36 4.895 9.135 4.79C8.895 4.685 8.64 4.625 8.385 4.625ZM20.925 23.015L20.685 24.035L21.09 22.985C21.015 22.97 20.955 22.985 20.925 23.015Z" fill="url(#paint0_linear_1536_4931)"/>
<defs>
<linearGradient id="paint0_linear_1536_4931" x1="2.34152" y1="4.79376" x2="34.9521" y2="5.79721" gradientUnits="userSpaceOnUse">
<stop stop-color="#D65986"/>
<stop offset="1" stop-color="#A261F9"/>
</linearGradient>
</defs>
</svg>
