<svg width="184" height="107" viewBox="0 0 184 107" fill="none" xmlns="http://www.w3.org/2000/svg">
<g clip-path="url(#clip0_1029_6507)">
<path d="M90.068 6.27838C89.8971 -0.0350685 90.9996 -6.31823 93.3096 -12.1959C95.6196 -18.0736 99.0897 -23.4253 103.513 -27.9315C107.936 -32.4376 113.221 -36.0058 119.053 -38.423C124.885 -40.8401 131.144 -42.0567 137.456 -42.0001C163.65 -41.7665 184.297 -19.7808 183.995 6.42651C183.062 88.0395 101.428 107.006 101.428 107.006L97.8179 95.4345C97.8179 95.4345 132.627 82.781 146.083 51.1271C139.381 52.4447 132.472 52.2847 125.838 50.6581C119.204 49.0316 113.005 45.9776 107.671 41.7089C102.337 37.4403 97.9976 32.0595 94.9546 25.9415C91.9115 19.8235 90.2381 13.1152 90.0509 6.28407L90.068 6.27838Z" fill="#F3F0FF"/>
<path d="M-25.9828 6.27838C-26.1536 -0.0350685 -25.0512 -6.31823 -22.7412 -12.1959C-20.4313 -18.0736 -16.9612 -23.4253 -12.5381 -27.9315C-8.1151 -32.4376 -2.82985 -36.0058 3.00204 -38.423C8.83393 -40.8401 15.0929 -42.0567 21.4051 -42.0001C47.5989 -41.7665 68.2464 -19.7808 67.9446 6.42651C67.0108 88.0395 -14.6227 107.006 -14.6227 107.006L-18.2329 95.4345C-18.2329 95.4345 16.5764 82.781 30.032 51.1271C23.33 52.4447 16.4214 52.2847 9.78751 50.6581C3.1536 49.0316 -3.0462 45.9776 -8.37995 41.7089C-13.7137 37.4403 -18.0532 32.0595 -21.0963 25.9415C-24.1393 19.8235 -25.8127 13.1152 -25.9999 6.28407L-25.9828 6.27838Z" fill="#F3F0FF"/>
</g>
<defs>
<clipPath id="clip0_1029_6507">
<rect width="184" height="107" fill="white"/>
</clipPath>
</defs>
</svg>
