<svg xmlns="http://www.w3.org/2000/svg" width="70" height="70" viewBox="0 0 70 70" fill="none">
    <g clip-path="url(#clip0_1366_9724)">
        <path fill-rule="evenodd" clip-rule="evenodd" d="M35 0.826172L34.496 1.70117L29.6149 10.1446H33.25V40.2306L7.1939 55.2736L5.376 52.125L0 61.4483H1.0087L10.7625 61.4539L8.9439 58.3053L35 43.2623L61.0561 58.3053L59.2375 61.4539L70 61.4483L69.496 60.5733L64.624 52.125L62.8061 55.2743L36.75 40.2313V10.1439H40.3851L35 0.826172Z" fill="url(#paint0_linear_1366_9724)"/>
        <path fill-rule="evenodd" clip-rule="evenodd" d="M34.3408 19.9164L13.8686 33.3417C13.3968 33.6826 13.2701 34.0704 13.2617 34.4232V54.4852C13.2617 54.9262 13.4913 55.3364 13.8686 55.5667L34.3408 68.9913C34.8343 69.2608 35.3362 69.2153 35.6694 68.9843L56.1318 55.5667C56.3172 55.4536 56.4704 55.2947 56.5766 55.1053C56.6829 54.9159 56.7387 54.7024 56.7387 54.4852V34.4232C56.7345 33.8884 56.5077 33.6063 56.1122 33.3284L35.6596 19.9164C35.1724 19.6385 34.7902 19.7708 34.3408 19.9164ZM35.0002 22.4784L52.8607 34.3126L34.989 46.3568L16.9612 34.4225L35.0002 22.4784ZM15.7922 36.6765L33.7346 48.5597V65.6572L15.7936 53.774L15.7922 36.6765ZM54.2082 36.6765V53.7733L36.2658 65.6565V48.5583L54.2082 36.6765Z" fill="url(#paint1_linear_1366_9724)"/>
    </g>
    <defs>
        <linearGradient id="paint0_linear_1366_9724" x1="99.75" y1="2.84707" x2="-3.1231" y2="-25.8882" gradientUnits="userSpaceOnUse">
            <stop stop-color="#D65986"/>
            <stop offset="1" stop-color="#A261F9"/>
        </linearGradient>
        <linearGradient id="paint1_linear_1366_9724" x1="75.2164" y1="21.4013" x2="9.32139" y2="7.3771" gradientUnits="userSpaceOnUse">
            <stop stop-color="#D65986"/>
            <stop offset="1" stop-color="#A261F9"/>
        </linearGradient>
        <clipPath id="clip0_1366_9724">
            <rect width="70" height="70" fill="white"/>
        </clipPath>
    </defs>
</svg>