<svg width="153" height="81" viewBox="0 0 153 81" fill="none" xmlns="http://www.w3.org/2000/svg">
<path d="M82.4671 -77.3576C82.2048 -79.8836 82.1009 -82.6366 82.0471 -86.3712C74.7849 -94.9202 64.0461 -98.9594 53.1528 -98.6456C47.3971 -98.4888 40.8882 -96.9986 36.0982 -95.3515L82.4671 -77.3576ZM82.4671 -77.3576C82.4084 -77.3293 82.3496 -77.3009 82.2909 -77.2722L82.53 -76.7831L83.0708 -76.8453C83.0637 -76.907 83.0567 -76.9688 83.0498 -77.0307C83.398 -77.1922 83.7462 -77.3449 84.0944 -77.4889L84.0558 -77.8223C82.1823 -93.3319 94.4856 -106.371 105.997 -115.116C106.475 -114.747 106.951 -114.381 107.422 -114.018C120.506 -103.951 130.79 -96.0374 129 -78.0772L82.4671 -77.3576ZM54.253 -46.0401L54.6629 -46.1446V-46.4904C54.9015 -47.1382 55.1569 -47.7834 55.429 -48.4094L55.855 -49.3897L54.8116 -49.1579C53.2009 -48.7999 51.2563 -48.2316 49.2532 -47.6463C48.4333 -47.4067 47.6036 -47.1642 46.783 -46.9321C44.0258 -46.1524 41.3755 -45.491 39.4038 -45.3769C34.2369 -50.0171 29.7599 -57.7695 26.5604 -66.084C23.3915 -74.3193 21.5056 -83.0281 21.4255 -89.6714L36.2752 -94.8367C41.0286 -96.4712 47.4816 -97.9465 53.1676 -98.1014L53.1685 -98.1015C63.8568 -98.4093 74.3668 -94.4717 81.5057 -86.1669C81.5646 -82.2446 81.682 -79.3907 81.9891 -76.7208L82.0772 -75.9558L82.769 -76.294C83.2806 -76.544 83.7918 -76.7746 84.3025 -76.9859L84.6825 -77.1431L84.6352 -77.5516L84.5966 -77.8849L84.5963 -77.8876C83.68 -85.4726 86.225 -92.4792 90.4571 -98.6997C94.6101 -104.804 100.368 -110.12 105.995 -114.43C106.356 -114.152 106.716 -113.875 107.073 -113.601C113.398 -108.733 118.997 -104.424 122.918 -99.2671C127.098 -93.7685 129.372 -87.2977 128.459 -78.1311L128.456 -78.1042V-78.0772V-77.9203V-77.5513L128.799 -77.4146C129.33 -77.2026 129.863 -76.9707 130.406 -76.7348L131.099 -76.433L131.165 -77.1867C131.438 -80.313 131.477 -83.5584 131.204 -87.0205C131.19 -87.2009 131.261 -87.4747 131.499 -87.8557C131.733 -88.2283 132.093 -88.6489 132.564 -89.1043C133.504 -90.014 134.82 -91.0015 136.246 -91.9526C139.096 -93.8542 142.3 -95.5543 143.591 -96.1286L143.593 -96.1292C149.412 -98.7345 158.185 -98.5474 166.941 -96.9314C175.509 -95.3501 183.937 -92.4246 189.331 -89.5671C188.194 -73.3378 183.302 -56.7985 171.529 -45.5065C171.13 -45.5599 170.513 -45.6957 169.734 -45.8955C168.806 -46.1336 167.696 -46.4495 166.55 -46.7839C166.042 -46.9322 165.525 -47.0844 165.014 -47.235C163.237 -47.7588 161.529 -48.2623 160.471 -48.5095L160.471 -48.5096L159.544 -48.7253L158.534 -48.9603L158.914 -47.9955C158.967 -47.8611 159.019 -47.7287 159.071 -47.5977C159.25 -47.1476 159.423 -46.7131 159.584 -46.265L159.683 -45.9934L159.963 -45.9223L160.194 -45.8637C166.133 -44.3466 176.827 -39.9729 181.789 -37.172L181.79 -37.1718C183.494 -36.2119 185.611 -34.5387 187.576 -32.6975C189.54 -30.8565 191.313 -28.8837 192.343 -27.3435L192.344 -27.343C198.263 -18.5143 201.661 -9.03384 204.105 1.49577C204.167 1.76445 204.231 2.0385 204.295 2.31738C205.442 7.26586 206.942 13.7361 207.097 18.7439C205.227 20.2003 202.244 21.6304 198.596 22.9483C194.824 24.3112 190.389 25.5375 185.843 26.5449C176.736 28.5632 167.261 29.6871 161.835 29.3005L161.834 29.3005C153.021 28.6821 142.163 23.7385 136.081 17.2175L135.784 16.8988L135.408 17.119C134.918 17.4058 134.408 17.6746 133.884 17.9501L133.215 18.3022L133.761 18.8251C135.145 20.15 136.361 21.0972 137.391 21.8944L137.467 21.9531C138.472 22.7298 139.266 23.344 139.902 24.0395C141.152 25.4057 141.841 27.142 141.841 31.2357C141.841 44.4797 135.859 54.2236 128.351 61.9592C124.594 65.8303 120.461 69.1926 116.508 72.236C115.352 73.1263 114.209 73.9911 113.094 74.834C110.561 76.7503 108.177 78.5531 106.133 80.2841C105.307 79.5783 104.466 78.8641 103.615 78.1409C96.8446 72.3889 89.4036 66.0671 83.3813 58.9023C76.4987 50.7142 71.5244 41.4872 71.5244 30.8435C71.5244 26.7447 72.1469 25.0523 73.4043 23.734C74.0614 23.0452 74.9095 22.4396 76.0255 21.6615L76.2051 21.5363C77.2749 20.791 78.5519 19.9013 80.0373 18.6752L80.6601 18.1612L79.95 17.7767C79.3688 17.462 78.7992 17.1535 78.2502 16.8268L77.8913 16.6133L77.5921 16.9045C67.2267 26.9917 55.1334 29.9741 42.7257 29.1973C30.4106 28.4263 17.802 23.9517 6.31154 19.0306C6.23299 13.5975 7.77663 6.32151 8.96945 1.34317L8.96971 1.34209C10.458 -4.92546 13.1477 -12.8919 16.9095 -20.1229C20.6786 -27.3682 25.4863 -33.8018 31.1755 -37.0966L30.9026 -37.5677L31.1755 -37.0966C37.4175 -40.7121 45.5957 -43.8331 54.253 -46.0401ZM130.096 -77.4626C129.731 -77.6201 129.366 -77.7747 129 -77.9203L143.37 -96.626C140.724 -95.4496 130.449 -89.7633 130.661 -86.979C130.915 -83.7588 130.897 -80.7285 130.67 -77.8071C130.725 -77.7832 130.78 -77.7592 130.835 -77.7353L130.84 -77.7332L130.623 -77.234L130.08 -77.2814C130.086 -77.3417 130.091 -77.4021 130.096 -77.4626Z" fill="white" fill-opacity="0.3" stroke="white" stroke-width="1.08879"/>
</svg>
