<svg width="54" height="54" viewBox="0 0 54 54" fill="none" xmlns="http://www.w3.org/2000/svg">
<path fill-rule="evenodd" clip-rule="evenodd" d="M17.7073 47.4525C20.3173 49.95 23.6698 51.21 26.9998 51.21C30.3298 51.21 33.6823 49.95 36.2923 47.4525C42.9298 41.0625 50.2648 30.8925 47.5198 18.765C45.0223 7.74 35.4148 2.8125 27.0223 2.8125H26.9998C18.6073 2.8125 8.99979 7.74 6.50229 18.7425C3.73479 30.87 11.0698 41.0625 17.7073 47.4525ZM18.293 23.1752C18.293 27.9902 22.208 31.8827 27.0005 31.8827C31.793 31.8827 35.708 28.0127 35.708 23.1977C35.708 18.3827 31.793 14.4902 27.0005 14.4902C22.208 14.4902 18.293 18.3602 18.293 23.1752Z" fill="url(#paint0_linear_812_3942)"/>
<defs>
<linearGradient id="paint0_linear_812_3942" x1="66.0499" y1="4.42573" x2="2.02935" y2="-9.0821" gradientUnits="userSpaceOnUse">
<stop stop-color="#D65986"/>
<stop offset="1" stop-color="#A261F9"/>
</linearGradient>
</defs>
</svg>
