<svg width="54" height="54" fill="none" xmlns="http://www.w3.org/2000/svg"><path fill-rule="evenodd" clip-rule="evenodd" d="M17.707 47.453A13.434 13.434 0 0 0 27 51.21c3.33 0 6.682-1.26 9.292-3.758 6.638-6.39 13.973-16.56 11.228-28.687C45.022 7.74 35.415 2.812 27.022 2.812H27c-8.393 0-18 4.928-20.498 15.93-2.767 12.128 4.568 22.32 11.205 28.71Zm.586-24.278c0 4.815 3.915 8.708 8.707 8.708 4.793 0 8.708-3.87 8.708-8.685s-3.915-8.708-8.707-8.708c-4.793 0-8.708 3.87-8.708 8.685Z" fill="url(#a)"/><defs><linearGradient id="a" x1="66.05" y1="4.426" x2="2.029" y2="-9.082" gradientUnits="userSpaceOnUse"><stop stop-color="#D65986"/><stop offset="1" stop-color="#A261F9"/></linearGradient></defs></svg>