<svg width="184" height="107" fill="none" xmlns="http://www.w3.org/2000/svg"><g clip-path="url(#a)" fill="#F3F0FF"><path d="M90.068 6.278a47.028 47.028 0 0 1 13.445-34.21A46.981 46.981 0 0 1 137.456-42c26.194.233 46.841 22.22 46.539 48.427-.933 81.612-82.567 100.579-82.567 100.579l-3.61-11.572s34.809-12.653 48.265-44.307a46.968 46.968 0 0 1-38.412-9.418 47.033 47.033 0 0 1-17.62-35.425l.017-.006Zm-116.051 0a47.03 47.03 0 0 1 13.445-34.21A46.983 46.983 0 0 1 21.405-42c26.194.233 46.841 22.22 46.54 48.427-.934 81.612-82.568 100.579-82.568 100.579l-3.61-11.572s34.81-12.653 48.265-44.307A46.965 46.965 0 0 1-8.38 41.71 47.01 47.01 0 0 1-26 6.284l.017-.006Z"/></g><defs><clipPath id="a"><path fill="#fff" d="M0 0h184v107H0z"/></clipPath></defs></svg>