<svg width="153" height="81" fill="none" xmlns="http://www.w3.org/2000/svg"><path d="M82.467-77.358c-.262-2.526-.366-5.279-.42-9.013-7.262-8.55-18-12.588-28.894-12.275-5.756.157-12.265 1.647-17.055 3.294l46.37 17.994Zm0 0-.176.086.239.489.54-.062a52.453 52.453 0 0 1-.02-.186c.348-.161.696-.314 1.044-.458l-.038-.333c-1.874-15.51 10.43-28.549 21.941-37.294l1.425 1.098c13.084 10.067 23.368 17.98 21.578 35.94l-46.533.72ZM54.253-46.04l.41-.105v-.345c.239-.648.494-1.293.766-1.92l.426-.98-1.043.232c-1.611.358-3.556.926-5.559 1.512-.82.24-1.65.482-2.47.714-2.757.78-5.407 1.441-7.38 1.555-5.166-4.64-9.643-12.392-12.843-20.707-3.168-8.235-5.054-16.944-5.134-23.587l14.85-5.166c4.753-1.634 11.206-3.11 16.892-3.264 10.689-.308 21.199 3.63 28.338 11.934.059 3.922.176 6.776.483 9.446l.088.765.692-.338c.512-.25 1.023-.48 1.533-.692l.38-.157-.047-.409-.038-.333v-.003c-.917-7.585 1.628-14.591 5.86-20.812 4.153-6.104 9.911-11.42 15.538-15.73l1.078.829c6.325 4.868 11.924 9.177 15.845 14.334 4.18 5.498 6.454 11.97 5.541 21.136l-.003.027v.553l.343.136c.531.212 1.064.444 1.607.68l.693.302.066-.754a58.96 58.96 0 0 0 .039-9.834c-.014-.18.057-.454.295-.835.234-.372.594-.793 1.065-1.248.94-.91 2.256-1.897 3.682-2.849 2.85-1.901 6.054-3.601 7.345-4.176h.002c5.819-2.605 14.592-2.418 23.348-.802 8.568 1.58 16.996 4.506 22.39 7.364-1.137 16.23-6.029 32.768-17.802 44.06-.399-.053-1.016-.189-1.795-.389-.928-.238-2.038-.553-3.184-.888-.508-.148-1.025-.3-1.536-.451-1.777-.524-3.485-1.027-4.543-1.275l-.927-.215-1.01-.235.38.965.157.397c.179.45.352.885.513 1.333l.099.272.28.07.231.06c5.939 1.516 16.633 5.89 21.595 8.691h.001c1.704.96 3.821 2.633 5.786 4.474 1.964 1.841 3.737 3.814 4.767 5.355h.001c5.919 8.829 9.317 18.31 11.761 28.839l.19.821c1.147 4.949 2.647 11.42 2.802 16.427-1.87 1.456-4.853 2.886-8.501 4.204-3.772 1.363-8.207 2.59-12.753 3.597-9.107 2.018-18.582 3.142-24.008 2.755h-.001c-8.813-.618-19.671-5.562-25.753-12.082l-.297-.32-.376.221c-.49.287-1 .556-1.524.831l-.669.352.546.523c1.384 1.325 2.6 2.272 3.63 3.07l.076.058c1.005.777 1.799 1.391 2.435 2.087 1.25 1.366 1.939 3.102 1.939 7.196 0 13.244-5.982 22.988-13.49 30.723-3.757 3.871-7.89 7.234-11.843 10.277-1.156.89-2.299 1.755-3.414 2.598-2.533 1.916-4.917 3.72-6.961 5.45-.826-.706-1.667-1.42-2.518-2.143-6.77-5.752-14.211-12.074-20.234-19.239-6.882-8.188-11.857-17.415-11.857-28.059 0-4.098.623-5.79 1.88-7.109.657-.689 1.505-1.294 2.621-2.073l.18-.125c1.07-.745 2.347-1.635 3.832-2.86l.623-.515-.71-.384a48.272 48.272 0 0 1-1.7-.95l-.359-.214-.299.291c-10.365 10.088-22.459 13.07-34.866 12.293-12.315-.77-24.924-5.245-36.414-10.166-.079-5.433 1.465-12.71 2.657-17.688 1.489-6.268 4.179-14.235 7.94-21.466 3.77-7.245 8.577-13.679 14.267-16.974l-.273-.47.273.47c6.241-3.615 14.42-6.736 23.077-8.943Zm75.843-31.423c-.365-.157-.73-.312-1.096-.457l14.37-18.706c-2.646 1.176-12.921 6.863-12.709 9.647.254 3.22.236 6.25.009 9.172l.165.072.005.002-.217.499-.543-.047.016-.182Z" fill="#fff" fill-opacity=".3" stroke="#fff" stroke-width="1.089"/></svg>