<svg width="1920" height="1356" fill="none" xmlns="http://www.w3.org/2000/svg"><g clip-path="url(#a)"><g opacity=".2" filter="url(#b)"><path d="M1199.54 687.939c211.48-21.672-18.85 335.621 132.51 348.871 151.36 13.25 22.54 304.85 490.41 309.15 258.31 2.37 469.63-34.68 465.95-216.88 175.84-371.124-69.17-967.485-402.67-1186.916C1540.56-284.957 377.833 79.648-183.163-318.552l-14.027-10.21a726.299 726.299 0 0 0 14.027 10.21L1199.54 687.939Z" fill="#EAD3D4"/><path d="M1199.54 687.939c211.48-21.672-18.85 335.621 132.51 348.871 151.36 13.25 22.54 304.85 490.41 309.15 258.31 2.37 469.63-34.68 465.95-216.88 175.84-371.124-69.17-967.485-402.67-1186.916C1540.56-284.957 377.833 79.648-183.163-318.552l-14.027-10.21a726.299 726.299 0 0 0 14.027 10.21L1199.54 687.939Z" fill="url(#c)"/></g><g filter="url(#d)"><path d="M828.577-186.223c110.842-53.552 350.003 33.02 395.963 43.706l776.93 342.28 234.29 657.814C1723.78 786.278 267.903 1202.98-44.144 1174.85c-422.612-38.1-708.514-422.548-518.093-689.115 181.285-253.779 977.334-348.722 1088.296-382.896C637.021 68.666 685.051-116.88 828.577-186.223Z" fill="#CFC3EC"/><path d="M828.577-186.223c110.842-53.552 350.003 33.02 395.963 43.706l776.93 342.28 234.29 657.814C1723.78 786.278 267.903 1202.98-44.144 1174.85c-422.612-38.1-708.514-422.548-518.093-689.115 181.285-253.779 977.334-348.722 1088.296-382.896C637.021 68.666 685.051-116.88 828.577-186.223Z" fill="#fff" fill-opacity=".2"/><path d="M828.577-186.223c110.842-53.552 350.003 33.02 395.963 43.706l776.93 342.28 234.29 657.814C1723.78 786.278 267.903 1202.98-44.144 1174.85c-422.612-38.1-708.514-422.548-518.093-689.115 181.285-253.779 977.334-348.722 1088.296-382.896C637.021 68.666 685.051-116.88 828.577-186.223Z" fill="url(#e)"/><path d="M828.577-186.223c110.842-53.552 350.003 33.02 395.963 43.706l776.93 342.28 234.29 657.814C1723.78 786.278 267.903 1202.98-44.144 1174.85c-422.612-38.1-708.514-422.548-518.093-689.115 181.285-253.779 977.334-348.722 1088.296-382.896C637.021 68.666 685.051-116.88 828.577-186.223Z" fill="url(#f)" fill-opacity=".8"/><path d="M828.577-186.223c110.842-53.552 350.003 33.02 395.963 43.706l776.93 342.28 234.29 657.814C1723.78 786.278 267.903 1202.98-44.144 1174.85c-422.612-38.1-708.514-422.548-518.093-689.115 181.285-253.779 977.334-348.722 1088.296-382.896C637.021 68.666 685.051-116.88 828.577-186.223Z" fill="url(#g)"/><path d="M828.577-186.223c110.842-53.552 350.003 33.02 395.963 43.706l776.93 342.28 234.29 657.814C1723.78 786.278 267.903 1202.98-44.144 1174.85c-422.612-38.1-708.514-422.548-518.093-689.115 181.285-253.779 977.334-348.722 1088.296-382.896C637.021 68.666 685.051-116.88 828.577-186.223Z" fill="url(#h)" fill-opacity=".3"/><path d="M828.577-186.223c110.842-53.552 350.003 33.02 395.963 43.706l776.93 342.28 234.29 657.814C1723.78 786.278 267.903 1202.98-44.144 1174.85c-422.612-38.1-708.514-422.548-518.093-689.115 181.285-253.779 977.334-348.722 1088.296-382.896C637.021 68.666 685.051-116.88 828.577-186.223Z" fill="url(#i)" fill-opacity=".5"/></g></g><defs><linearGradient id="c" x1="2007.05" y1="1279.27" x2="1114.95" y2="720.277" gradientUnits="userSpaceOnUse"><stop stop-color="#F8F8F8"/><stop offset="1" stop-color="#FF3641"/><stop offset="1" stop-color="#FCD8D0" stop-opacity="0"/></linearGradient><linearGradient id="e" x1="-399.669" y1="274.703" x2="147.259" y2="608.281" gradientUnits="userSpaceOnUse"><stop stop-color="#E0DAFD"/><stop offset="1" stop-color="#E0DAFD" stop-opacity="0"/></linearGradient><linearGradient id="f" x1="950.701" y1="312.568" x2="730.101" y2="799.166" gradientUnits="userSpaceOnUse"><stop stop-color="#E7DDFF"/><stop offset="1" stop-color="#E7DDFF" stop-opacity="0"/></linearGradient><linearGradient id="g" x1="1302.95" y1="278.212" x2="967.636" y2="752.768" gradientUnits="userSpaceOnUse"><stop stop-color="#EFE6FF"/><stop offset="1" stop-color="#EFE6FF" stop-opacity="0"/></linearGradient><linearGradient id="h" x1="328.637" y1="153.077" x2="405.748" y2="420.675" gradientUnits="userSpaceOnUse"><stop stop-color="#EEEAFF"/><stop offset="1" stop-color="#EEEAFF" stop-opacity="0"/></linearGradient><filter id="b" x="-397.191" y="-528.762" width="2944.18" height="2074.83" filterUnits="userSpaceOnUse" color-interpolation-filters="sRGB"><feFlood flood-opacity="0" result="BackgroundImageFix"/><feBlend in="SourceGraphic" in2="BackgroundImageFix" result="shape"/><feGaussianBlur stdDeviation="100" result="effect1_foregroundBlur_1522_6073"/></filter><filter id="d" x="-822.383" y="-403.567" width="3258.14" height="1779.78" filterUnits="userSpaceOnUse" color-interpolation-filters="sRGB"><feFlood flood-opacity="0" result="BackgroundImageFix"/><feBlend in="SourceGraphic" in2="BackgroundImageFix" result="shape"/><feGaussianBlur stdDeviation="100" result="effect1_foregroundBlur_1522_6073"/></filter><radialGradient id="i" cx="0" cy="0" r="1" gradientUnits="userSpaceOnUse" gradientTransform="rotate(141.321 585.697 388.273) scale(361.799 497.129)"><stop stop-color="#fff"/><stop offset="1" stop-color="#fff" stop-opacity="0"/></radialGradient><clipPath id="a"><path fill="#fff" d="M0 0h1920v6649H0z"/></clipPath></defs></svg>