<svg width="400" height="109" fill="none" xmlns="http://www.w3.org/2000/svg"><g clip-path="url(#a)" fill="#fff" fill-opacity=".3" stroke="#fff"><path d="m73.864 130.777.376-.096c7.952-2.027 15.463-4.894 21.196-8.215l.25.433-.25-.433c5.225-3.026 9.641-8.935 13.103-15.589 3.455-6.642 5.925-13.958 7.292-19.715 1.096-4.573 2.513-11.256 2.441-16.246-10.553-4.52-22.134-8.63-33.444-9.338-11.396-.713-22.504 2.026-32.024 11.29l-.275.268-.329-.196c-.504-.3-1.028-.583-1.561-.872l-.653-.353.573-.472c1.364-1.127 2.537-1.944 3.52-2.628.055-.04.11-.077.164-.115 1.025-.715 1.804-1.271 2.408-1.904 1.154-1.21 1.726-2.765 1.726-6.53 0-9.775-4.568-18.25-10.89-25.77-5.531-6.58-12.365-12.387-18.583-17.67-.782-.664-1.554-1.32-2.313-1.969-1.878 1.59-4.067 3.246-6.394 5.006a488.148 488.148 0 0 0-3.135 2.386c-3.63 2.796-7.427 5.884-10.878 9.44-6.895 7.104-12.39 16.053-12.39 28.217 0 3.76.633 5.355 1.781 6.61.585.638 1.314 1.203 2.237 1.916l.07.054c.946.732 2.063 1.602 3.333 2.819l.502.48-.615.323c-.48.254-.95.5-1.399.764l-.345.202-.273-.293c-5.586-5.989-15.559-10.53-23.653-11.097-4.984-.355-13.687.677-22.051 2.53-4.175.926-8.249 2.052-11.713 3.304-3.35 1.21-6.09 2.524-7.808 3.861.142 4.6 1.52 10.543 2.573 15.087l.175.755c2.245 9.67 5.366 18.378 10.802 26.487v.001c.947 1.414 2.575 3.226 4.38 4.917 1.804 1.691 3.749 3.228 5.314 4.109v.001c4.557 2.572 14.379 6.589 19.834 7.982l96.926.259Zm0 0v.317c-.22.595-.454 1.188-.704 1.763l-.391.9.958-.213c1.48-.329 3.266-.851 5.105-1.388.753-.22 1.515-.443 2.27-.656 2.531-.716 4.966-1.324 6.777-1.429 4.745 4.262 8.857 11.382 11.796 19.019 2.91 7.564 4.642 15.562 4.716 21.664l-13.639 4.744h-.001c-4.366 1.501-10.292 2.856-15.514 2.999-9.817.282-19.47-3.334-26.027-10.962-.054-3.602-.162-6.223-.444-8.676l-.081-.702-.635.31c-.47.23-.94.442-1.409.636l-.349.144.044.375.035.307v.002c.842 6.966-1.495 13.402-5.383 19.115-3.814 5.606-9.102 10.489-14.27 14.448l-.99-.762c-5.81-4.471-10.952-8.428-14.553-13.165-3.84-5.05-5.928-10.993-5.09-19.412l.003-.025v-.508l-.315-.125a51.945 51.945 0 0 1-1.475-.625l-.638-.277-.06.692a54.19 54.19 0 0 0-.036 9.032c.013.166-.052.417-.27.767-.215.343-.546.729-.979 1.147-.863.836-2.072 1.743-3.382 2.616-2.618 1.747-5.56 3.308-6.746 3.836h-.001c-5.345 2.393-13.402 2.221-21.445.737-7.87-1.452-15.61-4.139-20.564-6.764 1.044-14.906 5.537-30.096 16.35-40.468.367.05.934.174 1.65.358.852.218 1.87.509 2.923.816.467.136.941.276 1.41.414 1.633.481 3.202.944 4.173 1.171l.852.198.928.216-.35-.887-.143-.364a40.426 40.426 0 0 1-.472-1.225l-.09-.249-.257-.066-.212-.053 96.925.258Zm-25.537 28.667c.24 2.32.336 4.849.386 8.279 6.67 7.852 16.533 11.561 26.538 11.273 5.286-.144 11.264-1.512 15.664-3.025l13.978-4.863c-.018-12.444-7.042-32.902-16.834-41.546l-39.732 29.882Zm0 0 .162-.078-.22-.449-.497.057.02.17a25 25 0 0 1-.96.421l.036.306c1.72 14.245-9.58 26.221-20.152 34.253l-1.31-1.008 22.92-33.672Z"/><path d="M329.467-77.358c-.262-2.526-.366-5.279-.42-9.013-7.262-8.55-18.001-12.588-28.894-12.275-5.756.157-12.265 1.647-17.055 3.294l46.369 17.994Zm0 0-.176.086.239.489.541-.062a515.54 515.54 0 0 1-.021-.186c.348-.161.696-.314 1.044-.458l-.038-.333c-1.874-15.51 10.43-28.549 21.941-37.294l1.425 1.098c13.084 10.067 23.368 17.98 21.578 35.94l-46.533.72ZM301.253-46.04l.41-.105v-.345a36.75 36.75 0 0 1 .766-1.92l.426-.98-1.043.232c-1.611.358-3.556.926-5.559 1.512-.82.24-1.649.482-2.47.714-2.757.78-5.408 1.441-7.379 1.555-5.167-4.64-9.644-12.392-12.844-20.707-3.169-8.235-5.054-16.944-5.134-23.587l14.849-5.166c4.754-1.634 11.207-3.11 16.893-3.264 10.689-.308 21.199 3.63 28.338 11.934.059 3.922.176 6.776.483 9.446l.088.765.692-.338c.512-.25 1.023-.48 1.533-.692l.381-.157-.048-.409-.038-.333-.001-.003c-.916-7.585 1.629-14.591 5.861-20.812 4.153-6.104 9.911-11.42 15.538-15.73l1.078.829c6.325 4.868 11.924 9.177 15.845 14.334 4.18 5.498 6.454 11.97 5.541 21.136l-.003.027v.553l.343.136c.531.212 1.064.444 1.607.68l.693.302.066-.754a58.96 58.96 0 0 0 .039-9.834c-.014-.18.057-.454.295-.835.234-.372.594-.793 1.065-1.248.94-.91 2.256-1.897 3.682-2.849 2.85-1.901 6.054-3.601 7.345-4.176h.002c5.819-2.605 14.592-2.418 23.348-.802 8.568 1.58 16.996 4.506 22.39 7.364-1.137 16.23-6.029 32.768-17.802 44.06-.399-.053-1.016-.189-1.795-.389-.928-.238-2.038-.553-3.184-.888-.508-.148-1.025-.3-1.536-.451-1.777-.524-3.485-1.027-4.543-1.275l-.927-.215-1.01-.235.38.965.157.397c.179.45.352.885.513 1.333l.099.272.28.07.231.06c5.939 1.516 16.633 5.89 21.595 8.691h.001c1.704.96 3.821 2.633 5.786 4.474 1.964 1.841 3.737 3.814 4.767 5.355h.001c5.919 8.829 9.317 18.31 11.761 28.839l.19.821c1.147 4.949 2.647 11.42 2.802 16.427-1.87 1.456-4.853 2.886-8.501 4.204-3.772 1.363-8.207 2.59-12.753 3.597-9.107 2.018-18.582 3.142-24.008 2.755h-.001c-8.813-.618-19.671-5.562-25.753-12.082l-.297-.32-.376.221c-.49.287-1 .556-1.524.831l-.669.352.546.523c1.384 1.325 2.6 2.272 3.63 3.07l.076.058c1.005.777 1.799 1.391 2.435 2.087 1.25 1.366 1.939 3.102 1.939 7.196 0 13.244-5.982 22.988-13.49 30.723-3.757 3.871-7.89 7.234-11.843 10.277-1.156.89-2.299 1.755-3.414 2.598-2.533 1.916-4.917 3.72-6.961 5.45-.826-.706-1.667-1.42-2.518-2.143-6.77-5.752-14.211-12.074-20.234-19.239-6.882-8.188-11.857-17.415-11.857-28.059 0-4.098.623-5.79 1.88-7.109.657-.689 1.505-1.294 2.621-2.073l.18-.125c1.07-.745 2.347-1.635 3.832-2.86l.623-.515-.71-.384c-.581-.315-1.151-.623-1.7-.95l-.359-.214-.299.291c-10.365 10.088-22.459 13.07-34.866 12.293-12.315-.77-24.924-5.245-36.414-10.166-.079-5.433 1.465-12.71 2.657-17.688h.001c1.488-6.268 4.178-14.235 7.939-21.466 3.77-7.245 8.577-13.679 14.266-16.974l-.272-.47.273.47c6.242-3.615 14.42-6.736 23.077-8.943Zm75.843-31.423c-.365-.157-.73-.312-1.096-.457l14.37-18.706c-2.646 1.176-12.921 6.863-12.709 9.647.254 3.22.236 6.25.009 9.172l.165.072.005.002-.217.499-.543-.047.016-.182Z" stroke-width="1.089"/></g><defs><clipPath id="a"><rect width="400" height="109" rx="18" fill="#fff"/></clipPath></defs></svg>