<svg width="1920" height="5819" fill="none" xmlns="http://www.w3.org/2000/svg"><g clip-path="url(#a)"><g opacity=".1" filter="url(#b)"><path d="M471.68 4372.18c-190.776 93.97-98.937-322.32-245.474-282.12-146.538 40.19-127.066-278.98-567.297-120.24-243.049 87.64-428.335 196.03-361.576 366.16-35.931 410.35 401.034 886.18 790.01 976.6C489.947 5406.16 1453.58 4658.59 2118 4838.04l16.7 4.73c-5.54-1.64-11.11-3.22-16.7-4.73L471.68 4372.18Z" fill="#EAD3E3"/><path d="M471.68 4372.18c-190.776 93.97-98.937-322.32-245.474-282.12-146.538 40.19-127.066-278.98-567.297-120.24-243.049 87.64-428.335 196.03-361.576 366.16-35.931 410.35 401.034 886.18 790.01 976.6C489.947 5406.16 1453.58 4658.59 2118 4838.04l16.7 4.73c-5.54-1.64-11.11-3.22-16.7-4.73L471.68 4372.18Z" fill="url(#c)"/></g><g filter="url(#d)"><path d="M824.421 5337.87c-100.272 30.6-296.001-47.15-334.221-57.86l-629.593-295.98-133.256-483.73c430.63 85.32 1718.429-112.66 1982.459-71.56 357.58 55.67 562.89 348.45 372.8 525.19-180.96 168.25-311.01 84.06-346.24 141.37-75.13 122.21-782.108 202.95-911.949 242.57Z" fill="#DABCF2"/><path d="M824.421 5337.87c-100.272 30.6-296.001-47.15-334.221-57.86l-629.593-295.98-133.256-483.73c430.63 85.32 1718.429-112.66 1982.459-71.56 357.58 55.67 562.89 348.45 372.8 525.19-180.96 168.25-311.01 84.06-346.24 141.37-75.13 122.21-782.108 202.95-911.949 242.57Z" fill="#fff" fill-opacity=".2"/><path d="M824.421 5337.87c-100.272 30.6-296.001-47.15-334.221-57.86l-629.593-295.98-133.256-483.73c430.63 85.32 1718.429-112.66 1982.459-71.56 357.58 55.67 562.89 348.45 372.8 525.19-180.96 168.25-311.01 84.06-346.24 141.37-75.13 122.21-782.108 202.95-911.949 242.57Z" fill="url(#e)"/><path d="M824.421 5337.87c-100.272 30.6-296.001-47.15-334.221-57.86l-629.593-295.98-133.256-483.73c430.63 85.32 1718.429-112.66 1982.459-71.56 357.58 55.67 562.89 348.45 372.8 525.19-180.96 168.25-311.01 84.06-346.24 141.37-75.13 122.21-782.108 202.95-911.949 242.57Z" fill="url(#f)" fill-opacity=".8"/><path d="M824.421 5337.87c-100.272 30.6-296.001-47.15-334.221-57.86l-629.593-295.98-133.256-483.73c430.63 85.32 1718.429-112.66 1982.459-71.56 357.58 55.67 562.89 348.45 372.8 525.19-180.96 168.25-311.01 84.06-346.24 141.37-75.13 122.21-782.108 202.95-911.949 242.57Z" fill="url(#g)"/><path d="M824.421 5337.87c-100.272 30.6-296.001-47.15-334.221-57.86l-629.593-295.98-133.256-483.73c430.63 85.32 1718.429-112.66 1982.459-71.56 357.58 55.67 562.89 348.45 372.8 525.19-180.96 168.25-311.01 84.06-346.24 141.37-75.13 122.21-782.108 202.95-911.949 242.57Z" fill="url(#h)" fill-opacity=".3"/><path d="M824.421 5337.87c-100.272 30.6-296.001-47.15-334.221-57.86l-629.593-295.98-133.256-483.73c430.63 85.32 1718.429-112.66 1982.459-71.56 357.58 55.67 562.89 348.45 372.8 525.19-180.96 168.25-311.01 84.06-346.24 141.37-75.13 122.21-782.108 202.95-911.949 242.57Z" fill="url(#i)" fill-opacity=".5"/></g><g opacity=".1" filter="url(#j)"><path d="M798.328 2586.01c210.342 31.34-4.015-337.14 147.802-343.52 151.82-6.38 35.988-304.43 503.65-287.43 258.2 9.39 467.71 56.14 455.98 238.53 159.3 379.87-111.84 966.25-454.75 1170.92-354.92 211.85-1500.563-206.44-2078.671 166.99l-14.466 9.6c4.781-3.26 9.603-6.45 14.466-9.6l1425.989-945.49Z" fill="#EAD3E3"/><path d="M798.328 2586.01c210.342 31.34-4.015-337.14 147.802-343.52 151.82-6.38 35.988-304.43 503.65-287.43 258.2 9.39 467.71 56.14 455.98 238.53 159.3 379.87-111.84 966.25-454.75 1170.92-354.92 211.85-1500.563-206.44-2078.671 166.99l-14.466 9.6c4.781-3.26 9.603-6.45 14.466-9.6l1425.989-945.49Z" fill="url(#k)"/></g><g filter="url(#l)"><path d="M852.579 3414.74c-99.521 42.42-298.049-79.35-336.676-96.47l-640.022-459.99-148.532-723.98c434.128 140.33 1718.321-114.32 1984.151-44.96 360.02 93.93 574.81 536 389.84 793.1-176.1 244.77-309.02 115.44-342.54 199.63-71.49 179.54-777.354 277.74-906.221 332.67Z" fill="#DABCF2"/><path d="M852.579 3414.74c-99.521 42.42-298.049-79.35-336.676-96.47l-640.022-459.99-148.532-723.98c434.128 140.33 1718.321-114.32 1984.151-44.96 360.02 93.93 574.81 536 389.84 793.1-176.1 244.77-309.02 115.44-342.54 199.63-71.49 179.54-777.354 277.74-906.221 332.67Z" fill="#fff" fill-opacity=".2"/><path d="M852.579 3414.74c-99.521 42.42-298.049-79.35-336.676-96.47l-640.022-459.99-148.532-723.98c434.128 140.33 1718.321-114.32 1984.151-44.96 360.02 93.93 574.81 536 389.84 793.1-176.1 244.77-309.02 115.44-342.54 199.63-71.49 179.54-777.354 277.74-906.221 332.67Z" fill="url(#m)"/><path d="M852.579 3414.74c-99.521 42.42-298.049-79.35-336.676-96.47l-640.022-459.99-148.532-723.98c434.128 140.33 1718.321-114.32 1984.151-44.96 360.02 93.93 574.81 536 389.84 793.1-176.1 244.77-309.02 115.44-342.54 199.63-71.49 179.54-777.354 277.74-906.221 332.67Z" fill="url(#n)" fill-opacity=".8"/><path d="M852.579 3414.74c-99.521 42.42-298.049-79.35-336.676-96.47l-640.022-459.99-148.532-723.98c434.128 140.33 1718.321-114.32 1984.151-44.96 360.02 93.93 574.81 536 389.84 793.1-176.1 244.77-309.02 115.44-342.54 199.63-71.49 179.54-777.354 277.74-906.221 332.67Z" fill="url(#o)"/><path d="M852.579 3414.74c-99.521 42.42-298.049-79.35-336.676-96.47l-640.022-459.99-148.532-723.98c434.128 140.33 1718.321-114.32 1984.151-44.96 360.02 93.93 574.81 536 389.84 793.1-176.1 244.77-309.02 115.44-342.54 199.63-71.49 179.54-777.354 277.74-906.221 332.67Z" fill="url(#p)" fill-opacity=".3"/><path d="M852.579 3414.74c-99.521 42.42-298.049-79.35-336.676-96.47l-640.022-459.99-148.532-723.98c434.128 140.33 1718.321-114.32 1984.151-44.96 360.02 93.93 574.81 536 389.84 793.1-176.1 244.77-309.02 115.44-342.54 199.63-71.49 179.54-777.354 277.74-906.221 332.67Z" fill="url(#q)" fill-opacity=".5"/></g><g opacity=".2" filter="url(#r)"><path d="M1199.54 687.939c211.48-21.672-18.85 335.621 132.51 348.871 151.36 13.25 22.54 304.85 490.41 309.15 258.31 2.37 469.63-34.68 465.95-216.88 175.84-371.124-69.17-967.485-402.67-1186.916C1540.56-284.957 377.833 79.648-183.163-318.552l-14.027-10.21a726.299 726.299 0 0 0 14.027 10.21L1199.54 687.939Z" fill="#EAD3E3"/><path d="M1199.54 687.939c211.48-21.672-18.85 335.621 132.51 348.871 151.36 13.25 22.54 304.85 490.41 309.15 258.31 2.37 469.63-34.68 465.95-216.88 175.84-371.124-69.17-967.485-402.67-1186.916C1540.56-284.957 377.833 79.648-183.163-318.552l-14.027-10.21a726.299 726.299 0 0 0 14.027 10.21L1199.54 687.939Z" fill="url(#s)"/></g><g filter="url(#t)"><path d="M828.577-186.223c110.842-53.552 350.003 33.02 395.963 43.706l776.93 342.28 234.29 657.814C1723.78 786.278 267.903 1202.98-44.144 1174.85c-422.612-38.1-708.514-422.548-518.093-689.115 181.285-253.779 977.334-348.722 1088.296-382.896C637.021 68.666 685.051-116.88 828.577-186.223Z" fill="#DABCF2"/><path d="M828.577-186.223c110.842-53.552 350.003 33.02 395.963 43.706l776.93 342.28 234.29 657.814C1723.78 786.278 267.903 1202.98-44.144 1174.85c-422.612-38.1-708.514-422.548-518.093-689.115 181.285-253.779 977.334-348.722 1088.296-382.896C637.021 68.666 685.051-116.88 828.577-186.223Z" fill="#fff" fill-opacity=".2"/><path d="M828.577-186.223c110.842-53.552 350.003 33.02 395.963 43.706l776.93 342.28 234.29 657.814C1723.78 786.278 267.903 1202.98-44.144 1174.85c-422.612-38.1-708.514-422.548-518.093-689.115 181.285-253.779 977.334-348.722 1088.296-382.896C637.021 68.666 685.051-116.88 828.577-186.223Z" fill="url(#u)"/><path d="M828.577-186.223c110.842-53.552 350.003 33.02 395.963 43.706l776.93 342.28 234.29 657.814C1723.78 786.278 267.903 1202.98-44.144 1174.85c-422.612-38.1-708.514-422.548-518.093-689.115 181.285-253.779 977.334-348.722 1088.296-382.896C637.021 68.666 685.051-116.88 828.577-186.223Z" fill="url(#v)" fill-opacity=".8"/><path d="M828.577-186.223c110.842-53.552 350.003 33.02 395.963 43.706l776.93 342.28 234.29 657.814C1723.78 786.278 267.903 1202.98-44.144 1174.85c-422.612-38.1-708.514-422.548-518.093-689.115 181.285-253.779 977.334-348.722 1088.296-382.896C637.021 68.666 685.051-116.88 828.577-186.223Z" fill="url(#w)"/><path d="M828.577-186.223c110.842-53.552 350.003 33.02 395.963 43.706l776.93 342.28 234.29 657.814C1723.78 786.278 267.903 1202.98-44.144 1174.85c-422.612-38.1-708.514-422.548-518.093-689.115 181.285-253.779 977.334-348.722 1088.296-382.896C637.021 68.666 685.051-116.88 828.577-186.223Z" fill="url(#x)" fill-opacity=".3"/><path d="M828.577-186.223c110.842-53.552 350.003 33.02 395.963 43.706l776.93 342.28 234.29 657.814C1723.78 786.278 267.903 1202.98-44.144 1174.85c-422.612-38.1-708.514-422.548-518.093-689.115 181.285-253.779 977.334-348.722 1088.296-382.896C637.021 68.666 685.051-116.88 828.577-186.223Z" fill="url(#y)" fill-opacity=".5"/></g></g><defs><linearGradient id="c" x1="-491.014" y1="4096.79" x2="540.16" y2="4310.45" gradientUnits="userSpaceOnUse"><stop stop-color="#F8F8F8"/><stop offset="1" stop-color="#FF3641"/><stop offset="1" stop-color="#FCD8D0" stop-opacity="0"/></linearGradient><linearGradient id="e" x1="1922.03" y1="5093.04" x2="1552.87" y2="4749.4" gradientUnits="userSpaceOnUse"><stop stop-color="#E5CBFA"/><stop offset="1" stop-color="#E9DAFD" stop-opacity="0"/></linearGradient><linearGradient id="f" x1="770.874" y1="4974.83" x2="945.391" y2="4612.85" gradientUnits="userSpaceOnUse"><stop stop-color="#E8DDFF"/><stop offset="1" stop-color="#E7DDFF" stop-opacity="0"/></linearGradient><linearGradient id="g" x1="466.078" y1="4975.45" x2="732.035" y2="4610.13" gradientUnits="userSpaceOnUse"><stop stop-color="#EFE6FF"/><stop offset="1" stop-color="#EFE6FF" stop-opacity="0"/></linearGradient><linearGradient id="h" x1="1286.67" y1="5130.32" x2="1256.11" y2="4933.51" gradientUnits="userSpaceOnUse"><stop stop-color="#EEEAFF"/><stop offset="1" stop-color="#EEEAFF" stop-opacity="0"/></linearGradient><linearGradient id="k" x1="1631.27" y1="2030.29" x2="714.291" y2="2548.09" gradientUnits="userSpaceOnUse"><stop stop-color="#F8F8F8"/><stop offset="1" stop-color="#FF3641"/><stop offset="1" stop-color="#FCD8D0" stop-opacity="0"/></linearGradient><linearGradient id="m" x1="1944.75" y1="3084.48" x2="1435.55" y2="2769.84" gradientUnits="userSpaceOnUse"><stop stop-color="#E5CBFA"/><stop offset="1" stop-color="#E9DAFD" stop-opacity="0"/></linearGradient><linearGradient id="n" x1="787.659" y1="2872.83" x2="1099.72" y2="2448.84" gradientUnits="userSpaceOnUse"><stop stop-color="#E8DDFF"/><stop offset="1" stop-color="#E7DDFF" stop-opacity="0"/></linearGradient><linearGradient id="o" x1="482.28" y1="2864.3" x2="887.297" y2="2491.93" gradientUnits="userSpaceOnUse"><stop stop-color="#EFE6FF"/><stop offset="1" stop-color="#EFE6FF" stop-opacity="0"/></linearGradient><linearGradient id="p" x1="1309.3" y1="3120.23" x2="1251.22" y2="2830.7" gradientUnits="userSpaceOnUse"><stop stop-color="#EEEAFF"/><stop offset="1" stop-color="#EEEAFF" stop-opacity="0"/></linearGradient><linearGradient id="s" x1="2007.05" y1="1279.27" x2="1114.95" y2="720.277" gradientUnits="userSpaceOnUse"><stop stop-color="#F8F8F8"/><stop offset="1" stop-color="#FF3641"/><stop offset="1" stop-color="#FCD8D0" stop-opacity="0"/></linearGradient><linearGradient id="u" x1="-399.669" y1="274.703" x2="147.259" y2="608.281" gradientUnits="userSpaceOnUse"><stop stop-color="#E5CBFA"/><stop offset="1" stop-color="#E9DAFD" stop-opacity="0"/></linearGradient><linearGradient id="v" x1="950.701" y1="312.568" x2="730.101" y2="799.166" gradientUnits="userSpaceOnUse"><stop stop-color="#E8DDFF"/><stop offset="1" stop-color="#E7DDFF" stop-opacity="0"/></linearGradient><linearGradient id="w" x1="1302.95" y1="278.212" x2="967.636" y2="752.768" gradientUnits="userSpaceOnUse"><stop stop-color="#EFE6FF"/><stop offset="1" stop-color="#EFE6FF" stop-opacity="0"/></linearGradient><linearGradient id="x" x1="328.637" y1="153.077" x2="405.748" y2="420.675" gradientUnits="userSpaceOnUse"><stop stop-color="#EEEAFF"/><stop offset="1" stop-color="#EEEAFF" stop-opacity="0"/></linearGradient><filter id="b" x="-916.418" y="3725.23" width="3251.12" height="1795.49" filterUnits="userSpaceOnUse" color-interpolation-filters="sRGB"><feFlood flood-opacity="0" result="BackgroundImageFix"/><feBlend in="SourceGraphic" in2="BackgroundImageFix" result="shape"/><feGaussianBlur stdDeviation="100" result="effect1_foregroundBlur_1029_6836"/></filter><filter id="d" x="-472.649" y="4223.05" width="2827.62" height="1321.9" filterUnits="userSpaceOnUse" color-interpolation-filters="sRGB"><feFlood flood-opacity="0" result="BackgroundImageFix"/><feBlend in="SourceGraphic" in2="BackgroundImageFix" result="shape"/><feGaussianBlur stdDeviation="100" result="effect1_foregroundBlur_1029_6836"/></filter><filter id="j" x="-842.127" y="1754.36" width="2994.69" height="1986.74" filterUnits="userSpaceOnUse" color-interpolation-filters="sRGB"><feFlood flood-opacity="0" result="BackgroundImageFix"/><feBlend in="SourceGraphic" in2="BackgroundImageFix" result="shape"/><feGaussianBlur stdDeviation="100" result="effect1_foregroundBlur_1029_6836"/></filter><filter id="l" x="-472.651" y="1877.11" width="2841.74" height="1746.54" filterUnits="userSpaceOnUse" color-interpolation-filters="sRGB"><feFlood flood-opacity="0" result="BackgroundImageFix"/><feBlend in="SourceGraphic" in2="BackgroundImageFix" result="shape"/><feGaussianBlur stdDeviation="100" result="effect1_foregroundBlur_1029_6836"/></filter><filter id="r" x="-397.189" y="-528.762" width="2944.18" height="2074.83" filterUnits="userSpaceOnUse" color-interpolation-filters="sRGB"><feFlood flood-opacity="0" result="BackgroundImageFix"/><feBlend in="SourceGraphic" in2="BackgroundImageFix" result="shape"/><feGaussianBlur stdDeviation="100" result="effect1_foregroundBlur_1029_6836"/></filter><filter id="t" x="-822.383" y="-403.567" width="3258.14" height="1779.78" filterUnits="userSpaceOnUse" color-interpolation-filters="sRGB"><feFlood flood-opacity="0" result="BackgroundImageFix"/><feBlend in="SourceGraphic" in2="BackgroundImageFix" result="shape"/><feGaussianBlur stdDeviation="100" result="effect1_foregroundBlur_1029_6836"/></filter><radialGradient id="i" cx="0" cy="0" r="1" gradientUnits="userSpaceOnUse" gradientTransform="matrix(264.65934 -141.73667 174.02485 324.9498 485.728 4943.05)"><stop stop-color="#fff"/><stop offset="1" stop-color="#fff" stop-opacity="0"/></radialGradient><radialGradient id="q" cx="0" cy="0" r="1" gradientUnits="userSpaceOnUse" gradientTransform="rotate(-37.858 4357.24 677.97) scale(330.299 499.25)"><stop stop-color="#fff"/><stop offset="1" stop-color="#fff" stop-opacity="0"/></radialGradient><radialGradient id="y" cx="0" cy="0" r="1" gradientUnits="userSpaceOnUse" gradientTransform="rotate(141.321 585.697 388.273) scale(361.799 497.129)"><stop stop-color="#fff"/><stop offset="1" stop-color="#fff" stop-opacity="0"/></radialGradient><clipPath id="a"><path fill="#fff" d="M0 0h1920v5819H0z"/></clipPath></defs></svg>