<svg width="987" height="485" viewBox="0 0 987 485" fill="none" xmlns="http://www.w3.org/2000/svg">
<g filter="url(#filter0_b_2535_25205)">
<mask id="path-1-inside-1_2535_25205" fill="white">
<path d="M83.4507 18C83.4507 8.0589 91.5096 0 101.451 0H968.999C978.94 0 986.999 8.05887 986.999 18V467C986.999 476.941 978.94 485 968.999 485H101.451C91.5095 485 83.4507 476.941 83.4507 467V337.493C83.4507 329.585 77.5485 322.921 69.6986 321.965V321.965C-23.3449 310.642 -23.0086 175.868 69.8629 163.213V163.213C77.6306 162.154 83.4507 155.516 83.4507 147.677V80.6805V18Z"/>
</mask>
<path d="M83.4507 18C83.4507 8.0589 91.5096 0 101.451 0H968.999C978.94 0 986.999 8.05887 986.999 18V467C986.999 476.941 978.94 485 968.999 485H101.451C91.5095 485 83.4507 476.941 83.4507 467V337.493C83.4507 329.585 77.5485 322.921 69.6986 321.965V321.965C-23.3449 310.642 -23.0086 175.868 69.8629 163.213V163.213C77.6306 162.154 83.4507 155.516 83.4507 147.677V80.6805V18Z" fill="white" fill-opacity="0.3"/>
<path d="M101.451 2H968.999V-2H101.451V2ZM984.999 18V467H988.999V18H984.999ZM968.999 483H101.451V487H968.999V483ZM85.4507 467V337.493H81.4507V467H85.4507ZM85.4507 147.677V80.6805H81.4507V147.677H85.4507ZM85.4507 80.6805V18H81.4507V80.6805H85.4507ZM85.4507 337.493C85.4507 328.574 78.7939 321.057 69.9402 319.98L69.457 323.951C76.3032 324.784 81.4507 330.596 81.4507 337.493H85.4507ZM70.133 165.194C78.8871 164.001 85.4507 156.521 85.4507 147.677H81.4507C81.4507 154.511 76.374 160.307 69.5929 161.231L70.133 165.194ZM69.5929 161.231C22.0128 167.715 -1.87337 205.56 -1.93737 243.085C-2.00138 280.618 21.7695 318.147 69.457 323.951L69.9402 319.98C24.5842 314.46 2.00148 278.941 2.06262 243.092C2.12377 207.236 24.8415 171.366 70.133 165.194L69.5929 161.231ZM101.451 483C92.6141 483 85.4507 475.837 85.4507 467H81.4507C81.4507 478.046 90.4049 487 101.451 487V483ZM984.999 467C984.999 475.837 977.835 483 968.999 483V487C980.044 487 988.999 478.046 988.999 467H984.999ZM968.999 2C977.835 2 984.999 9.16344 984.999 18H988.999C988.999 6.95431 980.044 -2 968.999 -2V2ZM101.451 -2C90.405 -2 81.4507 6.95433 81.4507 18H85.4507C85.4507 9.16347 92.6141 2 101.451 2V-2Z" fill="white" mask="url(#path-1-inside-1_2535_25205)"/>
</g>
<defs>
<filter id="filter0_b_2535_25205" x="-29.9375" y="-30" width="1046.94" height="545" filterUnits="userSpaceOnUse" color-interpolation-filters="sRGB">
<feFlood flood-opacity="0" result="BackgroundImageFix"/>
<feGaussianBlur in="BackgroundImageFix" stdDeviation="15"/>
<feComposite in2="SourceAlpha" operator="in" result="effect1_backgroundBlur_2535_25205"/>
<feBlend mode="normal" in="SourceGraphic" in2="effect1_backgroundBlur_2535_25205" result="shape"/>
</filter>
</defs>
</svg>
