<svg width="80" height="60" fill="none" xmlns="http://www.w3.org/2000/svg"><path d="m52.925 13.805.235-.021a.508.508 0 0 0 .237-.09l-.002.001c.225.788.5 1.617.845 2.486a25.5 25.5 0 0 0 1.364 2.97l-.067-.137c-.04.621-.09 1.26-.153 1.877-.028.364-.1.724-.217 1.07l.009-.031c-.02.008-.049 3.548-.049 3.548a4.94 4.94 0 0 0 1.035 3.027 4.81 4.81 0 0 0 2.657 1.728l.034.006a.654.654 0 0 1 .236-.303.638.638 0 0 1 .364-.116h.964a.663.663 0 0 1 .598.415l.002.005a4.824 4.824 0 0 0 2.686-1.718 4.955 4.955 0 0 0 1.058-3.04s-.059-3.527-.089-3.55c-.1-.33-.169-.669-.205-1.012l-.002-.026c-.058-.62-.097-1.243-.153-1.876a25.35 25.35 0 0 0 1.234-2.653l.063-.18c.345-.87.612-1.696.845-2.486.07.05.15.08.234.09h.001l.237.02c.286.031.538-.207.561-.578l.256-3.294v-.003a.55.55 0 0 0-.134-.36.535.535 0 0 0-.335-.181h-.032c.224-1.715.085-3.46-.406-5.116l.022.087a7.269 7.269 0 0 0-2.101-2.73A7.123 7.123 0 0 0 61.652.198L61.608.19A9.678 9.678 0 0 0 59.94 0h-.035c-.587.01-1.17.078-1.744.201l.06-.01a7.175 7.175 0 0 0-3.11 1.418 7.309 7.309 0 0 0-2.12 2.709l-.02.046a12.203 12.203 0 0 0-.377 5.092l-.007-.063a.528.528 0 0 0-.337.175.544.544 0 0 0-.137.359v.012l.256 3.294c.023.379.279.607.554.577l.002-.005Z" fill="url(#a)"/><path d="M77.997 35.566c-.118-5.185-.631-6.359-.908-7.154-.11-.319-.199-2.474-3.722-3.873-2.16-.86-4.948-.877-7.307-1.885v2.804a6.235 6.235 0 0 1-1.406 3.938 6.116 6.116 0 0 1-3.562 2.134l-.039.007a.657.657 0 0 1-.218.389.644.644 0 0 1-.413.157h-.03v2.115c0 .992.39 1.944 1.084 2.646a3.682 3.682 0 0 0 2.618 1.096c.982 0 1.923-.394 2.618-1.096a3.763 3.763 0 0 0 1.084-2.646v-1.477a2.1 2.1 0 0 1-1.306-.736 2.143 2.143 0 0 1 .073-2.824 2.09 2.09 0 0 1 2.783-.263 2.148 2.148 0 0 1 .59 2.762 2.111 2.111 0 0 1-1.148.967l-.015.005v1.646a4.757 4.757 0 0 1-1.37 3.346 4.656 4.656 0 0 1-3.31 1.386 4.656 4.656 0 0 1-3.31-1.386 4.757 4.757 0 0 1-1.372-3.346v-.085.003-2.133a.64.64 0 0 1-.389-.168.652.652 0 0 1-.202-.375v-.003a6.121 6.121 0 0 1-3.569-2.129 6.24 6.24 0 0 1-1.415-3.937v-2.826c-2.37 1.029-5.174 1.05-7.346 1.91-3.534 1.398-3.615 3.548-3.723 3.872-.27.799-.79 1.967-.908 7.155-.02.683 0 1.728 2.036 2.643 4.431 1.756 10.14 2.302 15.767 2.695h.54c5.64-.39 11.34-.933 15.768-2.695 2.027-.91 2.046-1.95 2.027-2.64ZM53.223 33.45H51.12v2.134h-1.5v-2.127h-2.103V31.94h2.103v-2.126h1.501v2.126h2.103v1.51Z" fill="url(#b)"/><path d="M69.208 30.621a1.16 1.16 0 0 0-.326-.809 1.098 1.098 0 0 0-.787-.334c-.294 0-.577.12-.786.335a1.158 1.158 0 0 0-.326.807c0 .303.118.593.326.808a1.1 1.1 0 0 0 .787.334 1.1 1.1 0 0 0 .786-.334c.209-.214.326-.504.326-.807Z" fill="url(#c)"/><path d="M21.258 9.305c-2.23 1.66-2.829 4.287-2.72 5.686.141 1.71.488 3.936.488 3.936s-.687.373-.687 1.875c.24 3.77 1.499 2.143 1.758 3.796.623 3.982 2.047 3.273 2.047 5.446 0 3.62-1.492 5.313-6.15 7.32-4.675 2.015-9.494 4.55-9.494 8.94V48.5H46v-2.195c0-4.39-4.821-6.926-9.498-8.94-4.658-2.006-6.146-3.697-6.146-7.319 0-2.173 1.42-1.464 2.045-5.446.261-1.653 1.519-.027 1.762-3.796 0-1.502-.689-1.875-.689-1.875s.347-2.226.485-3.936c.143-1.793-.873-5.622-5.047-6.797-.73-.746-3.32.53-1.074-.663-4.915-.23-5.241.775-6.58 1.772Z" fill="url(#d)"/><path fill="url(#e)" d="M3 50.363h46.882V59.5H3z"/><defs><linearGradient id="a" x1="74.385" y1="1.008" x2="50.005" y2="-2.041" gradientUnits="userSpaceOnUse"><stop stop-color="#D65986"/><stop offset="1" stop-color="#A261F9"/></linearGradient><linearGradient id="b" x1="93.361" y1="23.234" x2="46.767" y2=".94" gradientUnits="userSpaceOnUse"><stop stop-color="#D65986"/><stop offset="1" stop-color="#A261F9"/></linearGradient><linearGradient id="c" x1="70.154" y1="29.554" x2="66.814" y2="28.767" gradientUnits="userSpaceOnUse"><stop stop-color="#D65986"/><stop offset="1" stop-color="#A261F9"/></linearGradient><linearGradient id="d" x1="62.788" y1="8.867" x2="3.433" y2="-4.968" gradientUnits="userSpaceOnUse"><stop stop-color="#D65986"/><stop offset="1" stop-color="#A261F9"/></linearGradient><linearGradient id="e" x1="69.807" y1="50.668" x2="40.575" y2="14.382" gradientUnits="userSpaceOnUse"><stop stop-color="#D65986"/><stop offset="1" stop-color="#A261F9"/></linearGradient></defs></svg>