<svg width="150" height="120" fill="none" xmlns="http://www.w3.org/2000/svg"><path d="M75.5 20a20.175 20.175 0 0 1 14.284 5.931A20.276 20.276 0 0 1 95.7 40.25c0 5.37-2.128 10.521-5.916 14.319A20.175 20.175 0 0 1 75.5 60.5a20.175 20.175 0 0 1-14.284-5.931A20.276 20.276 0 0 1 55.3 40.25c0-5.37 2.128-10.521 5.916-14.319A20.175 20.175 0 0 1 75.5 20ZM31.312 30.125c3.488 0 6.313 2.832 6.313 6.328v25.344c0 2.69 1.057 5.268 2.951 7.167l8.064 8.084a3.867 3.867 0 0 0 4.892.49c2.036-1.36 2.32-4.255.584-5.98l-2.398-2.404-5.05-5.063a5.079 5.079 0 0 1 0-7.166 5.049 5.049 0 0 1 7.149 0l5.05 5.062 2.398 2.405 3.993 4.002a17.745 17.745 0 0 1 5.176 12.53v12.482c0 4.193-3.393 7.594-7.575 7.594H52.35c-2.683 0-5.255-1.06-7.149-2.958L29.434 82.237A15.2 15.2 0 0 1 25 71.495V36.453c0-3.496 2.825-6.328 6.313-6.328Zm88.376 0c3.487 0 6.312 2.832 6.312 6.328v35.042a15.2 15.2 0 0 1-4.435 10.742L105.8 98.042A10.091 10.091 0 0 1 98.651 101H88.125c-4.182 0-7.575-3.401-7.575-7.594V80.924c0-4.699 1.862-9.207 5.176-12.53l3.993-4.002 2.399-2.405 5.05-5.062a5.05 5.05 0 0 1 7.149 0 5.08 5.08 0 0 1 0 7.166l-5.05 5.063-2.4 2.404c-1.735 1.74-1.451 4.62.585 5.98a3.867 3.867 0 0 0 4.892-.49l8.064-8.084a10.14 10.14 0 0 0 2.951-7.167V36.453c0-3.496 2.825-6.328 6.313-6.328h.016Z" fill="url(#a)"/><defs><linearGradient id="a" x1="168.925" y1="22.7" x2="22.259" y2="-21.544" gradientUnits="userSpaceOnUse"><stop stop-color="#D65986"/><stop offset="1" stop-color="#A261F9"/></linearGradient></defs></svg>