<svg width="150" height="120" fill="none" xmlns="http://www.w3.org/2000/svg"><path fill-rule="evenodd" clip-rule="evenodd" d="M29.528 25.078c0 .09-.12.145-.313.145-.098 0-.135.031-.135.112 0 .087-.037.112-.168.112-.13 0-.168.025-.168.111 0 .063-.037.112-.084.112a.084.084 0 0 0-.084.084c0 .053-.053.084-.145.084-.098 0-.155.036-.175.111-.016.062-.064.112-.107.112-.042 0-.077.05-.077.112s-.037.112-.084.112c-.047 0-.084.05-.084.111 0 .062-.037.112-.084.112-.046 0-.084.035-.084.078s-.038.092-.084.11a.138.138 0 0 0-.084.117c0 .047-.025.086-.056.086-.03 0-.056.05-.056.112 0 .061-.035.111-.078.111-.044 0-.093.084-.114.196-.02.107-.061.195-.09.195-.03 0-.054.05-.054.112 0 .061-.036.112-.08.112-.048 0-.093.086-.116.223-.02.123-.06.224-.089.224-.028 0-.051.05-.051.111 0 .062-.037.112-.084.112-.064 0-.084.071-.084.307s-.02.307-.084.307c-.074 0-.084.885-.084 7.624v7.624h.168c.112 0 .168.028.168.084 0 .053.053.084.145.084.098 0 .155.036.175.112.02.073.076.111.168.111.091 0 .148.038.168.112.016.061.064.112.107.112.042 0 .077.05.077.111 0 .082.037.112.14.112.103 0 .14.03.14.112 0 .062.037.111.084.111.046 0 .084.038.084.084 0 .046.038.084.084.084.047 0 .084.05.084.112s.037.111.084.111c.047 0 .084.05.084.112s.037.112.084.112c.047 0 .084.05.084.112s.037.111.084.111c.059 0 .084.06.084.196s.025.195.084.195c.046 0 .084.048.084.106 0 .058.038.12.084.138.053.02.084.105.084.23 0 .137.025.197.084.197.058 0 .084.058.084.19 0 .105.025.2.055.21.03.01.072.144.093.298.02.153.07.3.113.324.048.028.075.152.075.344 0 .165.027.309.06.32.033.01.074.208.09.437.017.23.053.432.08.449.028.017.056 2.368.064 5.39l.014 5.358 21.672.017c11.92.01 21.83 0 22.022-.018.249-.025.35-.058.35-.115 0-.043.038-.079.084-.079.047 0 .084-.05.084-.112s.037-.111.084-.111c.075 0 .084-1.943.084-17.147 0-15.205-.01-17.147-.084-17.147-.059 0-.084-.06-.084-.196s-.025-.195-.084-.195c-.047 0-.084-.05-.084-.112 0-.083-.037-.112-.145-.112-.098 0-.155-.036-.175-.111C73.587 25 73.54 25 51.557 25c-18.792 0-22.029.012-22.029.078Zm46.872.034c0 .062-.037.111-.084.111-.046 0-.084.035-.084.078s-.038.093-.084.11a.138.138 0 0 0-.084.118.085.085 0 0 1-.084.085c-.064 0-.084.071-.084.302 0 .216-.024.31-.084.333-.074.029-.084 1.952-.084 16.846 0 14.908.01 16.813.084 16.813.059 0 .084.06.084.196 0 .141.025.195.09.195.048 0 .101.049.117.109.022.083.095.116.317.142.158.018 10.053.026 21.988.017l21.7-.017.014-5.068c.008-2.788.036-5.069.062-5.069.026 0 .063-.28.083-.624.019-.344.057-.64.084-.657.027-.017.063-.206.08-.42.016-.215.058-.399.092-.41.033-.011.061-.119.061-.24 0-.156.024-.218.084-.218.061 0 .084-.062.084-.224 0-.16.023-.223.084-.223.059 0 .084-.059.084-.195 0-.137.025-.196.084-.196.059 0 .084-.059.084-.195 0-.137.025-.196.084-.196.047 0 .084-.05.084-.113s.038-.128.084-.146c.046-.018.084-.08.084-.138 0-.058.038-.106.084-.106.055 0 .084-.055.084-.161 0-.092.036-.175.084-.194a.138.138 0 0 0 .084-.117c0-.048.038-.086.084-.086.046 0 .084-.048.084-.106 0-.066.052-.118.14-.14.077-.02.14-.073.14-.118 0-.046.035-.083.077-.083.043 0 .091-.05.107-.112.016-.061.07-.111.119-.111.049 0 .089-.038.089-.083 0-.046.063-.099.14-.118.077-.019.14-.068.14-.108 0-.04.076-.09.168-.11.092-.02.168-.073.168-.116 0-.05.06-.08.165-.08.15 0 .167-.02.199-.237.019-.13.027-3.639.017-7.795-.016-7.13-.023-7.562-.115-7.613-.064-.036-.098-.122-.098-.248 0-.134-.026-.192-.084-.192-.047 0-.084-.05-.084-.112 0-.061-.022-.112-.05-.112-.027 0-.066-.085-.085-.19-.02-.104-.073-.204-.119-.221a.137.137 0 0 1-.082-.118c0-.047-.025-.085-.056-.085s-.056-.05-.056-.112c0-.061-.035-.112-.078-.112-.044 0-.093-.082-.113-.19-.02-.104-.073-.204-.119-.221-.045-.018-.082-.068-.082-.111 0-.044-.038-.095-.084-.112-.046-.018-.084-.068-.084-.112s-.038-.094-.084-.112a.138.138 0 0 1-.084-.117c0-.054-.052-.086-.14-.086-.103 0-.14-.03-.14-.111 0-.063-.037-.112-.084-.112a.082.082 0 0 1-.084-.08c0-.043-.076-.095-.168-.116-.092-.02-.168-.072-.168-.116a.083.083 0 0 0-.084-.08c-.047 0-.084-.049-.084-.11 0-.096-.037-.113-.252-.113s-.252-.016-.252-.111c0-.112-.037-.112-22.092-.112S76.4 25 76.4 25.112ZM15.01 45.316c-.172.013-.266.047-.266.094 0 .043-.094.089-.224.11-.145.023-.224.065-.224.118 0 .056-.057.084-.168.084-.13 0-.168.024-.168.111 0 .062-.037.112-.084.112a.085.085 0 0 0-.084.085c0 .047-.038.1-.084.118-.046.018-.084.065-.084.106 0 .04-.076.09-.168.11-.115.025-.168.07-.168.144 0 .059-.038.107-.084.107-.059 0-.084.06-.084.196s-.025.195-.084.195c-.047 0-.084.05-.084.112s-.037.111-.084.111c-.059 0-.084.06-.084.196 0 .137-.025.196-.084.196-.047 0-.084.05-.084.111 0 .062-.025.112-.055.112s-.072.1-.091.223c-.02.123-.055.224-.077.224-.023 0-.057.13-.076.289-.019.159-.06.305-.091.324-.032.02-.074.266-.094.549-.02.282-.058.513-.084.513-.027 0-.048 8.948-.048 19.884 0 11.679.02 19.884.05 19.884.028 0 .068.2.09.447.022.245.059.446.082.446.023 0 .058.132.077.293.02.161.06.302.092.312.031.01.057.105.057.21 0 .132.026.19.084.19.059 0 .084.06.084.198 0 .124.031.21.084.23.046.017.084.08.084.137 0 .058.038.106.084.106.059 0 .084.059.084.196 0 .136.025.195.084.195.047 0 .084.05.084.112s.037.111.084.111c.047 0 .084.05.084.112s.037.112.084.112c.046 0 .084.037.084.084 0 .046.038.083.084.083.046 0 .084.048.084.106 0 .066.052.119.14.14.077.02.14.073.14.118 0 .046.05.083.112.083.075 0 .112.037.112.112 0 .087.037.112.168.112.108 0 .168.028.168.08 0 .054.096.091.308.118.207.025.308.063.308.115 0 .063.182.078.975.078.537 0 1.016.015 1.064.033.079.03.089.243.089 1.816V98h6.44v-3.631h1.064c.908 0 1.064-.012 1.064-.083 0-.05.052-.084.126-.085.214-.001.378-.064.378-.145 0-.045.057-.077.135-.077.194 0 .313-.056.313-.146 0-.043.05-.078.112-.078.075 0 .112-.037.112-.111 0-.083.037-.112.14-.112.088 0 .14-.032.14-.086 0-.047.038-.1.084-.117.046-.018.084-.068.084-.112s.038-.094.084-.112c.046-.018.084-.067.084-.11s.035-.078.078-.078c.044 0 .093-.083.114-.195.02-.108.061-.196.09-.196.03 0 .054-.05.054-.113s.035-.127.079-.144c.043-.016.094-.116.114-.221.02-.106.06-.192.09-.192.029 0 .053-.05.053-.111 0-.063.037-.112.084-.112.064 0 .084-.072.084-.307 0-.236.02-.308.084-.308s.084-.071.084-.307.02-.307.084-.307c.07 0 .084-.109.084-.642 0-.534.014-.643.084-.643.075 0 .084-2.19.084-19.38 0-17.191-.01-19.382-.084-19.382-.07 0-.084-.105-.084-.614s-.014-.614-.084-.614c-.064 0-.084-.071-.084-.302 0-.216-.024-.31-.084-.333-.053-.02-.084-.106-.084-.23 0-.138-.025-.197-.084-.197-.06 0-.084-.062-.084-.223s-.023-.224-.084-.224c-.059 0-.084-.058-.084-.195 0-.136-.025-.195-.084-.195-.047 0-.084-.05-.084-.112s-.037-.112-.084-.112c-.047 0-.084-.05-.084-.112 0-.061-.025-.111-.056-.111-.03 0-.056-.039-.056-.086 0-.047-.038-.1-.084-.117-.046-.018-.084-.069-.084-.112 0-.044-.038-.094-.084-.112-.046-.018-.084-.067-.084-.11s-.038-.078-.084-.078c-.047 0-.084-.05-.084-.111 0-.087-.037-.112-.168-.112-.13 0-.168-.025-.168-.112 0-.074-.037-.111-.112-.111-.062 0-.112-.035-.112-.077 0-.046-.089-.09-.224-.113-.132-.02-.224-.066-.224-.11 0-.052-.117-.086-.378-.11-.39-.038-10.251-.033-10.724.004Zm109.144 0c-.177.014-.266.046-.266.097 0 .042-.076.093-.168.113-.092.02-.168.072-.168.116 0 .051-.06.08-.168.08-.131 0-.168.024-.168.111 0 .082-.037.112-.14.112-.103 0-.14.03-.14.112 0 .062-.037.111-.084.111a.085.085 0 0 0-.084.086c0 .047-.038.1-.084.117-.046.018-.084.068-.084.11 0 .043-.038.078-.084.078-.047 0-.084.05-.084.112s-.037.112-.084.112c-.047 0-.084.05-.084.111 0 .062-.035.112-.078.112-.044 0-.093.084-.114.196-.021.107-.061.195-.091.195-.029 0-.053.063-.053.14 0 .087-.032.14-.084.14-.059 0-.084.058-.084.195 0 .136-.025.195-.084.195-.065 0-.084.072-.084.307 0 .236-.019.308-.084.308s-.084.074-.084.335c0 .26-.019.335-.084.335-.075 0-.084 2.306-.084 20.414 0 18.11.009 20.415.084 20.415.067 0 .084.08.084.39s.017.392.084.392c.061 0 .084.062.084.223s.023.223.084.223c.061 0 .084.062.084.224 0 .161.023.223.084.223.059 0 .084.06.084.196s.025.195.084.195c.046 0 .084.048.084.106 0 .058.038.12.084.138.046.017.084.07.084.117s.022.086.05.086c.027 0 .066.085.085.19.02.105.073.204.119.222.045.017.082.067.082.11 0 .044.063.096.14.115.077.02.14.073.14.118 0 .046.038.083.084.083.047 0 .084.05.084.112 0 .086.037.111.168.111s.168.025.168.112.037.112.168.112c.106 0 .168.028.168.077 0 .08.164.144.378.145.074 0 .126.035.126.085 0 .071.156.084 1.064.084h1.064V98h6.55l.015-1.801.015-1.802 1.05-.015c.882-.013 1.05-.028 1.05-.098 0-.045.056-.086.126-.09a1.6 1.6 0 0 0 .182-.022c.031-.007.088-.016.126-.02.039-.003.07-.044.07-.09 0-.055.056-.083.168-.083.131 0 .168-.025.168-.112s.037-.112.168-.112.168-.025.168-.111c0-.063.037-.112.084-.112a.085.085 0 0 0 .084-.086c0-.047.038-.1.084-.117.046-.018.084-.068.084-.11 0-.043.038-.078.084-.078.047 0 .084-.05.084-.112s.037-.112.084-.112c.047 0 .084-.05.084-.111 0-.062.037-.112.084-.112.047 0 .084-.05.084-.112s.037-.111.084-.111c.059 0 .084-.06.084-.196 0-.137.025-.195.084-.195.052 0 .084-.053.084-.14 0-.077.023-.14.052-.14.028 0 .069-.081.091-.181.021-.1.065-.198.096-.218.031-.02.069-.164.084-.32.015-.158.047-.286.071-.286.025 0 .062-.189.084-.419.021-.23.061-.419.089-.419.028 0 .049-8.571.049-20.219 0-11.92-.021-20.218-.05-20.218-.028 0-.068-.176-.09-.392-.022-.215-.062-.39-.09-.39-.027 0-.05-.101-.05-.224 0-.161-.023-.223-.084-.223-.061 0-.084-.062-.084-.224 0-.161-.023-.223-.084-.223-.059 0-.084-.06-.084-.196s-.025-.195-.084-.195c-.047 0-.084-.05-.084-.114 0-.062-.038-.127-.084-.145-.052-.02-.084-.105-.084-.222 0-.131-.026-.19-.084-.19a.084.084 0 0 1-.084-.083.084.084 0 0 0-.084-.084c-.047 0-.084-.05-.084-.112s-.037-.111-.084-.111c-.046 0-.084-.048-.084-.106 0-.066-.052-.119-.14-.14-.077-.02-.14-.073-.14-.118 0-.046-.05-.083-.112-.083-.075 0-.112-.037-.112-.112 0-.087-.037-.111-.168-.111-.113 0-.168-.028-.168-.086 0-.05-.069-.099-.168-.118-.092-.019-.168-.065-.168-.103 0-.044-.135-.081-.378-.104-.391-.037-10.363-.032-10.836.005ZM29.901 62.459c-.02.02-.037 2.732-.037 6.027v5.99l.518.035c.285.02 20.59.029 45.122.02l44.604-.017.014-6.046.015-6.046h-45.1c-24.804 0-45.115.016-45.136.037ZM29.9 75.945c-.02.096-.035 3.238-.035 6.982 0 3.743-.022 6.807-.048 6.807-.026 0-.066.232-.087.515-.021.283-.06.528-.084.544-.025.017-.059.155-.075.307-.017.153-.059.287-.093.298-.033.011-.061.12-.061.24v.218h91.228l-.038-.293c-.021-.161-.061-.308-.088-.325-.027-.018-.065-.169-.084-.335-.019-.167-.056-.317-.081-.334-.025-.016-.062-.305-.082-.642-.021-.337-.059-.62-.086-.63-.028-.011-.049-2.977-.049-6.773V75.77H29.934l-.035.175Z" fill="url(#a)"/><defs><linearGradient id="a" x1="191.55" y1="27.433" x2="21.57" y2="-43.546" gradientUnits="userSpaceOnUse"><stop stop-color="#D65986"/><stop offset="1" stop-color="#A261F9"/></linearGradient></defs></svg>