<svg width="150" height="120" fill="none" xmlns="http://www.w3.org/2000/svg"><path fill-rule="evenodd" clip-rule="evenodd" d="M70.135 19.082c0 .054-.055.081-.164.081-.09 0-.163.023-.163.05 0 .028-.074.067-.164.087-.09.02-.163.056-.163.082 0 .025-.051.063-.114.083-.144.045-.54.449-.54.55 0 .04-.022.074-.05.074-.028 0-.066.074-.086.164-.02.09-.059.163-.086.163-.028 0-.05.074-.05.164 0 .109-.027.163-.082.163-.072 0-.082.641-.082 5.442 0 4.786.01 5.445.082 5.472.048.018.082.1.082.197 0 .09.024.165.053.165.03 0 .069.061.088.136.019.075.056.136.083.136.026 0 .048.035.048.078 0 .1.476.576.576.576.043 0 .078.022.078.05 0 .028.073.066.163.086.09.02.164.056.164.082 0 .025.073.062.163.082.09.02.163.058.163.086 0 .03 3.4.05 8.607.05h8.607V19H78.74c-7.614 0-8.606.01-8.606.082ZM92.099 30.04c.012 8.772.029 11.044.083 11.062.038.013.068.095.068.183 0 .093.035.174.082.192.045.018.082.09.082.162 0 .08.031.13.081.13.046 0 .082.049.082.11 0 .14.403.544.545.544.06 0 .109.036.109.082 0 .05.05.081.13.081.072 0 .144.037.162.082.018.047.1.082.192.082.088 0 .17.03.183.068.018.053.853.072 3.872.085l3.849.017v23.69H116V43.676c0-20.349-.009-22.933-.082-22.933-.051 0-.081-.052-.081-.14a.36.36 0 0 0-.082-.222.307.307 0 0 1-.082-.186c0-.058-.037-.106-.082-.106-.05 0-.081-.051-.081-.136 0-.084-.031-.136-.082-.136a.082.082 0 0 1-.082-.082.081.081 0 0 0-.081-.081.082.082 0 0 1-.082-.082c0-.05-.051-.082-.136-.082-.082 0-.136-.03-.136-.077 0-.043-.074-.094-.164-.113-.09-.02-.163-.059-.163-.086 0-.028-.074-.05-.164-.05-.109 0-.163-.028-.163-.082 0-.073-1.268-.082-11.087-.082H92.084l.015 11.04Zm12.503-1.303c.012.037.094.068.181.068.105 0 .159.028.159.082 0 .054.055.081.164.081.109 0 .163.028.163.082 0 .05.051.082.136.082.085 0 .136.03.136.081 0 .046.037.082.082.082.045 0 .082.037.082.082 0 .045.037.082.081.082.051 0 .082.051.082.136 0 .085.031.136.082.136.054 0 .082.054.082.163 0 .11.027.164.081.164.054 0 .082.054.082.159 0 .087.031.169.068.181.047.016.074.194.087.568.015.443.002.561-.068.632a.367.367 0 0 0-.087.228c0 .078-.037.156-.082.173-.045.017-.081.09-.081.162 0 .08-.032.13-.082.13-.045 0-.082.048-.082.107 0 .124-.322.466-.487.519-.062.02-.112.056-.112.082 0 .025-.074.062-.163.082-.09.02-.164.058-.164.086 0 .028-.047.05-.105.05a.308.308 0 0 0-.187.082c-.062.063-.221.082-.684.082-.332 0-.604-.023-.604-.05 0-.028-.078-.068-.173-.089a.617.617 0 0 1-.25-.113.261.261 0 0 0-.152-.075c-.043 0-.078-.025-.078-.055s-.037-.054-.082-.054a.082.082 0 0 1-.082-.082c0-.045-.034-.082-.077-.082-.101 0-.413-.312-.413-.412 0-.043-.024-.078-.054-.078s-.055-.035-.055-.078a.264.264 0 0 0-.075-.153.612.612 0 0 1-.113-.249c-.021-.095-.061-.174-.088-.174-.028 0-.051-.27-.051-.602 0-.464.019-.623.082-.685a.307.307 0 0 0 .082-.187c0-.058.022-.105.05-.105.028 0 .066-.074.086-.164.02-.09.057-.163.082-.163.026 0 .064-.053.084-.117.045-.142.284-.373.387-.373.04 0 .073-.025.073-.055s.037-.054.082-.054a.082.082 0 0 0 .082-.082c0-.05.051-.082.136-.082.085 0 .136-.03.136-.081 0-.055.055-.082.167-.082a.41.41 0 0 0 .254-.087c.071-.07.189-.083.632-.068.374.013.552.04.568.087Zm-33.364 7.675c-.098.014-.177.049-.177.077 0 .028-.063.051-.138.051-.076 0-.152.037-.17.082-.017.045-.09.081-.163.081-.073 0-.146.037-.163.082-.018.045-.066.082-.108.082-.041 0-.076.026-.076.057 0 .031-.06.114-.136.183-.075.07-.136.154-.136.188s-.037.062-.082.062a.082.082 0 0 0-.081.082.082.082 0 0 1-.082.081c-.059 0-.082.061-.082.218 0 .158-.023.218-.082.218-.068 0-.081.124-.081.79s.013.79.082.79c.054 0 .081.054.081.163 0 .11.027.164.082.164.054 0 .082.054.082.163 0 .11.027.164.081.164.045 0 .082.036.082.081 0 .045.037.082.082.082.045 0 .082.037.082.082a.08.08 0 0 0 .081.081c.045 0 .082.027.082.06 0 .076.627.703.704.703.032 0 .059.035.059.077 0 .043.073.094.163.114.09.02.163.058.163.086 0 .027.037.05.082.05.045 0 .082.037.082.082a.08.08 0 0 0 .078.081c.042 0 .11.033.15.073.04.04.14.09.222.11.082.02.149.061.149.09 0 .03.038.054.085.054.048 0 .123.037.168.082a.393.393 0 0 0 .241.082c.106 0 .16.027.16.081 0 .054.054.082.159.082.087 0 .167.027.178.06.011.033.142.073.29.09.15.016.288.055.31.087.02.033.21.068.421.08.212.012.385.044.385.07 0 .027.429.049.953.049s.953-.022.953-.049c0-.026.173-.058.385-.07.211-.012.401-.047.422-.08.02-.032.16-.071.308-.088.149-.016.28-.056.29-.09.012-.032.092-.059.18-.059.104 0 .158-.028.158-.082 0-.054.054-.081.16-.081a.393.393 0 0 0 .241-.082.359.359 0 0 1 .222-.082c.088 0 .14-.03.14-.081 0-.046.037-.082.082-.082.045 0 .081-.023.081-.05 0-.028.074-.067.164-.086.09-.02.163-.071.163-.114a.08.08 0 0 1 .082-.077c.045 0 .082-.023.082-.05 0-.028.073-.066.163-.086.09-.02.163-.071.163-.114 0-.042.027-.077.06-.077.076 0 .54-.464.54-.54 0-.033.036-.06.081-.06a.082.082 0 0 0 .082-.08c0-.046.037-.082.082-.082a.082.082 0 0 0 .081-.082c0-.045.037-.082.082-.082a.082.082 0 0 0 .082-.082c0-.045.037-.081.082-.081.054 0 .081-.055.081-.164 0-.109.028-.163.082-.163.055 0 .082-.055.082-.164 0-.108.027-.163.082-.163.068 0 .081-.124.081-.79s-.013-.79-.082-.79c-.058 0-.081-.06-.081-.218 0-.157-.023-.218-.082-.218a.082.082 0 0 1-.082-.081.082.082 0 0 0-.081-.082c-.045 0-.082-.028-.082-.062s-.061-.118-.136-.188c-.075-.07-.136-.152-.136-.183 0-.032-.05-.057-.11-.057s-.108-.036-.108-.082c0-.05-.051-.082-.13-.082-.072 0-.145-.036-.162-.081-.018-.045-.092-.082-.165-.082-.073 0-.144-.03-.156-.068-.03-.09-1.388-.098-1.446-.008-.021.033-.13.077-.243.098-.112.02-.204.06-.204.09 0 .028-.037.051-.082.051a.082.082 0 0 0-.081.082.082.082 0 0 1-.082.082c-.045 0-.082.034-.082.076 0 .041-.06.09-.135.11a.233.233 0 0 0-.17.169c-.018.074-.057.135-.086.135-.03 0-.127.074-.216.163-.09.09-.196.164-.236.164-.039 0-.085.037-.103.082-.017.045-.091.081-.164.081-.074 0-.142.026-.153.058-.01.032-.123.072-.25.09-.126.016-.23.051-.23.077 0 .026-.208.048-.463.048s-.463-.022-.463-.048c0-.026-.104-.06-.23-.078-.127-.017-.24-.057-.25-.089-.01-.032-.08-.058-.153-.058s-.147-.036-.164-.081c-.018-.045-.064-.082-.103-.082-.04 0-.146-.074-.236-.163-.09-.09-.187-.164-.216-.164-.029 0-.068-.06-.087-.135a.233.233 0 0 0-.169-.17c-.074-.018-.135-.068-.135-.11 0-.041-.037-.075-.082-.075a.082.082 0 0 1-.082-.082.082.082 0 0 0-.081-.082c-.045 0-.082-.023-.082-.052 0-.028-.092-.069-.204-.09-.113-.02-.22-.06-.238-.088-.036-.056-1.003-.102-1.287-.06Zm-7.279 5.93c-.02.053-.106.081-.25.081-.121 0-.22.023-.22.05 0 .028-.074.066-.163.086-.09.02-.164.057-.164.082s-.073.062-.163.082c-.09.02-.164.07-.164.113a.08.08 0 0 1-.081.077.082.082 0 0 0-.082.082c0 .045-.023.082-.051.082-.028 0-.068.053-.088.117a.704.704 0 0 1-.17.24.645.645 0 0 0-.164.319c-.017.107-.053.195-.079.195-.026 0-.047.331-.047.736 0 .411.022.735.05.735.027 0 .066.074.086.163.02.09.056.164.08.164s.06.061.078.136c.02.075.059.136.088.136.03 0 .053.038.053.084 0 .046.037.097.082.114.045.018.082.066.082.108 0 .041.037.076.082.076.044 0 .081.036.081.081 0 .045.037.082.082.082.05 0 .082.051.082.136 0 .085.03.136.081.136.045 0 .082.037.082.082 0 .045.037.082.082.082a.08.08 0 0 1 .081.081c0 .045.037.082.082.082.045 0 .082.037.082.082 0 .045.037.081.082.081.045 0 .081.037.081.082 0 .045.037.082.082.082.045 0 .082.037.082.082a.08.08 0 0 0 .081.081c.045 0 .082.037.082.082 0 .045.026.082.058.082.076 0 .214.138.214.214 0 .032.037.058.082.058a.08.08 0 0 1 .082.078c0 .042.073.093.163.113.09.02.164.07.164.113a.08.08 0 0 0 .081.077c.045 0 .082.025.082.055s.037.054.082.054c.045 0 .082.037.082.082 0 .045.036.082.081.082.045 0 .082.037.082.082 0 .044.037.081.082.081.045 0 .081.024.081.054 0 .029.062.068.137.087.075.019.136.069.136.11 0 .042.037.076.081.076.045 0 .082.023.082.05 0 .028.074.067.164.086.09.02.163.07.163.113a.08.08 0 0 0 .082.078c.045 0 .082.022.082.048 0 .027.06.064.136.083.075.019.136.058.136.088 0 .03.037.053.083.053.046 0 .098.037.115.082.017.045.09.082.162.082.08 0 .13.032.13.081 0 .045.047.082.105.082.058 0 .142.037.187.082.045.045.12.081.167.081.047 0 .086.037.086.082 0 .05.05.082.13.082.072 0 .145.037.162.082.017.044.083.081.146.081a.32.32 0 0 1 .196.082.308.308 0 0 0 .187.082c.057 0 .105.024.105.053 0 .03.096.07.214.089.118.018.228.068.244.11.016.04.09.075.167.075.075 0 .137.022.137.05 0 .029.11.068.246.089.134.02.245.058.245.085 0 .026.062.048.137.048.076 0 .153.037.17.082.021.055.108.081.267.081.136 0 .27.035.317.082.046.046.179.082.303.082.161 0 .222.022.222.081 0 .064.073.082.327.082s.327.018.327.082c0 .065.079.082.385.082.27 0 .41.024.467.081.062.062.217.082.645.082.402 0 .57.02.586.068.018.052.374.068 1.539.068s1.521-.016 1.539-.068c.016-.049.184-.068.586-.068.428 0 .583-.02.645-.082.058-.057.197-.081.467-.081.306 0 .385-.017.385-.082 0-.064.073-.082.327-.082s.327-.018.327-.082c0-.059.061-.081.222-.081.124 0 .257-.036.303-.082.048-.047.18-.082.317-.082.16 0 .246-.026.267-.081.017-.045.094-.082.17-.082.075 0 .137-.021.137-.047s.104-.062.23-.079c.127-.017.24-.057.25-.088.011-.032.08-.059.153-.059s.146-.033.162-.075c.016-.041.126-.09.244-.11.118-.018.214-.058.214-.088 0-.03.048-.053.105-.053a.308.308 0 0 0 .187-.082.359.359 0 0 1 .222-.082c.088 0 .14-.03.14-.081 0-.051.051-.082.136-.082.085 0 .136-.031.136-.082 0-.054.055-.081.164-.081.109 0 .163-.028.163-.082 0-.046.049-.082.109-.082s.109-.036.109-.082c0-.05.05-.081.13-.081.072 0 .145-.037.162-.082.017-.045.093-.082.17-.082.085 0 .137-.03.137-.082 0-.044.037-.081.082-.081.045 0 .082-.025.082-.055s.037-.054.082-.054c.045 0 .124-.05.175-.11.052-.059.116-.108.143-.108.028 0 .104-.058.17-.13a.693.693 0 0 1 .238-.167c.065-.02.118-.06.118-.088 0-.028.036-.05.081-.05a.082.082 0 0 0 .082-.082c0-.045.037-.082.082-.082a.082.082 0 0 0 .081-.082c0-.045.037-.082.082-.082.045 0 .082-.024.082-.054s.035-.055.079-.055c.043 0 .162-.085.264-.19.102-.105.213-.19.248-.19.034 0 .063-.027.063-.06 0-.075.138-.213.214-.213.032 0 .058-.037.058-.082 0-.045.037-.082.082-.082a.082.082 0 0 0 .081-.081c0-.045.037-.082.082-.082a.082.082 0 0 0 .082-.082.08.08 0 0 1 .081-.081.082.082 0 0 0 .082-.082c0-.045.037-.082.082-.082a.082.082 0 0 0 .081-.082c0-.045.037-.081.082-.081a.082.082 0 0 0 .082-.082c0-.045.037-.082.082-.082.05 0 .081-.051.081-.136 0-.085.031-.136.082-.136a.082.082 0 0 0 .082-.082.08.08 0 0 1 .081-.081c.045 0 .082-.035.082-.076 0-.042.037-.09.082-.108a.134.134 0 0 0 .082-.114c0-.046.024-.084.053-.084.03 0 .069-.061.088-.136.018-.075.054-.136.078-.136s.06-.074.08-.164c.02-.09.059-.163.086-.163.028 0 .05-.324.05-.735 0-.405-.021-.736-.048-.736s-.066-.09-.086-.202a.675.675 0 0 0-.164-.319.676.676 0 0 1-.162-.233c-.02-.065-.06-.117-.088-.117-.028 0-.05-.037-.05-.082a.082.082 0 0 0-.082-.082.08.08 0 0 1-.082-.077c0-.043-.074-.094-.164-.113-.09-.02-.163-.057-.163-.082s-.074-.062-.163-.082c-.09-.02-.164-.058-.164-.086 0-.027-.099-.05-.22-.05-.144 0-.23-.028-.25-.082-.024-.06-.121-.081-.384-.081-.24 0-.378.026-.434.081-.047.048-.18.082-.317.082-.159 0-.246.026-.267.082-.017.045-.082.081-.144.081-.063 0-.17.062-.24.137-.07.075-.154.136-.188.136s-.062.036-.062.081a.082.082 0 0 1-.081.082.082.082 0 0 0-.082.082.082.082 0 0 1-.082.082.082.082 0 0 0-.082.081.082.082 0 0 1-.081.082.082.082 0 0 0-.082.082.082.082 0 0 1-.082.081.082.082 0 0 0-.081.082c0 .045-.025.082-.055.082s-.054.037-.054.082a.082.082 0 0 1-.082.081.082.082 0 0 0-.082.082.082.082 0 0 1-.081.082.082.082 0 0 0-.082.081.082.082 0 0 1-.082.082.082.082 0 0 0-.082.082.082.082 0 0 1-.081.082.082.082 0 0 0-.082.081.082.082 0 0 1-.082.082.082.082 0 0 0-.081.082.082.082 0 0 1-.082.081c-.045 0-.082.025-.082.055s-.037.054-.081.054a.082.082 0 0 0-.082.082.082.082 0 0 1-.082.082.082.082 0 0 0-.082.081.082.082 0 0 1-.081.082.082.082 0 0 0-.082.082c0 .05-.052.081-.138.081-.076 0-.152.037-.17.082-.016.045-.065.082-.106.082-.042 0-.076.037-.076.082 0 .05-.052.081-.136.081-.085 0-.137.031-.137.082 0 .045-.034.082-.076.082-.041 0-.09.037-.107.081-.017.045-.093.082-.169.082-.086 0-.138.03-.138.082a.082.082 0 0 1-.082.082c-.044 0-.081.022-.081.05 0 .027-.074.066-.164.086-.09.02-.163.056-.163.081 0 .026-.074.063-.163.082-.09.02-.164.059-.164.086 0 .028-.062.05-.138.05-.076 0-.152.037-.169.082-.018.046-.099.082-.185.082a.382.382 0 0 0-.235.082.358.358 0 0 1-.222.081c-.088 0-.14.03-.14.082 0 .06-.064.082-.245.082-.182 0-.246.02-.246.081 0 .063-.069.082-.293.082-.211 0-.303.023-.325.082-.023.059-.115.081-.329.081-.187 0-.305.025-.319.068-.014.044-.181.074-.481.088-.262.011-.475.047-.498.082-.027.044-.436.062-1.377.062-.941 0-1.35-.018-1.377-.062-.023-.035-.236-.07-.498-.082-.3-.014-.466-.044-.481-.088-.014-.043-.132-.068-.32-.068-.213 0-.305-.022-.328-.081-.02-.056-.108-.082-.27-.082-.177 0-.24-.021-.24-.082 0-.062-.07-.081-.299-.081-.23 0-.3-.02-.3-.082 0-.052-.052-.082-.14-.082a.358.358 0 0 1-.222-.081.308.308 0 0 0-.186-.082c-.058 0-.105-.024-.105-.054s-.098-.07-.218-.089c-.12-.019-.218-.054-.218-.078 0-.023-.074-.06-.163-.079-.09-.02-.164-.056-.164-.081 0-.026-.074-.063-.163-.082-.09-.02-.164-.059-.164-.086 0-.028-.037-.05-.082-.05a.082.082 0 0 1-.081-.082c0-.051-.052-.082-.138-.082-.076 0-.152-.037-.17-.081-.017-.045-.065-.082-.106-.082-.042 0-.076-.037-.076-.082 0-.05-.052-.082-.137-.082-.084 0-.136-.03-.136-.081 0-.045-.034-.082-.076-.082-.041 0-.09-.037-.107-.082-.017-.045-.093-.082-.17-.082-.085 0-.137-.03-.137-.081a.082.082 0 0 0-.082-.082.082.082 0 0 1-.081-.082.082.082 0 0 0-.082-.081.082.082 0 0 1-.082-.082.082.082 0 0 0-.082-.082c-.044 0-.081-.024-.081-.054s-.037-.055-.082-.055a.082.082 0 0 1-.082-.081.082.082 0 0 0-.081-.082.082.082 0 0 1-.082-.082.082.082 0 0 0-.082-.081.082.082 0 0 1-.081-.082.082.082 0 0 0-.082-.082.082.082 0 0 1-.082-.082.082.082 0 0 0-.082-.081.082.082 0 0 1-.081-.082.082.082 0 0 0-.082-.082.082.082 0 0 1-.082-.081c0-.045-.024-.082-.054-.082s-.055-.037-.055-.082a.082.082 0 0 0-.081-.082.082.082 0 0 1-.082-.081.082.082 0 0 0-.082-.082.082.082 0 0 1-.082-.082.082.082 0 0 0-.081-.081.082.082 0 0 1-.082-.082.082.082 0 0 0-.082-.082.082.082 0 0 1-.081-.081.082.082 0 0 0-.082-.082c-.045 0-.082-.025-.082-.055s-.037-.054-.082-.054a.082.082 0 0 1-.081-.082c0-.051-.052-.082-.138-.082-.076 0-.152-.036-.17-.081-.02-.056-.107-.082-.266-.082-.137 0-.27-.034-.317-.082-.056-.056-.194-.081-.434-.081-.263 0-.36.02-.384.081Zm-7.674 5.945c-.052.015-.095.05-.095.077 0 .028-.062.05-.138.05-.076 0-.152.038-.17.083-.017.045-.09.081-.161.081-.08 0-.13.032-.13.082 0 .045-.024.082-.053.082-.069 0-.438.369-.438.437 0 .03-.037.053-.081.053-.052 0-.082.052-.082.138 0 .076-.037.152-.082.17-.053.02-.082.104-.082.243 0 .152-.023.212-.081.212-.068 0-.082.099-.082.568 0 .432.02.587.082.65.045.044.081.156.081.248 0 .113.027.168.082.168.05 0 .082.051.082.136 0 .085.03.136.082.136.044 0 .081.037.081.082 0 .045.025.082.055.082s.054.037.054.082c0 .045.05.124.11.175.059.052.108.125.108.163 0 .038.037.07.082.07.045 0 .081.037.081.081 0 .045.037.082.082.082.045 0 .082.028.082.062s.061.119.136.188c.075.07.136.152.136.183 0 .032.037.057.082.057.045 0 .082.037.082.082 0 .045.034.082.076.082.041 0 .09.061.11.136.018.075.058.136.087.136.03 0 .053.037.053.082 0 .045.037.082.082.082.045 0 .082.036.082.081 0 .045.027.082.06.082s.265.207.515.459c.251.252.506.474.567.494.06.02.11.058.11.086 0 .028.037.05.082.05.045 0 .082.025.082.055 0 .07.202.272.273.272.03 0 .054.037.054.082 0 .045.037.082.082.082a.08.08 0 0 1 .081.081c0 .045.037.082.082.082.045 0 .082.037.082.082 0 .045.037.082.081.082.045 0 .082.023.082.05 0 .028.053.068.118.089.064.02.171.095.238.167.066.071.148.13.182.13s.061.036.061.081c0 .045.038.082.084.082.046 0 .097.037.115.082.017.044.09.081.161.081.08 0 .13.032.13.082 0 .045.037.082.082.082.045 0 .082.036.082.081 0 .045.037.082.082.082.045 0 .082.024.082.053 0 .03.059.069.132.087.072.018.145.068.161.11a.13.13 0 0 0 .113.077c.046 0 .084.024.084.053 0 .03.06.069.132.087.073.018.145.068.162.11a.13.13 0 0 0 .113.077c.046 0 .083.024.083.053 0 .03.061.069.136.088.075.019.136.053.136.077 0 .023.062.058.137.077.075.018.136.058.136.087 0 .03.037.053.083.053.046 0 .098.037.115.082.017.045.09.082.162.082.08 0 .13.032.13.082 0 .054.055.081.163.081.11 0 .164.028.164.082 0 .045.037.082.082.082.044 0 .081.037.081.081 0 .055.055.082.164.082.109 0 .163.027.163.082 0 .054.055.082.163.082.09 0 .164.024.164.053 0 .03.067.07.15.09a.57.57 0 0 1 .221.11c.04.04.108.073.15.073.043 0 .078.023.078.05 0 .028.078.068.174.089a.609.609 0 0 1 .25.113.26.26 0 0 0 .152.075c.043 0 .078.021.078.047 0 .027.103.062.23.079s.24.057.25.089c.01.032.078.058.15.058.081 0 .132.031.132.081 0 .057.057.082.187.082.103 0 .224.037.269.082a.358.358 0 0 0 .221.081c.089 0 .14.03.14.082 0 .06.064.082.246.082.181 0 .245.021.245.082 0 .058.06.081.212.081.138 0 .223.029.243.082.02.054.106.082.247.082.118 0 .223.025.233.056.01.03.117.07.236.09.12.019.233.058.253.087.02.03.16.066.313.08.153.015.278.046.278.07 0 .023.147.059.327.08.18.02.327.057.327.081s.147.061.327.082c.18.021.326.057.326.08s.175.054.388.07c.213.015.403.052.422.083.02.03.266.064.548.075.347.013.52.04.535.087.017.05.211.068.723.068.55 0 .717.018.781.082.123.122 3.815.122 3.938 0 .064-.064.232-.082.781-.082.512 0 .706-.018.723-.068.015-.046.188-.074.535-.087.282-.011.529-.045.548-.075.019-.03.209-.068.422-.084.213-.015.388-.046.388-.07 0-.022.147-.058.326-.079.18-.02.327-.058.327-.082s.147-.06.327-.081c.18-.021.327-.057.327-.08 0-.024.127-.055.284-.07.156-.015.292-.055.304-.088.01-.034.117-.062.235-.062.141 0 .226-.028.247-.082.02-.055.108-.081.27-.081.177 0 .24-.022.24-.082 0-.059.06-.082.217-.082.158 0 .218-.023.218-.081 0-.061.064-.082.245-.082.182 0 .245-.021.245-.082 0-.058.06-.082.213-.082.138 0 .223-.028.243-.081.018-.048.1-.082.197-.082.11 0 .165-.027.165-.082 0-.051.052-.081.14-.081a.36.36 0 0 0 .222-.082.393.393 0 0 1 .24-.082c.088 0 .16-.022.16-.05 0-.028.074-.066.164-.086.09-.02.163-.056.163-.082 0-.025.074-.062.164-.081.09-.02.163-.056.163-.08 0-.025.061-.06.136-.079.075-.019.136-.058.136-.088 0-.029.074-.053.164-.053.109 0 .163-.027.163-.082 0-.054.055-.081.163-.081.11 0 .164-.028.164-.082 0-.055.054-.082.163-.082.11 0 .164-.027.164-.082 0-.044.026-.081.058-.081s.095-.037.14-.082a.308.308 0 0 1 .187-.082c.058 0 .105-.036.105-.081 0-.05.05-.082.13-.082.072 0 .145-.037.162-.082.017-.045.093-.081.17-.081.086 0 .137-.031.137-.082 0-.045.037-.082.082-.082.045 0 .082-.022.082-.049 0-.026.066-.065.147-.085a.65.65 0 0 0 .264-.163.679.679 0 0 1 .234-.163c.064-.02.117-.06.117-.088 0-.028.038-.051.084-.051a.13.13 0 0 0 .112-.077c.017-.042.09-.092.162-.11.073-.018.133-.057.133-.087 0-.029.036-.053.081-.053a.082.082 0 0 0 .082-.082c0-.045.034-.081.076-.081.041 0 .09-.037.107-.082.017-.045.079-.082.136-.082.058 0 .12-.037.136-.081a.134.134 0 0 1 .115-.082.083.083 0 0 0 .084-.082c0-.045.027-.082.061-.082s.116-.058.182-.13a.695.695 0 0 1 .238-.166c.065-.021.118-.06.118-.089 0-.027.037-.05.081-.05a.082.082 0 0 0 .082-.082c0-.045.037-.082.082-.082a.082.082 0 0 0 .082-.081.08.08 0 0 1 .081-.082.082.082 0 0 0 .082-.082c0-.045.024-.082.052-.082.03 0 .166-.11.305-.245.139-.135.274-.245.3-.245.026 0 .217-.172.425-.381.208-.21.404-.381.438-.381.033 0 .06-.037.06-.082 0-.045.037-.082.081-.082a.082.082 0 0 0 .082-.082c0-.045.037-.081.082-.081a.082.082 0 0 0 .082-.082c0-.045.023-.082.053-.082s.069-.061.088-.136c.018-.075.068-.136.11-.136.041 0 .075-.037.075-.082 0-.045.037-.081.082-.081.045 0 .082-.025.082-.055s.098-.15.218-.266c.12-.116.218-.239.218-.272 0-.034.036-.061.081-.061.045 0 .082-.032.082-.07 0-.038.049-.111.109-.163.06-.051.109-.13.109-.175 0-.045.024-.082.054-.082s.055-.037.055-.082c0-.045.037-.082.081-.082.051 0 .082-.051.082-.136 0-.085.031-.136.082-.136.055 0 .082-.055.082-.167 0-.093.036-.205.081-.25.063-.062.082-.217.082-.65 0-.468-.014-.567-.082-.567-.059 0-.081-.06-.081-.218s-.023-.218-.082-.218c-.054 0-.082-.055-.082-.164 0-.109-.027-.163-.082-.163a.082.082 0 0 1-.081-.082.082.082 0 0 0-.082-.081c-.045 0-.082-.025-.082-.055 0-.07-.201-.272-.272-.272-.03 0-.055-.037-.055-.082 0-.05-.05-.082-.136-.082-.084 0-.136-.03-.136-.081 0-.054-.054-.082-.159-.082-.087 0-.169-.03-.181-.068-.017-.05-.222-.068-.776-.068-.555 0-.76.018-.777.068-.012.037-.094.068-.181.068-.1 0-.16.028-.16.076 0 .041-.06.09-.135.11-.075.019-.136.058-.136.087 0 .03-.05.054-.11.054s-.108.036-.108.082a.082.082 0 0 1-.082.081c-.045 0-.082.028-.082.062s-.061.119-.136.188c-.075.07-.136.152-.136.183 0 .032-.034.057-.076.057-.042 0-.091.062-.11.137-.019.075-.058.136-.088.136-.029 0-.053.037-.053.081a.082.082 0 0 1-.082.082.082.082 0 0 0-.081.082.082.082 0 0 1-.082.082.082.082 0 0 0-.082.081.082.082 0 0 1-.082.082.082.082 0 0 0-.081.082.082.082 0 0 1-.082.081.082.082 0 0 0-.082.082.082.082 0 0 1-.081.082.082.082 0 0 0-.082.082.082.082 0 0 1-.082.081c-.045 0-.081.027-.081.06 0 .076-.628.703-.704.703-.033 0-.06.037-.06.082a.082.082 0 0 1-.08.081.082.082 0 0 0-.082.082.082.082 0 0 1-.082.082.082.082 0 0 0-.082.081.082.082 0 0 1-.082.082.082.082 0 0 0-.081.082.082.082 0 0 1-.082.082c-.045 0-.082.022-.082.05 0 .028-.054.068-.12.09a.75.75 0 0 0-.257.194c-.076.085-.158.156-.184.156-.025 0-.12.073-.21.163-.09.09-.198.164-.24.164-.043 0-.078.024-.078.054s-.037.055-.082.055c-.045 0-.082.034-.082.075 0 .042-.06.092-.136.11-.075.02-.136.059-.136.088 0 .03-.037.053-.083.053a.134.134 0 0 0-.115.082c-.018.045-.066.082-.107.082-.042 0-.076.037-.076.081 0 .051-.052.082-.136.082-.085 0-.137.031-.137.082 0 .054-.054.082-.163.082-.109 0-.163.027-.163.081 0 .045-.035.082-.076.082-.042 0-.09.037-.108.082-.017.045-.093.082-.169.082-.086 0-.138.03-.138.081 0 .05-.05.082-.13.082-.072 0-.145.037-.162.082a.134.134 0 0 1-.115.081c-.046 0-.083.023-.083.05 0 .028-.073.067-.163.086-.09.02-.164.059-.164.087 0 .027-.062.05-.138.05-.076 0-.152.036-.169.081-.017.045-.09.082-.162.082-.08 0-.13.032-.13.082 0 .054-.055.081-.163.081-.11 0-.164.028-.164.082 0 .054-.054.082-.16.082a.393.393 0 0 0-.24.082.359.359 0 0 1-.222.081c-.089 0-.14.03-.14.082 0 .055-.055.082-.168.082-.092 0-.204.036-.249.081a.393.393 0 0 1-.241.082c-.105 0-.16.028-.16.082 0 .059-.06.082-.213.082-.117 0-.222.026-.233.058-.01.032-.123.072-.25.089-.126.017-.23.05-.23.074 0 .025-.11.06-.245.081-.135.02-.245.055-.245.078s-.101.055-.226.071c-.124.017-.24.054-.258.082-.018.028-.165.063-.325.078s-.308.052-.327.082c-.02.03-.193.066-.386.08-.2.014-.36.052-.372.089-.014.042-.178.064-.482.064-.358 0-.467.018-.491.081-.026.067-.156.082-.702.082-.488 0-.677.019-.693.068-.018.053-.418.068-1.757.068s-1.74-.015-1.757-.068c-.016-.05-.205-.068-.693-.068-.546 0-.676-.015-.702-.082-.024-.062-.124-.081-.418-.081-.271 0-.411-.025-.469-.082-.056-.057-.195-.082-.454-.082-.216 0-.381-.024-.392-.058-.011-.032-.13-.072-.264-.09-.134-.017-.26-.056-.279-.085-.019-.03-.16-.066-.313-.08-.153-.015-.278-.046-.278-.069 0-.023-.11-.058-.245-.078-.135-.02-.245-.056-.245-.08 0-.025-.104-.059-.23-.075-.127-.017-.24-.057-.25-.09-.011-.031-.09-.057-.175-.057a.384.384 0 0 1-.236-.082.353.353 0 0 0-.218-.082.353.353 0 0 1-.218-.081c-.045-.046-.157-.082-.25-.082-.112 0-.166-.027-.166-.082 0-.051-.052-.082-.14-.082a.359.359 0 0 1-.222-.081.393.393 0 0 0-.242-.082c-.105 0-.16-.028-.16-.082 0-.054-.054-.082-.162-.082-.11 0-.164-.027-.164-.081 0-.05-.05-.082-.13-.082-.072 0-.145-.037-.162-.082-.017-.044-.093-.081-.17-.081-.075 0-.137-.023-.137-.05 0-.028-.074-.067-.164-.087-.09-.02-.163-.058-.163-.086 0-.027-.037-.05-.083-.05a.134.134 0 0 1-.115-.081c-.017-.045-.09-.082-.162-.082-.076 0-.13-.032-.13-.078 0-.042-.074-.093-.164-.113-.09-.02-.163-.058-.163-.086 0-.027-.037-.05-.082-.05a.082.082 0 0 1-.082-.082c0-.05-.05-.081-.136-.081-.084 0-.136-.031-.136-.082 0-.045-.048-.082-.109-.082-.06 0-.109-.024-.109-.053 0-.03-.061-.069-.136-.088-.075-.019-.136-.068-.136-.11 0-.041-.05-.076-.109-.076-.06 0-.109-.024-.109-.053 0-.03-.061-.069-.136-.088-.075-.018-.136-.068-.136-.11 0-.041-.037-.075-.082-.075-.045 0-.082-.025-.082-.055s-.037-.054-.081-.054c-.045 0-.082-.035-.082-.076 0-.042-.061-.091-.136-.11-.075-.019-.136-.058-.136-.088 0-.03-.032-.053-.07-.053-.038 0-.131-.07-.207-.156a.75.75 0 0 0-.257-.195c-.066-.02-.12-.06-.12-.089 0-.028-.037-.05-.082-.05a.082.082 0 0 1-.082-.082.082.082 0 0 0-.081-.082.082.082 0 0 1-.082-.082.082.082 0 0 0-.082-.081.082.082 0 0 1-.082-.082.082.082 0 0 0-.081-.082.082.082 0 0 1-.082-.081c0-.045-.026-.082-.059-.082-.077 0-.867-.79-.867-.867 0-.033-.037-.06-.082-.06a.082.082 0 0 1-.081-.08.082.082 0 0 0-.082-.083.082.082 0 0 1-.082-.081.082.082 0 0 0-.081-.082.082.082 0 0 1-.082-.082.082.082 0 0 0-.082-.081.082.082 0 0 1-.082-.082.082.082 0 0 0-.081-.082.082.082 0 0 1-.082-.082c0-.044-.024-.081-.053-.081-.03 0-.07-.062-.088-.136-.019-.075-.068-.137-.11-.137-.042 0-.076-.025-.076-.057 0-.031-.061-.114-.136-.183-.075-.07-.136-.154-.136-.188s-.037-.062-.082-.062a.082.082 0 0 1-.082-.081c0-.046-.048-.082-.108-.082s-.11-.024-.11-.054c0-.029-.06-.069-.136-.087-.075-.02-.136-.069-.136-.11 0-.048-.06-.076-.159-.076-.087 0-.169-.03-.181-.068-.017-.05-.213-.07-.7-.078-.371-.005-.719.003-.771.018Zm-19.542 8.925c0 .055-.054.082-.163.082-.09 0-.164.022-.164.05 0 .028-.073.066-.163.086-.09.02-.164.057-.164.082 0 .026-.051.063-.114.083-.131.042-.321.218-.321.298 0 .03-.034.054-.076.054-.042 0-.091.062-.11.137-.019.075-.056.136-.083.136-.027 0-.066.073-.085.163-.02.09-.059.164-.086.164-.028 0-.05.073-.05.163 0 .11-.028.164-.082.164-.073 0-.082 1.158-.082 10.098 0 8.927.01 10.103.082 10.13.047.019.081.1.081.197 0 .09.024.165.054.165s.068.06.087.132c.018.073.067.146.11.162.042.016.076.092.076.167 0 .087.03.138.082.138.045 0 .082.037.082.082 0 .045.036.082.081.082.045 0 .082.024.082.053 0 .03.061.069.136.088.075.019.136.068.136.11 0 .048.06.076.164.076.109 0 .163.027.163.081 0 .054.054.082.16.082.087 0 .168.03.18.068.019.054 3.243.07 15.83.082l15.805.014v4.739h-3.867c-2.42 0-3.868.02-3.868.052 0 .029-.085.069-.19.088-.105.02-.19.055-.19.078 0 .024-.062.058-.137.077-.075.019-.136.056-.136.083 0 .027-.074.066-.164.085-.09.02-.163.071-.163.114a.08.08 0 0 1-.082.077.082.082 0 0 0-.082.082c0 .045-.024.081-.053.081-.03 0-.069.062-.088.137-.018.075-.068.136-.11.136-.041 0-.075.037-.075.081 0 .045-.025.082-.055.082s-.054.062-.054.138c0 .076-.034.151-.076.167-.041.016-.09.125-.11.243-.018.118-.056.215-.083.215-.027 0-.066.073-.085.163-.02.09-.057.164-.082.164s-.062.073-.082.163c-.02.09-.058.163-.086.163-.027 0-.05.063-.05.138 0 .076-.037.152-.082.17-.045.017-.081.09-.081.161 0 .08-.032.13-.082.13-.055 0-.082.055-.082.164 0 .11-.027.163-.081.163-.055 0-.082.055-.082.164 0 .109-.027.163-.082.163-.054 0-.082.055-.082.164 0 .109-.027.163-.081.163-.055 0-.082.055-.082.164 0 .109-.027.163-.082.163-.054 0-.081.055-.081.163 0 .09-.022.164-.05.164-.026 0-.063.061-.082.136-.019.075-.058.136-.087.136-.03 0-.054.047-.054.105a.307.307 0 0 1-.082.187.36.36 0 0 0-.081.222c0 .088-.03.14-.082.14-.054 0-.082.054-.082.163 0 .11-.027.164-.081.164-.055 0-.082.054-.082.163 0 .11-.027.163-.082.163-.054 0-.081.055-.081.164 0 .109-.028.163-.082.163-.055 0-.082.055-.082.164 0 .109-.027.163-.082.163-.05 0-.081.052-.081.136 0 .075-.023.137-.05.137-.028 0-.067.073-.087.163-.02.09-.056.163-.081.163-.026 0-.062.074-.082.164-.02.09-.056.163-.082.163-.025 0-.062.074-.081.164-.02.09-.057.163-.082.163s-.062.074-.082.163c-.02.09-.058.164-.086.164-.027 0-.05.062-.05.138 0 .076-.037.152-.082.169-.045.017-.081.09-.081.162 0 .08-.032.13-.082.13-.055 0-.082.055-.082.163v.164h-4.358c-3.837 0-4.357.01-4.357.082 0 .054-.055.081-.164.081-.09 0-.163.023-.163.05 0 .028-.074.067-.164.087-.09.02-.163.057-.163.084 0 .028-.061.065-.136.084-.075.019-.136.068-.136.11 0 .041-.037.076-.082.076a.082.082 0 0 0-.082.081.082.082 0 0 1-.081.082c-.051 0-.082.051-.082.136 0 .085-.031.136-.082.136-.054 0-.082.055-.082.164 0 .109-.027.163-.081.163-.052 0-.082.052-.082.14a.36.36 0 0 1-.082.222c-.116.117-.116 1.066 0 1.183a.359.359 0 0 1 .082.222c0 .088.03.14.082.14.054 0 .081.054.081.163 0 .11.028.164.082.164.05 0 .082.051.082.136 0 .085.03.136.082.136.044 0 .081.037.081.082 0 .045.037.081.082.081.045 0 .082.037.082.082 0 .05.051.082.136.082.085 0 .136.03.136.081 0 .045.047.082.105.082.058 0 .142.037.187.082a.359.359 0 0 0 .222.082c.088 0 .14.03.14.081 0 .073 3.271.082 29.115.082 25.844 0 29.115-.01 29.115-.082 0-.051.052-.081.14-.081a.36.36 0 0 0 .222-.082.307.307 0 0 1 .187-.082c.058 0 .105-.037.105-.082 0-.05.051-.081.136-.081.085 0 .136-.031.136-.082 0-.045.037-.082.082-.082a.082.082 0 0 0 .082-.081c0-.045.037-.082.081-.082.051 0 .082-.052.082-.136 0-.085.031-.136.082-.136.054 0 .082-.055.082-.164 0-.109.027-.163.081-.163.054 0 .082-.054.082-.16 0-.087.031-.168.068-.18.047-.016.074-.195.087-.568.015-.443.002-.562-.068-.632a.365.365 0 0 1-.087-.227c0-.088-.03-.14-.082-.14-.054 0-.081-.054-.081-.163 0-.11-.028-.164-.082-.164-.051 0-.082-.051-.082-.136 0-.085-.031-.136-.082-.136a.082.082 0 0 1-.081-.082.082.082 0 0 0-.082-.081c-.045 0-.082-.035-.082-.076 0-.042-.061-.091-.136-.11-.075-.019-.136-.056-.136-.084 0-.026-.074-.065-.163-.084-.09-.02-.164-.059-.164-.087 0-.027-.073-.05-.163-.05-.109 0-.164-.027-.164-.081 0-.072-.52-.082-4.357-.082H95.9v-.163c0-.11-.027-.164-.082-.164-.05 0-.082-.05-.082-.13 0-.072-.036-.145-.081-.162-.045-.017-.082-.09-.082-.163 0-.073-.037-.147-.082-.164-.045-.017-.082-.093-.082-.17 0-.075-.022-.137-.05-.137-.027 0-.066-.073-.086-.163-.02-.09-.056-.164-.081-.164-.026 0-.062-.073-.082-.163-.02-.09-.056-.164-.082-.164-.025 0-.062-.073-.082-.163-.02-.09-.058-.163-.085-.163-.028 0-.05-.062-.05-.137 0-.084-.032-.136-.082-.136-.055 0-.082-.054-.082-.163 0-.11-.027-.164-.082-.164-.054 0-.081-.054-.081-.163 0-.109-.028-.163-.082-.163-.055 0-.082-.055-.082-.164 0-.109-.027-.163-.082-.163-.054 0-.081-.055-.081-.164 0-.109-.028-.163-.082-.163-.055 0-.082-.055-.082-.163 0-.09-.024-.164-.053-.164-.03 0-.07-.067-.091-.15a.568.568 0 0 0-.11-.221.256.256 0 0 1-.073-.15c0-.043-.024-.078-.054-.078s-.054-.074-.054-.164c0-.109-.028-.163-.082-.163-.051 0-.082-.052-.082-.138 0-.076-.037-.152-.082-.17-.046-.017-.081-.098-.081-.188 0-.104-.028-.158-.082-.158-.055 0-.082-.054-.082-.163 0-.109-.027-.163-.081-.163-.055 0-.082-.055-.082-.164 0-.109-.027-.163-.082-.163-.05 0-.082-.051-.082-.13 0-.072-.036-.145-.081-.162-.045-.018-.082-.094-.082-.17 0-.076-.022-.138-.05-.138-.028 0-.067-.073-.086-.163-.02-.09-.057-.163-.082-.163s-.062-.074-.082-.164c-.02-.09-.055-.163-.079-.163-.023 0-.058-.098-.078-.218-.019-.12-.057-.218-.084-.218-.027 0-.066-.073-.085-.163-.02-.09-.059-.164-.086-.164-.028 0-.05-.037-.05-.082 0-.044-.035-.081-.076-.081-.042 0-.092-.062-.11-.136-.02-.075-.059-.137-.088-.137-.03 0-.053-.036-.053-.081a.082.082 0 0 0-.082-.082.08.08 0 0 1-.082-.077c0-.043-.073-.094-.163-.114-.09-.02-.164-.058-.164-.085 0-.027-.061-.064-.136-.083-.075-.019-.136-.053-.136-.077 0-.023-.086-.058-.19-.078-.106-.02-.191-.059-.191-.088 0-.032-1.448-.052-3.868-.052H82.61v-4.738l15.806-.014c12.586-.011 15.81-.028 15.828-.082.013-.037.094-.068.182-.068.105 0 .159-.028.159-.082 0-.05.051-.082.138-.082.075 0 .151-.034.167-.076.016-.043.089-.092.162-.11.072-.019.132-.058.132-.087 0-.03.037-.053.082-.053a.081.081 0 0 0 .081-.082c0-.045.037-.082.082-.082.051 0 .082-.051.082-.138 0-.075.034-.15.077-.167.042-.016.091-.089.11-.162.018-.073.057-.132.086-.132.03 0 .054-.086.054-.19 0-.134.024-.191.081-.191.072 0 .082-.466.082-3.868v-3.867H58.586v-.242c0-.141-.033-.274-.081-.322-.046-.046-.082-.18-.082-.304 0-.16-.022-.222-.082-.222-.06 0-.081-.063-.081-.245 0-.181-.022-.245-.082-.245-.06 0-.082-.064-.082-.245 0-.182-.021-.245-.081-.245-.052 0-.082-.052-.082-.14a.358.358 0 0 0-.082-.222.393.393 0 0 1-.082-.241c0-.106-.027-.16-.081-.16-.05 0-.082-.05-.082-.13 0-.072-.037-.145-.082-.162a.134.134 0 0 1-.081-.115c0-.046-.023-.083-.05-.083-.028 0-.067-.074-.087-.163-.02-.09-.055-.164-.08-.164-.024 0-.06-.061-.078-.136-.019-.075-.059-.136-.088-.136-.03 0-.053-.037-.053-.082a.082.082 0 0 0-.082-.082c-.054 0-.082-.054-.082-.163 0-.11-.027-.164-.081-.164a.082.082 0 0 1-.082-.081.082.082 0 0 0-.082-.082c-.05 0-.081-.051-.081-.136 0-.085-.031-.136-.082-.136-.045 0-.082-.034-.082-.076 0-.042-.037-.09-.082-.108a.134.134 0 0 1-.081-.114.083.083 0 0 0-.082-.084c-.045 0-.082-.026-.082-.058 0-.077-.627-.704-.704-.704-.032 0-.058-.037-.058-.082a.082.082 0 0 0-.082-.082.082.082 0 0 1-.082-.081.082.082 0 0 0-.081-.082.082.082 0 0 1-.082-.082.082.082 0 0 0-.082-.082.082.082 0 0 1-.082-.081.082.082 0 0 0-.081-.082.082.082 0 0 1-.082-.082c0-.045-.028-.081-.062-.081s-.116-.059-.182-.13a.693.693 0 0 0-.238-.167c-.064-.02-.117-.06-.117-.088 0-.028-.038-.051-.084-.051a.13.13 0 0 1-.113-.077c-.016-.042-.089-.092-.161-.11-.073-.018-.133-.057-.133-.086 0-.03-.036-.054-.081-.054a.082.082 0 0 1-.082-.082c0-.054-.054-.081-.163-.081-.11 0-.164-.028-.164-.082 0-.05-.05-.082-.13-.082-.072 0-.145-.036-.162-.081a.134.134 0 0 0-.115-.082c-.045 0-.083-.024-.083-.054 0-.029-.067-.07-.15-.09a.57.57 0 0 1-.221-.11.288.288 0 0 0-.178-.073c-.057 0-.105-.021-.105-.048 0-.026-.098-.063-.218-.082-.12-.02-.217-.059-.217-.089s-.063-.053-.138-.053c-.076 0-.152-.037-.17-.082-.02-.053-.105-.082-.24-.082-.119 0-.228-.032-.253-.074-.024-.04-.166-.087-.314-.103-.15-.017-.28-.057-.29-.09-.012-.034-.157-.06-.343-.06-.25 0-.322-.018-.322-.081 0-.068-.097-.082-.545-.082-.448 0-.545-.015-.545-.082 0-.072-.511-.081-4.276-.081H39.74v-1.498c0-1.296-.011-1.498-.082-1.498-.054 0-.081-.055-.081-.164 0-.09-.023-.163-.05-.163-.028 0-.067-.074-.087-.164-.02-.09-.056-.163-.082-.163-.025 0-.062-.05-.082-.112-.046-.144-.37-.468-.514-.514-.061-.02-.111-.056-.111-.082 0-.025-.074-.062-.164-.082-.09-.02-.163-.058-.163-.086 0-.028-.074-.05-.164-.05-.109 0-.163-.027-.163-.082 0-.068-.106-.082-.627-.082-.52 0-.626.014-.626.082Zm11.371 9.492c.015.044.136.068.345.068.25 0 .322.018.322.082 0 .063.07.081.3.081.23 0 .3.02.3.082 0 .055.054.082.163.082.09 0 .164.022.164.05 0 .028.073.066.163.086.09.02.163.056.163.082 0 .025.074.062.164.082.09.02.163.056.163.081s.074.062.164.082c.09.02.163.058.163.085 0 .027.061.064.136.083.075.019.136.056.136.083 0 .027.037.049.082.049.045 0 .082.036.082.081 0 .045.031.082.07.082.038 0 .11.049.162.109.051.06.13.109.176.109.045 0 .082.024.082.054s.037.055.082.055a.08.08 0 0 1 .081.081c0 .045.037.082.082.082.045 0 .082.037.082.082 0 .045.037.082.081.082a.08.08 0 0 1 .082.081c0 .045.037.082.082.082.045 0 .082.028.082.062s.058.116.13.182a.694.694 0 0 1 .166.238c.021.064.06.117.089.117.028 0 .05.037.05.082 0 .045.037.082.082.082.046 0 .082.048.082.108 0 .061.036.11.082.11.05 0 .081.05.081.136 0 .084.031.136.082.136.054 0 .082.054.082.163 0 .11.027.164.081.164.055 0 .082.054.082.163 0 .109.027.164.082.164.051 0 .081.051.081.14 0 .077.037.176.082.221.247.247.522.238-6.89.238h-6.973v-4.743l4.176.015c3.282.012 4.181.03 4.2.084Z" fill="url(#a)"/><defs><linearGradient id="a" x1="150.425" y1="21.7" x2="29.194" y2="-7.629" gradientUnits="userSpaceOnUse"><stop stop-color="#D65986"/><stop offset="1" stop-color="#A261F9"/></linearGradient></defs></svg>