<svg width="150" height="120" fill="none" xmlns="http://www.w3.org/2000/svg"><path d="m59.92 43.868.557-.048c.202-.023.395-.097.561-.216l-.004.004a63.034 63.034 0 0 0 2 5.919c1.047 2.705 2.077 4.926 3.23 7.071l-.16-.325c-.095 1.479-.21 2.998-.361 4.468a10.615 10.615 0 0 1-.513 2.547l.02-.073c-.048.02-.116 8.448-.116 8.448a11.808 11.808 0 0 0 2.45 7.208 11.383 11.383 0 0 0 6.291 4.113l.08.016c.11-.293.305-.546.558-.724a1.51 1.51 0 0 1 .862-.275h2.282c.305.004.602.1.854.275.252.176.447.423.562.712l.004.012a11.415 11.415 0 0 0 6.36-4.09 11.843 11.843 0 0 0 2.504-7.238s-.139-8.396-.21-8.453a12.99 12.99 0 0 1-.486-2.409l-.004-.06c-.139-1.48-.23-2.962-.362-4.469.983-1.811 2.013-4.03 2.92-6.316l.15-.43c.816-2.068 1.448-4.038 2-5.918.164.118.354.192.554.215h.004l.56.048c.676.074 1.273-.495 1.329-1.376L95 34.66v-.008c0-.316-.113-.62-.317-.857a1.265 1.265 0 0 0-.793-.43h-.075a29.62 29.62 0 0 0-.962-12.182l.051.207a17.296 17.296 0 0 0-4.973-6.5 16.817 16.817 0 0 0-7.35-3.419l-.104-.016a22.795 22.795 0 0 0-3.95-.455h-.083a21.33 21.33 0 0 0-4.128.48l.144-.025a16.912 16.912 0 0 0-7.361 3.375 17.389 17.389 0 0 0-5.023 6.45l-.044.11a29.212 29.212 0 0 0-.895 12.125l-.016-.15a1.248 1.248 0 0 0-.798.416 1.299 1.299 0 0 0-.323.855v.028l.605 7.844c.055.901.66 1.446 1.312 1.372l.004-.012Z" fill="url(#a)"/><path d="M118.994 95.45c-.278-12.2-1.485-14.962-2.136-16.832-.257-.75-.468-5.824-8.754-9.115-5.08-2.023-11.636-2.063-17.184-4.435v6.598a14.677 14.677 0 0 1-3.306 9.265 14.384 14.384 0 0 1-8.377 5.023l-.092.016c-.059.356-.24.68-.511.915a1.513 1.513 0 0 1-.973.37h-.071v4.976c0 2.336.917 4.575 2.55 6.227a8.658 8.658 0 0 0 6.157 2.579 8.657 8.657 0 0 0 6.157-2.58 8.856 8.856 0 0 0 2.55-6.226v-3.475a4.94 4.94 0 0 1-3.071-1.731 5.044 5.044 0 0 1-1.162-3.356 5.039 5.039 0 0 1 1.334-3.29 4.912 4.912 0 0 1 6.545-.62 5.01 5.01 0 0 1 1.913 2.983 5.06 5.06 0 0 1-.525 3.516 4.969 4.969 0 0 1-2.7 2.277l-.036.012v3.873c0 2.953-1.16 5.784-3.225 7.872a10.946 10.946 0 0 1-7.784 3.261c-2.92 0-5.72-1.173-7.785-3.261a11.197 11.197 0 0 1-3.224-7.872v-.2.007-5.02a1.504 1.504 0 0 1-.914-.394 1.534 1.534 0 0 1-.475-.883v-.008a14.395 14.395 0 0 1-8.394-5.008 14.69 14.69 0 0 1-3.329-9.264V65c-5.572 2.42-12.168 2.468-17.275 4.495-8.31 3.287-8.5 8.348-8.755 9.11-.635 1.879-1.857 4.628-2.135 16.837-.047 1.605 0 4.066 4.786 6.217 10.422 4.134 23.847 5.418 37.082 6.341h1.27c13.263-.915 26.669-2.195 37.082-6.341 4.767-2.14 4.81-4.588 4.767-6.209Zm-58.263-4.977h-4.944v5.021h-3.532V90.49H47.31v-3.572h4.945v-5h3.532v5h4.944v3.556Z" fill="url(#b)"/><path d="M98 83.502a2.5 2.5 0 1 0-5-.003 2.5 2.5 0 0 0 5 .003Z" fill="url(#c)"/><defs><linearGradient id="a" x1="110.725" y1="13.4" x2="52.999" y2="6.223" gradientUnits="userSpaceOnUse"><stop stop-color="#D65986"/><stop offset="1" stop-color="#A261F9"/></linearGradient><linearGradient id="b" x1="155.125" y1="66.433" x2="45.527" y2="14.02" gradientUnits="userSpaceOnUse"><stop stop-color="#D65986"/><stop offset="1" stop-color="#A261F9"/></linearGradient><linearGradient id="c" x1="100.125" y1="81.167" x2="92.642" y2="79.356" gradientUnits="userSpaceOnUse"><stop stop-color="#D65986"/><stop offset="1" stop-color="#A261F9"/></linearGradient></defs></svg>