<svg width="121" height="70" viewBox="0 0 121 70" fill="none" xmlns="http://www.w3.org/2000/svg">
<g clip-path="url(#clip0_1388_17343)">
<path d="M59.2301 4.10675C59.1177 -0.0235443 59.8427 -4.13402 61.3618 -7.97925C62.8808 -11.8245 65.1628 -15.3256 68.0714 -18.2735C70.9801 -21.2215 74.4557 -23.5558 78.2908 -25.1371C82.1259 -26.7185 86.2418 -27.5143 90.3928 -27.4773C107.618 -27.3245 121.196 -12.9413 120.998 4.20365C120.383 57.5953 66.7006 70.0031 66.7006 70.0031L64.3265 62.4332C64.3265 62.4332 87.2174 54.1552 96.0659 33.447C91.6586 34.309 87.1154 34.2043 82.7529 33.1402C78.3904 32.0761 74.3134 30.0782 70.8059 27.2856C67.2984 24.493 64.4447 20.9729 62.4435 16.9705C60.4424 12.968 59.3419 8.57946 59.2188 4.11047L59.2301 4.10675Z" fill="#F3F0FF"/>
<path d="M-17.0863 4.10675C-17.1987 -0.0235443 -16.4737 -4.13402 -14.9547 -7.97925C-13.4356 -11.8245 -11.1536 -15.3256 -8.24502 -18.2735C-5.33639 -21.2215 -1.86077 -23.5558 1.97433 -25.1371C5.80944 -26.7185 9.92539 -27.5143 14.0764 -27.4773C31.3016 -27.3245 44.8796 -12.9413 44.6811 4.20365C44.067 57.5953 -9.61584 70.0031 -9.61584 70.0031L-11.9899 62.4332C-11.9899 62.4332 10.9009 54.1552 19.7495 33.447C15.3422 34.309 10.799 34.2043 6.43652 33.1402C2.07401 32.0761 -2.00304 30.0782 -5.51056 27.2856C-9.01809 24.493 -11.8718 20.9729 -13.8729 16.9705C-15.8741 12.968 -16.9745 8.57946 -17.0976 4.11047L-17.0863 4.10675Z" fill="#F3F0FF"/>
</g>
<defs>
<clipPath id="clip0_1388_17343">
<rect width="121" height="70" fill="white"/>
</clipPath>
</defs>
</svg>
