<svg width="116" height="100" viewBox="0 0 116 100" fill="none" xmlns="http://www.w3.org/2000/svg">
<rect x="0.5" y="0.5" width="115" height="99" rx="19.5" stroke="white"/>
<rect width="108" height="100" rx="20" fill="white"/>
<path d="M34.6096 33.0601L36.4996 41.1101L34.6096 49.1251L41.6446 53.4651L45.9496 60.5001L53.9996 58.6101L62.0496 60.5001L66.3546 53.4651L73.3896 49.1251L71.4996 41.1101L73.3896 33.0601L66.3896 28.7201L62.0496 21.6851L53.9996 23.6101L45.9846 21.7201L41.6096 28.7201L34.6096 33.0601ZM54.0346 55.2501C50.3216 55.2501 46.7606 53.7751 44.1351 51.1496C41.5096 48.524 40.0346 44.9631 40.0346 41.2501C40.0346 37.537 41.5096 33.9761 44.1351 31.3506C46.7606 28.7251 50.3216 27.2501 54.0346 27.2501C61.7346 27.2501 67.9996 33.5151 67.9996 41.2151C67.9996 48.9851 61.7346 55.2501 54.0346 55.2501ZM53.9646 51.7501C48.1546 51.7501 43.4996 47.0601 43.4996 41.2501C43.4996 35.4751 48.1546 30.7501 53.9646 30.7501C59.7746 30.7501 64.4996 35.4751 64.4996 41.2501C64.4996 47.0601 59.7746 51.7501 53.9646 51.7501ZM67.4046 55.6001L62.9246 63.4401L55.6446 61.7951L64.4996 82.2001L69.3996 74.5001H78.1496L67.4046 55.6001ZM40.4546 55.8451L44.8296 63.7201L52.2846 61.9351L43.4996 82.2001L38.5996 74.5001H29.8496L40.4546 55.8451Z" fill="url(#paint0_linear_2858_11343)"/>
<defs>
<linearGradient id="paint0_linear_2858_11343" x1="98.6771" y1="23.7022" x2="24.9069" y2="9.45756" gradientUnits="userSpaceOnUse">
<stop stop-color="#D65986"/>
<stop offset="1" stop-color="#A261F9"/>
</linearGradient>
</defs>
</svg>
