<svg width="12" height="9" viewBox="0 0 12 9" fill="none" xmlns="http://www.w3.org/2000/svg">
<path d="M4.16166 6.8625L10.5179 0.50625C10.6679 0.35625 10.8462 0.28125 11.0527 0.28125C11.2592 0.28125 11.4372 0.35625 11.5867 0.50625C11.7367 0.65625 11.8117 0.8345 11.8117 1.041C11.8117 1.2475 11.7367 1.4255 11.5867 1.575L4.68666 8.475C4.53666 8.625 4.36166 8.7 4.16166 8.7C3.96166 8.7 3.78666 8.625 3.63666 8.475L0.411659 5.25C0.261659 5.1 0.189659 4.92175 0.195659 4.71525C0.201659 4.50875 0.279908 4.33075 0.430408 4.18125C0.580408 4.03125 0.758659 3.95625 0.965159 3.95625C1.17166 3.95625 1.34966 4.03125 1.49916 4.18125L4.16166 6.8625Z" fill="url(#paint0_linear_1807_8947)"/>
<defs>
<linearGradient id="paint0_linear_1807_8947" x1="16.7486" y1="0.561872" x2="0.190217" y2="-4.9656" gradientUnits="userSpaceOnUse">
<stop stop-color="#D65986"/>
<stop offset="1" stop-color="#A261F9"/>
</linearGradient>
</defs>
</svg>
