<svg width="116" height="100" viewBox="0 0 116 100" fill="none" xmlns="http://www.w3.org/2000/svg">
<rect width="108" height="100" rx="20" fill="white"/>
<rect x="0.5" y="0.5" width="115" height="99" rx="19.5" stroke="white"/>
<g clip-path="url(#clip0_2802_13728)">
<path fill-rule="evenodd" clip-rule="evenodd" d="M54 15.8259L53.496 16.7009L48.6149 25.1443H52.25V55.2303L26.1939 70.2733L24.376 67.1247L19 76.448H20.0087L29.7625 76.4536L27.9439 73.305L54 58.262L80.0561 73.305L78.2375 76.4536L89 76.448L88.496 75.573L83.624 67.1247L81.8061 70.274L55.75 55.231V25.1436H59.3851L54 15.8259Z" fill="url(#paint0_linear_2802_13728)"/>
<path fill-rule="evenodd" clip-rule="evenodd" d="M53.3408 34.9164L32.8686 48.3417C32.3968 48.6826 32.2701 49.0704 32.2617 49.4232V69.4852C32.2617 69.9262 32.4913 70.3364 32.8686 70.5667L53.3408 83.9913C53.8343 84.2608 54.3362 84.2153 54.6694 83.9843L75.1318 70.5667C75.3172 70.4536 75.4704 70.2947 75.5766 70.1053C75.6829 69.9159 75.7387 69.7024 75.7387 69.4852V49.4232C75.7345 48.8884 75.5077 48.6063 75.1122 48.3284L54.6596 34.9164C54.1724 34.6385 53.7902 34.7708 53.3408 34.9164ZM54.0002 37.4784L71.8607 49.3126L53.989 61.3568L35.9612 49.4225L54.0002 37.4784ZM34.7922 51.6765L52.7346 63.5597V80.6572L34.7936 68.774L34.7922 51.6765ZM73.2082 51.6765V68.7733L55.2658 80.6565V63.5583L73.2082 51.6765Z" fill="url(#paint1_linear_2802_13728)"/>
</g>
<defs>
<linearGradient id="paint0_linear_2802_13728" x1="118.75" y1="17.8468" x2="15.8769" y2="-10.8884" gradientUnits="userSpaceOnUse">
<stop stop-color="#D65986"/>
<stop offset="1" stop-color="#A261F9"/>
</linearGradient>
<linearGradient id="paint1_linear_2802_13728" x1="94.2164" y1="36.4013" x2="28.3214" y2="22.3771" gradientUnits="userSpaceOnUse">
<stop stop-color="#D65986"/>
<stop offset="1" stop-color="#A261F9"/>
</linearGradient>
<clipPath id="clip0_2802_13728">
<rect width="70" height="70" fill="white" transform="translate(19 15)"/>
</clipPath>
</defs>
</svg>
