<svg width="6" height="184" viewBox="0 0 6 184" fill="none" xmlns="http://www.w3.org/2000/svg">
<path d="M3 41.3333C1.52724 41.3333 0.333331 42.5272 0.333331 44C0.333331 45.4728 1.52724 46.6667 3 46.6667C4.47276 46.6667 5.66666 45.4728 5.66666 44C5.66666 42.5272 4.47276 41.3333 3 41.3333ZM2.5 -2.18557e-08L2.5 44L3.5 44L3.5 2.18557e-08L2.5 -2.18557e-08Z" fill="url(#paint0_linear_1029_6515)"/>
<path d="M3 85.3333C1.52724 85.3333 0.333331 86.5272 0.333331 88C0.333331 89.4728 1.52724 90.6667 3 90.6667C4.47276 90.6667 5.66666 89.4728 5.66666 88C5.66666 86.5272 4.47276 85.3333 3 85.3333ZM2.5 44L2.5 88L3.5 88L3.5 44L2.5 44Z" fill="url(#paint1_linear_1029_6515)"/>
<path d="M3 132.005C1.52724 132.005 0.333331 133.199 0.333331 134.672C0.333331 136.145 1.52724 137.339 3 137.339C4.47276 137.339 5.66666 136.145 5.66666 134.672C5.66666 133.199 4.47276 132.005 3 132.005ZM2.5 90.6719L2.5 134.672L3.5 134.672L3.5 90.6719L2.5 90.6719Z" fill="#E9E5FD"/>
<path d="M3 178.333C1.52724 178.333 0.333331 179.527 0.333331 181C0.333331 182.473 1.52724 183.667 3 183.667C4.47276 183.667 5.66666 182.473 5.66666 181C5.66666 179.527 4.47276 178.333 3 178.333ZM2.5 137L2.5 181L3.5 181L3.5 137L2.5 137Z" fill="#E9E5FD"/>
<defs>
<linearGradient id="paint0_linear_1029_6515" x1="2.96666" y1="62.7" x2="9.45794" y2="62.0902" gradientUnits="userSpaceOnUse">
<stop stop-color="#D65986"/>
<stop offset="1" stop-color="#A261F9"/>
</linearGradient>
<linearGradient id="paint1_linear_1029_6515" x1="2.96666" y1="106.7" x2="9.45794" y2="106.09" gradientUnits="userSpaceOnUse">
<stop stop-color="#D65986"/>
<stop offset="1" stop-color="#A261F9"/>
</linearGradient>
</defs>
</svg>
