<svg width="74" height="93" viewBox="0 0 74 93" fill="none" xmlns="http://www.w3.org/2000/svg">
<path d="M8.82838 80.5177C8.79226 79.9398 8.65382 79.392 8.41304 78.8743C8.17226 78.3567 7.82314 77.9353 7.36566 77.6103C6.90818 77.2852 6.3243 77.1227 5.61401 77.1227C4.8676 77.1227 4.29576 77.3334 3.89848 77.7547C3.50119 78.1761 3.30255 78.6697 3.30255 79.2355C3.30255 79.7411 3.44702 80.1685 3.73595 80.5177C4.02488 80.8547 4.39809 81.1557 4.85556 81.4206C5.32508 81.6734 5.81867 81.9202 6.33634 82.161C6.79382 82.3656 7.25129 82.5883 7.70877 82.8291C8.16624 83.0578 8.58158 83.3227 8.95479 83.6237C9.32799 83.9246 9.62294 84.2858 9.83964 84.7072C10.0684 85.1165 10.1827 85.6101 10.1827 86.1879C10.1827 86.8501 10.0142 87.44 9.67712 87.9577C9.35207 88.4753 8.87653 88.8846 8.25051 89.1856C7.6245 89.4745 6.86003 89.619 5.95712 89.619C5.41537 89.619 4.85556 89.5408 4.2777 89.3843C3.69983 89.2277 3.18818 88.999 2.74275 88.698L2.83304 89.4745H1.89401L1.78566 85.6281H2.48993C2.55013 86.6876 2.91731 87.4942 3.59149 88.0479C4.26566 88.5897 5.07828 88.8606 6.02935 88.8606C6.49886 88.8606 6.93226 88.7763 7.32954 88.6077C7.72683 88.4272 8.03984 88.1683 8.26857 87.8312C8.50935 87.4942 8.62974 87.0848 8.62974 86.6033C8.62974 86.0615 8.48527 85.6101 8.19634 85.2489C7.90741 84.8877 7.5342 84.5747 7.07673 84.3099C6.61925 84.045 6.13168 83.7922 5.61401 83.5514C5.15653 83.3468 4.70508 83.1301 4.25964 82.9013C3.8142 82.6726 3.40488 82.4138 3.03168 82.1248C2.67051 81.8239 2.37556 81.4687 2.14682 81.0594C1.93013 80.6501 1.82178 80.1565 1.82178 79.5786C1.82178 79.2656 1.87595 78.9285 1.9843 78.5674C2.09265 78.2062 2.27925 77.8631 2.54411 77.538C2.821 77.201 3.1942 76.9301 3.66372 76.7254C4.14527 76.5087 4.75323 76.4004 5.4876 76.4004C5.94508 76.4004 6.45673 76.4666 7.02255 76.599C7.60042 76.7194 8.13615 76.9602 8.62974 77.3213L8.55751 76.5448H9.47848V80.5177H8.82838ZM11.9774 89.3301V88.7342C12.4349 88.7101 12.7479 88.6077 12.9165 88.4272C13.085 88.2345 13.1753 87.9757 13.1873 87.6507C13.2114 87.3136 13.2234 86.9343 13.2234 86.513V78.7118C13.2234 78.471 13.2295 78.2423 13.2415 78.0256C13.2535 77.7969 13.2656 77.5922 13.2776 77.4116C13.0609 77.4237 12.8442 77.4357 12.6275 77.4477C12.4108 77.4598 12.1941 77.4718 11.9774 77.4839V76.6893H20.3565L20.4467 79.8495H19.8508C19.8508 79.1392 19.7365 78.6035 19.5077 78.2423C19.279 77.8691 18.978 77.6223 18.6048 77.5019C18.2316 77.3695 17.8163 77.3093 17.3588 77.3213L16.0405 77.3575C15.5951 77.3695 15.2881 77.4778 15.1196 77.6825C14.951 77.8751 14.8547 78.134 14.8306 78.459C14.8066 78.7841 14.7945 79.1573 14.7945 79.5786V82.6846L17.9367 82.7027L17.8102 81.1316H18.6048V84.9419H18.0269C18.0269 84.4002 17.9487 84.0149 17.7922 83.7862C17.6477 83.5575 17.419 83.419 17.106 83.3709C16.793 83.3227 16.3836 83.3107 15.878 83.3347L14.7945 83.3889V87.1811C14.7945 87.5062 14.7885 87.7891 14.7765 88.0299C14.7765 88.2586 14.7644 88.4512 14.7403 88.6077C14.945 88.5957 15.1497 88.5897 15.3543 88.5897C15.559 88.5777 15.7636 88.5656 15.9683 88.5536C16.173 88.5415 16.3776 88.5355 16.5823 88.5355V89.3301H11.9774ZM36.6007 80.7163C36.4803 79.5846 36.083 78.7058 35.4089 78.0798C34.7467 77.4538 33.892 77.1408 32.8446 77.1408C32.2065 77.1408 31.6046 77.2792 31.0388 77.5561C30.485 77.821 29.9974 78.2062 29.576 78.7118C29.1547 79.2175 28.8236 79.8254 28.5828 80.5357C28.3421 81.246 28.2217 82.0466 28.2217 82.9375C28.2217 84.0691 28.4384 85.0683 28.8718 85.9351C29.3052 86.8019 29.8891 87.4761 30.6234 87.9577C31.3578 88.4392 32.1704 88.68 33.0613 88.68C33.8438 88.68 34.6143 88.5054 35.3727 88.1563C36.1312 87.7951 36.7512 87.2775 37.2327 86.6033L37.7023 86.9825C37.1846 87.6928 36.6248 88.2406 36.0228 88.6258C35.4209 89.011 34.819 89.2699 34.217 89.4023C33.6271 89.5468 33.0854 89.619 32.5918 89.619C31.6889 89.619 30.8582 89.4565 30.0997 89.1314C29.3533 88.8064 28.7032 88.3549 28.1494 87.7771C27.6077 87.1872 27.1863 86.507 26.8854 85.7365C26.5964 84.954 26.452 84.1112 26.452 83.2083C26.452 82.3536 26.5784 81.5229 26.8312 80.7163C27.096 79.9097 27.4873 79.1813 28.005 78.5312C28.5226 77.8811 29.1727 77.3635 29.9553 76.9782C30.7498 76.593 31.6708 76.4004 32.7182 76.4004C33.3924 76.4004 34.0304 76.4907 34.6324 76.6712C35.2343 76.8518 35.8122 77.1287 36.3659 77.5019L36.2757 76.5268H37.2508V80.7163H36.6007ZM38.8619 88.7883C39.2351 88.7883 39.494 88.698 39.6384 88.5175C39.7829 88.3248 39.8672 88.066 39.8913 87.741C39.9153 87.4039 39.9274 87.0186 39.9274 86.5852V78.0437C39.9274 77.851 39.9274 77.6705 39.9274 77.5019C39.9394 77.3213 39.9575 77.1107 39.9815 76.8699C39.7648 76.8819 39.5481 76.894 39.3314 76.906C39.1268 76.918 38.9161 76.9301 38.6994 76.9421V76.1837C39.2291 76.1837 39.6384 76.1596 39.9274 76.1114C40.2283 76.0633 40.4511 76.0031 40.5955 75.9309C40.752 75.8586 40.8724 75.7804 40.9567 75.6961H41.4804L41.4984 87.4159C41.4984 87.6567 41.4924 87.8734 41.4804 88.066C41.4683 88.2466 41.4443 88.4392 41.4081 88.6439C41.6008 88.6318 41.7874 88.6258 41.968 88.6258C42.1606 88.6138 42.3532 88.6017 42.5458 88.5897V89.3301H38.8619V88.7883ZM43.9627 88.7883C44.3359 88.7883 44.5947 88.698 44.7392 88.5175C44.8837 88.3248 44.9679 88.066 44.992 87.741C45.0161 87.4039 45.0281 87.0186 45.0281 86.5852V82.4679C45.0281 82.2753 45.0341 82.0947 45.0462 81.9262C45.0582 81.7456 45.0763 81.5349 45.1004 81.2942C44.8837 81.3062 44.667 81.3182 44.4503 81.3303C44.2456 81.3423 44.0349 81.3543 43.8182 81.3664V80.6079C44.3479 80.6079 44.7572 80.5839 45.0462 80.5357C45.3351 80.4876 45.5518 80.4274 45.6963 80.3551C45.8528 80.2829 45.9732 80.2046 46.0574 80.1204H46.5811V87.4159C46.5811 87.6567 46.5751 87.8734 46.5631 88.066C46.5631 88.2466 46.545 88.4392 46.5089 88.6439C46.7015 88.6318 46.8881 88.6258 47.0687 88.6258C47.2613 88.6138 47.4539 88.6017 47.6466 88.5897V89.3301H43.9627V88.7883ZM45.7143 78.3326C45.4615 78.3326 45.2388 78.2303 45.0462 78.0256C44.8536 77.821 44.7572 77.5681 44.7572 77.2672C44.7572 76.9662 44.8536 76.7134 45.0462 76.5087C45.2508 76.292 45.4796 76.1837 45.7324 76.1837C46.0093 76.1837 46.238 76.292 46.4186 76.5087C46.6112 76.7134 46.7075 76.9662 46.7075 77.2672C46.7075 77.5681 46.6052 77.821 46.4005 78.0256C46.2079 78.2303 45.9792 78.3326 45.7143 78.3326ZM49.0416 89.3301V88.7883C49.4148 88.7883 49.6736 88.698 49.8181 88.5175C49.9625 88.3248 50.0468 88.066 50.0709 87.741C50.095 87.4039 50.107 87.0186 50.107 86.5852L50.1251 82.4679C50.1251 82.2753 50.1251 82.0827 50.1251 81.8901C50.1371 81.6975 50.1612 81.4988 50.1973 81.2942C49.9806 81.3062 49.7639 81.3182 49.5472 81.3303C49.3425 81.3423 49.1319 81.3543 48.9152 81.3664V80.6079C49.4449 80.6079 49.8422 80.5839 50.107 80.5357C50.3839 80.4876 50.5886 80.4274 50.721 80.3551C50.8534 80.2829 50.9618 80.2046 51.046 80.1204H51.5697C51.5818 80.2046 51.5878 80.301 51.5878 80.4093C51.5998 80.5177 51.6119 80.638 51.6239 80.7705C51.6359 80.9029 51.642 81.0534 51.642 81.2219C51.9068 80.9932 52.1957 80.7885 52.5088 80.6079C52.8338 80.4274 53.1709 80.2829 53.52 80.1745C53.8812 80.0662 54.2363 80.012 54.5855 80.012C55.6328 80.012 56.3973 80.3431 56.8789 81.0052C57.3604 81.6553 57.6012 82.6726 57.6012 84.0571V87.4159C57.6012 87.6567 57.5952 87.8734 57.5831 88.066C57.5831 88.2466 57.5651 88.4392 57.5289 88.6439C57.7216 88.6318 57.9082 88.6258 58.0888 88.6258C58.2814 88.6138 58.474 88.6017 58.6666 88.5897V89.3301H54.9827V88.7883C55.3559 88.7883 55.6148 88.698 55.7592 88.5175C55.9037 88.3248 55.988 88.066 56.0121 87.741C56.0361 87.4039 56.0482 87.0186 56.0482 86.5852V84.0571C56.0361 83.0217 55.8616 82.2392 55.5245 81.7095C55.1994 81.1798 54.6818 80.921 53.9715 80.933C53.5381 80.945 53.1107 81.0594 52.6893 81.2761C52.28 81.4928 51.9369 81.7697 51.66 82.1068C51.6721 82.2031 51.6781 82.3114 51.6781 82.4318C51.6781 82.5522 51.6781 82.6786 51.6781 82.811L51.66 87.4159C51.66 87.6567 51.654 87.8734 51.642 88.066C51.642 88.2466 51.6239 88.4392 51.5878 88.6439C51.7804 88.6318 51.967 88.6258 52.1476 88.6258C52.3402 88.6138 52.5328 88.6017 52.7255 88.5897V89.3301H49.0416ZM60.0105 88.7883C60.3837 88.7883 60.6426 88.698 60.787 88.5175C60.9315 88.3248 61.0158 88.066 61.0399 87.741C61.0639 87.4039 61.076 87.0186 61.076 86.5852V82.4679C61.076 82.2753 61.082 82.0947 61.094 81.9262C61.1061 81.7456 61.1241 81.5349 61.1482 81.2942C60.9315 81.3062 60.7148 81.3182 60.4981 81.3303C60.2935 81.3423 60.0828 81.3543 59.8661 81.3664V80.6079C60.3958 80.6079 60.8051 80.5839 61.094 80.5357C61.383 80.4876 61.5997 80.4274 61.7441 80.3551C61.9006 80.2829 62.021 80.2046 62.1053 80.1204H62.629V87.4159C62.629 87.6567 62.623 87.8734 62.6109 88.066C62.6109 88.2466 62.5929 88.4392 62.5568 88.6439C62.7494 88.6318 62.936 88.6258 63.1166 88.6258C63.3092 88.6138 63.5018 88.6017 63.6944 88.5897V89.3301H60.0105V88.7883ZM61.7622 78.3326C61.5094 78.3326 61.2867 78.2303 61.094 78.0256C60.9014 77.821 60.8051 77.5681 60.8051 77.2672C60.8051 76.9662 60.9014 76.7134 61.094 76.5087C61.2987 76.292 61.5274 76.1837 61.7803 76.1837C62.0571 76.1837 62.2859 76.292 62.4665 76.5087C62.6591 76.7134 62.7554 76.9662 62.7554 77.2672C62.7554 77.5681 62.6531 77.821 62.4484 78.0256C62.2558 78.2303 62.027 78.3326 61.7622 78.3326ZM69.4956 89.619C68.689 89.619 67.9426 89.4384 67.2564 89.0773C66.5822 88.7041 66.0405 88.1743 65.6312 87.4881C65.2339 86.7899 65.0353 85.9532 65.0353 84.978C65.0353 84.352 65.1496 83.7441 65.3784 83.1542C65.6071 82.5643 65.9261 82.0345 66.3354 81.565C66.7568 81.0835 67.2564 80.7043 67.8343 80.4274C68.4121 80.1505 69.0502 80.012 69.7485 80.012C70.4226 80.012 71.0065 80.1143 71.5001 80.319C72.0057 80.5237 72.397 80.7945 72.6739 81.1316C72.9508 81.4687 73.0892 81.8359 73.0892 82.2332C73.0892 82.498 73.017 82.7268 72.8725 82.9194C72.7281 83.1 72.5174 83.1903 72.2405 83.1903C71.9395 83.2023 71.7228 83.112 71.5904 82.9194C71.47 82.7147 71.4098 82.5342 71.4098 82.3777C71.4098 82.2573 71.4279 82.1369 71.464 82.0165C71.5001 81.8841 71.5723 81.7637 71.6807 81.6553C71.5844 81.3664 71.4158 81.1557 71.1751 81.0233C70.9343 80.8788 70.6815 80.7885 70.4166 80.7524C70.1638 80.7043 69.9531 80.6802 69.7846 80.6802C68.9659 80.6802 68.2737 81.0112 67.7079 81.6734C67.1541 82.3235 66.8772 83.2745 66.8772 84.5266C66.8772 85.3332 67.0036 86.0495 67.2564 86.6755C67.5213 87.3015 67.8885 87.7951 68.358 88.1563C68.8275 88.5054 69.3692 88.68 69.9832 88.68C70.549 88.68 71.0908 88.5295 71.6085 88.2285C72.1261 87.9276 72.5294 87.5604 72.8184 87.127L73.2879 87.4881C72.9749 87.9938 72.5956 88.4031 72.1502 88.7161C71.7168 89.0291 71.2654 89.2578 70.7958 89.4023C70.3384 89.5468 69.905 89.619 69.4956 89.619Z" fill="url(#paint0_linear_1536_4925)"/>
<path fill-rule="evenodd" clip-rule="evenodd" d="M52.4152 39.9376C55.1363 39.2439 57.7122 38.2618 59.6834 37.12C63.3296 35.0083 65.7785 28.925 66.7158 24.9779C67.0967 23.388 67.5986 21.0246 67.5502 19.2874C60.2941 16.169 51.5203 13.5478 44.9475 19.9442C44.7721 19.8399 44.5907 19.7417 44.4093 19.6435C46.3503 18.0413 47.1364 18.2991 47.1364 15.7025C47.1364 8.92549 40.7994 3.99621 36.1313 0C32.3884 3.21661 24.7816 7.16986 24.7816 15.5797C24.7816 18.1825 25.6584 17.9553 27.3635 19.5882C27.2003 19.6741 27.037 19.7601 26.8798 19.8522C24.9448 17.7773 21.5042 16.212 18.7046 16.0156C15.2579 15.77 6.76226 17.4397 4.34961 19.4102C4.38589 21.0983 4.92405 23.3327 5.2929 24.9288C6.06084 28.2375 7.13111 31.2269 8.99956 34.0139C9.6647 35.0083 11.261 36.5245 12.3616 37.1445C13.9277 38.0285 17.2897 39.4035 19.1641 39.8823L19.2367 39.9008C19.3032 40.0849 19.3758 40.2629 19.4483 40.4471L19.1581 40.3796C18.3176 40.1831 16.1347 39.4588 15.5966 39.4281C11.7992 43.0314 10.2512 48.3352 9.90657 53.4977C13.3109 55.3393 20.7303 57.2852 24.4732 55.6094C25.3016 55.2411 28.5185 53.4609 28.452 52.5892C28.3673 51.5149 28.3794 50.5082 28.4641 49.5383C28.6334 49.612 28.8027 49.6857 28.972 49.7532V49.8023C28.3915 55.6278 31.8684 58.0771 36.1737 61.3981C39.7775 58.6603 43.6293 54.5781 43.0428 49.7225L43.0307 49.6181C43.1939 49.5506 43.3572 49.4769 43.5205 49.3971C43.6172 50.2381 43.6535 51.1405 43.6716 52.3989C45.9452 55.0753 49.3072 56.3399 52.7176 56.2417C54.5195 56.1926 56.5573 55.726 58.0568 55.2104L62.8217 53.553C62.8156 49.3112 60.4211 42.3378 57.0833 39.3913C55.7893 39.4404 53.5702 40.2691 52.1613 40.5821C52.252 40.3734 52.3366 40.1586 52.4152 39.9437V39.9376Z" fill="url(#paint1_linear_1536_4925)"/>
<path fill-rule="evenodd" clip-rule="evenodd" d="M35.2221 39.4466C35.2221 39.8162 35.2038 40.1426 35.2099 40.4075L35.2221 40.9865H37.2317V41.8859H32.0581V41.2083C32.4429 41.196 32.73 41.1282 32.9194 40.9989C33.1087 40.8695 33.2431 40.7032 33.3225 40.4814C33.4019 40.2658 33.4447 40.0009 33.4508 39.693V39.502C33.4935 35.418 33.5302 32.7261 33.4691 29.0487L33.4569 28.3649H32.614V27.4779H41.4646L41.5807 31.1369H40.9088C40.9088 30.527 40.8355 30.0404 40.6828 29.6585C40.5362 29.2827 40.3346 28.9871 40.0781 28.7838C39.8215 28.5743 39.5283 28.4327 39.1863 28.3649C38.8503 28.2972 38.4839 28.2602 38.1052 28.2664L36.627 28.3095C36.2483 28.3218 35.9612 28.3957 35.7719 28.5251C35.5764 28.6544 35.442 28.8331 35.3565 29.0548C35.2771 29.2827 35.2404 29.5415 35.2343 29.8494C35.2343 30.1513 35.2282 30.4839 35.2282 30.835V34.377H38.7526V32.6152H39.51V36.921H38.8442C38.8442 36.5206 38.8076 36.2065 38.7404 35.9724C38.6732 35.7383 38.5633 35.5535 38.4167 35.4242C38.2701 35.2948 38.0807 35.2147 37.8486 35.1716C37.6226 35.1285 37.3416 35.11 37.024 35.11H36.7369C36.6392 35.11 36.1383 35.1346 35.2282 35.1839V39.465L35.2221 39.4466ZM29.6943 46.0623V44.4484C30.1463 44.7564 30.641 45.0213 31.1786 45.2553C31.7161 45.4894 32.2658 45.6804 32.84 45.8344C33.4141 45.9822 33.9883 46.0992 34.5686 46.1793C35.1549 46.2594 35.723 46.2964 36.2727 46.2964C37.647 46.2964 38.8626 46.13 39.9437 45.7851C41.0187 45.4463 41.9288 44.972 42.6618 44.3683C43.4009 43.7646 43.9567 43.0439 44.3415 42.2062C44.7202 41.3684 44.9218 40.4506 44.9218 39.4527C44.9218 38.3809 44.7202 37.4569 44.311 36.6684C43.9079 35.8861 43.3826 35.1962 42.7168 34.5987C42.1487 34.0875 41.5074 33.6316 40.8049 33.2251V37.5185C40.9271 37.6787 41.0432 37.8388 41.147 38.0113C41.5501 38.6396 41.7456 39.4034 41.7456 40.2781C41.7456 41.0112 41.6051 41.658 41.318 42.2185C41.037 42.7791 40.6522 43.2534 40.1697 43.6291C39.6749 44.011 39.1191 44.2944 38.4716 44.4977C37.8303 44.6886 37.1462 44.7872 36.4254 44.7872C35.4481 44.7872 34.538 44.6517 33.6768 44.3745C32.8216 44.0973 32.0764 43.6969 31.429 43.1548C30.7876 42.6127 30.2623 41.9413 29.8714 41.1405C29.4683 40.3336 29.2362 39.4034 29.1629 38.3316H27.9657V46.0808H29.6943V46.0623ZM32.1253 32.5105V28.5127C31.8688 28.254 31.6428 27.9768 31.4473 27.6873C31.0442 27.0775 30.8426 26.3629 30.8426 25.5437C30.8426 24.977 30.9464 24.4411 31.148 23.9298C31.3496 23.4185 31.655 22.9688 32.052 22.5808C32.449 22.1927 32.9377 21.8847 33.5302 21.6568C34.1227 21.4289 34.8007 21.3118 35.5703 21.3118C36.6514 21.3118 37.5982 21.5028 38.3922 21.8847C39.1863 22.2666 39.8521 22.7656 40.3957 23.3877C40.9393 24.016 41.3486 24.7367 41.6356 25.5498C41.9166 26.3629 41.941 26.4738 41.9838 26.8065H43.4864V20.0675H41.7578V21.7061C41.2508 21.3426 40.7255 21.047 40.1697 20.8129C39.6139 20.5788 39.0641 20.3878 38.5022 20.2462C37.9402 20.1107 37.3966 20.0121 36.853 19.9505C36.3094 19.8951 35.8024 19.8643 35.3137 19.8643C34.3181 19.8643 33.4447 19.969 32.6811 20.1661C31.9237 20.3632 31.2702 20.6281 30.7143 20.9669C30.1585 21.3057 29.7004 21.6876 29.3339 22.1249C28.9674 22.5623 28.6681 23.0181 28.4482 23.4924C28.2283 23.9606 28.0695 24.4287 27.9657 24.8969C27.8741 25.365 27.8252 25.8086 27.8252 26.2213C27.8252 27.2931 28.0207 28.2109 28.4238 28.9871C28.8147 29.757 29.3461 30.4346 29.9997 31.0198C30.6349 31.5742 31.3435 32.067 32.1375 32.4982L32.1253 32.5105Z" fill="white"/>
<defs>
<linearGradient id="paint0_linear_1536_4925" x1="106.188" y1="72.0634" x2="35.6573" y2="14.6682" gradientUnits="userSpaceOnUse">
<stop stop-color="#D65986"/>
<stop offset="1" stop-color="#A261F9"/>
</linearGradient>
<linearGradient id="paint1_linear_1536_4925" x1="94.4152" y1="2.04658" x2="0.130265" y2="-21.4345" gradientUnits="userSpaceOnUse">
<stop stop-color="#D65986"/>
<stop offset="1" stop-color="#A261F9"/>
</linearGradient>
</defs>
</svg>
