<svg width="48" height="60" viewBox="0 0 48 60" fill="none" xmlns="http://www.w3.org/2000/svg">
<path fill-rule="evenodd" clip-rule="evenodd" d="M35.7295 29.4117C37.7334 28.9008 39.6304 28.1775 41.0821 27.3367C43.7673 25.7815 45.5708 21.3015 46.261 18.3947C46.5416 17.2239 46.9112 15.4834 46.8755 14.204C41.5318 11.9075 35.0704 9.97718 30.23 14.6877C30.1008 14.6109 29.9672 14.5386 29.8336 14.4662C31.2631 13.2863 31.842 13.4762 31.842 11.5639C31.842 6.57309 27.1751 2.94297 23.7374 0C20.9809 2.36885 15.379 5.28017 15.379 11.4735C15.379 13.3903 16.0247 13.223 17.2804 14.4255C17.1602 14.4888 17.04 14.5521 16.9242 14.6199C15.4992 13.0919 12.9654 11.9392 10.9036 11.7945C8.36537 11.6137 2.10881 12.8433 0.332031 14.2944C0.35875 15.5376 0.755073 17.1832 1.02671 18.3586C1.59225 20.7952 2.38044 22.9968 3.75644 25.0492C4.24628 25.7815 5.42189 26.8981 6.23235 27.3547C7.3857 28.0057 9.8616 29.0184 11.2421 29.371L11.2955 29.3845C11.3445 29.5202 11.3979 29.6513 11.4514 29.7869L11.2376 29.7371C10.6186 29.5925 9.01107 29.059 8.61475 29.0364C5.81822 31.6901 4.67823 35.596 4.4244 39.3979C6.93148 40.7541 12.3954 42.1871 15.1519 40.953C15.7619 40.6818 18.131 39.3708 18.082 38.7288C18.0196 37.9377 18.0285 37.1963 18.0909 36.482C18.2156 36.5363 18.3403 36.5905 18.4649 36.6403V36.6764C18.0374 40.9666 20.598 42.7703 23.7685 45.216C26.4226 43.1998 29.2592 40.1935 28.8272 36.6176L28.8183 36.5408C28.9386 36.4911 29.0588 36.4368 29.179 36.3781C29.2503 36.9974 29.277 37.6619 29.2904 38.5887C30.9647 40.5597 33.4406 41.491 35.9522 41.4186C37.2792 41.3825 38.7799 41.0389 39.8842 40.6592L43.3932 39.4386C43.3888 36.3148 41.6254 31.1793 39.1673 29.0093C38.2143 29.0455 36.58 29.6558 35.5425 29.8863C35.6093 29.7326 35.6716 29.5744 35.7295 29.4162V29.4117Z" fill="url(#paint0_linear_2884_21167)"/>
<path fill-rule="evenodd" clip-rule="evenodd" d="M23.0724 29.0514C23.0724 29.3236 23.0589 29.5641 23.0634 29.7591L23.0724 30.1855H24.5523V30.8479H20.7423V30.3489C21.0257 30.3398 21.2371 30.2899 21.3766 30.1946C21.516 30.0994 21.615 29.9769 21.6734 29.8136C21.7319 29.6548 21.7634 29.4597 21.7679 29.2329V29.0923C21.7994 26.0846 21.8264 24.1022 21.7814 21.394L21.7724 20.8905H21.1516V20.2372H27.6696L27.7551 22.9319H27.2603C27.2603 22.4827 27.2063 22.1244 27.0938 21.8431C26.9859 21.5664 26.8374 21.3486 26.6485 21.1989C26.4596 21.0447 26.2437 20.9404 25.9918 20.8905C25.7444 20.8406 25.4745 20.8134 25.1956 20.8179L24.107 20.8496C23.8281 20.8587 23.6167 20.9132 23.4772 21.0084C23.3333 21.1037 23.2343 21.2352 23.1714 21.3985C23.1129 21.5664 23.0859 21.7569 23.0814 21.9837C23.0814 22.206 23.0769 22.451 23.0769 22.7096V25.318H25.6724V24.0206H26.2302V27.1915H25.7399C25.7399 26.8967 25.7129 26.6653 25.6634 26.4929C25.6139 26.3205 25.5329 26.1844 25.425 26.0892C25.317 25.9939 25.1776 25.9349 25.0066 25.9032C24.8402 25.8714 24.6333 25.8578 24.3994 25.8578H24.188C24.116 25.8578 23.7471 25.876 23.0769 25.9123V29.0651L23.0724 29.0514ZM19.0015 33.9235V32.735C19.3343 32.9618 19.6987 33.1569 20.0945 33.3293C20.4904 33.5017 20.8952 33.6423 21.3181 33.7557C21.7409 33.8646 22.1637 33.9508 22.5911 34.0097C23.0229 34.0687 23.4413 34.0959 23.8461 34.0959C24.8582 34.0959 25.7534 33.9734 26.5496 33.7194C27.3412 33.4699 28.0115 33.1206 28.5513 32.676C29.0956 32.2315 29.5049 31.7007 29.7883 31.0838C30.0672 30.4668 30.2156 29.7909 30.2156 29.056C30.2156 28.2667 30.0672 27.5862 29.7658 27.0055C29.4689 26.4294 29.0821 25.9213 28.5918 25.4813C28.1734 25.1048 27.7011 24.7691 27.1838 24.4697V27.6316C27.2738 27.7495 27.3592 27.8674 27.4357 27.9945C27.7326 28.4572 27.8765 29.0197 27.8765 29.6639C27.8765 30.2037 27.7731 30.68 27.5617 31.0928C27.3547 31.5056 27.0714 31.8549 26.716 32.1317C26.3516 32.4129 25.9423 32.6216 25.4655 32.7713C24.9932 32.9119 24.4893 32.9845 23.9586 32.9845C23.2388 32.9845 22.5686 32.8847 21.9343 32.6806C21.3046 32.4764 20.7558 32.1816 20.279 31.7824C19.8067 31.3832 19.4198 30.8887 19.1319 30.299C18.835 29.7047 18.6641 29.0197 18.6101 28.2304H17.7285V33.9371H19.0015V33.9235ZM20.7918 23.9435V20.9993C20.6028 20.8088 20.4364 20.6047 20.2925 20.3915C19.9956 19.9424 19.8471 19.4161 19.8471 18.8128C19.8471 18.3955 19.9236 18.0008 20.0721 17.6243C20.2205 17.2477 20.4454 16.9166 20.7378 16.6308C21.0302 16.345 21.39 16.1182 21.8264 15.9503C22.2627 15.7825 22.762 15.6963 23.3288 15.6963C24.125 15.6963 24.8222 15.8369 25.407 16.1182C25.9918 16.3994 26.4821 16.7669 26.8824 17.2251C27.2828 17.6878 27.5842 18.2185 27.7956 18.8173C28.0025 19.4161 28.0205 19.4978 28.052 19.7428H29.1585V14.7799H27.8855V15.9866C27.5122 15.719 27.1253 15.5012 26.716 15.3289C26.3066 15.1565 25.9018 15.0158 25.488 14.9115C25.0741 14.8117 24.6738 14.7391 24.2734 14.6938C23.8731 14.6529 23.4997 14.6302 23.1399 14.6302C22.4067 14.6302 21.7634 14.7074 21.2011 14.8525C20.6433 14.9977 20.162 15.1928 19.7527 15.4423C19.3433 15.6918 19.006 15.973 18.7361 16.2951C18.4662 16.6172 18.2458 16.9529 18.0838 17.3022C17.9219 17.647 17.8049 17.9917 17.7285 18.3365C17.661 18.6812 17.625 19.0079 17.625 19.3118C17.625 20.1011 17.7689 20.7771 18.0658 21.3486C18.3537 21.9157 18.7451 22.4147 19.2264 22.8457C19.6942 23.2539 20.216 23.6168 20.8008 23.9344L20.7918 23.9435Z" fill="white"/>
<path d="M5.1 57.025C4.332 57.025 3.672 56.845 3.12 56.485C2.576 56.117 2.196 55.613 1.98 54.973L2.7 54.553C2.852 55.073 3.132 55.481 3.54 55.777C3.948 56.065 4.472 56.209 5.112 56.209C5.736 56.209 6.22 56.073 6.564 55.801C6.916 55.521 7.092 55.153 7.092 54.697C7.092 54.257 6.932 53.925 6.612 53.701C6.292 53.477 5.764 53.245 5.028 53.005C4.156 52.717 3.58 52.485 3.3 52.309C2.66 51.925 2.34 51.369 2.34 50.641C2.34 49.929 2.588 49.369 3.084 48.961C3.58 48.545 4.192 48.337 4.92 48.337C5.576 48.337 6.144 48.509 6.624 48.853C7.104 49.189 7.46 49.621 7.692 50.149L6.984 50.545C6.6 49.617 5.912 49.153 4.92 49.153C4.4 49.153 3.98 49.281 3.66 49.537C3.34 49.793 3.18 50.149 3.18 50.605C3.18 51.021 3.324 51.333 3.612 51.541C3.9 51.749 4.376 51.961 5.04 52.177C5.344 52.281 5.56 52.357 5.688 52.405C5.824 52.445 6.016 52.517 6.264 52.621C6.52 52.717 6.708 52.805 6.828 52.885C6.948 52.957 7.092 53.061 7.26 53.197C7.436 53.325 7.56 53.457 7.632 53.593C7.712 53.721 7.78 53.881 7.836 54.073C7.9 54.257 7.932 54.457 7.932 54.673C7.932 55.385 7.672 55.957 7.152 56.389C6.632 56.813 5.948 57.025 5.1 57.025ZM14.0555 49.273H10.1555V52.369H13.8755V53.161H10.1555V56.881H9.31547V48.481H14.0555V49.273ZM22.4153 57.025C21.1433 57.025 20.0913 56.605 19.2593 55.765C18.4273 54.925 18.0113 53.897 18.0113 52.681C18.0113 51.465 18.4273 50.437 19.2593 49.597C20.0913 48.757 21.1433 48.337 22.4153 48.337C23.1913 48.337 23.9033 48.525 24.5513 48.901C25.1993 49.269 25.6993 49.769 26.0513 50.401L25.3073 50.833C25.0433 50.321 24.6513 49.913 24.1313 49.609C23.6113 49.305 23.0393 49.153 22.4153 49.153C21.3673 49.153 20.5113 49.493 19.8473 50.173C19.1833 50.853 18.8513 51.689 18.8513 52.681C18.8513 53.673 19.1833 54.509 19.8473 55.189C20.5113 55.869 21.3673 56.209 22.4153 56.209C23.0393 56.209 23.6113 56.057 24.1313 55.753C24.6513 55.449 25.0433 55.041 25.3073 54.529L26.0513 54.949C25.7073 55.581 25.2073 56.085 24.5513 56.461C23.9033 56.837 23.1913 57.025 22.4153 57.025ZM27.3127 56.881V48.121H28.1047V56.881H27.3127ZM30.5893 49.441C30.4773 49.553 30.3413 49.609 30.1813 49.609C30.0213 49.609 29.8853 49.553 29.7733 49.441C29.6613 49.329 29.6053 49.193 29.6053 49.033C29.6053 48.873 29.6613 48.737 29.7733 48.625C29.8853 48.513 30.0213 48.457 30.1813 48.457C30.3413 48.457 30.4773 48.513 30.5893 48.625C30.7013 48.737 30.7573 48.873 30.7573 49.033C30.7573 49.193 30.7013 49.329 30.5893 49.441ZM29.7853 56.881V50.881H30.5773V56.881H29.7853ZM35.066 50.737C35.794 50.737 36.366 50.961 36.782 51.409C37.206 51.849 37.418 52.445 37.418 53.197V56.881H36.626V53.197C36.626 52.661 36.482 52.245 36.194 51.949C35.914 51.653 35.514 51.505 34.994 51.505C34.418 51.505 33.95 51.689 33.59 52.057C33.23 52.417 33.05 52.977 33.05 53.737V56.881H32.258V50.881H33.05V51.817C33.498 51.097 34.17 50.737 35.066 50.737ZM39.7534 49.441C39.6414 49.553 39.5054 49.609 39.3454 49.609C39.1854 49.609 39.0494 49.553 38.9374 49.441C38.8254 49.329 38.7694 49.193 38.7694 49.033C38.7694 48.873 38.8254 48.737 38.9374 48.625C39.0494 48.513 39.1854 48.457 39.3454 48.457C39.5054 48.457 39.6414 48.513 39.7534 48.625C39.8654 48.737 39.9214 48.873 39.9214 49.033C39.9214 49.193 39.8654 49.329 39.7534 49.441ZM38.9494 56.881V50.881H39.7414V56.881H38.9494ZM44.218 57.025C43.314 57.025 42.562 56.725 41.962 56.125C41.362 55.517 41.062 54.769 41.062 53.881C41.062 52.993 41.362 52.249 41.962 51.649C42.562 51.041 43.314 50.737 44.218 50.737C44.81 50.737 45.342 50.881 45.814 51.169C46.286 51.449 46.63 51.829 46.846 52.309L46.198 52.681C46.038 52.321 45.778 52.037 45.418 51.829C45.066 51.613 44.666 51.505 44.218 51.505C43.554 51.505 42.994 51.737 42.538 52.201C42.082 52.657 41.854 53.217 41.854 53.881C41.854 54.545 42.082 55.109 42.538 55.573C42.994 56.029 43.554 56.257 44.218 56.257C44.666 56.257 45.066 56.153 45.418 55.945C45.77 55.729 46.046 55.441 46.246 55.081L46.906 55.465C46.658 55.945 46.294 56.325 45.814 56.605C45.334 56.885 44.802 57.025 44.218 57.025Z" fill="url(#paint1_linear_2884_21167)"/>
<defs>
<linearGradient id="paint0_linear_2884_21167" x1="66.6599" y1="1.50718" x2="-2.77527" y2="-15.7852" gradientUnits="userSpaceOnUse">
<stop stop-color="#D65986"/>
<stop offset="1" stop-color="#A261F9"/>
</linearGradient>
<linearGradient id="paint1_linear_2884_21167" x1="67.05" y1="46.3476" x2="22.3917" y2="10.8484" gradientUnits="userSpaceOnUse">
<stop stop-color="#D65986"/>
<stop offset="1" stop-color="#A261F9"/>
</linearGradient>
</defs>
</svg>
