<svg width="24" height="24" viewBox="0 0 24 24" fill="none" xmlns="http://www.w3.org/2000/svg">
<g clip-path="url(#clip0_2675_33028)">
<path fill-rule="evenodd" clip-rule="evenodd" d="M0.857143 4.28571C0.857143 3.14907 1.30867 2.05898 2.1124 1.25526C2.91613 0.451529 4.00622 0 5.14286 0C6.2795 0 7.36959 0.451529 8.17332 1.25526C8.97704 2.05898 9.42857 3.14907 9.42857 4.28571C9.42857 5.42236 8.97704 6.51244 8.17332 7.31617C7.36959 8.1199 6.2795 8.57143 5.14286 8.57143C4.00622 8.57143 2.91613 8.1199 2.1124 7.31617C1.30867 6.51244 0.857143 5.42236 0.857143 4.28571ZM18.8571 0C17.7205 0 16.6304 0.451529 15.8267 1.25526C15.023 2.05898 14.5714 3.14907 14.5714 4.28571C14.5714 5.42236 15.023 6.51244 15.8267 7.31617C16.6304 8.1199 17.7205 8.57143 18.8571 8.57143C19.9938 8.57143 21.0839 8.1199 21.8876 7.31617C22.6913 6.51244 23.1429 5.42236 23.1429 4.28571C23.1429 3.14907 22.6913 2.05898 21.8876 1.25526C21.0839 0.451529 19.9938 0 18.8571 0ZM15.624 12.6137C16.2806 11.3863 17.3109 10.2857 18.8571 10.2857C20.4034 10.2857 21.432 11.3863 22.0903 12.6137C22.7571 13.8566 23.1771 15.4611 23.4514 16.992C23.7257 18.5366 23.8629 20.0726 23.9314 21.216C23.9671 21.8097 23.99 22.4041 24 22.9989V23.1411L23.1429 23.1429H24C24 23.3702 23.9097 23.5882 23.7489 23.7489C23.5882 23.9097 23.3702 24 23.1429 24H14.5714C14.3441 24 14.1261 23.9097 13.9653 23.7489C13.8046 23.5882 13.7143 23.3702 13.7143 23.1429V22.9954L13.7229 22.6046C13.7729 20.7229 13.9534 18.847 14.2629 16.9903C14.5371 15.4594 14.9571 13.8566 15.624 12.6137ZM0 11.1429C0 10.9155 0.0903059 10.6975 0.251051 10.5368C0.411797 10.376 0.629814 10.2857 0.857143 10.2857H9.42857C9.6559 10.2857 9.87392 10.376 10.0347 10.5368C10.1954 10.6975 10.2857 10.9155 10.2857 11.1429V11.2903L10.2771 11.6829C10.265 12.146 10.245 12.6089 10.2171 13.0714C10.1486 14.2149 10.0114 15.7509 9.73714 17.2954C9.46286 18.8263 9.04286 20.4309 8.376 21.6737C7.71943 22.8994 6.68914 24 5.14286 24C3.59657 24 2.56629 22.8994 1.90971 21.672C1.24286 20.4291 0.822857 18.8246 0.548571 17.2937C0.274286 15.7491 0.137143 14.2114 0.0685714 13.068C0.0329346 12.4754 0.0100722 11.8821 0 11.2886L0 11.1429Z" fill="white"/>
</g>
<defs>
<clipPath id="clip0_2675_33028">
<rect width="24" height="24" fill="white"/>
</clipPath>
</defs>
</svg>
