<svg width="115" height="29" viewBox="0 0 115 29" fill="none" xmlns="http://www.w3.org/2000/svg">
<path d="M87.2348 15.9C86.457 15.1268 86.457 13.8732 87.2348 13.1L99.0048 1.39998C99.7826 0.626792 101.044 0.626791 101.821 1.39998L113.591 13.1C114.369 13.8732 114.369 15.1268 113.591 15.9L101.821 27.6C101.044 28.3732 99.7826 28.3732 99.0048 27.6L87.2348 15.9Z" fill="#070707"/>
<path d="M108.358 14.4998C108.358 19.1941 104.764 22.9996 100.332 22.9996C95.8986 22.9996 92.3049 19.1941 92.3049 14.4998C92.3049 9.80549 95.8986 6 100.332 6C104.764 6 108.358 9.80549 108.358 14.4998Z" fill="#FCFCFC"/>
<path d="M95.3147 11.0859C95.3147 9.93391 96.1643 9 97.2124 9H103.45C104.498 9 105.348 9.93391 105.348 11.0859V17.9138C105.348 19.0658 104.498 19.9997 103.45 19.9997H97.2124C96.1643 19.9997 95.3147 19.0658 95.3147 17.9138V11.0859Z" fill="#070707"/>
<path d="M104.345 14.5038C104.345 16.4368 102.548 18.0037 100.332 18.0037C98.1154 18.0037 96.3186 16.4368 96.3186 14.5038C96.3186 12.5709 98.1154 11.0039 100.332 11.0039C102.548 11.0039 104.345 12.5709 104.345 14.5038Z" fill="#FCFCFC"/>
<path d="M99.3486 14.9667C99.0893 14.7089 99.0893 14.2911 99.3486 14.0333L100.078 13.308C100.337 13.0503 100.758 13.0503 101.017 13.308L101.747 14.0333C102.006 14.2911 102.006 14.7089 101.747 14.9667L101.017 15.692C100.758 15.9497 100.337 15.9497 100.078 15.692L99.3486 14.9667Z" fill="#070707"/>
<path d="M1.46472 23.5685H0.000244141V15.0321C0.17487 15.0321 0.623341 15.028 1.34566 15.0199C2.07591 15.0118 2.47279 15.0077 2.53629 15.0077C4.55242 15.0077 5.56049 15.8857 5.56049 17.6418C5.56049 18.3003 5.39777 18.8369 5.07233 19.2515C4.74689 19.658 4.37383 19.9344 3.95314 20.0807L6.56062 23.5685H4.78658L2.48866 20.3734H1.46472V23.5685ZM2.46485 16.4101C2.32198 16.4101 1.9886 16.4182 1.46472 16.4345V18.971H2.41723C2.86967 18.971 3.2467 18.8572 3.54833 18.6296C3.85789 18.3938 4.01267 18.0686 4.01267 17.654C4.01267 16.8247 3.49673 16.4101 2.46485 16.4101Z" fill="#2C2A3B"/>
<path d="M11.1587 22.0319L11.5516 23.0197C11.0277 23.475 10.3451 23.7026 9.50371 23.7026C8.63852 23.7026 7.94002 23.4384 7.4082 22.9099C6.88433 22.3815 6.62239 21.6864 6.62239 20.8246C6.62239 20.0035 6.88036 19.3206 7.3963 18.7759C7.91224 18.2231 8.59883 17.9466 9.45609 17.9466C10.1625 17.9466 10.7618 18.1865 11.2539 18.6661C11.7461 19.1377 11.9921 19.7474 11.9921 20.4954C11.9921 20.8043 11.9644 21.0563 11.9088 21.2515H8.03924C8.0948 21.6579 8.26943 21.975 8.56312 22.2026C8.8568 22.4222 9.21796 22.5319 9.64659 22.5319C10.2498 22.5319 10.7539 22.3652 11.1587 22.0319ZM9.39656 19.1174C8.61868 19.1174 8.15036 19.5157 7.99161 20.3124H10.6229C10.6308 19.971 10.5237 19.6864 10.3014 19.4588C10.0792 19.2312 9.77756 19.1174 9.39656 19.1174Z" fill="#2C2A3B"/>
<path d="M16.8344 26.0074V23.288C16.4137 23.5644 15.9732 23.7026 15.5128 23.7026C14.6635 23.7026 13.9848 23.4425 13.4768 22.9221C12.9767 22.3937 12.7267 21.6945 12.7267 20.8246C12.7267 20.0116 13.0164 19.3287 13.5959 18.7759C14.1753 18.2231 14.9095 17.9466 15.7985 17.9466C16.7193 17.9466 17.521 18.1662 18.2036 18.6052V26.0074H16.8344ZM15.6914 22.3978C16.1517 22.3978 16.5327 22.2311 16.8344 21.8978V19.532C16.4692 19.3531 16.12 19.2637 15.7866 19.2637C15.2866 19.2637 14.8936 19.4222 14.6079 19.7393C14.3301 20.0482 14.1912 20.4303 14.1912 20.8856C14.1912 21.3246 14.3261 21.6864 14.596 21.9709C14.8738 22.2555 15.2389 22.3978 15.6914 22.3978Z" fill="#2C2A3B"/>
<path d="M24.5567 18.0808V23.5685H23.1875V22.8978C22.7589 23.4343 22.1874 23.7026 21.473 23.7026C20.9174 23.7026 20.4649 23.5116 20.1157 23.1295C19.7664 22.7474 19.5918 22.1823 19.5918 21.4344V18.0808H20.961V21.1417C20.961 21.9791 21.3023 22.3978 21.985 22.3978C22.4533 22.3978 22.8541 22.1742 23.1875 21.727V18.0808H24.5567Z" fill="#2C2A3B"/>
<path d="M30.2855 22.0319L30.6784 23.0197C30.1546 23.475 29.4719 23.7026 28.6306 23.7026C27.7654 23.7026 27.0669 23.4384 26.535 22.9099C26.0112 22.3815 25.7492 21.6864 25.7492 20.8246C25.7492 20.0035 26.0072 19.3206 26.5231 18.7759C27.0391 18.2231 27.7257 17.9466 28.5829 17.9466C29.2894 17.9466 29.8887 18.1865 30.3808 18.6661C30.8729 19.1377 31.119 19.7474 31.119 20.4954C31.119 20.8043 31.0912 21.0563 31.0356 21.2515H27.1661C27.2216 21.6579 27.3963 21.975 27.69 22.2026C27.9836 22.4222 28.3448 22.5319 28.7734 22.5319C29.3767 22.5319 29.8807 22.3652 30.2855 22.0319ZM28.5234 19.1174C27.7455 19.1174 27.2772 19.5157 27.1185 20.3124H29.7497C29.7577 19.971 29.6505 19.6864 29.4283 19.4588C29.206 19.2312 28.9044 19.1174 28.5234 19.1174Z" fill="#2C2A3B"/>
<path d="M34.734 22.3978C34.869 22.3083 34.9364 22.1823 34.9364 22.0197C34.9364 21.8571 34.8372 21.727 34.6388 21.6295C34.4403 21.5238 34.1982 21.4344 33.9125 21.3612C33.6347 21.2799 33.3529 21.1864 33.0671 21.0807C32.7814 20.9669 32.5393 20.788 32.3409 20.5441C32.1424 20.3003 32.0432 19.9913 32.0432 19.6173C32.0432 19.097 32.2258 18.6905 32.5909 18.3979C32.964 18.0971 33.4362 17.9466 34.0077 17.9466C34.8809 17.9466 35.5595 18.1783 36.0437 18.6418L35.5317 19.6417C35.0952 19.2921 34.611 19.1174 34.0792 19.1174C33.8807 19.1174 33.718 19.1661 33.591 19.2637C33.472 19.3531 33.4124 19.4629 33.4124 19.593C33.4124 19.7555 33.5117 19.8897 33.7101 19.9954C33.9085 20.1011 34.1467 20.1905 34.4245 20.2637C34.7102 20.3368 34.996 20.4263 35.2817 20.532C35.5675 20.6376 35.8096 20.8124 36.008 21.0563C36.2064 21.2921 36.3057 21.5888 36.3057 21.9466C36.3057 22.4831 36.1072 22.9099 35.7103 23.227C35.3214 23.5441 34.7975 23.7026 34.1387 23.7026C33.6783 23.7026 33.2219 23.601 32.7695 23.3977C32.325 23.1945 32.0353 22.9831 31.9003 22.7636L32.5671 21.849C32.7258 22.0279 32.9759 22.1864 33.3172 22.3246C33.6585 22.4628 33.9641 22.5319 34.234 22.5319C34.4403 22.5319 34.607 22.4872 34.734 22.3978Z" fill="#2C2A3B"/>
<path d="M37.3931 21.4832V16.5564H38.7624V18.0808H40.4888V19.3978H38.7624V21.3978C38.7624 22.0563 38.9767 22.3856 39.4053 22.3856C39.6752 22.3856 39.949 22.2799 40.2268 22.0685L40.6436 23.1538C40.2149 23.5116 39.6871 23.6904 39.06 23.6904C38.4726 23.6904 38.048 23.5075 37.786 23.1417C37.5241 22.7677 37.3931 22.2148 37.3931 21.4832Z" fill="#2C2A3B"/>
<path d="M44.8145 23.5685V15.5063H44.9382C45.1181 15.5063 45.418 15.5025 45.8378 15.4948C46.2576 15.4795 46.5875 15.4718 46.8274 15.4718C47.592 15.4718 48.263 15.5793 48.8402 15.7943C49.4174 16.0016 49.8785 16.2933 50.2233 16.6696C50.5681 17.0381 50.823 17.4566 50.988 17.925C51.1604 18.3857 51.2466 18.8847 51.2466 19.4222C51.2466 20.6354 50.853 21.6336 50.0659 22.4167C49.2862 23.1999 48.1767 23.5915 46.7374 23.5915C46.55 23.5915 46.2539 23.5877 45.8491 23.58C45.4442 23.5723 45.1331 23.5685 44.9157 23.5685H44.8145ZM46.8049 16.0707C46.6325 16.0707 46.4713 16.0745 46.3213 16.0822C46.1714 16.0822 46.0102 16.086 45.8378 16.0937C45.6729 16.1014 45.5379 16.1052 45.433 16.1052V22.9696C46.2876 22.9849 46.7299 22.9926 46.7599 22.9926C47.9818 22.9926 48.9264 22.6624 49.5936 22.0021C50.2608 21.3341 50.5944 20.4741 50.5944 19.4222C50.5944 18.4317 50.2758 17.6255 49.6386 17.0036C49.0014 16.3816 48.0568 16.0707 46.8049 16.0707Z" fill="#2C2A3B"/>
<path d="M56.6938 22.4743L56.885 22.935C56.4277 23.4264 55.8055 23.6721 55.0184 23.6721C54.2162 23.6721 53.5678 23.4264 53.073 22.935C52.5782 22.4436 52.3308 21.791 52.3308 20.9771C52.3308 20.1939 52.5557 19.5489 53.0055 19.0422C53.4628 18.5354 54.0925 18.282 54.8947 18.282C55.5544 18.282 56.1016 18.497 56.5364 18.927C56.9712 19.357 57.1886 19.9213 57.1886 20.62C57.1886 20.8043 57.1774 20.9655 57.1549 21.1038H52.983C53.0055 21.7257 53.2042 22.2171 53.579 22.578C53.9538 22.9312 54.4449 23.1078 55.0521 23.1078C55.7493 23.1078 56.2965 22.8966 56.6938 22.4743ZM54.8384 18.8464C54.2912 18.8464 53.8526 19.0114 53.5228 19.3416C53.1929 19.6641 53.0018 20.0864 52.9493 20.6085H56.5926C56.5851 20.0634 56.424 19.6334 56.1091 19.3186C55.7943 19.0038 55.3707 18.8464 54.8384 18.8464Z" fill="#2C2A3B"/>
<path d="M61.2077 22.2094C61.2077 21.9714 61.1102 21.7794 60.9153 21.6336C60.7279 21.4877 60.4955 21.3725 60.2181 21.288C59.9483 21.2036 59.6746 21.1114 59.3973 21.0116C59.1199 20.9041 58.8837 20.739 58.6888 20.5164C58.5014 20.2937 58.4077 20.0058 58.4077 19.6526C58.4077 19.2379 58.5576 18.9078 58.8575 18.6621C59.1574 18.4087 59.5509 18.282 60.0382 18.282C60.7354 18.282 61.2639 18.474 61.6237 18.8579L61.3764 19.3071C61.0315 18.9769 60.5892 18.8118 60.0495 18.8118C59.7421 18.8118 59.4947 18.8924 59.3073 19.0537C59.1199 19.2149 59.0262 19.4107 59.0262 19.6411C59.0262 19.8944 59.1199 20.0979 59.3073 20.2515C59.5022 20.405 59.7346 20.5279 60.0045 20.62C60.2819 20.7045 60.5592 20.7966 60.8366 20.8964C61.114 20.9963 61.3464 21.1537 61.5338 21.3687C61.7287 21.576 61.8261 21.8485 61.8261 22.1864C61.8261 22.6701 61.65 23.0387 61.2976 23.2921C60.9528 23.5454 60.5217 23.6721 60.0045 23.6721C59.6596 23.6721 59.3148 23.5953 58.97 23.4418C58.6251 23.2882 58.3927 23.1155 58.2728 22.9235L58.5989 22.5319C58.7338 22.7085 58.9475 22.8544 59.2398 22.9696C59.5322 23.0847 59.8096 23.1423 60.0719 23.1423C60.3868 23.1423 60.6529 23.0617 60.8703 22.9005C61.0952 22.7392 61.2077 22.5089 61.2077 22.2094Z" fill="#2C2A3B"/>
<path d="M63.5687 23.5685V18.3857H64.1535V23.5685H63.5687ZM63.4675 16.3701C63.4675 16.255 63.5088 16.1628 63.5912 16.0937C63.6737 16.0246 63.7712 15.9901 63.8836 15.9901C63.9811 15.9901 64.0673 16.0284 64.1422 16.1052C64.2247 16.1743 64.2659 16.2626 64.2659 16.3701C64.2659 16.5007 64.2284 16.6043 64.1535 16.6811C64.0785 16.7579 63.9886 16.7963 63.8836 16.7963C63.7637 16.7963 63.6625 16.7579 63.58 16.6811C63.505 16.6043 63.4675 16.5007 63.4675 16.3701Z" fill="#2C2A3B"/>
<path d="M65.4887 24.3286C65.4887 23.9293 65.6236 23.5992 65.8935 23.3381C66.1709 23.0694 66.5532 22.8813 67.0405 22.7738C66.9281 22.6356 66.8718 22.4705 66.8718 22.2785C66.8718 22.0789 66.9356 21.9061 67.063 21.7602C66.7331 21.6144 66.4745 21.3955 66.2871 21.1038C66.0997 20.812 66.006 20.4818 66.006 20.1133C66.006 19.5835 66.1896 19.1458 66.557 18.8003C66.9243 18.4548 67.4078 18.282 68.0076 18.282C68.4873 18.282 68.9109 18.4125 69.2782 18.6736H69.2895L70.7288 18.282V18.8464L69.7055 19.1113C69.9079 19.4184 70.0091 19.7524 70.0091 20.1133C70.0091 20.6354 69.8217 21.073 69.4469 21.4262C69.0796 21.7718 68.5998 21.9445 68.0076 21.9445C67.8127 21.9445 67.644 21.9292 67.5015 21.8985C67.4341 21.9983 67.4003 22.125 67.4003 22.2785C67.4003 22.4474 67.4491 22.5857 67.5465 22.6932C67.7564 22.6778 67.9139 22.6701 68.0188 22.6701C68.7835 22.6701 69.3944 22.816 69.8517 23.1078C70.3165 23.3919 70.5489 23.7988 70.5489 24.3286C70.5489 24.8507 70.3165 25.2538 69.8517 25.5379C69.3869 25.822 68.776 25.9641 68.0188 25.9641C67.2542 25.9641 66.6394 25.822 66.1747 25.5379C65.7174 25.2615 65.4887 24.8584 65.4887 24.3286ZM66.0847 24.3286C66.0847 24.6665 66.2571 24.9314 66.602 25.1233C66.9543 25.3229 67.4266 25.4228 68.0188 25.4228C68.611 25.4228 69.0796 25.3229 69.4244 25.1233C69.7768 24.9314 69.9529 24.6665 69.9529 24.3286C69.9529 23.9908 69.7768 23.722 69.4244 23.5224C69.0796 23.3151 68.611 23.2114 68.0188 23.2114C67.4341 23.2114 66.9655 23.3112 66.6132 23.5109C66.2609 23.7105 66.0847 23.9831 66.0847 24.3286ZM66.9955 19.1919C66.7331 19.4376 66.602 19.7447 66.602 20.1133C66.602 20.4818 66.7331 20.7889 66.9955 21.0347C67.2579 21.2804 67.5953 21.4032 68.0076 21.4032C68.4199 21.4032 68.7572 21.2804 69.0196 21.0347C69.282 20.7889 69.4132 20.4818 69.4132 20.1133C69.4132 19.7447 69.2782 19.4376 69.0084 19.1919C68.746 18.9462 68.4124 18.8233 68.0076 18.8233C67.6027 18.8233 67.2654 18.9462 66.9955 19.1919Z" fill="#2C2A3B"/>
<path d="M71.7322 23.5685V18.3857H72.317V19.1113C72.5194 18.8809 72.7855 18.689 73.1154 18.5354C73.4527 18.3741 73.7938 18.2935 74.1386 18.2935C74.8358 18.2935 75.3606 18.4816 75.7129 18.8579C76.0728 19.2264 76.2527 19.81 76.2527 20.6085V23.5685H75.6679V20.7237C75.6679 19.4798 75.1132 18.8579 74.0037 18.8579C73.6739 18.8579 73.3552 18.9347 73.0479 19.0882C72.7405 19.2418 72.4969 19.4299 72.317 19.6526V23.5685H71.7322Z" fill="#2C2A3B"/>
<path d="M12.0393 1.17845H14.7267C15.4039 1.17845 15.9717 1.41498 16.4302 1.88804C16.8887 2.3611 17.1179 2.94333 17.1179 3.63473C17.1179 4.32612 16.8887 4.90835 16.4302 5.38141C15.9717 5.85447 15.4039 6.091 14.7267 6.091H13.0233V8.8202H12.0393V1.17845ZM13.0233 5.14124H14.7267C15.1429 5.14124 15.4815 4.99932 15.7425 4.71549C16.0105 4.4171 16.1445 4.05684 16.1445 3.63473C16.1445 3.19806 16.0105 2.8378 15.7425 2.55397C15.4744 2.27013 15.1358 2.12821 14.7267 2.12821H13.0233V5.14124Z" fill="#98A0B1"/>
<path d="M22.1622 4.30065V3.36181H23.0827V8.8202H22.1622V7.88135C21.7108 8.60186 21.0442 8.96212 20.1625 8.96212C19.4148 8.96212 18.7835 8.68556 18.2686 8.13244C17.7466 7.57205 17.4857 6.89157 17.4857 6.091C17.4857 5.29772 17.7466 4.62088 18.2686 4.06048C18.7906 3.50009 19.4219 3.21989 20.1625 3.21989C21.0442 3.21989 21.7108 3.58014 22.1622 4.30065ZM20.2789 8.04511C20.815 8.04511 21.2629 7.85952 21.6226 7.48835C21.9823 7.10262 22.1622 6.63684 22.1622 6.091C22.1622 5.53789 21.9823 5.07574 21.6226 4.70457C21.2629 4.32612 20.815 4.1369 20.2789 4.1369C19.7499 4.1369 19.3055 4.32612 18.9458 4.70457C18.586 5.07574 18.4062 5.53789 18.4062 6.091C18.4062 6.63684 18.586 7.10262 18.9458 7.48835C19.3055 7.85952 19.7499 8.04511 20.2789 8.04511Z" fill="#98A0B1"/>
<path d="M27.334 6.0255C27.9195 6.28023 28.2122 6.71326 28.2122 7.3246C28.2122 7.79766 28.0324 8.19066 27.6726 8.50361C27.3129 8.80928 26.8156 8.96212 26.1808 8.96212C25.1227 8.96212 24.4139 8.52544 24.0541 7.6521L24.8265 7.18268C25.024 7.77947 25.4789 8.07786 26.1914 8.07786C26.537 8.07786 26.8086 8.00144 27.0061 7.8486C27.2036 7.69577 27.3023 7.49199 27.3023 7.23727C27.3023 7.01893 27.2212 6.84062 27.059 6.70234C26.9038 6.56406 26.6922 6.49492 26.4241 6.49492H25.6518V5.6325H26.2231C26.4911 5.6325 26.6992 5.567 26.8473 5.436C26.9955 5.29772 27.0695 5.11213 27.0695 4.87924C27.0695 4.63907 26.9814 4.44985 26.805 4.31157C26.6287 4.16601 26.3924 4.09323 26.0961 4.09323C25.5036 4.09323 25.1016 4.3516 24.89 4.86832L24.1388 4.42074C24.5126 3.62017 25.1651 3.21989 26.0961 3.21989C26.6604 3.21989 27.1119 3.37273 27.4504 3.6784C27.7961 3.97679 27.9689 4.3516 27.9689 4.80282C27.9689 5.35594 27.7573 5.7635 27.334 6.0255Z" fill="#98A0B1"/>
<path d="M32.1298 3.21989C32.8704 3.21989 33.5017 3.50009 34.0237 4.06048C34.5457 4.62088 34.8066 5.29772 34.8066 6.091C34.8066 6.89157 34.5457 7.57205 34.0237 8.13244C33.5088 8.68556 32.8775 8.96212 32.1298 8.96212C31.2551 8.96212 30.5886 8.60186 30.1301 7.88135V11.0036H29.2096V3.36181H30.1301V4.30065C30.5886 3.58014 31.2551 3.21989 32.1298 3.21989ZM32.0134 8.04511C32.5424 8.04511 32.9868 7.85952 33.3465 7.48835C33.7063 7.10262 33.8861 6.63684 33.8861 6.091C33.8861 5.53789 33.7063 5.07574 33.3465 4.70457C32.9868 4.32612 32.5424 4.1369 32.0134 4.1369C31.4773 4.1369 31.0294 4.32612 30.6697 4.70457C30.31 5.07574 30.1301 5.53789 30.1301 6.091C30.1301 6.63684 30.31 7.10262 30.6697 7.48835C31.0294 7.85952 31.4773 8.04511 32.0134 8.04511Z" fill="#98A0B1"/>
<path d="M40.2853 4.30065V3.36181H41.2058V8.8202H40.2853V7.88135C39.8339 8.60186 39.1673 8.96212 38.2856 8.96212C37.5379 8.96212 36.9066 8.68556 36.3917 8.13244C35.8697 7.57205 35.6088 6.89157 35.6088 6.091C35.6088 5.29772 35.8697 4.62088 36.3917 4.06048C36.9137 3.50009 37.545 3.21989 38.2856 3.21989C39.1673 3.21989 39.8339 3.58014 40.2853 4.30065ZM38.402 8.04511C38.9381 8.04511 39.386 7.85952 39.7457 7.48835C40.1054 7.10262 40.2853 6.63684 40.2853 6.091C40.2853 5.53789 40.1054 5.07574 39.7457 4.70457C39.386 4.32612 38.9381 4.1369 38.402 4.1369C37.873 4.1369 37.4286 4.32612 37.0689 4.70457C36.7091 5.07574 36.5293 5.53789 36.5293 6.091C36.5293 6.63684 36.7091 7.10262 37.0689 7.48835C37.4286 7.85952 37.873 8.04511 38.402 8.04511Z" fill="#98A0B1"/>
<path d="M45.0022 8.96212C44.2192 8.96212 43.5738 8.69647 43.066 8.16519C42.5581 7.62663 42.3042 6.94251 42.3042 6.11284C42.3042 5.17399 42.4347 4.45712 42.6957 3.96223C42.9637 3.46006 43.5068 3.00519 44.325 2.59763C44.3674 2.5758 44.4167 2.55033 44.4732 2.52122C44.5367 2.4921 44.6107 2.45935 44.6954 2.42297C44.7871 2.3793 44.8646 2.34291 44.9281 2.3138L45.4995 2.0518C46.0638 1.76068 46.3635 1.41134 46.3988 1.00378L47.1394 1.44045C47.0901 1.69518 47.0089 1.89896 46.8961 2.0518C46.889 2.06635 46.8679 2.0991 46.8326 2.15005C46.7973 2.19371 46.7727 2.22646 46.7585 2.2483C46.7444 2.26285 46.7197 2.28833 46.6845 2.32471C46.6563 2.35383 46.6245 2.38294 46.5893 2.41205C46.561 2.44116 46.5222 2.47027 46.4729 2.49938C46.2119 2.66677 46.025 2.77594 45.9121 2.82689C45.8698 2.84872 45.8239 2.87055 45.7746 2.89239C45.7322 2.91422 45.697 2.93242 45.6688 2.94697C45.6405 2.96153 45.6194 2.97244 45.6053 2.97972L45.2561 3.13256L44.9175 3.27447C44.445 3.48553 44.0958 3.70023 43.8701 3.91856C43.6444 4.1369 43.4821 4.41346 43.3834 4.74824C43.6021 4.47168 43.8771 4.26062 44.2087 4.11507C44.5472 3.96951 44.8929 3.89673 45.2455 3.89673C45.9156 3.89673 46.4764 4.12962 46.9278 4.5954C47.3934 5.06846 47.6261 5.66889 47.6261 6.39667C47.6261 7.13901 47.3793 7.75399 46.8855 8.24161C46.3847 8.72195 45.7569 8.96212 45.0022 8.96212ZM46.7056 6.39667C46.7056 5.90906 46.5505 5.51241 46.2401 5.20674C45.9368 4.8938 45.5347 4.73732 45.0339 4.73732C44.5896 4.73732 44.1804 4.88652 43.8066 5.18491C43.4469 5.4833 43.267 5.86903 43.267 6.34209C43.267 6.83698 43.4328 7.24454 43.7643 7.56477C44.0958 7.88499 44.5084 8.04511 45.0022 8.04511C45.503 8.04511 45.9086 7.88863 46.2189 7.57569C46.5434 7.26274 46.7056 6.86973 46.7056 6.39667Z" fill="#98A0B1"/>
<path d="M53.0685 8.13244C52.5324 8.68556 51.8729 8.96212 51.09 8.96212C50.307 8.96212 49.6475 8.68556 49.1114 8.13244C48.5754 7.57932 48.3073 6.89884 48.3073 6.091C48.3073 5.28316 48.5754 4.60268 49.1114 4.04957C49.6475 3.49645 50.307 3.21989 51.09 3.21989C51.8729 3.21989 52.5324 3.49645 53.0685 4.04957C53.6117 4.60996 53.8832 5.29044 53.8832 6.091C53.8832 6.89157 53.6117 7.57205 53.0685 8.13244ZM51.09 8.03419C51.619 8.03419 52.0634 7.8486 52.4231 7.47743C52.7829 7.10626 52.9627 6.64412 52.9627 6.091C52.9627 5.53789 52.7829 5.07574 52.4231 4.70457C52.0634 4.3334 51.619 4.14782 51.09 4.14782C50.568 4.14782 50.1272 4.3334 49.7674 4.70457C49.4077 5.07574 49.2278 5.53789 49.2278 6.091C49.2278 6.64412 49.4077 7.10626 49.7674 7.47743C50.1272 7.8486 50.568 8.03419 51.09 8.03419Z" fill="#98A0B1"/>
<path d="M54.1692 3.36181H58.6976V4.27882H56.899V8.8202H55.9785V4.27882H54.1692V3.36181Z" fill="#98A0B1"/>
<path d="M63.678 4.30065V3.36181H64.5985V8.8202H63.678V7.88135C63.2265 8.60186 62.56 8.96212 61.6783 8.96212C60.9306 8.96212 60.2993 8.68556 59.7844 8.13244C59.2624 7.57205 59.0014 6.89157 59.0014 6.091C59.0014 5.29772 59.2624 4.62088 59.7844 4.06048C60.3063 3.50009 60.9376 3.21989 61.6783 3.21989C62.56 3.21989 63.2265 3.58014 63.678 4.30065ZM61.7946 8.04511C62.3307 8.04511 62.7786 7.85952 63.1384 7.48835C63.4981 7.10262 63.678 6.63684 63.678 6.091C63.678 5.53789 63.4981 5.07574 63.1384 4.70457C62.7786 4.32612 62.3307 4.1369 61.7946 4.1369C61.2656 4.1369 60.8212 4.32612 60.4615 4.70457C60.1018 5.07574 59.9219 5.53789 59.9219 6.091C59.9219 6.63684 60.1018 7.10262 60.4615 7.48835C60.8212 7.85952 61.2656 8.04511 61.7946 8.04511Z" fill="#98A0B1"/>
<path d="M69.6539 5.6325V3.36181H70.5744V8.8202H69.6539V6.53859H66.9136V8.8202H65.9931V3.36181H66.9136V5.6325H69.6539Z" fill="#98A0B1"/>
<path d="M76.4405 8.13244C75.9044 8.68556 75.2449 8.96212 74.462 8.96212C73.679 8.96212 73.0195 8.68556 72.4834 8.13244C71.9474 7.57932 71.6793 6.89884 71.6793 6.091C71.6793 5.28316 71.9474 4.60268 72.4834 4.04957C73.0195 3.49645 73.679 3.21989 74.462 3.21989C75.2449 3.21989 75.9044 3.49645 76.4405 4.04957C76.9836 4.60996 77.2552 5.29044 77.2552 6.091C77.2552 6.89157 76.9836 7.57205 76.4405 8.13244ZM74.462 8.03419C74.991 8.03419 75.4354 7.8486 75.7951 7.47743C76.1548 7.10626 76.3347 6.64412 76.3347 6.091C76.3347 5.53789 76.1548 5.07574 75.7951 4.70457C75.4354 4.3334 74.991 4.14782 74.462 4.14782C73.94 4.14782 73.4992 4.3334 73.1394 4.70457C72.7797 5.07574 72.5998 5.53789 72.5998 6.091C72.5998 6.64412 72.7797 7.10626 73.1394 7.47743C73.4992 7.8486 73.94 8.03419 74.462 8.03419Z" fill="#98A0B1"/>
</svg>
