<svg width="120" height="60" viewBox="0 0 120 60" fill="none" xmlns="http://www.w3.org/2000/svg">
<rect width="120" height="60" rx="30" fill="white"/>
<path d="M89 30.5C89 31.0523 89.4477 31.5 90 31.5C90.5523 31.5 91 31.0523 91 30.5H89ZM72.8142 41.6237C73.1348 41.174 73.0303 40.5496 72.5806 40.2289L65.2528 35.0036C64.8032 34.6829 64.1787 34.7875 63.858 35.2372C63.5374 35.6869 63.642 36.3113 64.0916 36.632L70.6052 41.2767L65.9605 47.7903C65.6398 48.2399 65.7444 48.8644 66.1941 49.1851C66.6438 49.5057 67.2682 49.4011 67.5889 48.9515L72.8142 41.6237ZM60 41C51.806 41 44.4329 39.7251 39.1447 37.698C36.4973 36.6831 34.4235 35.4991 33.0291 34.2354C31.6348 32.9717 31 31.7078 31 30.5H29C29 32.4678 30.0442 34.2293 31.686 35.7173C33.3277 37.2052 35.6474 38.4992 38.4289 39.5655C43.9986 41.7005 51.6254 43 60 43V41ZM31 30.5C31 29.2922 31.6348 28.0283 33.0291 26.7646C34.4235 25.5009 36.4973 24.3169 39.1447 23.302C44.4329 21.2749 51.806 20 60 20V18C51.6254 18 43.9986 19.2995 38.4289 21.4345C35.6474 22.5008 33.3277 23.7948 31.686 25.2827C30.0442 26.7707 29 28.5322 29 30.5H31ZM60 20C68.194 20 75.5671 21.2749 80.8553 23.302C83.5027 24.3169 85.5765 25.5009 86.9709 26.7646C88.3652 28.0283 89 29.2922 89 30.5H91C91 28.5322 89.9558 26.7707 88.314 25.2827C86.6723 23.7948 84.3526 22.5008 81.5711 21.4345C76.0014 19.2995 68.3746 18 60 18V20ZM71.8348 40.0568C68.2176 40.6627 64.2144 41 60 41V43C64.3189 43 68.4328 42.6545 72.1652 42.0294L71.8348 40.0568Z" fill="url(#paint0_linear_2875_16430)"/>
<rect width="120" height="60" rx="30" fill="url(#paint1_linear_2875_16430)"/>
<defs>
<linearGradient id="paint0_linear_2875_16430" x1="115.5" y1="19.7667" x2="47.5201" y2="-23.1366" gradientUnits="userSpaceOnUse">
<stop stop-color="#D65986"/>
<stop offset="1" stop-color="#A261F9"/>
</linearGradient>
<linearGradient id="paint1_linear_2875_16430" x1="89.5" y1="32" x2="74" y2="32" gradientUnits="userSpaceOnUse">
<stop stop-color="white"/>
<stop offset="1" stop-color="white" stop-opacity="0"/>
</linearGradient>
</defs>
</svg>
