<svg xmlns="http://www.w3.org/2000/svg" width="70" height="70" fill="none"><g clip-path="url(#a)" fill-rule="evenodd" clip-rule="evenodd"><path d="m35 .826-.504.875-4.881 8.444h3.635V40.23L7.194 55.274l-1.818-3.149L0 61.448h1.009l9.754.006-1.82-3.149L35 43.262l26.056 15.043-1.819 3.149L70 61.448l-.504-.875-4.872-8.448-1.818 3.15L36.75 40.23V10.144h3.635L35 .826Z" fill="url(#b)"/><path d="M34.34 19.916 13.87 33.342c-.472.34-.599.728-.607 1.081v20.062c0 .441.23.851.607 1.082L34.34 68.99c.493.27.995.224 1.328-.007l20.463-13.417a1.266 1.266 0 0 0 .607-1.082V34.423c-.005-.535-.231-.817-.627-1.095L35.66 19.916c-.488-.277-.87-.145-1.32 0Zm.66 2.562 17.86 11.835-17.87 12.044-18.029-11.934 18.04-11.945ZM15.792 36.676 33.735 48.56v17.097L15.794 53.774l-.002-17.098Zm38.416 0v17.097L36.266 65.656V48.558l17.942-11.882Z" fill="url(#c)"/></g><defs><linearGradient id="b" x1="99.75" y1="2.847" x2="-3.123" y2="-25.888" gradientUnits="userSpaceOnUse"><stop stop-color="#D65986"/><stop offset="1" stop-color="#A261F9"/></linearGradient><linearGradient id="c" x1="75.216" y1="21.401" x2="9.321" y2="7.377" gradientUnits="userSpaceOnUse"><stop stop-color="#D65986"/><stop offset="1" stop-color="#A261F9"/></linearGradient><clipPath id="a"><path fill="#fff" d="M0 0h70v70H0z"/></clipPath></defs></svg>