<svg width="534" height="158" fill="none" xmlns="http://www.w3.org/2000/svg"><g filter="url(#a)"><path d="M0 30C0 13.431 13.431 0 30 0h137.384A26.405 26.405 0 0 1 193 20c2.939 11.754 13.5 20 25.616 20h98.768C329.5 40 340.061 31.754 343 20a26.405 26.405 0 0 1 25.616-20H504c16.569 0 30 13.431 30 30v98c0 16.569-13.431 30-30 30H30c-16.569 0-30-13.431-30-30V30Z" fill="#fff" fill-opacity=".4"/><path d="M1 30C1 13.984 13.984 1 30 1h137.384a25.404 25.404 0 0 1 24.646 19.242C195.08 32.442 206.041 41 218.616 41h98.768c12.575 0 23.536-8.558 26.586-20.758A25.404 25.404 0 0 1 368.616 1H504c16.016 0 29 12.984 29 29v98c0 16.016-12.984 29-29 29H30c-16.016 0-29-12.984-29-29V30Z" stroke="#fff" stroke-width="2"/></g><defs><filter id="a" x="-30" y="-30" width="594" height="218" filterUnits="userSpaceOnUse" color-interpolation-filters="sRGB"><feFlood flood-opacity="0" result="BackgroundImageFix"/><feGaussianBlur in="BackgroundImageFix" stdDeviation="15"/><feComposite in2="SourceAlpha" operator="in" result="effect1_backgroundBlur_2875_16427"/><feBlend in="SourceGraphic" in2="effect1_backgroundBlur_2875_16427" result="shape"/></filter></defs></svg>