<svg width="150" height="120" viewBox="0 0 150 120" fill="none" xmlns="http://www.w3.org/2000/svg">
<path d="M75.5 20C80.8574 20 85.9953 22.1335 89.7836 25.9311C93.5718 29.7287 95.7 34.8794 95.7 40.25C95.7 45.6206 93.5718 50.7713 89.7836 54.5689C85.9953 58.3665 80.8574 60.5 75.5 60.5C70.1426 60.5 65.0047 58.3665 61.2164 54.5689C57.4282 50.7713 55.3 45.6206 55.3 40.25C55.3 34.8794 57.4282 29.7287 61.2164 25.9311C65.0047 22.1335 70.1426 20 75.5 20ZM31.3125 30.125C34.8002 30.125 37.625 32.9568 37.625 36.4531V61.7973C37.625 64.4867 38.6823 67.0654 40.5761 68.9639L48.6403 77.048C49.9502 78.3611 52.0017 78.5668 53.5325 77.5385C55.5683 76.1779 55.8523 73.2828 54.1164 71.5584L51.7177 69.1537L46.6677 64.0912C44.695 62.1137 44.695 58.9021 46.6677 56.9246C48.6403 54.9471 51.8439 54.9471 53.8166 56.9246L58.8666 61.9871L61.2653 64.3918L65.258 68.3943C68.572 71.7166 70.4342 76.2254 70.4342 80.924V93.4062C70.4342 97.5986 67.0413 101 62.8592 101H52.3489C49.6661 101 47.0938 99.94 45.2 98.0416L29.4345 82.2371C26.5939 79.3895 25 75.5293 25 71.4951V36.4531C25 32.9568 27.8248 30.125 31.3125 30.125ZM119.688 30.125C123.175 30.125 126 32.9568 126 36.4531V71.4951C126 75.5293 124.406 79.3895 121.565 82.2371L105.8 98.0416C103.906 99.94 101.334 101 98.6511 101H88.125C83.943 101 80.55 97.5986 80.55 93.4062V80.924C80.55 76.2254 82.4122 71.7166 85.7262 68.3943L89.7189 64.3918L92.1177 61.9871L97.1677 56.9246C99.1403 54.9471 102.344 54.9471 104.317 56.9246C106.289 58.9021 106.289 62.1137 104.317 64.0912L99.2666 69.1537L96.8678 71.5584C95.1319 73.2986 95.4159 76.1779 97.4517 77.5385C98.9825 78.5668 101.034 78.3611 102.344 77.048L110.408 68.9639C112.302 67.0654 113.359 64.4867 113.359 61.7973V36.4531C113.359 32.9568 116.184 30.125 119.672 30.125H119.688Z" fill="url(#paint0_linear_2535_25262)"/>
<defs>
<linearGradient id="paint0_linear_2535_25262" x1="168.925" y1="22.7" x2="22.2594" y2="-21.5437" gradientUnits="userSpaceOnUse">
<stop stop-color="#D65986"/>
<stop offset="1" stop-color="#A261F9"/>
</linearGradient>
</defs>
</svg>
