<svg width="150" height="120" viewBox="0 0 150 120" fill="none" xmlns="http://www.w3.org/2000/svg">
<path d="M59.9208 43.8683L60.4775 43.8196C60.6791 43.7968 60.8719 43.7228 61.0383 43.6043L61.0343 43.6084C61.5672 45.4849 62.2194 47.459 63.0346 49.5265C64.0805 52.2316 65.1105 54.4535 66.2638 56.5981L66.1047 56.2732C66.0092 57.7517 65.8939 59.2708 65.7428 60.7412C65.6766 61.6086 65.5042 62.4642 65.2298 63.2879L65.2497 63.2148C65.202 63.2351 65.1344 71.6634 65.1344 71.6634C65.1358 74.2786 65.9988 76.8172 67.5843 78.8706C69.1699 80.924 71.3857 82.3728 73.8753 82.9837L73.9549 83C74.0654 82.7068 74.2601 82.4545 74.5134 82.2762C74.7668 82.0979 75.0669 82.0019 75.3746 82.0008H77.6572C77.9621 82.005 78.2589 82.1008 78.5107 82.2764C78.7625 82.4519 78.9581 82.6994 79.073 82.9878L79.077 83C81.5876 82.4072 83.8289 80.9661 85.4377 78.9101C87.0465 76.854 87.9286 74.3035 87.9412 71.6716C87.9412 71.6716 87.802 63.2758 87.7304 63.2189C87.4934 62.4338 87.331 61.6272 87.2453 60.8102L87.2413 60.7493C87.1021 59.2708 87.0106 57.7882 86.8794 56.2813C87.8617 54.4697 88.8917 52.2519 89.7984 49.9651L89.9495 49.5346C90.7647 47.4671 91.397 45.4971 91.9498 43.6165C92.1132 43.735 92.3034 43.8091 92.5026 43.8318H92.5066L93.0673 43.8805C93.7433 43.9536 94.3399 43.385 94.3955 42.5036L95 34.6602V34.652C94.9996 34.3364 94.8869 34.0317 94.6827 33.7948C94.4785 33.5578 94.1969 33.4049 93.8905 33.3644H93.8149C94.3445 29.2802 94.0165 25.1276 92.8525 21.183L92.9042 21.3902C91.7825 18.8463 90.0766 16.6164 87.9311 14.8896C85.7857 13.1628 83.264 11.9902 80.5802 11.4712L80.4768 11.4549C79.1756 11.1885 77.8545 11.0363 76.5278 11H76.4443C75.0566 11.0254 73.6743 11.1859 72.3164 11.4793L72.4596 11.4549C69.7772 11.9635 67.2531 13.1209 65.0985 14.8304C62.944 16.5399 61.2217 18.7516 60.0759 21.2805L60.0321 21.3902C58.8872 25.3196 58.5821 29.4544 59.1374 33.5147L59.1215 33.3644C58.8142 33.3984 58.5299 33.5468 58.323 33.7814C58.1161 34.0159 58.0011 34.3201 58 34.6358V34.6642L58.6045 42.5076C58.6601 43.4093 59.2646 43.9536 59.9168 43.8805L59.9208 43.8683Z" fill="url(#paint0_linear_2535_25239)"/>
<path d="M118.994 95.45C118.716 83.2491 117.509 80.4879 116.858 78.6176C116.601 77.8671 116.39 72.7941 108.104 69.5031C103.024 67.4803 96.4681 67.4402 90.9201 65.0682V71.6663C90.9144 75.0489 89.7456 78.3241 87.614 80.9308C85.4825 83.5375 82.5209 85.3134 79.2367 85.9542L79.1454 85.9702C79.086 86.3262 78.9048 86.6498 78.6335 86.8845C78.3623 87.1192 78.0182 87.2502 77.6612 87.2545H77.5898V92.2312C77.5898 94.5666 78.5071 96.8063 80.14 98.4576C81.7729 100.109 83.9875 101.037 86.2967 101.037C88.606 101.037 90.8206 100.109 92.4535 98.4576C94.0864 96.8063 95.0037 94.5666 95.0037 92.2312V88.7556C93.8052 88.5778 92.7126 87.962 91.9327 87.0246C91.1528 86.0873 90.7396 84.8934 90.7713 83.6687C90.803 82.4441 91.2774 81.2737 92.1047 80.3788C92.9321 79.484 94.055 78.9269 95.2611 78.8128C96.4672 78.6987 97.6728 79.0356 98.6499 79.7597C99.6269 80.4838 100.308 81.545 100.563 82.7424C100.819 83.9399 100.632 85.1906 100.038 86.258C99.4431 87.3253 98.4824 88.1354 97.3372 88.5348L97.3015 88.5469V92.4198C97.3015 95.3726 96.1417 98.2043 94.0771 100.292C92.0126 102.38 89.2125 103.553 86.2928 103.553C83.3731 103.553 80.573 102.38 78.5084 100.292C76.4439 98.2043 75.284 95.3726 75.284 92.4198V92.2192V92.2272V87.2064C74.9442 87.1829 74.6222 87.0442 74.3701 86.8125C74.118 86.5809 73.9506 86.27 73.8951 85.9301V85.9221C70.6073 85.2879 67.6398 83.5174 65.5011 80.9137C63.3624 78.3099 62.1855 75.0351 62.172 71.6503V65C56.6001 67.4201 50.0044 67.4683 44.8969 69.4951C36.5868 72.7821 36.3963 77.843 36.1423 78.6056C35.5073 80.4839 34.285 83.2331 34.0072 95.4419C33.9596 97.0473 34.0072 99.5076 38.7933 101.659C49.2147 105.793 62.6403 107.077 75.8754 108H77.1453C90.4082 107.085 103.814 105.805 114.227 101.659C118.994 99.5196 119.037 97.0714 118.994 95.45ZM60.7314 90.4733H55.7866V95.4941H52.2546V90.4894H47.3098V86.9174H52.2546V81.9167H55.7866V86.9174H60.7314V90.4733Z" fill="url(#paint1_linear_2535_25239)"/>
<path d="M98 83.5019C97.9995 82.839 97.7358 82.1997 97.2668 81.7312C96.7978 81.2628 96.162 80.9998 95.4991 81C94.8362 81.0002 94.2005 81.2637 93.7319 81.7326C93.2633 82.2014 93 82.8371 93 83.5C93 84.1629 93.2633 84.7986 93.7319 85.2674C94.2005 85.7362 94.8362 85.9998 95.4991 86C96.162 86.0002 96.7978 85.7372 97.2668 85.2687C97.7358 84.8003 97.9995 84.1647 98 83.5019Z" fill="url(#paint2_linear_2535_25239)"/>
<defs>
<linearGradient id="paint0_linear_2535_25239" x1="110.725" y1="13.4" x2="52.9989" y2="6.22321" gradientUnits="userSpaceOnUse">
<stop stop-color="#D65986"/>
<stop offset="1" stop-color="#A261F9"/>
</linearGradient>
<linearGradient id="paint1_linear_2535_25239" x1="155.125" y1="66.4333" x2="45.5267" y2="14.0201" gradientUnits="userSpaceOnUse">
<stop stop-color="#D65986"/>
<stop offset="1" stop-color="#A261F9"/>
</linearGradient>
<linearGradient id="paint2_linear_2535_25239" x1="100.125" y1="81.1667" x2="92.6416" y2="79.3562" gradientUnits="userSpaceOnUse">
<stop stop-color="#D65986"/>
<stop offset="1" stop-color="#A261F9"/>
</linearGradient>
</defs>
</svg>
