<svg width="150" height="120" viewBox="0 0 150 120" fill="none" xmlns="http://www.w3.org/2000/svg">
<path fill-rule="evenodd" clip-rule="evenodd" d="M29.528 25.0778C29.528 25.1678 29.4087 25.2234 29.2154 25.2234C29.1174 25.2234 29.08 25.2542 29.08 25.3351C29.08 25.422 29.0426 25.4468 28.912 25.4468C28.7814 25.4468 28.744 25.4716 28.744 25.5585C28.744 25.6206 28.7066 25.6702 28.66 25.6702C28.6138 25.6702 28.576 25.7079 28.576 25.754C28.576 25.807 28.5225 25.8378 28.4307 25.8378C28.3326 25.8378 28.276 25.874 28.2562 25.9495C28.2401 26.0109 28.1921 26.0612 28.1494 26.0612C28.1069 26.0612 28.072 26.1115 28.072 26.1729C28.072 26.235 28.0346 26.2846 27.988 26.2846C27.9414 26.2846 27.904 26.3343 27.904 26.3963C27.904 26.4584 27.8666 26.508 27.82 26.508C27.7738 26.508 27.736 26.5431 27.736 26.5858C27.736 26.6286 27.6982 26.6781 27.652 26.6958C27.6058 26.7135 27.568 26.7664 27.568 26.8135C27.568 26.8605 27.5428 26.899 27.512 26.899C27.4812 26.899 27.456 26.9493 27.456 27.0107C27.456 27.0721 27.421 27.1224 27.3782 27.1224C27.3337 27.1224 27.2848 27.2059 27.2637 27.3179C27.2435 27.4254 27.2029 27.5134 27.1735 27.5134C27.1441 27.5134 27.12 27.5637 27.12 27.6251C27.12 27.6865 27.0844 27.7368 27.0409 27.7368C26.9923 27.7368 26.9472 27.8229 26.924 27.9602C26.9032 28.0831 26.8632 28.1836 26.8351 28.1836C26.807 28.1836 26.784 28.2339 26.784 28.2953C26.784 28.3574 26.7466 28.407 26.7 28.407C26.6355 28.407 26.616 28.4784 26.616 28.7142C26.616 28.95 26.5965 29.0214 26.532 29.0214C26.4577 29.0214 26.448 29.9057 26.448 36.6454V44.2693H26.616C26.728 44.2693 26.784 44.2972 26.784 44.3531C26.784 44.406 26.8375 44.4369 26.9293 44.4369C27.0274 44.4369 27.084 44.4731 27.1038 44.5486C27.1231 44.6224 27.1801 44.6603 27.2718 44.6603C27.3634 44.6603 27.4204 44.6982 27.4398 44.772C27.4559 44.8334 27.5039 44.8837 27.5466 44.8837C27.5891 44.8837 27.624 44.934 27.624 44.9954C27.624 45.0773 27.6614 45.1071 27.764 45.1071C27.8666 45.1071 27.904 45.1369 27.904 45.2188C27.904 45.2809 27.9414 45.3305 27.988 45.3305C28.0342 45.3305 28.072 45.3682 28.072 45.4143C28.072 45.4604 28.1098 45.4981 28.156 45.4981C28.2026 45.4981 28.24 45.5477 28.24 45.6098C28.24 45.6718 28.2774 45.7215 28.324 45.7215C28.3706 45.7215 28.408 45.7712 28.408 45.8332C28.408 45.8953 28.4454 45.9449 28.492 45.9449C28.5386 45.9449 28.576 45.9946 28.576 46.0566C28.576 46.1187 28.6134 46.1683 28.66 46.1683C28.7187 46.1683 28.744 46.2273 28.744 46.3638C28.744 46.5003 28.7693 46.5593 28.828 46.5593C28.8742 46.5593 28.912 46.6069 28.912 46.665C28.912 46.7232 28.9498 46.7852 28.996 46.8029C29.0487 46.8231 29.08 46.9085 29.08 47.0323C29.08 47.1704 29.1052 47.2295 29.164 47.2295C29.2223 47.2295 29.248 47.288 29.248 47.4204C29.248 47.5253 29.2729 47.6196 29.3032 47.6298C29.3336 47.6401 29.3752 47.7741 29.3957 47.9277C29.4162 48.0813 29.4669 48.2271 29.5085 48.2516C29.5569 48.2803 29.584 48.4038 29.584 48.596C29.584 48.7609 29.611 48.9048 29.644 48.9158C29.6771 48.9267 29.7177 49.1236 29.7343 49.3533C29.7509 49.583 29.7868 49.7848 29.814 49.8019C29.8419 49.8194 29.8697 52.1702 29.8777 55.1917L29.892 60.5505L51.564 60.567C63.4836 60.5761 73.3935 60.5678 73.586 60.5486C73.8346 60.5238 73.936 60.4907 73.936 60.4343C73.936 60.3907 73.9738 60.355 74.02 60.355C74.0667 60.355 74.104 60.3054 74.104 60.2433C74.104 60.1813 74.1414 60.1316 74.188 60.1316C74.2625 60.1316 74.272 58.1891 74.272 42.9847C74.272 27.7803 74.2625 25.8378 74.188 25.8378C74.1293 25.8378 74.104 25.7788 74.104 25.6423C74.104 25.5058 74.0787 25.4468 74.02 25.4468C73.9734 25.4468 73.936 25.3972 73.936 25.3351C73.936 25.2521 73.8987 25.2234 73.7907 25.2234C73.6926 25.2234 73.636 25.1872 73.6162 25.1117C73.587 25.0002 73.5399 25 51.5575 25C32.765 25 29.528 25.0115 29.528 25.0778ZM76.4 25.1117C76.4 25.1738 76.3626 25.2234 76.316 25.2234C76.2698 25.2234 76.232 25.2584 76.232 25.3012C76.232 25.344 76.1942 25.3935 76.148 25.4112C76.1018 25.4288 76.064 25.4818 76.064 25.5289C76.064 25.5759 76.0262 25.6144 75.98 25.6144C75.9157 25.6144 75.896 25.6851 75.896 25.9156C75.896 26.1318 75.8723 26.2259 75.812 26.249C75.7376 26.2775 75.728 28.2008 75.728 43.0947C75.728 58.0028 75.7375 59.9082 75.812 59.9082C75.8707 59.9082 75.896 59.9672 75.896 60.1037C75.896 60.2453 75.9206 60.2992 75.9853 60.2992C76.0343 60.2992 76.0873 60.3479 76.1029 60.4076C76.1248 60.4909 76.1979 60.5237 76.4197 60.5495C76.5782 60.568 86.473 60.5758 98.408 60.5668L120.108 60.5505L120.122 55.4818C120.13 52.694 120.158 50.4132 120.184 50.4132C120.21 50.4132 120.247 50.1321 120.267 49.7886C120.286 49.445 120.324 49.1497 120.351 49.1323C120.378 49.1149 120.414 48.9255 120.431 48.7115C120.447 48.4974 120.489 48.3131 120.523 48.3019C120.556 48.2906 120.584 48.183 120.584 48.0627C120.584 47.9055 120.608 47.8439 120.668 47.8439C120.729 47.8439 120.752 47.7819 120.752 47.6205C120.752 47.4591 120.775 47.3971 120.836 47.3971C120.895 47.3971 120.92 47.3381 120.92 47.2016C120.92 47.0651 120.945 47.0061 121.004 47.0061C121.063 47.0061 121.088 46.9471 121.088 46.8106C121.088 46.6741 121.113 46.6151 121.172 46.6151C121.219 46.6151 121.256 46.5653 121.256 46.5017C121.256 46.4393 121.294 46.3738 121.34 46.3561C121.386 46.3384 121.424 46.2763 121.424 46.2182C121.424 46.1601 121.462 46.1125 121.508 46.1125C121.563 46.1125 121.592 46.0573 121.592 45.9509C121.592 45.8588 121.628 45.7755 121.676 45.7571C121.722 45.7395 121.76 45.6865 121.76 45.6395C121.76 45.5924 121.798 45.5539 121.844 45.5539C121.89 45.5539 121.928 45.5064 121.928 45.4483C121.928 45.3822 121.98 45.3295 122.068 45.3076C122.145 45.2883 122.208 45.2353 122.208 45.1898C122.208 45.1443 122.243 45.1071 122.285 45.1071C122.328 45.1071 122.376 45.0568 122.392 44.9954C122.408 44.934 122.462 44.8837 122.511 44.8837C122.56 44.8837 122.6 44.8465 122.6 44.801C122.6 44.7555 122.663 44.7025 122.74 44.6832C122.817 44.664 122.88 44.6152 122.88 44.5749C122.88 44.5346 122.956 44.485 123.048 44.4648C123.14 44.4446 123.216 44.3923 123.216 44.3487C123.216 44.2981 123.276 44.2693 123.381 44.2693C123.531 44.2693 123.548 44.2495 123.58 44.0319C123.599 43.9014 123.607 40.3934 123.597 36.2365C123.581 29.1067 123.574 28.6753 123.482 28.6237C123.418 28.5881 123.384 28.5018 123.384 28.3763C123.384 28.2423 123.358 28.1836 123.3 28.1836C123.253 28.1836 123.216 28.134 123.216 28.0719C123.216 28.0105 123.194 27.9602 123.166 27.9602C123.139 27.9602 123.1 27.8746 123.081 27.7701C123.061 27.6656 123.008 27.5658 122.962 27.5485C122.917 27.5311 122.88 27.4784 122.88 27.4313C122.88 27.3843 122.855 27.3458 122.824 27.3458C122.793 27.3458 122.768 27.2956 122.768 27.2341C122.768 27.1727 122.733 27.1224 122.69 27.1224C122.646 27.1224 122.597 27.0401 122.577 26.9323C122.557 26.8278 122.504 26.728 122.458 26.7107C122.413 26.6933 122.376 26.6433 122.376 26.5995C122.376 26.5558 122.338 26.5055 122.292 26.4878C122.246 26.4702 122.208 26.4199 122.208 26.3761C122.208 26.3324 122.17 26.2821 122.124 26.2644C122.078 26.2468 122.04 26.1938 122.04 26.1467C122.04 26.0928 121.988 26.0612 121.9 26.0612C121.797 26.0612 121.76 26.0314 121.76 25.9495C121.76 25.8874 121.723 25.8378 121.676 25.8378C121.63 25.8378 121.592 25.8021 121.592 25.7584C121.592 25.7148 121.516 25.6625 121.424 25.6423C121.332 25.6221 121.256 25.5698 121.256 25.5262C121.256 25.4825 121.218 25.4468 121.172 25.4468C121.125 25.4468 121.088 25.3972 121.088 25.3351C121.088 25.2399 121.051 25.2234 120.836 25.2234C120.621 25.2234 120.584 25.2069 120.584 25.1117C120.584 25.0002 120.547 25 98.492 25C76.4374 25 76.4 25.0002 76.4 25.1117ZM15.01 45.3157C14.8379 45.3292 14.744 45.3626 14.744 45.4102C14.744 45.4529 14.6499 45.4988 14.52 45.5195C14.3751 45.5427 14.296 45.5846 14.296 45.6384C14.296 45.6935 14.2394 45.7215 14.128 45.7215C13.9974 45.7215 13.96 45.7463 13.96 45.8332C13.96 45.8953 13.9226 45.9449 13.876 45.9449C13.8298 45.9449 13.792 45.9834 13.792 46.0304C13.792 46.0775 13.7542 46.1305 13.708 46.1481C13.6618 46.1658 13.624 46.2133 13.624 46.2537C13.624 46.294 13.5484 46.3436 13.456 46.3638C13.3405 46.3891 13.288 46.4341 13.288 46.5079C13.288 46.5669 13.2502 46.6151 13.204 46.6151C13.1453 46.6151 13.12 46.6741 13.12 46.8106C13.12 46.9471 13.0947 47.0061 13.036 47.0061C12.9894 47.0061 12.952 47.0558 12.952 47.1178C12.952 47.1799 12.9146 47.2295 12.868 47.2295C12.8093 47.2295 12.784 47.2885 12.784 47.425C12.784 47.5615 12.7587 47.6205 12.7 47.6205C12.6534 47.6205 12.616 47.6702 12.616 47.7322C12.616 47.7936 12.5911 47.8439 12.5607 47.8439C12.5302 47.8439 12.4892 47.9445 12.4695 48.0673C12.4498 48.1902 12.4152 48.2907 12.3926 48.2907C12.37 48.2907 12.3362 48.4208 12.3173 48.5798C12.2984 48.7387 12.2572 48.8847 12.2256 48.9041C12.1941 48.9236 12.1519 49.1705 12.1318 49.4529C12.1117 49.7353 12.0738 49.9663 12.0476 49.9663C12.0214 49.9663 12 58.914 12 69.85C12 81.5286 12.0207 89.7337 12.0502 89.7337C12.0778 89.7337 12.1182 89.9348 12.14 90.1806C12.1618 90.4263 12.1987 90.6274 12.222 90.6274C12.2453 90.6274 12.2801 90.7592 12.2992 90.9203C12.3183 91.0814 12.3596 91.2217 12.391 91.2321C12.4224 91.2426 12.448 91.337 12.448 91.4419C12.448 91.5743 12.4737 91.6327 12.532 91.6327C12.5908 91.6327 12.616 91.6919 12.616 91.83C12.616 91.9538 12.6473 92.0392 12.7 92.0593C12.7462 92.0771 12.784 92.1391 12.784 92.1973C12.784 92.2554 12.8218 92.303 12.868 92.303C12.9267 92.303 12.952 92.362 12.952 92.4985C12.952 92.635 12.9773 92.694 13.036 92.694C13.0826 92.694 13.12 92.7436 13.12 92.8057C13.12 92.8677 13.1574 92.9174 13.204 92.9174C13.2506 92.9174 13.288 92.967 13.288 93.0291C13.288 93.0911 13.3254 93.1408 13.372 93.1408C13.4182 93.1408 13.456 93.1785 13.456 93.2246C13.456 93.2706 13.4938 93.3083 13.54 93.3083C13.5862 93.3083 13.624 93.3559 13.624 93.414C13.624 93.4801 13.6764 93.5328 13.764 93.5547C13.841 93.574 13.904 93.627 13.904 93.6724C13.904 93.718 13.9544 93.7552 14.016 93.7552C14.0906 93.7552 14.128 93.7924 14.128 93.8669C14.128 93.9538 14.1654 93.9786 14.296 93.9786C14.4042 93.9786 14.464 94.007 14.464 94.0583C14.464 94.1131 14.5604 94.1501 14.772 94.1765C14.9785 94.2022 15.08 94.2404 15.08 94.2922C15.08 94.3551 15.2618 94.3695 16.0554 94.3695C16.5919 94.3695 17.0707 94.3848 17.1194 94.4035C17.1976 94.4334 17.208 94.6459 17.208 96.2187V98H20.428H23.648V96.1848V94.3695H24.712C25.6204 94.3695 25.776 94.3573 25.776 94.2858C25.776 94.2363 25.8277 94.2017 25.902 94.2012C26.1158 94.1999 26.28 94.1368 26.28 94.0558C26.28 94.0114 26.3375 93.9786 26.4154 93.9786C26.6087 93.9786 26.728 93.923 26.728 93.833C26.728 93.7902 26.7784 93.7552 26.84 93.7552C26.9146 93.7552 26.952 93.7179 26.952 93.6435C26.952 93.5615 26.9894 93.5318 27.092 93.5318C27.1804 93.5318 27.232 93.5002 27.232 93.4462C27.232 93.3992 27.2698 93.3462 27.316 93.3286C27.3622 93.3109 27.4 93.2606 27.4 93.2169C27.4 93.1731 27.4378 93.1228 27.484 93.1051C27.5302 93.0874 27.568 93.0379 27.568 92.9952C27.568 92.9524 27.603 92.9174 27.6458 92.9174C27.6903 92.9174 27.7392 92.8339 27.7603 92.7219C27.7805 92.6144 27.8211 92.5264 27.8505 92.5264C27.8799 92.5264 27.904 92.4753 27.904 92.413C27.904 92.3505 27.9393 92.2859 27.9825 92.2694C28.0257 92.2529 28.0772 92.1532 28.097 92.0478C28.1169 91.9424 28.1571 91.8562 28.1865 91.8562C28.2159 91.8562 28.24 91.8059 28.24 91.7445C28.24 91.6824 28.2774 91.6327 28.324 91.6327C28.3885 91.6327 28.408 91.5614 28.408 91.3256C28.408 91.0897 28.4275 91.0184 28.492 91.0184C28.5565 91.0184 28.576 90.947 28.576 90.7112C28.576 90.4754 28.5955 90.404 28.66 90.404C28.7298 90.404 28.744 90.2954 28.744 89.7617C28.744 89.2279 28.7582 89.1194 28.828 89.1194C28.9025 89.1194 28.912 86.9287 28.912 69.7383C28.912 52.548 28.9025 50.3573 28.828 50.3573C28.7584 50.3573 28.744 50.2518 28.744 49.7429C28.744 49.234 28.7296 49.1285 28.66 49.1285C28.5957 49.1285 28.576 49.0578 28.576 48.8273C28.576 48.6111 28.5523 48.5171 28.492 48.4939C28.4393 48.4738 28.408 48.3884 28.408 48.2645C28.408 48.1265 28.3828 48.0673 28.324 48.0673C28.2634 48.0673 28.24 48.0053 28.24 47.8439C28.24 47.6826 28.2166 47.6205 28.156 47.6205C28.0973 47.6205 28.072 47.5615 28.072 47.425C28.072 47.2885 28.0467 47.2295 27.988 47.2295C27.9414 47.2295 27.904 47.1799 27.904 47.1178C27.904 47.0558 27.8666 47.0061 27.82 47.0061C27.7734 47.0061 27.736 46.9565 27.736 46.8944C27.736 46.833 27.7108 46.7827 27.68 46.7827C27.6492 46.7827 27.624 46.7442 27.624 46.6972C27.624 46.6501 27.5862 46.5972 27.54 46.5795C27.4938 46.5618 27.456 46.5115 27.456 46.4678C27.456 46.424 27.4182 46.3738 27.372 46.3561C27.3258 46.3384 27.288 46.2889 27.288 46.2461C27.288 46.2033 27.2502 46.1683 27.204 46.1683C27.1574 46.1683 27.12 46.1187 27.12 46.0566C27.12 45.9697 27.0826 45.9449 26.952 45.9449C26.8214 45.9449 26.784 45.9201 26.784 45.8332C26.784 45.7588 26.7466 45.7215 26.672 45.7215C26.6104 45.7215 26.56 45.687 26.56 45.6449C26.56 45.5986 26.4711 45.5541 26.336 45.5325C26.2036 45.5114 26.112 45.4661 26.112 45.4217C26.112 45.3698 25.9954 45.3357 25.734 45.3111C25.3433 45.2743 15.4826 45.2786 15.01 45.3157ZM124.154 45.3157C123.977 45.3297 123.888 45.3621 123.888 45.4129C123.888 45.4549 123.812 45.5058 123.72 45.526C123.628 45.5462 123.552 45.5985 123.552 45.6421C123.552 45.6931 123.492 45.7215 123.384 45.7215C123.253 45.7215 123.216 45.7463 123.216 45.8332C123.216 45.9151 123.179 45.9449 123.076 45.9449C122.973 45.9449 122.936 45.9747 122.936 46.0566C122.936 46.1187 122.899 46.1683 122.852 46.1683C122.806 46.1683 122.768 46.2068 122.768 46.2538C122.768 46.3009 122.73 46.3539 122.684 46.3715C122.638 46.3892 122.6 46.4387 122.6 46.4815C122.6 46.5243 122.562 46.5593 122.516 46.5593C122.469 46.5593 122.432 46.6089 122.432 46.671C122.432 46.7331 122.395 46.7827 122.348 46.7827C122.301 46.7827 122.264 46.8324 122.264 46.8944C122.264 46.9559 122.229 47.0061 122.186 47.0061C122.142 47.0061 122.093 47.0896 122.072 47.2016C122.051 47.3091 122.011 47.3971 121.981 47.3971C121.952 47.3971 121.928 47.4599 121.928 47.5367C121.928 47.6236 121.896 47.6764 121.844 47.6764C121.785 47.6764 121.76 47.7353 121.76 47.8718C121.76 48.0083 121.735 48.0673 121.676 48.0673C121.611 48.0673 121.592 48.1387 121.592 48.3745C121.592 48.6103 121.573 48.6817 121.508 48.6817C121.443 48.6817 121.424 48.7562 121.424 49.0168C121.424 49.2775 121.405 49.352 121.34 49.352C121.265 49.352 121.256 51.6575 121.256 69.7663C121.256 87.8751 121.265 90.1806 121.34 90.1806C121.407 90.1806 121.424 90.2612 121.424 90.5715C121.424 90.8819 121.441 90.9625 121.508 90.9625C121.569 90.9625 121.592 91.0246 121.592 91.1859C121.592 91.3473 121.615 91.4093 121.676 91.4093C121.737 91.4093 121.76 91.4714 121.76 91.6327C121.76 91.7941 121.783 91.8562 121.844 91.8562C121.903 91.8562 121.928 91.9151 121.928 92.0516C121.928 92.1881 121.953 92.2471 122.012 92.2471C122.058 92.2471 122.096 92.2947 122.096 92.3529C122.096 92.411 122.134 92.4731 122.18 92.4908C122.226 92.5084 122.264 92.5614 122.264 92.6084C122.264 92.6555 122.286 92.694 122.314 92.694C122.341 92.694 122.38 92.7795 122.399 92.884C122.419 92.9886 122.472 93.0883 122.518 93.1057C122.563 93.1231 122.6 93.1731 122.6 93.2167C122.6 93.2605 122.663 93.312 122.74 93.3313C122.817 93.3506 122.88 93.4036 122.88 93.449C122.88 93.4946 122.918 93.5318 122.964 93.5318C123.011 93.5318 123.048 93.5814 123.048 93.6435C123.048 93.7304 123.085 93.7552 123.216 93.7552C123.347 93.7552 123.384 93.78 123.384 93.8669C123.384 93.9538 123.421 93.9786 123.552 93.9786C123.658 93.9786 123.72 94.0072 123.72 94.0558C123.72 94.1368 123.884 94.1999 124.098 94.2012C124.172 94.2017 124.224 94.2363 124.224 94.2858C124.224 94.3573 124.38 94.3695 125.288 94.3695H126.352V96.1848V98H129.627H132.902L132.917 96.1987L132.932 94.3975L133.982 94.3823C134.864 94.3695 135.032 94.3539 135.032 94.2845C135.032 94.2387 135.088 94.1982 135.158 94.1935C135.227 94.1888 135.309 94.1791 135.34 94.172C135.371 94.1648 135.428 94.1561 135.466 94.1526C135.505 94.149 135.536 94.1084 135.536 94.0624C135.536 94.0065 135.592 93.9786 135.704 93.9786C135.835 93.9786 135.872 93.9538 135.872 93.8669C135.872 93.78 135.909 93.7552 136.04 93.7552C136.171 93.7552 136.208 93.7304 136.208 93.6435C136.208 93.5814 136.245 93.5318 136.292 93.5318C136.338 93.5318 136.376 93.4933 136.376 93.4462C136.376 93.3992 136.414 93.3462 136.46 93.3286C136.506 93.3109 136.544 93.2614 136.544 93.2186C136.544 93.1758 136.582 93.1408 136.628 93.1408C136.675 93.1408 136.712 93.0911 136.712 93.0291C136.712 92.967 136.749 92.9174 136.796 92.9174C136.843 92.9174 136.88 92.8677 136.88 92.8057C136.88 92.7436 136.917 92.694 136.964 92.694C137.011 92.694 137.048 92.6443 137.048 92.5823C137.048 92.5202 137.085 92.4705 137.132 92.4705C137.191 92.4705 137.216 92.4116 137.216 92.2751C137.216 92.1385 137.241 92.0796 137.3 92.0796C137.352 92.0796 137.384 92.0268 137.384 91.9399C137.384 91.8631 137.407 91.8003 137.436 91.8003C137.464 91.8003 137.505 91.7186 137.527 91.6188C137.548 91.519 137.592 91.4211 137.623 91.4014C137.654 91.3816 137.692 91.237 137.707 91.0802C137.722 90.9233 137.754 90.795 137.778 90.795C137.803 90.795 137.84 90.6064 137.862 90.3761C137.883 90.1457 137.923 89.9572 137.951 89.9572C137.979 89.9572 138 81.3858 138 69.7383C138 57.8189 137.979 49.5195 137.95 49.5195C137.922 49.5195 137.882 49.3436 137.86 49.1285C137.838 48.9135 137.798 48.7376 137.77 48.7376C137.743 48.7376 137.72 48.637 137.72 48.5142C137.72 48.3528 137.697 48.2907 137.636 48.2907C137.575 48.2907 137.552 48.2287 137.552 48.0673C137.552 47.906 137.529 47.8439 137.468 47.8439C137.409 47.8439 137.384 47.7849 137.384 47.6484C137.384 47.5119 137.359 47.4529 137.3 47.4529C137.253 47.4529 137.216 47.4031 137.216 47.3395C137.216 47.2771 137.178 47.2115 137.132 47.1939C137.08 47.174 137.048 47.0892 137.048 46.9722C137.048 46.841 137.022 46.7827 136.964 46.7827C136.918 46.7827 136.88 46.745 136.88 46.6989C136.88 46.6528 136.842 46.6151 136.796 46.6151C136.749 46.6151 136.712 46.5655 136.712 46.5034C136.712 46.4414 136.675 46.3917 136.628 46.3917C136.582 46.3917 136.544 46.3442 136.544 46.2861C136.544 46.22 136.492 46.1673 136.404 46.1454C136.327 46.1261 136.264 46.0731 136.264 46.0276C136.264 45.9821 136.214 45.9449 136.152 45.9449C136.077 45.9449 136.04 45.9077 136.04 45.8332C136.04 45.7463 136.003 45.7215 135.872 45.7215C135.759 45.7215 135.704 45.6937 135.704 45.6363C135.704 45.5864 135.635 45.5373 135.536 45.5176C135.444 45.4992 135.368 45.4532 135.368 45.4154C135.368 45.3713 135.233 45.3339 134.99 45.3111C134.599 45.2743 124.627 45.2786 124.154 45.3157ZM29.9014 62.4588C29.8808 62.4793 29.864 65.1914 29.864 68.4857V74.4754L30.382 74.5114C30.6669 74.5311 50.9718 74.5397 75.504 74.5305L120.108 74.5138L120.122 68.4677L120.137 62.4216H75.0376C50.2332 62.4216 29.9218 62.4383 29.9014 62.4588ZM29.899 75.945C29.8797 76.041 29.864 79.1828 29.864 82.9266C29.864 86.6705 29.8424 89.7337 29.816 89.7337C29.7896 89.7337 29.7505 89.9656 29.7291 90.2489C29.7076 90.5323 29.6698 90.7773 29.6452 90.7935C29.6204 90.8096 29.5864 90.9477 29.5696 91.1003C29.5528 91.2529 29.5113 91.3869 29.4775 91.3982C29.4437 91.4094 29.416 91.5171 29.416 91.6374V91.8562H75.0299H120.644L120.606 91.5629C120.585 91.4016 120.545 91.2552 120.518 91.2376C120.491 91.2199 120.453 91.0691 120.434 90.9025C120.415 90.7358 120.378 90.5858 120.353 90.5692C120.328 90.5526 120.291 90.2636 120.271 89.9269C120.25 89.5903 120.212 89.3065 120.185 89.2962C120.157 89.2857 120.136 86.3199 120.136 82.5241V75.7705H75.035H29.934L29.899 75.945Z" fill="url(#paint0_linear_2535_25255)"/>
<defs>
<linearGradient id="paint0_linear_2535_25255" x1="191.55" y1="27.4333" x2="21.5698" y2="-43.5461" gradientUnits="userSpaceOnUse">
<stop stop-color="#D65986"/>
<stop offset="1" stop-color="#A261F9"/>
</linearGradient>
</defs>
</svg>
