<svg width="150" height="120" viewBox="0 0 150 120" fill="none" xmlns="http://www.w3.org/2000/svg">
<path fill-rule="evenodd" clip-rule="evenodd" d="M70.1345 19.0817C70.1345 19.1362 70.08 19.1634 69.9711 19.1634C69.8812 19.1634 69.8077 19.186 69.8077 19.2136C69.8077 19.2411 69.7341 19.2799 69.6442 19.2996C69.5544 19.3193 69.4808 19.3564 69.4808 19.382C69.4808 19.4075 69.4295 19.4448 69.3667 19.4647C69.2232 19.5102 68.8272 19.9137 68.8272 20.0143C68.8272 20.0556 68.8046 20.0894 68.777 20.0894C68.7494 20.0894 68.7107 20.163 68.691 20.2529C68.6713 20.3427 68.6325 20.4163 68.605 20.4163C68.5774 20.4163 68.5548 20.4898 68.5548 20.5797C68.5548 20.6886 68.5276 20.7431 68.4731 20.7431C68.401 20.7431 68.3914 21.384 68.3914 26.1845C68.3914 30.971 68.4013 31.6296 68.4731 31.6572C68.5209 31.6755 68.5548 31.7572 68.5548 31.8537C68.5548 31.9445 68.5788 32.0188 68.6082 32.0188C68.6376 32.0188 68.677 32.0801 68.6958 32.155C68.7146 32.2299 68.7519 32.2912 68.7786 32.2912C68.8053 32.2912 68.8272 32.326 68.8272 32.3686C68.8272 32.4693 69.3027 32.9449 69.4034 32.9449C69.446 32.9449 69.4808 32.9674 69.4808 32.995C69.4808 33.0226 69.5544 33.0613 69.6442 33.081C69.7341 33.1008 69.8077 33.1375 69.8077 33.1627C69.8077 33.188 69.8812 33.2247 69.9711 33.2445C70.061 33.2642 70.1345 33.3029 70.1345 33.3305C70.1345 33.3608 73.5349 33.3806 78.7411 33.3806H87.3477V26.1903V19H78.7411C71.1271 19 70.1345 19.0094 70.1345 19.0817ZM92.099 30.0397C92.1109 38.8123 92.128 41.084 92.1821 41.1021C92.2196 41.1145 92.2502 41.197 92.2502 41.2853C92.2502 41.3778 92.2848 41.4592 92.3319 41.4773C92.3768 41.4945 92.4136 41.5673 92.4136 41.639C92.4136 41.7185 92.4454 41.7693 92.4953 41.7693C92.5407 41.7693 92.577 41.8178 92.577 41.8783C92.577 42.0196 92.9804 42.423 93.1217 42.423C93.1822 42.423 93.2307 42.4593 93.2307 42.5047C93.2307 42.5546 93.2815 42.5864 93.361 42.5864C93.4327 42.5864 93.5055 42.6232 93.5228 42.6681C93.5408 42.7152 93.6222 42.7498 93.7147 42.7498C93.803 42.7498 93.8855 42.7805 93.8979 42.8179C93.9157 42.8713 94.7513 42.8897 97.77 42.9032L101.619 42.9205V54.7645V66.6086H108.81H116V43.6759C116 23.3275 115.991 20.7431 115.918 20.7431C115.867 20.7431 115.837 20.6912 115.837 20.6031C115.837 20.526 115.8 20.4262 115.755 20.3812C115.71 20.3363 115.673 20.2523 115.673 20.1945C115.673 20.1367 115.636 20.0894 115.591 20.0894C115.541 20.0894 115.51 20.038 115.51 19.9533C115.51 19.8685 115.479 19.8171 115.428 19.8171C115.383 19.8171 115.346 19.7803 115.346 19.7354C115.346 19.6904 115.31 19.6537 115.265 19.6537C115.22 19.6537 115.183 19.6169 115.183 19.572C115.183 19.5211 115.132 19.4902 115.047 19.4902C114.965 19.4902 114.911 19.4591 114.911 19.4128C114.911 19.3703 114.837 19.3193 114.747 19.2996C114.657 19.2799 114.584 19.2411 114.584 19.2136C114.584 19.186 114.51 19.1634 114.42 19.1634C114.311 19.1634 114.257 19.1362 114.257 19.0817C114.257 19.0094 112.989 19 103.17 19H92.084L92.099 30.0397ZM104.602 28.7369C104.614 28.7744 104.696 28.805 104.783 28.805C104.888 28.805 104.942 28.8328 104.942 28.8867C104.942 28.9412 104.997 28.9684 105.106 28.9684C105.215 28.9684 105.269 28.9956 105.269 29.0501C105.269 29.1009 105.32 29.1318 105.405 29.1318C105.49 29.1318 105.541 29.1627 105.541 29.2135C105.541 29.2585 105.578 29.2952 105.623 29.2952C105.668 29.2952 105.705 29.332 105.705 29.3769C105.705 29.4219 105.742 29.4586 105.786 29.4586C105.837 29.4586 105.868 29.5101 105.868 29.5948C105.868 29.6796 105.899 29.731 105.95 29.731C106.004 29.731 106.032 29.7855 106.032 29.8944C106.032 30.0034 106.059 30.0578 106.113 30.0578C106.167 30.0578 106.195 30.1118 106.195 30.2167C106.195 30.3041 106.226 30.3858 106.263 30.3982C106.31 30.4138 106.337 30.5921 106.35 30.966C106.365 31.4088 106.352 31.5274 106.282 31.5977C106.234 31.6453 106.195 31.748 106.195 31.826C106.195 31.904 106.158 31.9819 106.113 31.9991C106.068 32.0164 106.032 32.0892 106.032 32.1608C106.032 32.2404 106 32.2912 105.95 32.2912C105.905 32.2912 105.868 32.3394 105.868 32.3983C105.868 32.5217 105.546 32.8643 105.381 32.9167C105.319 32.9362 105.269 32.9731 105.269 32.9987C105.269 33.0242 105.195 33.0613 105.106 33.081C105.016 33.1008 104.942 33.1395 104.942 33.167C104.942 33.1947 104.895 33.2172 104.837 33.2172C104.779 33.2172 104.695 33.254 104.65 33.2989C104.588 33.3617 104.429 33.3806 103.966 33.3806C103.634 33.3806 103.362 33.3581 103.362 33.3305C103.362 33.3029 103.284 33.2631 103.189 33.2422C103.093 33.2211 102.981 33.1702 102.939 33.1289C102.898 33.0876 102.829 33.0538 102.787 33.0538C102.744 33.0538 102.709 33.0293 102.709 32.9993C102.709 32.9694 102.672 32.9449 102.627 32.9449C102.582 32.9449 102.545 32.9081 102.545 32.8631C102.545 32.8182 102.511 32.7814 102.468 32.7814C102.367 32.7814 102.055 32.4693 102.055 32.3687C102.055 32.3261 102.031 32.2912 102.001 32.2912C101.971 32.2912 101.946 32.2562 101.946 32.2134C101.946 32.1706 101.912 32.1018 101.871 32.0605C101.83 32.0192 101.779 31.9072 101.758 31.8115C101.737 31.7158 101.697 31.6375 101.67 31.6375C101.642 31.6375 101.619 31.3661 101.619 31.0345C101.619 30.571 101.638 30.4124 101.701 30.3496C101.746 30.3047 101.783 30.2207 101.783 30.1629C101.783 30.1051 101.805 30.0578 101.833 30.0578C101.861 30.0578 101.899 29.9843 101.919 29.8944C101.939 29.8045 101.976 29.731 102.001 29.731C102.027 29.731 102.065 29.6782 102.085 29.6136C102.13 29.4716 102.369 29.2408 102.472 29.2408C102.512 29.2408 102.545 29.2162 102.545 29.1863C102.545 29.1563 102.582 29.1318 102.627 29.1318C102.672 29.1318 102.709 29.095 102.709 29.0501C102.709 28.9993 102.76 28.9684 102.845 28.9684C102.93 28.9684 102.981 28.9375 102.981 28.8867C102.981 28.8318 103.036 28.805 103.148 28.805C103.241 28.805 103.355 28.766 103.402 28.7184C103.473 28.6482 103.591 28.6354 104.034 28.6503C104.408 28.663 104.586 28.6902 104.602 28.7369ZM71.2376 36.4124C71.1402 36.4265 71.0605 36.4609 71.0605 36.489C71.0605 36.5171 70.9985 36.54 70.9227 36.54C70.8468 36.54 70.7706 36.5768 70.7534 36.6217C70.7361 36.6667 70.6626 36.7034 70.59 36.7034C70.5173 36.7034 70.4438 36.7402 70.4266 36.7851C70.4093 36.8301 70.361 36.8668 70.3193 36.8668C70.2776 36.8668 70.2434 36.8925 70.2434 36.9239C70.2434 36.9553 70.1822 37.0378 70.1073 37.1072C70.0324 37.1766 69.9711 37.2612 69.9711 37.2953C69.9711 37.3293 69.9343 37.3571 69.8894 37.3571C69.8444 37.3571 69.8077 37.3939 69.8077 37.4388C69.8077 37.4837 69.7709 37.5205 69.726 37.5205C69.667 37.5205 69.6442 37.581 69.6442 37.7384C69.6442 37.8958 69.6215 37.9563 69.5625 37.9563C69.4937 37.9563 69.4808 38.0804 69.4808 38.7461C69.4808 39.4119 69.4937 39.536 69.5625 39.536C69.617 39.536 69.6442 39.5905 69.6442 39.6994C69.6442 39.8083 69.6715 39.8628 69.726 39.8628C69.7804 39.8628 69.8077 39.9173 69.8077 40.0262C69.8077 40.1352 69.8349 40.1896 69.8894 40.1896C69.9343 40.1896 69.9711 40.2264 69.9711 40.2714C69.9711 40.3163 70.0079 40.3531 70.0528 40.3531C70.0977 40.3531 70.1345 40.3898 70.1345 40.4348C70.1345 40.4797 70.1713 40.5165 70.2162 40.5165C70.2611 40.5165 70.2979 40.5429 70.2979 40.5753C70.2979 40.652 70.925 41.2791 71.0017 41.2791C71.034 41.2791 71.0605 41.3139 71.0605 41.3565C71.0605 41.399 71.1341 41.45 71.2239 41.4697C71.3138 41.4895 71.3874 41.5282 71.3874 41.5557C71.3874 41.5834 71.4241 41.6059 71.4691 41.6059C71.514 41.6059 71.5508 41.6427 71.5508 41.6876C71.5508 41.7326 71.5858 41.7693 71.6286 41.7693C71.6714 41.7693 71.739 41.802 71.7789 41.8418C71.8188 41.8818 71.9186 41.9312 72.0007 41.9518C72.0828 41.9725 72.15 42.0134 72.15 42.0427C72.15 42.0721 72.1885 42.0962 72.2355 42.0962C72.2827 42.0962 72.3579 42.1329 72.4029 42.1779C72.4478 42.2228 72.5564 42.2596 72.6441 42.2596C72.7496 42.2596 72.8036 42.2873 72.8036 42.3413C72.8036 42.3952 72.8576 42.423 72.9625 42.423C73.0499 42.423 73.1304 42.4499 73.1413 42.4828C73.1523 42.5157 73.283 42.556 73.4319 42.5724C73.5807 42.5888 73.7194 42.6284 73.7401 42.6604C73.7608 42.6925 73.9508 42.7284 74.1622 42.7404C74.3737 42.7523 74.5467 42.7839 74.5467 42.8105C74.5467 42.837 74.9757 42.8588 75.5 42.8588C76.0243 42.8588 76.4533 42.837 76.4533 42.8105C76.4533 42.7839 76.6263 42.7523 76.8378 42.7404C77.0492 42.7284 77.2392 42.6925 77.2599 42.6604C77.2806 42.6284 77.4193 42.5888 77.5681 42.5724C77.717 42.556 77.8477 42.5157 77.8587 42.4828C77.8696 42.4499 77.9501 42.423 78.0375 42.423C78.1424 42.423 78.1964 42.3952 78.1964 42.3413C78.1964 42.2873 78.2504 42.2596 78.3559 42.2596C78.4436 42.2596 78.5522 42.2228 78.5971 42.1779C78.6421 42.1329 78.7419 42.0962 78.8189 42.0962C78.9071 42.0962 78.959 42.0659 78.959 42.0145C78.959 41.9695 78.9957 41.9328 79.0407 41.9328C79.0856 41.9328 79.1224 41.9102 79.1224 41.8826C79.1224 41.855 79.1959 41.8163 79.2858 41.7966C79.3757 41.7769 79.4492 41.7259 79.4492 41.6833C79.4492 41.6407 79.486 41.6059 79.5309 41.6059C79.5759 41.6059 79.6126 41.5834 79.6126 41.5557C79.6126 41.5282 79.6862 41.4895 79.7761 41.4697C79.8659 41.45 79.9395 41.399 79.9395 41.3565C79.9395 41.3139 79.966 41.2791 79.9982 41.2791C80.0748 41.2791 80.5387 40.8152 80.5387 40.7387C80.5387 40.7064 80.5754 40.6799 80.6204 40.6799C80.6653 40.6799 80.7021 40.6431 80.7021 40.5982C80.7021 40.5532 80.7389 40.5165 80.7838 40.5165C80.8287 40.5165 80.8655 40.4797 80.8655 40.4348C80.8655 40.3898 80.9023 40.3531 80.9472 40.3531C80.9921 40.3531 81.0289 40.3163 81.0289 40.2714C81.0289 40.2264 81.0657 40.1896 81.1106 40.1896C81.1651 40.1896 81.1923 40.1352 81.1923 40.0262C81.1923 39.9173 81.2196 39.8628 81.274 39.8628C81.3285 39.8628 81.3558 39.8083 81.3558 39.6994C81.3558 39.5905 81.383 39.536 81.4375 39.536C81.5063 39.536 81.5192 39.4119 81.5192 38.7461C81.5192 38.0804 81.5063 37.9563 81.4375 37.9563C81.3785 37.9563 81.3558 37.8958 81.3558 37.7384C81.3558 37.581 81.333 37.5205 81.274 37.5205C81.2291 37.5205 81.1923 37.4837 81.1923 37.4388C81.1923 37.3939 81.1556 37.3571 81.1106 37.3571C81.0657 37.3571 81.0289 37.3293 81.0289 37.2953C81.0289 37.2612 80.9676 37.1766 80.8927 37.1072C80.8178 37.0378 80.7566 36.9553 80.7566 36.9239C80.7566 36.8925 80.7075 36.8668 80.6476 36.8668C80.5871 36.8668 80.5387 36.8305 80.5387 36.7851C80.5387 36.7353 80.4878 36.7034 80.4083 36.7034C80.3366 36.7034 80.2639 36.6667 80.2466 36.6217C80.2294 36.5768 80.1552 36.54 80.0819 36.54C80.0085 36.54 79.9383 36.5094 79.9259 36.4719C79.8958 36.3819 78.5382 36.3745 78.4804 36.4641C78.459 36.4972 78.3496 36.5412 78.2372 36.5619C78.1249 36.5825 78.033 36.6228 78.033 36.6514C78.033 36.68 77.9962 36.7034 77.9512 36.7034C77.9063 36.7034 77.8695 36.7402 77.8695 36.7851C77.8695 36.8301 77.8328 36.8668 77.7878 36.8668C77.7429 36.8668 77.7061 36.9009 77.7061 36.9427C77.7061 36.9843 77.6452 37.0337 77.5708 37.0524C77.4873 37.0734 77.4224 37.1382 77.4015 37.2217C77.3828 37.2962 77.3437 37.3571 77.3147 37.3571C77.2857 37.3571 77.1884 37.4306 77.0985 37.5205C77.0087 37.6104 76.9029 37.6839 76.8634 37.6839C76.824 37.6839 76.7776 37.7207 76.7604 37.7656C76.7432 37.8106 76.669 37.8473 76.5957 37.8473C76.5223 37.8473 76.4536 37.8734 76.443 37.9054C76.4324 37.9372 76.32 37.9772 76.1933 37.9942C76.0667 38.0112 75.963 38.0464 75.963 38.0724C75.963 38.0984 75.7547 38.1197 75.5 38.1197C75.2453 38.1197 75.037 38.0984 75.037 38.0724C75.037 38.0464 74.9333 38.0112 74.8067 37.9942C74.68 37.9772 74.5676 37.9372 74.557 37.9054C74.5464 37.8734 74.4777 37.8473 74.4043 37.8473C74.331 37.8473 74.2568 37.8106 74.2396 37.7656C74.2224 37.7207 74.176 37.6839 74.1366 37.6839C74.0971 37.6839 73.9913 37.6104 73.9015 37.5205C73.8116 37.4306 73.7143 37.3571 73.6853 37.3571C73.6563 37.3571 73.6172 37.2962 73.5985 37.2217C73.5776 37.1382 73.5127 37.0734 73.4292 37.0524C73.3548 37.0337 73.2939 36.9843 73.2939 36.9427C73.2939 36.9009 73.2571 36.8668 73.2122 36.8668C73.1672 36.8668 73.1305 36.8301 73.1305 36.7851C73.1305 36.7402 73.0937 36.7034 73.0488 36.7034C73.0038 36.7034 72.967 36.68 72.967 36.6514C72.967 36.6228 72.8752 36.5825 72.7628 36.5619C72.6505 36.5412 72.5435 36.5012 72.5251 36.473C72.4886 36.4168 71.522 36.3714 71.2376 36.4124ZM63.9594 42.3413C63.9387 42.3952 63.8534 42.423 63.7085 42.423C63.5877 42.423 63.4889 42.4456 63.4889 42.4732C63.4889 42.5007 63.4154 42.5395 63.3255 42.5592C63.2356 42.5789 63.1621 42.6157 63.1621 42.6409C63.1621 42.6661 63.0885 42.7029 62.9987 42.7226C62.9088 42.7423 62.8352 42.7933 62.8352 42.8358C62.8352 42.8784 62.7985 42.9132 62.7535 42.9132C62.7086 42.9132 62.6718 42.95 62.6718 42.995C62.6718 43.0399 62.6489 43.0767 62.621 43.0767C62.5931 43.0767 62.5535 43.1295 62.5329 43.1941C62.5124 43.2587 62.4361 43.3668 62.3632 43.4343C62.2904 43.5018 62.2165 43.645 62.1991 43.7526C62.1816 43.8602 62.146 43.9482 62.12 43.9482C62.0939 43.9482 62.0726 44.2791 62.0726 44.6836C62.0726 45.0952 62.0947 45.419 62.1228 45.419C62.1504 45.419 62.1891 45.4925 62.2088 45.5824C62.2285 45.6723 62.2646 45.7458 62.2889 45.7458C62.3133 45.7458 62.3486 45.8071 62.3674 45.882C62.3862 45.9569 62.4256 46.0182 62.455 46.0182C62.4844 46.0182 62.5084 46.0557 62.5084 46.1016C62.5084 46.1475 62.5452 46.1991 62.5901 46.2163C62.6351 46.2336 62.6718 46.2819 62.6718 46.3236C62.6718 46.3653 62.7086 46.3995 62.7535 46.3995C62.7985 46.3995 62.8352 46.4362 62.8352 46.4812C62.8352 46.5261 62.872 46.5629 62.9169 46.5629C62.9678 46.5629 62.9987 46.6143 62.9987 46.6991C62.9987 46.7838 63.0295 46.8352 63.0804 46.8352C63.1253 46.8352 63.1621 46.872 63.1621 46.9169C63.1621 46.9619 63.1988 46.9987 63.2438 46.9987C63.2887 46.9987 63.3255 47.0354 63.3255 47.0804C63.3255 47.1253 63.3623 47.1621 63.4072 47.1621C63.4521 47.1621 63.4889 47.1988 63.4889 47.2438C63.4889 47.2887 63.5257 47.3255 63.5706 47.3255C63.6156 47.3255 63.6523 47.3623 63.6523 47.4072C63.6523 47.4521 63.6891 47.4889 63.734 47.4889C63.779 47.4889 63.8157 47.5257 63.8157 47.5706C63.8157 47.6156 63.8525 47.6523 63.8974 47.6523C63.9424 47.6523 63.9792 47.6891 63.9792 47.734C63.9792 47.779 64.0054 47.8157 64.0375 47.8157C64.1129 47.8157 64.2515 47.9543 64.2515 48.0298C64.2515 48.0618 64.2883 48.0881 64.3332 48.0881C64.3782 48.0881 64.4149 48.1229 64.4149 48.1655C64.4149 48.208 64.4885 48.259 64.5783 48.2787C64.6682 48.2985 64.7418 48.3495 64.7418 48.392C64.7418 48.4346 64.7785 48.4694 64.8235 48.4694C64.8684 48.4694 64.9052 48.4939 64.9052 48.5239C64.9052 48.5538 64.9419 48.5783 64.9869 48.5783C65.0318 48.5783 65.0686 48.6151 65.0686 48.6601C65.0686 48.705 65.1054 48.7418 65.1503 48.7418C65.1952 48.7418 65.232 48.7785 65.232 48.8235C65.232 48.8684 65.2688 48.9052 65.3137 48.9052C65.3587 48.9052 65.3954 48.9292 65.3954 48.9586C65.3954 48.988 65.4567 49.0274 65.5316 49.0462C65.6065 49.065 65.6678 49.1145 65.6678 49.1562C65.6678 49.1979 65.7046 49.232 65.7495 49.232C65.7944 49.232 65.8312 49.2546 65.8312 49.2822C65.8312 49.3097 65.9047 49.3485 65.9946 49.3682C66.0845 49.3879 66.158 49.4389 66.158 49.4814C66.158 49.524 66.1948 49.5588 66.2397 49.5588C66.2847 49.5588 66.3215 49.5807 66.3215 49.6074C66.3215 49.6341 66.3827 49.6714 66.4576 49.6902C66.5325 49.709 66.5938 49.7484 66.5938 49.7778C66.5938 49.8072 66.6313 49.8312 66.6772 49.8312C66.7231 49.8312 66.7748 49.868 66.792 49.9129C66.8092 49.9579 66.882 49.9946 66.9537 49.9946C67.0332 49.9946 67.0841 50.0265 67.0841 50.0763C67.0841 50.1213 67.1313 50.158 67.1891 50.158C67.2469 50.158 67.3309 50.1948 67.3759 50.2397C67.4208 50.2847 67.4961 50.3215 67.5432 50.3215C67.5903 50.3215 67.6288 50.3582 67.6288 50.4032C67.6288 50.453 67.6796 50.4849 67.7591 50.4849C67.8308 50.4849 67.9036 50.5216 67.9209 50.5666C67.9381 50.6115 68.0037 50.6483 68.0667 50.6483C68.1298 50.6483 68.2181 50.6851 68.263 50.73C68.3079 50.7749 68.392 50.8117 68.4497 50.8117C68.5075 50.8117 68.5548 50.8359 68.5548 50.8655C68.5548 50.8952 68.6513 50.9348 68.7693 50.9537C68.8873 50.9725 68.9968 51.0219 69.0128 51.0633C69.0287 51.1047 69.1037 51.1385 69.1796 51.1385C69.2554 51.1385 69.3174 51.1615 69.3174 51.1897C69.3174 51.2178 69.4277 51.2573 69.5625 51.2775C69.6974 51.2978 69.8077 51.3361 69.8077 51.3626C69.8077 51.3892 69.8697 51.4109 69.9455 51.4109C70.0214 51.4109 70.0976 51.4477 70.1148 51.4926C70.136 51.5478 70.2226 51.5743 70.3816 51.5743C70.5182 51.5743 70.6513 51.6086 70.6987 51.656C70.7445 51.7019 70.8777 51.7377 71.0022 51.7377C71.163 51.7377 71.2239 51.7602 71.2239 51.8194C71.2239 51.883 71.2966 51.9011 71.5508 51.9011C71.805 51.9011 71.8776 51.9193 71.8776 51.9829C71.8776 52.0478 71.9567 52.0646 72.2628 52.0646C72.5326 52.0646 72.6725 52.089 72.7297 52.1463C72.7918 52.2084 72.9467 52.228 73.3749 52.228C73.7773 52.228 73.9449 52.2474 73.9612 52.2961C73.9786 52.3484 74.3355 52.3642 75.5 52.3642C76.6645 52.3642 77.0214 52.3484 77.0388 52.2961C77.0551 52.2474 77.2227 52.228 77.6251 52.228C78.0533 52.228 78.2082 52.2084 78.2703 52.1463C78.3275 52.089 78.4674 52.0646 78.7372 52.0646C79.0433 52.0646 79.1224 52.0478 79.1224 51.9829C79.1224 51.9193 79.195 51.9011 79.4492 51.9011C79.7034 51.9011 79.7761 51.883 79.7761 51.8194C79.7761 51.7602 79.837 51.7377 79.9978 51.7377C80.1223 51.7377 80.2555 51.7019 80.3013 51.656C80.3487 51.6086 80.4818 51.5743 80.6184 51.5743C80.7774 51.5743 80.864 51.5478 80.8852 51.4926C80.9024 51.4477 80.9786 51.4109 81.0545 51.4109C81.1303 51.4109 81.1923 51.3896 81.1923 51.3636C81.1923 51.3376 81.296 51.3024 81.4226 51.2854C81.5493 51.2684 81.6617 51.2284 81.6723 51.1965C81.683 51.1646 81.7517 51.1385 81.825 51.1385C81.8983 51.1385 81.9713 51.1047 81.9872 51.0633C82.0032 51.0219 82.1127 50.9725 82.2307 50.9537C82.3487 50.9348 82.4452 50.8952 82.4452 50.8655C82.4452 50.8359 82.4925 50.8117 82.5503 50.8117C82.608 50.8117 82.6921 50.7749 82.737 50.73C82.7819 50.6851 82.8817 50.6483 82.9588 50.6483C83.047 50.6483 83.0989 50.618 83.0989 50.5666C83.0989 50.5158 83.1503 50.4849 83.235 50.4849C83.3198 50.4849 83.3712 50.454 83.3712 50.4032C83.3712 50.3487 83.4257 50.3215 83.5346 50.3215C83.6436 50.3215 83.6981 50.2942 83.6981 50.2397C83.6981 50.1944 83.7465 50.158 83.807 50.158C83.8675 50.158 83.9159 50.1217 83.9159 50.0763C83.9159 50.0265 83.9668 49.9946 84.0463 49.9946C84.118 49.9946 84.1908 49.9579 84.208 49.9129C84.2252 49.868 84.3014 49.8312 84.3773 49.8312C84.4635 49.8312 84.5151 49.8006 84.5151 49.7495C84.5151 49.7046 84.5519 49.6678 84.5968 49.6678C84.6418 49.6678 84.6785 49.6433 84.6785 49.6133C84.6785 49.5834 84.7155 49.5588 84.7608 49.5588C84.806 49.5588 84.885 49.5098 84.9363 49.4499C84.9876 49.39 85.052 49.341 85.0794 49.341C85.1067 49.341 85.1832 49.2826 85.2494 49.2111C85.3155 49.1397 85.4225 49.0646 85.4871 49.0441C85.5517 49.0235 85.6046 48.9839 85.6046 48.956C85.6046 48.9281 85.6413 48.9052 85.6863 48.9052C85.7312 48.9052 85.768 48.8684 85.768 48.8235C85.768 48.7785 85.8048 48.7418 85.8497 48.7418C85.8946 48.7418 85.9314 48.705 85.9314 48.6601C85.9314 48.6151 85.9682 48.5783 86.0131 48.5783C86.0581 48.5783 86.0948 48.5538 86.0948 48.5239C86.0948 48.4939 86.1304 48.4694 86.1739 48.4694C86.2174 48.4694 86.3363 48.3836 86.4382 48.2787C86.54 48.1739 86.6515 48.0881 86.6859 48.0881C86.7203 48.0881 86.7485 48.0618 86.7485 48.0298C86.7485 47.9543 86.8871 47.8157 86.9625 47.8157C86.9946 47.8157 87.0208 47.779 87.0208 47.734C87.0208 47.6891 87.0576 47.6523 87.1026 47.6523C87.1475 47.6523 87.1843 47.6156 87.1843 47.5706C87.1843 47.5257 87.221 47.4889 87.266 47.4889C87.3109 47.4889 87.3477 47.4521 87.3477 47.4072C87.3477 47.3623 87.3844 47.3255 87.4294 47.3255C87.4743 47.3255 87.5111 47.2887 87.5111 47.2438C87.5111 47.1988 87.5479 47.1621 87.5928 47.1621C87.6377 47.1621 87.6745 47.1253 87.6745 47.0804C87.6745 47.0354 87.7113 46.9987 87.7562 46.9987C87.8012 46.9987 87.8379 46.9619 87.8379 46.9169C87.8379 46.872 87.8747 46.8352 87.9196 46.8352C87.9705 46.8352 88.0013 46.7838 88.0013 46.6991C88.0013 46.6143 88.0322 46.5629 88.0831 46.5629C88.128 46.5629 88.1648 46.5261 88.1648 46.4812C88.1648 46.4362 88.2015 46.3995 88.2465 46.3995C88.2914 46.3995 88.3282 46.3653 88.3282 46.3236C88.3282 46.2819 88.3649 46.2336 88.4099 46.2163C88.4548 46.1991 88.4916 46.1475 88.4916 46.1016C88.4916 46.0557 88.5156 46.0182 88.545 46.0182C88.5744 46.0182 88.6138 45.9569 88.6326 45.882C88.6514 45.8071 88.6867 45.7458 88.7111 45.7458C88.7354 45.7458 88.7715 45.6723 88.7912 45.5824C88.8109 45.4925 88.8496 45.419 88.8772 45.419C88.9053 45.419 88.9274 45.0952 88.9274 44.6836C88.9274 44.2791 88.9056 43.9482 88.8789 43.9482C88.8524 43.9482 88.8135 43.8571 88.7926 43.7459C88.7717 43.6346 88.6983 43.4914 88.6295 43.4275C88.5607 43.3637 88.4876 43.2587 88.4671 43.1941C88.4465 43.1295 88.4069 43.0767 88.379 43.0767C88.3511 43.0767 88.3282 43.0399 88.3282 42.995C88.3282 42.95 88.2914 42.9132 88.2465 42.9132C88.2015 42.9132 88.1648 42.8784 88.1648 42.8358C88.1648 42.7933 88.0912 42.7423 88.0013 42.7226C87.9115 42.7029 87.8379 42.6661 87.8379 42.6409C87.8379 42.6157 87.7644 42.5789 87.6745 42.5592C87.5846 42.5395 87.5111 42.5007 87.5111 42.4732C87.5111 42.4456 87.4123 42.423 87.2915 42.423C87.1466 42.423 87.0613 42.3952 87.0406 42.3413C87.0171 42.2803 86.9198 42.2596 86.6571 42.2596C86.4167 42.2596 86.279 42.2855 86.2232 42.3413C86.1758 42.3887 86.0427 42.423 85.9061 42.423C85.7471 42.423 85.6605 42.4495 85.6393 42.5047C85.6221 42.5496 85.557 42.5864 85.4948 42.5864C85.4324 42.5864 85.3247 42.6477 85.2553 42.7226C85.1858 42.7975 85.1013 42.8588 85.0672 42.8588C85.0332 42.8588 85.0054 42.8955 85.0054 42.9405C85.0054 42.9854 84.9686 43.0222 84.9237 43.0222C84.8787 43.0222 84.842 43.059 84.842 43.1039C84.842 43.1488 84.8052 43.1856 84.7603 43.1856C84.7153 43.1856 84.6785 43.2224 84.6785 43.2673C84.6785 43.3123 84.6418 43.349 84.5968 43.349C84.5519 43.349 84.5151 43.3858 84.5151 43.4307C84.5151 43.4757 84.4784 43.5124 84.4334 43.5124C84.3885 43.5124 84.3517 43.5492 84.3517 43.5942C84.3517 43.6391 84.3272 43.6759 84.2972 43.6759C84.2673 43.6759 84.2428 43.7126 84.2428 43.7576C84.2428 43.8025 84.206 43.8393 84.1611 43.8393C84.1161 43.8393 84.0794 43.876 84.0794 43.921C84.0794 43.9659 84.0426 44.0027 83.9976 44.0027C83.9527 44.0027 83.9159 44.0395 83.9159 44.0844C83.9159 44.1293 83.8792 44.1661 83.8342 44.1661C83.7893 44.1661 83.7525 44.2029 83.7525 44.2478C83.7525 44.2928 83.7158 44.3295 83.6708 44.3295C83.6259 44.3295 83.5891 44.3663 83.5891 44.4112C83.5891 44.4562 83.5523 44.4929 83.5074 44.4929C83.4625 44.4929 83.4257 44.5297 83.4257 44.5746C83.4257 44.6196 83.3889 44.6564 83.344 44.6564C83.299 44.6564 83.2623 44.6809 83.2623 44.7108C83.2623 44.7408 83.2255 44.7653 83.1806 44.7653C83.1356 44.7653 83.0989 44.8021 83.0989 44.847C83.0989 44.8919 83.0621 44.9287 83.0172 44.9287C82.9722 44.9287 82.9354 44.9655 82.9354 45.0104C82.9354 45.0554 82.8987 45.0921 82.8537 45.0921C82.8088 45.0921 82.772 45.1289 82.772 45.1738C82.772 45.2249 82.7204 45.2555 82.6342 45.2555C82.5583 45.2555 82.4821 45.2923 82.4649 45.3373C82.4476 45.3822 82.3994 45.419 82.3577 45.419C82.3159 45.419 82.2818 45.4557 82.2818 45.5007C82.2818 45.5515 82.2304 45.5824 82.1456 45.5824C82.0608 45.5824 82.0094 45.6133 82.0094 45.6641C82.0094 45.709 81.9753 45.7458 81.9335 45.7458C81.8918 45.7458 81.8435 45.7826 81.8263 45.8275C81.8091 45.8724 81.7329 45.9092 81.657 45.9092C81.5708 45.9092 81.5192 45.9398 81.5192 45.9909C81.5192 46.0359 81.4824 46.0726 81.4375 46.0726C81.3925 46.0726 81.3558 46.0952 81.3558 46.1228C81.3558 46.1504 81.2822 46.1891 81.1923 46.2088C81.1025 46.2285 81.0289 46.2653 81.0289 46.2905C81.0289 46.3157 80.9554 46.3525 80.8655 46.3722C80.7756 46.3919 80.7021 46.4307 80.7021 46.4582C80.7021 46.4859 80.64 46.5084 80.5642 46.5084C80.4883 46.5084 80.4122 46.5452 80.395 46.5901C80.3773 46.636 80.2963 46.6718 80.2099 46.6718C80.1254 46.6718 80.0194 46.7086 79.9745 46.7535C79.9296 46.7985 79.8298 46.8352 79.7527 46.8352C79.6645 46.8352 79.6126 46.8655 79.6126 46.9169C79.6126 46.9775 79.5491 46.9987 79.3675 46.9987C79.186 46.9987 79.1224 47.0198 79.1224 47.0804C79.1224 47.1429 79.0534 47.1621 78.8286 47.1621C78.6178 47.1621 78.526 47.1851 78.5035 47.2438C78.4809 47.3026 78.3889 47.3255 78.1754 47.3255C77.9883 47.3255 77.8703 47.3504 77.8562 47.3928C77.8415 47.4367 77.6748 47.4671 77.375 47.4806C77.1132 47.4923 76.8996 47.5277 76.8774 47.5631C76.8501 47.6067 76.4411 47.6251 75.5 47.6251C74.5589 47.6251 74.1499 47.6067 74.1226 47.5631C74.1004 47.5277 73.8868 47.4923 73.625 47.4806C73.3252 47.4671 73.1585 47.4367 73.1438 47.3928C73.1297 47.3504 73.0117 47.3255 72.8246 47.3255C72.6111 47.3255 72.5191 47.3026 72.4965 47.2438C72.4752 47.1883 72.3883 47.1621 72.2258 47.1621C72.0495 47.1621 71.9865 47.1406 71.9865 47.0804C71.9865 47.0176 71.9169 46.9987 71.687 46.9987C71.457 46.9987 71.3874 46.9797 71.3874 46.9169C71.3874 46.8655 71.3355 46.8352 71.2473 46.8352C71.1702 46.8352 71.0704 46.7985 71.0255 46.7535C70.9806 46.7086 70.8965 46.6718 70.8388 46.6718C70.781 46.6718 70.7337 46.6476 70.7337 46.618C70.7337 46.5884 70.6356 46.5485 70.5158 46.5293C70.396 46.5102 70.2979 46.4751 70.2979 46.4513C70.2979 46.4276 70.2244 46.3919 70.1345 46.3722C70.0446 46.3525 69.9711 46.3157 69.9711 46.2905C69.9711 46.2653 69.8975 46.2285 69.8077 46.2088C69.7178 46.1891 69.6442 46.1504 69.6442 46.1228C69.6442 46.0952 69.6075 46.0726 69.5625 46.0726C69.5176 46.0726 69.4808 46.0359 69.4808 45.9909C69.4808 45.9398 69.4292 45.9092 69.343 45.9092C69.2671 45.9092 69.1909 45.8724 69.1737 45.8275C69.1565 45.7826 69.1082 45.7458 69.0665 45.7458C69.0247 45.7458 68.9906 45.709 68.9906 45.6641C68.9906 45.6133 68.9392 45.5824 68.8544 45.5824C68.7696 45.5824 68.7182 45.5515 68.7182 45.5007C68.7182 45.4557 68.6841 45.419 68.6423 45.419C68.6006 45.419 68.5524 45.3822 68.5351 45.3373C68.5179 45.2923 68.4417 45.2555 68.3658 45.2555C68.2796 45.2555 68.228 45.2249 68.228 45.1738C68.228 45.1289 68.1912 45.0921 68.1463 45.0921C68.1013 45.0921 68.0646 45.0554 68.0646 45.0104C68.0646 44.9655 68.0278 44.9287 67.9829 44.9287C67.9379 44.9287 67.9011 44.8919 67.9011 44.847C67.9011 44.8021 67.8644 44.7653 67.8194 44.7653C67.7745 44.7653 67.7377 44.7408 67.7377 44.7108C67.7377 44.6809 67.701 44.6564 67.656 44.6564C67.6111 44.6564 67.5743 44.6196 67.5743 44.5746C67.5743 44.5297 67.5375 44.4929 67.4926 44.4929C67.4477 44.4929 67.4109 44.4562 67.4109 44.4112C67.4109 44.3663 67.3741 44.3295 67.3292 44.3295C67.2842 44.3295 67.2475 44.2928 67.2475 44.2478C67.2475 44.2029 67.2107 44.1661 67.1658 44.1661C67.1208 44.1661 67.0841 44.1293 67.0841 44.0844C67.0841 44.0395 67.0473 44.0027 67.0024 44.0027C66.9574 44.0027 66.9206 43.9659 66.9206 43.921C66.9206 43.876 66.8839 43.8393 66.8389 43.8393C66.794 43.8393 66.7572 43.8025 66.7572 43.7576C66.7572 43.7126 66.7327 43.6759 66.7028 43.6759C66.6728 43.6759 66.6483 43.6391 66.6483 43.5942C66.6483 43.5492 66.6115 43.5124 66.5666 43.5124C66.5216 43.5124 66.4849 43.4757 66.4849 43.4307C66.4849 43.3858 66.4481 43.349 66.4032 43.349C66.3582 43.349 66.3215 43.3123 66.3215 43.2673C66.3215 43.2224 66.2847 43.1856 66.2397 43.1856C66.1948 43.1856 66.158 43.1488 66.158 43.1039C66.158 43.059 66.1213 43.0222 66.0763 43.0222C66.0314 43.0222 65.9946 42.9854 65.9946 42.9405C65.9946 42.8955 65.9579 42.8588 65.9129 42.8588C65.868 42.8588 65.8312 42.8343 65.8312 42.8043C65.8312 42.7743 65.7944 42.7498 65.7495 42.7498C65.7046 42.7498 65.6678 42.7131 65.6678 42.6681C65.6678 42.617 65.6161 42.5864 65.5299 42.5864C65.454 42.5864 65.3779 42.5496 65.3607 42.5047C65.3395 42.4495 65.2529 42.423 65.0939 42.423C64.9573 42.423 64.8242 42.3887 64.7768 42.3413C64.721 42.2855 64.5833 42.2596 64.3429 42.2596C64.0802 42.2596 63.9829 42.2803 63.9594 42.3413ZM56.285 48.287C56.2326 48.3018 56.1896 48.3367 56.1896 48.3644C56.1896 48.3922 56.1276 48.4149 56.0518 48.4149C55.9759 48.4149 55.8997 48.4517 55.8825 48.4966C55.8653 48.5416 55.7925 48.5783 55.7208 48.5783C55.6413 48.5783 55.5905 48.6102 55.5905 48.6601C55.5905 48.705 55.5668 48.7418 55.5378 48.7418C55.4692 48.7418 55.1002 49.1108 55.1002 49.1793C55.1002 49.2083 55.0634 49.232 55.0185 49.232C54.9674 49.232 54.9368 49.2837 54.9368 49.3699C54.9368 49.4458 54.9 49.5219 54.8551 49.5391C54.8018 49.5596 54.7734 49.6443 54.7734 49.7826C54.7734 49.9348 54.7503 49.9946 54.6917 49.9946C54.6243 49.9946 54.61 50.094 54.61 50.5627C54.61 50.995 54.6295 51.1503 54.6917 51.2125C54.7366 51.2574 54.7734 51.3694 54.7734 51.4615C54.7734 51.5739 54.8002 51.6288 54.8551 51.6288C54.9059 51.6288 54.9368 51.6802 54.9368 51.765C54.9368 51.8497 54.9677 51.9011 55.0185 51.9011C55.0634 51.9011 55.1002 51.9379 55.1002 51.9829C55.1002 52.0278 55.1247 52.0646 55.1547 52.0646C55.1846 52.0646 55.2091 52.1015 55.2091 52.1468C55.2091 52.192 55.2582 52.271 55.3181 52.3223C55.378 52.3736 55.427 52.4469 55.427 52.4852C55.427 52.5235 55.4638 52.5548 55.5087 52.5548C55.5537 52.5548 55.5905 52.5916 55.5905 52.6365C55.5905 52.6815 55.6272 52.7182 55.6722 52.7182C55.7171 52.7182 55.7539 52.7461 55.7539 52.7801C55.7539 52.8141 55.8151 52.8987 55.89 52.9681C55.9649 53.0375 56.0262 53.12 56.0262 53.1514C56.0262 53.1828 56.063 53.2085 56.1079 53.2085C56.1529 53.2085 56.1896 53.2452 56.1896 53.2902C56.1896 53.3351 56.2237 53.3719 56.2655 53.3719C56.3071 53.3719 56.3567 53.4332 56.3754 53.5081C56.3942 53.583 56.4337 53.6442 56.463 53.6442C56.4925 53.6442 56.5165 53.681 56.5165 53.726C56.5165 53.7709 56.5532 53.8077 56.5982 53.8077C56.6431 53.8077 56.6799 53.8444 56.6799 53.8894C56.6799 53.9343 56.7069 53.9711 56.7398 53.9711C56.7728 53.9711 57.0048 54.1775 57.2553 54.4298C57.506 54.6821 57.7609 54.9044 57.8218 54.9237C57.8829 54.9431 57.9328 54.9818 57.9328 55.0097C57.9328 55.0376 57.9695 55.0605 58.0145 55.0605C58.0594 55.0605 58.0962 55.085 58.0962 55.115C58.0962 55.1856 58.2979 55.3874 58.3685 55.3874C58.3985 55.3874 58.423 55.4241 58.423 55.4691C58.423 55.514 58.4598 55.5508 58.5047 55.5508C58.5496 55.5508 58.5864 55.5875 58.5864 55.6325C58.5864 55.6774 58.6232 55.7142 58.6681 55.7142C58.7131 55.7142 58.7498 55.751 58.7498 55.7959C58.7498 55.8408 58.7866 55.8776 58.8315 55.8776C58.8765 55.8776 58.9132 55.9005 58.9132 55.9284C58.9132 55.9564 58.9661 55.996 59.0307 56.0165C59.0953 56.037 59.2023 56.1122 59.2685 56.1836C59.3346 56.255 59.4166 56.3134 59.4506 56.3134C59.4846 56.3134 59.5124 56.3502 59.5124 56.3951C59.5124 56.44 59.55 56.4768 59.5958 56.4768C59.6418 56.4768 59.6934 56.5136 59.7106 56.5585C59.7279 56.6034 59.8007 56.6402 59.8723 56.6402C59.9519 56.6402 60.0027 56.6721 60.0027 56.7219C60.0027 56.7669 60.0395 56.8036 60.0844 56.8036C60.1293 56.8036 60.1661 56.8404 60.1661 56.8853C60.1661 56.9303 60.2029 56.967 60.2478 56.967C60.2928 56.967 60.3295 56.9911 60.3295 57.0205C60.3295 57.0498 60.389 57.0888 60.4618 57.1071C60.5345 57.1253 60.6073 57.1749 60.6235 57.2171C60.6397 57.2593 60.6905 57.2939 60.7364 57.2939C60.7822 57.2939 60.8198 57.3179 60.8198 57.3473C60.8198 57.3767 60.8793 57.4157 60.952 57.4339C61.0248 57.4522 61.0975 57.5017 61.1137 57.5439C61.1299 57.5862 61.1807 57.6207 61.2266 57.6207C61.2725 57.6207 61.31 57.6447 61.31 57.6742C61.31 57.7035 61.3713 57.7429 61.4462 57.7617C61.5211 57.7805 61.5824 57.8151 61.5824 57.8386C61.5824 57.8621 61.6437 57.8967 61.7186 57.9155C61.7935 57.9343 61.8547 57.9737 61.8547 58.0031C61.8547 58.0325 61.8923 58.0565 61.9381 58.0565C61.9841 58.0565 62.0357 58.0933 62.0529 58.1382C62.0702 58.1831 62.143 58.2199 62.2146 58.2199C62.2942 58.2199 62.345 58.2518 62.345 58.3016C62.345 58.3561 62.3995 58.3833 62.5084 58.3833C62.6174 58.3833 62.6718 58.4106 62.6718 58.465C62.6718 58.51 62.7086 58.5467 62.7535 58.5467C62.7985 58.5467 62.8352 58.5835 62.8352 58.6284C62.8352 58.6829 62.8897 58.7102 62.9987 58.7102C63.1076 58.7102 63.1621 58.7374 63.1621 58.7919C63.1621 58.8463 63.2165 58.8736 63.3255 58.8736C63.4154 58.8736 63.4889 58.8976 63.4889 58.927C63.4889 58.9564 63.5561 58.9973 63.6382 59.0179C63.7202 59.0385 63.82 59.088 63.86 59.1279C63.8998 59.1678 63.9675 59.2004 64.0103 59.2004C64.0531 59.2004 64.0881 59.223 64.0881 59.2506C64.0881 59.2781 64.1664 59.3179 64.262 59.3389C64.3577 59.3599 64.4698 59.4109 64.5111 59.4522C64.5524 59.4935 64.6212 59.5272 64.6639 59.5272C64.7067 59.5272 64.7418 59.5485 64.7418 59.5745C64.7418 59.6006 64.8454 59.6357 64.9721 59.6527C65.0988 59.6697 65.2111 59.7097 65.2218 59.7416C65.2324 59.7735 65.3003 59.7996 65.3727 59.7996C65.4534 59.7996 65.5044 59.8312 65.5044 59.8813C65.5044 59.9381 65.5615 59.963 65.6912 59.963C65.7938 59.963 65.9147 59.9998 65.9596 60.0447C66.0045 60.0897 66.1043 60.1264 66.1814 60.1264C66.2696 60.1264 66.3215 60.1567 66.3215 60.2081C66.3215 60.2687 66.385 60.2898 66.5666 60.2898C66.7481 60.2898 66.8117 60.311 66.8117 60.3716C66.8117 60.4302 66.8716 60.4533 67.0238 60.4533C67.162 60.4533 67.2467 60.4817 67.2672 60.535C67.2877 60.5885 67.3727 60.6167 67.5136 60.6167C67.6319 60.6167 67.737 60.6418 67.7473 60.6725C67.7574 60.7031 67.8637 60.7437 67.9833 60.7626C68.1029 60.7815 68.2165 60.821 68.2358 60.8504C68.2551 60.8798 68.396 60.9159 68.549 60.9307C68.702 60.9454 68.8272 60.9764 68.8272 60.9996C68.8272 61.0228 68.9742 61.0588 69.154 61.0797C69.3338 61.1006 69.4808 61.1373 69.4808 61.1614C69.4808 61.1855 69.6279 61.2222 69.8077 61.2431C69.9874 61.264 70.1345 61.2999 70.1345 61.3229C70.1345 61.3458 70.3089 61.3771 70.522 61.3924C70.7351 61.4076 70.9251 61.4451 70.9441 61.4756C70.9632 61.5062 71.2097 61.5399 71.4918 61.5505C71.8391 61.5637 72.012 61.5919 72.0274 61.638C72.044 61.6878 72.2384 61.7061 72.7498 61.7061C73.2992 61.7061 73.4671 61.7237 73.5312 61.7878C73.6537 61.9103 77.3463 61.9103 77.4688 61.7878C77.5329 61.7237 77.7008 61.7061 78.2502 61.7061C78.7616 61.7061 78.956 61.6878 78.9726 61.638C78.988 61.5919 79.1609 61.5637 79.5082 61.5505C79.7903 61.5399 80.0368 61.5062 80.0559 61.4756C80.075 61.4451 80.2649 61.4076 80.478 61.3924C80.6911 61.3771 80.8655 61.3458 80.8655 61.3229C80.8655 61.2999 81.0126 61.264 81.1923 61.2431C81.3721 61.2222 81.5192 61.1855 81.5192 61.1614C81.5192 61.1373 81.6662 61.1006 81.846 61.0797C82.0258 61.0588 82.1728 61.0228 82.1728 60.9996C82.1728 60.9764 82.3005 60.9451 82.4565 60.9301C82.6125 60.9151 82.7494 60.8753 82.7606 60.8415C82.7719 60.8077 82.8779 60.7801 82.9962 60.7801C83.1371 60.7801 83.222 60.7519 83.2426 60.6984C83.2639 60.6429 83.3508 60.6167 83.5132 60.6167C83.6896 60.6167 83.7525 60.5952 83.7525 60.535C83.7525 60.476 83.813 60.4533 83.9704 60.4533C84.1278 60.4533 84.1883 60.4305 84.1883 60.3716C84.1883 60.311 84.2519 60.2898 84.4334 60.2898C84.615 60.2898 84.6785 60.2687 84.6785 60.2081C84.6785 60.1495 84.7384 60.1264 84.8906 60.1264C85.0289 60.1264 85.1136 60.098 85.134 60.0447C85.1523 59.9969 85.234 59.963 85.3305 59.963C85.441 59.963 85.4956 59.9359 85.4956 59.8813C85.4956 59.8299 85.5475 59.7996 85.6357 59.7996C85.7128 59.7996 85.8125 59.7628 85.8575 59.7179C85.9024 59.673 86.011 59.6362 86.0987 59.6362C86.1864 59.6362 86.2582 59.6136 86.2582 59.586C86.2582 59.5584 86.3318 59.5197 86.4217 59.5C86.5115 59.4803 86.5851 59.4435 86.5851 59.4183C86.5851 59.3931 86.6586 59.3563 86.7485 59.3366C86.8384 59.3169 86.9119 59.2808 86.9119 59.2565C86.9119 59.2321 86.9732 59.1968 87.0481 59.178C87.123 59.1592 87.1843 59.1198 87.1843 59.0904C87.1843 59.061 87.2578 59.037 87.3477 59.037C87.4566 59.037 87.5111 59.0098 87.5111 58.9553C87.5111 58.9008 87.5656 58.8736 87.6745 58.8736C87.7835 58.8736 87.8379 58.8463 87.8379 58.7919C87.8379 58.7374 87.8924 58.7102 88.0013 58.7102C88.1103 58.7102 88.1648 58.6829 88.1648 58.6284C88.1648 58.5835 88.191 58.5467 88.2231 58.5467C88.2552 58.5467 88.3183 58.51 88.3632 58.465C88.4081 58.4201 88.4922 58.3833 88.5499 58.3833C88.6077 58.3833 88.655 58.3466 88.655 58.3016C88.655 58.2518 88.7058 58.2199 88.7854 58.2199C88.857 58.2199 88.9298 58.1831 88.9471 58.1382C88.9643 58.0933 89.0405 58.0565 89.1163 58.0565C89.2026 58.0565 89.2542 58.0259 89.2542 57.9748C89.2542 57.9298 89.291 57.8931 89.3359 57.8931C89.3809 57.8931 89.4176 57.8712 89.4176 57.8445C89.4176 57.8178 89.4838 57.7793 89.5646 57.759C89.6455 57.7388 89.7643 57.6654 89.8285 57.5961C89.8928 57.5267 89.9982 57.4533 90.0628 57.4328C90.1274 57.4122 90.1802 57.3726 90.1802 57.3447C90.1802 57.3168 90.2178 57.2939 90.2636 57.2939C90.3095 57.2939 90.3603 57.2593 90.3765 57.2171C90.3927 57.1749 90.4655 57.1253 90.5382 57.1071C90.611 57.0888 90.6705 57.0498 90.6705 57.0205C90.6705 56.9911 90.7072 56.967 90.7522 56.967C90.7971 56.967 90.8339 56.9303 90.8339 56.8853C90.8339 56.8404 90.868 56.8036 90.9098 56.8036C90.9515 56.8036 90.9998 56.7669 91.017 56.7219C91.0342 56.677 91.0955 56.6402 91.1532 56.6402C91.2108 56.6402 91.2721 56.6034 91.2894 56.5585C91.3066 56.5136 91.3582 56.4768 91.4042 56.4768C91.45 56.4768 91.4876 56.44 91.4876 56.3951C91.4876 56.3502 91.5154 56.3134 91.5494 56.3134C91.5834 56.3134 91.6654 56.255 91.7315 56.1836C91.7977 56.1122 91.9047 56.037 91.9693 56.0165C92.0339 55.996 92.0868 55.9564 92.0868 55.9284C92.0868 55.9005 92.1235 55.8776 92.1685 55.8776C92.2134 55.8776 92.2502 55.8408 92.2502 55.7959C92.2502 55.751 92.2869 55.7142 92.3319 55.7142C92.3768 55.7142 92.4136 55.6774 92.4136 55.6325C92.4136 55.5875 92.4504 55.5508 92.4953 55.5508C92.5402 55.5508 92.577 55.514 92.577 55.4691C92.577 55.4241 92.6006 55.3874 92.6294 55.3874C92.6582 55.3874 92.7953 55.2771 92.934 55.1422C93.0727 55.0074 93.2076 54.8971 93.2338 54.8971C93.26 54.8971 93.4513 54.7255 93.659 54.5158C93.8666 54.3061 94.0635 54.1345 94.0966 54.1345C94.1297 54.1345 94.1567 54.0977 94.1567 54.0528C94.1567 54.0079 94.1935 53.9711 94.2384 53.9711C94.2833 53.9711 94.3201 53.9343 94.3201 53.8894C94.3201 53.8444 94.3569 53.8077 94.4018 53.8077C94.4468 53.8077 94.4835 53.7709 94.4835 53.726C94.4835 53.681 94.5075 53.6442 94.537 53.6442C94.5663 53.6442 94.6058 53.583 94.6246 53.5081C94.6433 53.4332 94.6929 53.3719 94.7345 53.3719C94.7763 53.3719 94.8104 53.3351 94.8104 53.2902C94.8104 53.2452 94.8471 53.2085 94.8921 53.2085C94.937 53.2085 94.9738 53.184 94.9738 53.1539C94.9738 53.1239 95.0718 53.0043 95.1917 52.888C95.3115 52.7717 95.4095 52.6491 95.4095 52.6157C95.4095 52.5822 95.4463 52.5548 95.4913 52.5548C95.5362 52.5548 95.573 52.5235 95.573 52.4852C95.573 52.4469 95.622 52.3736 95.6819 52.3223C95.7418 52.271 95.7909 52.192 95.7909 52.1468C95.7909 52.1015 95.8154 52.0646 95.8453 52.0646C95.8753 52.0646 95.8998 52.0278 95.8998 51.9829C95.8998 51.9379 95.9366 51.9011 95.9815 51.9011C96.0323 51.9011 96.0632 51.8497 96.0632 51.765C96.0632 51.6802 96.0941 51.6288 96.1449 51.6288C96.1998 51.6288 96.2266 51.5739 96.2266 51.4615C96.2266 51.3694 96.2634 51.2574 96.3083 51.2125C96.3705 51.1503 96.39 50.995 96.39 50.5627C96.39 50.094 96.3757 49.9946 96.3083 49.9946C96.2493 49.9946 96.2266 49.9341 96.2266 49.7767C96.2266 49.6194 96.2039 49.5588 96.1449 49.5588C96.0905 49.5588 96.0632 49.5044 96.0632 49.3954C96.0632 49.2865 96.036 49.232 95.9815 49.232C95.9366 49.232 95.8998 49.1952 95.8998 49.1503C95.8998 49.1054 95.863 49.0686 95.8181 49.0686C95.7732 49.0686 95.7364 49.0441 95.7364 49.0141C95.7364 48.9435 95.5347 48.7418 95.464 48.7418C95.4341 48.7418 95.4095 48.705 95.4095 48.6601C95.4095 48.6092 95.3581 48.5783 95.2734 48.5783C95.1886 48.5783 95.1372 48.5475 95.1372 48.4966C95.1372 48.4427 95.0832 48.4149 94.9783 48.4149C94.8909 48.4149 94.8092 48.3843 94.7967 48.3468C94.78 48.2967 94.5749 48.2787 94.0205 48.2787C93.4661 48.2787 93.261 48.2967 93.2443 48.3468C93.2318 48.3843 93.1501 48.4149 93.0627 48.4149C92.9633 48.4149 92.9038 48.4433 92.9038 48.4908C92.9038 48.5324 92.8426 48.5819 92.7677 48.6007C92.6928 48.6195 92.6315 48.659 92.6315 48.6883C92.6315 48.7177 92.5825 48.7418 92.5225 48.7418C92.462 48.7418 92.4136 48.7781 92.4136 48.8235C92.4136 48.8684 92.3768 48.9052 92.3319 48.9052C92.2869 48.9052 92.2502 48.933 92.2502 48.967C92.2502 49.0011 92.1889 49.0856 92.114 49.1551C92.0391 49.2245 91.9778 49.307 91.9778 49.3383C91.9778 49.3698 91.9437 49.3954 91.902 49.3954C91.8603 49.3954 91.8108 49.4567 91.792 49.5316C91.7732 49.6065 91.7338 49.6678 91.7044 49.6678C91.675 49.6678 91.651 49.7046 91.651 49.7495C91.651 49.7944 91.6142 49.8312 91.5693 49.8312C91.5243 49.8312 91.4876 49.868 91.4876 49.9129C91.4876 49.9579 91.4508 49.9946 91.4059 49.9946C91.3609 49.9946 91.3241 50.0314 91.3241 50.0763C91.3241 50.1213 91.2874 50.158 91.2424 50.158C91.1975 50.158 91.1607 50.1948 91.1607 50.2397C91.1607 50.2847 91.124 50.3215 91.079 50.3215C91.0341 50.3215 90.9973 50.3582 90.9973 50.4032C90.9973 50.4481 90.9605 50.4849 90.9156 50.4849C90.8707 50.4849 90.8339 50.5216 90.8339 50.5666C90.8339 50.6115 90.7971 50.6483 90.7522 50.6483C90.7072 50.6483 90.6705 50.6748 90.6705 50.7071C90.6705 50.7838 90.0434 51.4109 89.9667 51.4109C89.9343 51.4109 89.9079 51.4477 89.9079 51.4926C89.9079 51.5375 89.8711 51.5743 89.8262 51.5743C89.7812 51.5743 89.7445 51.6111 89.7445 51.656C89.7445 51.701 89.7077 51.7377 89.6627 51.7377C89.6178 51.7377 89.581 51.7745 89.581 51.8194C89.581 51.8644 89.5443 51.9011 89.4993 51.9011C89.4544 51.9011 89.4176 51.9379 89.4176 51.9829C89.4176 52.0278 89.3809 52.0646 89.3359 52.0646C89.291 52.0646 89.2542 52.0874 89.2542 52.1154C89.2542 52.1433 89.2001 52.1833 89.134 52.2043C89.0679 52.2253 88.9521 52.3127 88.8767 52.3986C88.8014 52.4845 88.7187 52.5548 88.6931 52.5548C88.6676 52.5548 88.5731 52.6283 88.4832 52.7182C88.3933 52.8081 88.2849 52.8816 88.2423 52.8816C88.1996 52.8816 88.1648 52.9062 88.1648 52.9361C88.1648 52.9661 88.128 52.9906 88.0831 52.9906C88.0381 52.9906 88.0013 53.0247 88.0013 53.0664C88.0013 53.1081 87.9401 53.1576 87.8652 53.1764C87.7903 53.1952 87.729 53.2346 87.729 53.264C87.729 53.2934 87.6915 53.3174 87.6456 53.3174C87.5997 53.3174 87.548 53.3542 87.5308 53.3991C87.5135 53.4441 87.4653 53.4808 87.4236 53.4808C87.3818 53.4808 87.3477 53.5176 87.3477 53.5625C87.3477 53.6134 87.2963 53.6442 87.2115 53.6442C87.1267 53.6442 87.0753 53.6751 87.0753 53.726C87.0753 53.7804 87.0208 53.8077 86.9119 53.8077C86.803 53.8077 86.7485 53.8349 86.7485 53.8894C86.7485 53.9343 86.7143 53.9711 86.6726 53.9711C86.6309 53.9711 86.5826 54.0079 86.5654 54.0528C86.5481 54.0977 86.472 54.1345 86.3961 54.1345C86.3099 54.1345 86.2582 54.1651 86.2582 54.2162C86.2582 54.266 86.2074 54.2979 86.1279 54.2979C86.0562 54.2979 85.9834 54.3347 85.9662 54.3796C85.9489 54.4246 85.8973 54.4613 85.8514 54.4613C85.8055 54.4613 85.768 54.4839 85.768 54.5115C85.768 54.5391 85.6945 54.5778 85.6046 54.5975C85.5147 54.6172 85.4412 54.656 85.4412 54.6835C85.4412 54.7111 85.3791 54.7337 85.3033 54.7337C85.2274 54.7337 85.1513 54.7705 85.134 54.8154C85.1168 54.8603 85.044 54.8971 84.9723 54.8971C84.8928 54.8971 84.842 54.929 84.842 54.9788C84.842 55.0333 84.7875 55.0605 84.6785 55.0605C84.5696 55.0605 84.5151 55.0878 84.5151 55.1422C84.5151 55.1963 84.4611 55.2239 84.3556 55.2239C84.2679 55.2239 84.1593 55.2607 84.1144 55.3056C84.0694 55.3506 83.9696 55.3874 83.8926 55.3874C83.8044 55.3874 83.7525 55.4176 83.7525 55.4691C83.7525 55.524 83.6976 55.5508 83.5852 55.5508C83.4932 55.5508 83.3811 55.5875 83.3362 55.6325C83.2913 55.6774 83.1827 55.7142 83.095 55.7142C82.9895 55.7142 82.9354 55.7419 82.9354 55.7959C82.9354 55.8546 82.8754 55.8776 82.7221 55.8776C82.6047 55.8776 82.5 55.9037 82.4894 55.9356C82.4788 55.9675 82.3664 56.0075 82.2397 56.0245C82.1131 56.0415 82.0094 56.0752 82.0094 56.0993C82.0094 56.1235 81.8991 56.1598 81.7643 56.18C81.6295 56.2002 81.5192 56.2353 81.5192 56.2579C81.5192 56.2805 81.4176 56.3127 81.2934 56.3293C81.1693 56.346 81.0528 56.3826 81.0347 56.4106C81.0166 56.4387 80.8704 56.474 80.7099 56.489C80.5494 56.5041 80.4023 56.5411 80.383 56.5713C80.3638 56.6015 80.1901 56.6374 79.9971 56.6511C79.7976 56.6652 79.6369 56.7035 79.6248 56.7398C79.6108 56.7819 79.4468 56.8036 79.1434 56.8036C78.7846 56.8036 78.6763 56.8216 78.6519 56.8853C78.6263 56.9519 78.4958 56.967 77.9499 56.967C77.4619 56.967 77.2732 56.9856 77.2567 57.0351C77.2392 57.0877 76.8388 57.1032 75.5 57.1032C74.1612 57.1032 73.7608 57.0877 73.7433 57.0351C73.7268 56.9856 73.5381 56.967 73.0501 56.967C72.5043 56.967 72.3737 56.9519 72.3481 56.8853C72.3243 56.8233 72.2236 56.8036 71.9299 56.8036C71.6586 56.8036 71.5186 56.7792 71.4613 56.7219C71.4046 56.6652 71.2655 56.6402 71.0067 56.6402C70.7915 56.6402 70.6257 56.6157 70.6145 56.5822C70.6039 56.5503 70.4854 56.5099 70.3512 56.4924C70.217 56.4748 70.0915 56.4363 70.0722 56.4067C70.053 56.3772 69.912 56.3409 69.759 56.3262C69.606 56.3115 69.4808 56.2809 69.4808 56.2581C69.4808 56.2354 69.3705 56.2002 69.2357 56.18C69.1009 56.1598 68.9906 56.1235 68.9906 56.0993C68.9906 56.0752 68.8869 56.0415 68.7603 56.0245C68.6336 56.0075 68.5212 55.9675 68.5106 55.9356C68.5 55.9037 68.4215 55.8776 68.3363 55.8776C68.251 55.8776 68.1445 55.8408 68.0996 55.7959C68.0546 55.751 67.9566 55.7142 67.8817 55.7142C67.8068 55.7142 67.7087 55.6774 67.6638 55.6325C67.6189 55.5875 67.5068 55.5508 67.4148 55.5508C67.3024 55.5508 67.2475 55.524 67.2475 55.4691C67.2475 55.4176 67.1956 55.3874 67.1074 55.3874C67.0304 55.3874 66.9306 55.3506 66.8856 55.3056C66.8407 55.2607 66.7321 55.2239 66.6444 55.2239C66.5389 55.2239 66.4849 55.1963 66.4849 55.1422C66.4849 55.0878 66.4304 55.0605 66.3215 55.0605C66.2125 55.0605 66.158 55.0333 66.158 54.9788C66.158 54.929 66.1072 54.8971 66.0277 54.8971C65.956 54.8971 65.8832 54.8603 65.866 54.8154C65.8487 54.7705 65.7726 54.7337 65.6967 54.7337C65.6209 54.7337 65.5588 54.7111 65.5588 54.6835C65.5588 54.656 65.4853 54.6172 65.3954 54.5975C65.3055 54.5778 65.232 54.5391 65.232 54.5115C65.232 54.4839 65.1945 54.4613 65.1486 54.4613C65.1027 54.4613 65.0511 54.4246 65.0338 54.3796C65.0166 54.3347 64.9438 54.2979 64.8721 54.2979C64.7958 54.2979 64.7418 54.2658 64.7418 54.2205C64.7418 54.178 64.6682 54.127 64.5783 54.1073C64.4885 54.0875 64.4149 54.0488 64.4149 54.0213C64.4149 53.9936 64.3782 53.9711 64.3332 53.9711C64.2883 53.9711 64.2515 53.9343 64.2515 53.8894C64.2515 53.8386 64.2001 53.8077 64.1153 53.8077C64.0306 53.8077 63.9792 53.7768 63.9792 53.726C63.9792 53.6806 63.9307 53.6442 63.8702 53.6442C63.8103 53.6442 63.7613 53.6202 63.7613 53.5908C63.7613 53.5615 63.7 53.522 63.6251 53.5032C63.5502 53.4844 63.4889 53.4349 63.4889 53.3932C63.4889 53.3515 63.4399 53.3174 63.38 53.3174C63.32 53.3174 63.271 53.2934 63.271 53.264C63.271 53.2346 63.2097 53.1952 63.1348 53.1764C63.0599 53.1576 62.9987 53.1081 62.9987 53.0664C62.9987 53.0247 62.9619 52.9906 62.9169 52.9906C62.872 52.9906 62.8352 52.9661 62.8352 52.9361C62.8352 52.9062 62.7985 52.8816 62.7535 52.8816C62.7086 52.8816 62.6718 52.8475 62.6718 52.8058C62.6718 52.7641 62.6105 52.7146 62.5356 52.6958C62.4607 52.677 62.3995 52.6376 62.3995 52.6082C62.3995 52.5788 62.3681 52.5548 62.3299 52.5548C62.2916 52.5548 62.1986 52.4845 62.1233 52.3986C62.0479 52.3127 61.9321 52.2253 61.866 52.2043C61.7999 52.1833 61.7458 52.1433 61.7458 52.1154C61.7458 52.0874 61.709 52.0646 61.6641 52.0646C61.6192 52.0646 61.5824 52.0278 61.5824 51.9829C61.5824 51.9379 61.5456 51.9011 61.5007 51.9011C61.4557 51.9011 61.419 51.8644 61.419 51.8194C61.419 51.7745 61.3822 51.7377 61.3373 51.7377C61.2923 51.7377 61.2555 51.701 61.2555 51.656C61.2555 51.6111 61.2188 51.5743 61.1738 51.5743C61.1289 51.5743 61.0921 51.5375 61.0921 51.4926C61.0921 51.4477 61.0657 51.4109 61.0332 51.4109C60.9565 51.4109 60.1661 50.6205 60.1661 50.5438C60.1661 50.5113 60.1293 50.4849 60.0844 50.4849C60.0395 50.4849 60.0027 50.4481 60.0027 50.4032C60.0027 50.3582 59.9659 50.3215 59.921 50.3215C59.876 50.3215 59.8393 50.2847 59.8393 50.2397C59.8393 50.1948 59.8025 50.158 59.7576 50.158C59.7126 50.158 59.6759 50.1213 59.6759 50.0763C59.6759 50.0314 59.6391 49.9946 59.5942 49.9946C59.5492 49.9946 59.5124 49.9579 59.5124 49.9129C59.5124 49.868 59.4757 49.8312 59.4307 49.8312C59.3858 49.8312 59.349 49.7944 59.349 49.7495C59.349 49.7046 59.325 49.6678 59.2956 49.6678C59.2662 49.6678 59.2268 49.6065 59.208 49.5316C59.1892 49.4567 59.1397 49.3954 59.098 49.3954C59.0563 49.3954 59.0222 49.3698 59.0222 49.3383C59.0222 49.307 58.9609 49.2245 58.886 49.1551C58.8111 49.0856 58.7498 49.0011 58.7498 48.967C58.7498 48.933 58.7131 48.9052 58.6681 48.9052C58.6232 48.9052 58.5864 48.8684 58.5864 48.8235C58.5864 48.7781 58.538 48.7418 58.4775 48.7418C58.4176 48.7418 58.3685 48.7177 58.3685 48.6883C58.3685 48.659 58.3072 48.6195 58.2323 48.6007C58.1574 48.5819 58.0962 48.5324 58.0962 48.4908C58.0962 48.4433 58.0367 48.4149 57.9373 48.4149C57.8499 48.4149 57.7682 48.3843 57.7558 48.3468C57.7395 48.2979 57.5426 48.2761 57.0567 48.2693C56.6847 48.2642 56.3374 48.2721 56.285 48.287ZM36.7431 57.2122C36.7431 57.2666 36.6886 57.2939 36.5797 57.2939C36.4898 57.2939 36.4163 57.3164 36.4163 57.3441C36.4163 57.3716 36.3427 57.4103 36.2529 57.4301C36.163 57.4498 36.0894 57.4869 36.0894 57.5124C36.0894 57.538 36.038 57.5752 35.9751 57.5952C35.8436 57.6369 35.6537 57.8129 35.6537 57.8931C35.6537 57.923 35.6196 57.9475 35.5778 57.9475C35.5362 57.9475 35.4867 58.0088 35.4679 58.0837C35.4491 58.1586 35.4116 58.2199 35.3846 58.2199C35.3576 58.2199 35.3193 58.2934 35.2996 58.3833C35.2799 58.4732 35.2411 58.5467 35.2136 58.5467C35.186 58.5467 35.1634 58.6203 35.1634 58.7102C35.1634 58.8191 35.1362 58.8736 35.0817 58.8736C35.0094 58.8736 35 60.032 35 68.9723C35 77.8987 35.0095 79.0747 35.0817 79.1024C35.1295 79.1207 35.1634 79.2024 35.1634 79.2989C35.1634 79.3897 35.1874 79.464 35.2169 79.464C35.2462 79.464 35.2852 79.5235 35.3035 79.5963C35.3217 79.669 35.3712 79.7418 35.4134 79.758C35.4557 79.7742 35.4902 79.8495 35.4902 79.9253C35.4902 80.0116 35.5209 80.0632 35.572 80.0632C35.6169 80.0632 35.6537 80.1 35.6537 80.1449C35.6537 80.1899 35.6904 80.2266 35.7354 80.2266C35.7803 80.2266 35.8171 80.2507 35.8171 80.2801C35.8171 80.3094 35.8784 80.3489 35.9533 80.3677C36.0282 80.3865 36.0894 80.436 36.0894 80.4776C36.0894 80.5256 36.1496 80.5535 36.2529 80.5535C36.3618 80.5535 36.4163 80.5807 36.4163 80.6352C36.4163 80.6891 36.4703 80.7169 36.5752 80.7169C36.6625 80.7169 36.7443 80.7475 36.7567 80.785C36.7748 80.8392 39.9991 80.8559 52.5854 80.8672L68.3914 80.8814V83.2504V85.6194H64.5239C62.1042 85.6194 60.6564 85.6388 60.6564 85.6714C60.6564 85.7 60.5706 85.7395 60.4657 85.7591C60.3608 85.7788 60.2751 85.8141 60.2751 85.8374C60.2751 85.8608 60.2138 85.8953 60.1389 85.9141C60.064 85.9329 60.0027 85.9704 60.0027 85.9974C60.0027 86.0244 59.9292 86.0627 59.8393 86.0824C59.7494 86.1021 59.6759 86.1531 59.6759 86.1956C59.6759 86.2382 59.6391 86.273 59.5942 86.273C59.5492 86.273 59.5124 86.3098 59.5124 86.3547C59.5124 86.3997 59.4884 86.4364 59.459 86.4364C59.4296 86.4364 59.3902 86.4977 59.3714 86.5726C59.3526 86.6475 59.3031 86.7088 59.2614 86.7088C59.2197 86.7088 59.1856 86.7456 59.1856 86.7905C59.1856 86.8355 59.1611 86.8722 59.1311 86.8722C59.1012 86.8722 59.0767 86.9343 59.0767 87.0101C59.0767 87.086 59.0428 87.161 59.0014 87.1769C58.96 87.1928 58.9106 87.3023 58.8918 87.4203C58.8729 87.5383 58.8352 87.6348 58.808 87.6348C58.7808 87.6348 58.7423 87.7084 58.7226 87.7983C58.7029 87.8881 58.6661 87.9617 58.6409 87.9617C58.6157 87.9617 58.5789 88.0352 58.5592 88.1251C58.5395 88.215 58.5007 88.2885 58.4732 88.2885C58.4456 88.2885 58.423 88.3505 58.423 88.4264C58.423 88.5023 58.3862 88.5784 58.3413 88.5956C58.2964 88.6129 58.2596 88.6857 58.2596 88.7573C58.2596 88.8369 58.2277 88.8877 58.1779 88.8877C58.1234 88.8877 58.0962 88.9422 58.0962 89.0511C58.0962 89.1601 58.0689 89.2145 58.0145 89.2145C57.96 89.2145 57.9328 89.269 57.9328 89.3779C57.9328 89.4869 57.9055 89.5414 57.851 89.5414C57.7966 89.5414 57.7693 89.5958 57.7693 89.7048C57.7693 89.8137 57.7421 89.8682 57.6876 89.8682C57.6332 89.8682 57.6059 89.9227 57.6059 90.0316C57.6059 90.1406 57.5787 90.195 57.5242 90.195C57.4697 90.195 57.4425 90.2495 57.4425 90.3584C57.4425 90.4483 57.4207 90.5219 57.3939 90.5219C57.3672 90.5219 57.33 90.5831 57.3112 90.658C57.2924 90.7329 57.2529 90.7942 57.2236 90.7942C57.1942 90.7942 57.1701 90.8415 57.1701 90.8993C57.1701 90.957 57.1334 91.0411 57.0884 91.086C57.0435 91.131 57.0067 91.2308 57.0067 91.3078C57.0067 91.396 56.9764 91.4479 56.925 91.4479C56.8705 91.4479 56.8433 91.5024 56.8433 91.6113C56.8433 91.7202 56.8161 91.7747 56.7616 91.7747C56.7071 91.7747 56.6799 91.8292 56.6799 91.9381C56.6799 92.0471 56.6527 92.1015 56.5982 92.1015C56.5437 92.1015 56.5165 92.156 56.5165 92.265C56.5165 92.3739 56.4892 92.4284 56.4348 92.4284C56.3803 92.4284 56.3531 92.4828 56.3531 92.5918C56.3531 92.7007 56.3258 92.7552 56.2714 92.7552C56.2205 92.7552 56.1896 92.8066 56.1896 92.8914C56.1896 92.9663 56.1671 93.0276 56.1395 93.0276C56.1119 93.0276 56.0732 93.1011 56.0535 93.191C56.0337 93.2809 55.997 93.3544 55.9718 93.3544C55.9465 93.3544 55.9098 93.4279 55.89 93.5178C55.8703 93.6077 55.8336 93.6812 55.8083 93.6812C55.7831 93.6812 55.7463 93.7548 55.7266 93.8447C55.7069 93.9345 55.6701 94.0081 55.6449 94.0081C55.6197 94.0081 55.5829 94.0816 55.5632 94.1715C55.5435 94.2614 55.5048 94.3349 55.4772 94.3349C55.4496 94.3349 55.427 94.3969 55.427 94.4728C55.427 94.5487 55.3903 94.6248 55.3453 94.642C55.3004 94.6593 55.2636 94.7321 55.2636 94.8037C55.2636 94.8833 55.2318 94.9341 55.1819 94.9341C55.1274 94.9341 55.1002 94.9886 55.1002 95.0975V95.2609H50.7424C46.9052 95.2609 46.3847 95.2707 46.3847 95.3426C46.3847 95.3971 46.3302 95.4243 46.2213 95.4243C46.1314 95.4243 46.0578 95.4469 46.0578 95.4745C46.0578 95.5021 45.9843 95.5408 45.8944 95.5605C45.8045 95.5802 45.731 95.6185 45.731 95.6455C45.731 95.6725 45.6697 95.71 45.5948 95.7288C45.5199 95.7476 45.4586 95.7971 45.4586 95.8388C45.4586 95.8805 45.4219 95.9146 45.3769 95.9146C45.332 95.9146 45.2952 95.9514 45.2952 95.9963C45.2952 96.0412 45.2585 96.078 45.2135 96.078C45.1627 96.078 45.1318 96.1294 45.1318 96.2142C45.1318 96.299 45.1009 96.3504 45.0501 96.3504C44.9956 96.3504 44.9684 96.4048 44.9684 96.5138C44.9684 96.6227 44.9412 96.6772 44.8867 96.6772C44.8353 96.6772 44.805 96.7291 44.805 96.8173C44.805 96.8943 44.7682 96.9941 44.7233 97.0391C44.6067 97.1556 44.6067 98.1053 44.7233 98.2219C44.7682 98.2668 44.805 98.3666 44.805 98.4437C44.805 98.5319 44.8353 98.5837 44.8867 98.5837C44.9412 98.5837 44.9684 98.6382 44.9684 98.7471C44.9684 98.8561 44.9956 98.9106 45.0501 98.9106C45.1009 98.9106 45.1318 98.962 45.1318 99.0467C45.1318 99.1315 45.1627 99.1829 45.2135 99.1829C45.2585 99.1829 45.2952 99.2197 45.2952 99.2646C45.2952 99.3096 45.332 99.3463 45.3769 99.3463C45.4219 99.3463 45.4586 99.3831 45.4586 99.428C45.4586 99.4789 45.5101 99.5098 45.5948 99.5098C45.6796 99.5098 45.731 99.5406 45.731 99.5915C45.731 99.6364 45.7783 99.6732 45.8361 99.6732C45.8938 99.6732 45.9779 99.7099 46.0228 99.7549C46.0677 99.7998 46.1675 99.8366 46.2446 99.8366C46.3328 99.8366 46.3847 99.8669 46.3847 99.9183C46.3847 99.9908 49.656 100 75.5 100C101.344 100 104.615 99.9908 104.615 99.9183C104.615 99.8669 104.667 99.8366 104.755 99.8366C104.832 99.8366 104.932 99.7998 104.977 99.7549C105.022 99.7099 105.106 99.6732 105.164 99.6732C105.222 99.6732 105.269 99.6364 105.269 99.5915C105.269 99.5406 105.32 99.5098 105.405 99.5098C105.49 99.5098 105.541 99.4789 105.541 99.428C105.541 99.3831 105.578 99.3463 105.623 99.3463C105.668 99.3463 105.705 99.3096 105.705 99.2646C105.705 99.2197 105.742 99.1829 105.786 99.1829C105.837 99.1829 105.868 99.1315 105.868 99.0467C105.868 98.962 105.899 98.9106 105.95 98.9106C106.004 98.9106 106.032 98.8561 106.032 98.7471C106.032 98.6382 106.059 98.5837 106.113 98.5837C106.167 98.5837 106.195 98.5297 106.195 98.4248C106.195 98.3375 106.226 98.2558 106.263 98.2433C106.31 98.2278 106.337 98.0495 106.35 97.6756C106.365 97.2328 106.352 97.1142 106.282 97.0439C106.234 96.9963 106.195 96.8943 106.195 96.8173C106.195 96.7291 106.165 96.6772 106.113 96.6772C106.059 96.6772 106.032 96.6227 106.032 96.5138C106.032 96.4048 106.004 96.3504 105.95 96.3504C105.899 96.3504 105.868 96.299 105.868 96.2142C105.868 96.1294 105.837 96.078 105.786 96.078C105.742 96.078 105.705 96.0412 105.705 95.9963C105.705 95.9514 105.668 95.9146 105.623 95.9146C105.578 95.9146 105.541 95.8805 105.541 95.8388C105.541 95.7971 105.48 95.7476 105.405 95.7288C105.33 95.71 105.269 95.6725 105.269 95.6455C105.269 95.6185 105.195 95.5802 105.106 95.5605C105.016 95.5408 104.942 95.5021 104.942 95.4745C104.942 95.4469 104.869 95.4243 104.779 95.4243C104.67 95.4243 104.615 95.3971 104.615 95.3426C104.615 95.2707 104.095 95.2609 100.258 95.2609H95.8998V95.0975C95.8998 94.9886 95.8726 94.9341 95.8181 94.9341C95.7682 94.9341 95.7364 94.8833 95.7364 94.8037C95.7364 94.7321 95.6996 94.6593 95.6547 94.642C95.6097 94.6248 95.573 94.5513 95.573 94.4786C95.573 94.406 95.5362 94.3325 95.4913 94.3152C95.4463 94.298 95.4095 94.2218 95.4095 94.1459C95.4095 94.0701 95.387 94.0081 95.3594 94.0081C95.3318 94.0081 95.2931 93.9345 95.2734 93.8447C95.2537 93.7548 95.2169 93.6812 95.1917 93.6812C95.1664 93.6812 95.1297 93.6077 95.11 93.5178C95.0902 93.4279 95.0535 93.3544 95.0282 93.3544C95.003 93.3544 94.9663 93.2809 94.9465 93.191C94.9268 93.1011 94.8881 93.0276 94.8605 93.0276C94.8329 93.0276 94.8104 92.9663 94.8104 92.8914C94.8104 92.8066 94.7795 92.7552 94.7286 92.7552C94.6742 92.7552 94.6469 92.7007 94.6469 92.5918C94.6469 92.4828 94.6197 92.4284 94.5652 92.4284C94.5108 92.4284 94.4835 92.3739 94.4835 92.265C94.4835 92.156 94.4563 92.1015 94.4018 92.1015C94.3473 92.1015 94.3201 92.0471 94.3201 91.9381C94.3201 91.8292 94.2929 91.7747 94.2384 91.7747C94.1839 91.7747 94.1567 91.7202 94.1567 91.6113C94.1567 91.5024 94.1295 91.4479 94.075 91.4479C94.0205 91.4479 93.9933 91.3934 93.9933 91.2845C93.9933 91.1946 93.9693 91.121 93.9398 91.121C93.9105 91.121 93.8696 91.0539 93.8489 90.9718C93.8283 90.8897 93.7789 90.7899 93.7389 90.75C93.6991 90.7101 93.6664 90.6425 93.6664 90.5997C93.6664 90.5569 93.6419 90.5219 93.612 90.5219C93.582 90.5219 93.5575 90.4483 93.5575 90.3584C93.5575 90.2495 93.5303 90.195 93.4758 90.195C93.4247 90.195 93.3941 90.1434 93.3941 90.0572C93.3941 89.9813 93.3573 89.9051 93.3124 89.8879C93.2658 89.87 93.2307 89.7888 93.2307 89.6989C93.2307 89.5952 93.2028 89.5414 93.149 89.5414C93.0945 89.5414 93.0672 89.4869 93.0672 89.3779C93.0672 89.269 93.04 89.2145 92.9855 89.2145C92.9311 89.2145 92.9038 89.1601 92.9038 89.0511C92.9038 88.9422 92.8766 88.8877 92.8221 88.8877C92.7723 88.8877 92.7404 88.8369 92.7404 88.7573C92.7404 88.6857 92.7036 88.6129 92.6587 88.5956C92.6138 88.5784 92.577 88.5023 92.577 88.4264C92.577 88.3505 92.5545 88.2885 92.5268 88.2885C92.4993 88.2885 92.4605 88.215 92.4408 88.1251C92.4211 88.0352 92.3843 87.9617 92.3591 87.9617C92.3339 87.9617 92.2971 87.8881 92.2774 87.7983C92.2577 87.7084 92.2221 87.6348 92.1983 87.6348C92.1746 87.6348 92.1395 87.5368 92.1203 87.4169C92.1011 87.2971 92.0632 87.1991 92.036 87.1991C92.0087 87.1991 91.9703 87.1255 91.9506 87.0356C91.9309 86.9458 91.8921 86.8722 91.8646 86.8722C91.8369 86.8722 91.8144 86.8355 91.8144 86.7905C91.8144 86.7456 91.7803 86.7088 91.7386 86.7088C91.6969 86.7088 91.6474 86.6475 91.6286 86.5726C91.6098 86.4977 91.5704 86.4364 91.541 86.4364C91.5116 86.4364 91.4876 86.3997 91.4876 86.3547C91.4876 86.3098 91.4508 86.273 91.4059 86.273C91.3609 86.273 91.3241 86.2382 91.3241 86.1956C91.3241 86.1531 91.2506 86.1021 91.1607 86.0824C91.0708 86.0627 90.9973 86.0244 90.9973 85.9974C90.9973 85.9704 90.936 85.9329 90.8611 85.9141C90.7862 85.8953 90.7249 85.8608 90.7249 85.8374C90.7249 85.8141 90.6392 85.7788 90.5343 85.7591C90.4294 85.7395 90.3436 85.7 90.3436 85.6714C90.3436 85.6388 88.8958 85.6194 86.4761 85.6194H82.6086V83.2503V80.8812L98.4146 80.8671C111.001 80.8559 114.225 80.8392 114.243 80.785C114.256 80.7475 114.337 80.7169 114.425 80.7169C114.53 80.7169 114.584 80.6891 114.584 80.6352C114.584 80.5841 114.635 80.5535 114.722 80.5535C114.797 80.5535 114.873 80.5189 114.889 80.4767C114.905 80.4344 114.978 80.3849 115.051 80.3667C115.123 80.3484 115.183 80.3094 115.183 80.2801C115.183 80.2507 115.22 80.2266 115.265 80.2266C115.31 80.2266 115.346 80.1899 115.346 80.1449C115.346 80.1 115.383 80.0632 115.428 80.0632C115.479 80.0632 115.51 80.0116 115.51 79.9253C115.51 79.8495 115.544 79.7742 115.587 79.758C115.629 79.7418 115.678 79.669 115.697 79.5963C115.715 79.5235 115.754 79.464 115.783 79.464C115.813 79.464 115.837 79.3782 115.837 79.2734C115.837 79.1402 115.861 79.0827 115.918 79.0827C115.99 79.0827 116 78.6167 116 75.2152V71.3477H87.2932H58.5864V71.1064C58.5864 70.9646 58.5528 70.8316 58.5047 70.7835C58.4588 70.7376 58.423 70.6045 58.423 70.48C58.423 70.3192 58.4006 70.2582 58.3413 70.2582C58.2808 70.2582 58.2596 70.1947 58.2596 70.0131C58.2596 69.8316 58.2384 69.768 58.1779 69.768C58.1174 69.768 58.0962 69.7044 58.0962 69.5229C58.0962 69.3413 58.075 69.2777 58.0145 69.2777C57.963 69.2777 57.9328 69.2259 57.9328 69.1377C57.9328 69.0606 57.896 68.9608 57.851 68.9159C57.8061 68.8709 57.7693 68.7624 57.7693 68.6747C57.7693 68.5692 57.7417 68.5151 57.6876 68.5151C57.6378 68.5151 57.6059 68.4643 57.6059 68.3848C57.6059 68.3131 57.5691 68.2403 57.5242 68.2231C57.4793 68.2058 57.4425 68.1542 57.4425 68.1083C57.4425 68.0624 57.42 68.0249 57.3923 68.0249C57.3648 68.0249 57.326 67.9513 57.3063 67.8615C57.2866 67.7716 57.2505 67.6981 57.2262 67.6981C57.2018 67.6981 57.1665 67.6368 57.1478 67.5619C57.129 67.487 57.0895 67.4257 57.0602 67.4257C57.0307 67.4257 57.0067 67.3889 57.0067 67.344C57.0067 67.299 56.97 67.2623 56.925 67.2623C56.8705 67.2623 56.8433 67.2078 56.8433 67.0989C56.8433 66.9899 56.8161 66.9354 56.7616 66.9354C56.7167 66.9354 56.6799 66.8987 56.6799 66.8537C56.6799 66.8088 56.6431 66.772 56.5982 66.772C56.5474 66.772 56.5165 66.7206 56.5165 66.6358C56.5165 66.5511 56.4856 66.4997 56.4348 66.4997C56.3898 66.4997 56.3531 66.4655 56.3531 66.4238C56.3531 66.3821 56.3163 66.3338 56.2714 66.3165C56.2264 66.2993 56.1896 66.2477 56.1896 66.2018C56.1896 66.1559 56.1529 66.1184 56.1079 66.1184C56.063 66.1184 56.0262 66.0919 56.0262 66.0595C56.0262 65.9828 55.3991 65.3558 55.3224 65.3558C55.2901 65.3558 55.2636 65.319 55.2636 65.274C55.2636 65.2291 55.2269 65.1923 55.1819 65.1923C55.137 65.1923 55.1002 65.1556 55.1002 65.1106C55.1002 65.0657 55.0634 65.0289 55.0185 65.0289C54.9736 65.0289 54.9368 64.9921 54.9368 64.9472C54.9368 64.9023 54.9 64.8655 54.8551 64.8655C54.8101 64.8655 54.7734 64.8287 54.7734 64.7838C54.7734 64.7389 54.7366 64.7021 54.6917 64.7021C54.6467 64.7021 54.61 64.6653 54.61 64.6204C54.61 64.5754 54.5821 64.5387 54.5481 64.5387C54.5141 64.5387 54.4321 64.4803 54.366 64.4089C54.2998 64.3374 54.1928 64.2623 54.1282 64.2418C54.0636 64.2213 54.0108 64.1817 54.0108 64.1537C54.0108 64.1258 53.9732 64.1029 53.9274 64.1029C53.8814 64.1029 53.8307 64.0684 53.8144 64.0261C53.7983 63.9839 53.7255 63.9344 53.6528 63.9161C53.58 63.8979 53.5205 63.8589 53.5205 63.8295C53.5205 63.8001 53.4837 63.7761 53.4388 63.7761C53.3939 63.7761 53.3571 63.7393 53.3571 63.6944C53.3571 63.6399 53.3026 63.6126 53.1937 63.6126C53.0847 63.6126 53.0303 63.5854 53.0303 63.5309C53.0303 63.4811 52.9794 63.4492 52.8999 63.4492C52.8282 63.4492 52.7555 63.4125 52.7382 63.3675C52.721 63.3226 52.6693 63.2858 52.6234 63.2858C52.5775 63.2858 52.54 63.2618 52.54 63.2324C52.54 63.203 52.4729 63.1621 52.3908 63.1415C52.3087 63.1209 52.2089 63.0714 52.1689 63.0315C52.1291 62.9916 52.0492 62.959 51.9914 62.959C51.9336 62.959 51.8863 62.9376 51.8863 62.9115C51.8863 62.8853 51.7883 62.8483 51.6685 62.8291C51.5486 62.8099 51.4506 62.7701 51.4506 62.7404C51.4506 62.7109 51.3885 62.6866 51.3127 62.6866C51.2368 62.6866 51.1607 62.6498 51.1435 62.6049C51.1231 62.5519 51.0385 62.5232 50.9027 62.5232C50.784 62.5232 50.6745 62.4912 50.6498 62.4492C50.6259 62.4085 50.4845 62.3619 50.3357 62.3456C50.1869 62.3293 50.0561 62.2891 50.0451 62.2562C50.0337 62.2218 49.8886 62.1964 49.7029 62.1964C49.4528 62.1964 49.3806 62.1781 49.3806 62.1147C49.3806 62.0475 49.2838 62.033 48.8359 62.033C48.388 62.033 48.2912 62.0184 48.2912 61.9512C48.2912 61.8793 47.7798 61.8695 44.0151 61.8695H39.7391V60.3716C39.7391 59.0763 39.728 58.8736 39.6574 58.8736C39.6029 58.8736 39.5757 58.8191 39.5757 58.7102C39.5757 58.6203 39.5531 58.5467 39.5255 58.5467C39.4979 58.5467 39.4592 58.4732 39.4395 58.3833C39.4198 58.2934 39.3827 58.2199 39.3571 58.2199C39.3316 58.2199 39.2947 58.1697 39.2752 58.1082C39.2294 57.9641 38.9055 57.6401 38.7613 57.5943C38.6999 57.5748 38.6496 57.538 38.6496 57.5124C38.6496 57.4869 38.5761 57.4498 38.4862 57.4301C38.3963 57.4103 38.3228 57.3716 38.3228 57.3441C38.3228 57.3164 38.2493 57.2939 38.1594 57.2939C38.0504 57.2939 37.996 57.2666 37.996 57.2122C37.996 57.1443 37.8901 57.1305 37.3695 57.1305C36.849 57.1305 36.7431 57.1443 36.7431 57.2122ZM48.1142 66.7039C48.1289 66.7482 48.2497 66.772 48.4591 66.772C48.7093 66.772 48.7814 66.7903 48.7814 66.8537C48.7814 66.9165 48.8511 66.9354 49.081 66.9354C49.311 66.9354 49.3806 66.9544 49.3806 67.0172C49.3806 67.0716 49.4351 67.0989 49.544 67.0989C49.6339 67.0989 49.7075 67.1214 49.7075 67.149C49.7075 67.1766 49.781 67.2153 49.8709 67.235C49.9608 67.2548 50.0343 67.2915 50.0343 67.3167C50.0343 67.342 50.1078 67.3787 50.1977 67.3985C50.2876 67.4182 50.3611 67.4549 50.3611 67.4802C50.3611 67.5054 50.4347 67.5422 50.5245 67.5619C50.6144 67.5816 50.688 67.6199 50.688 67.6468C50.688 67.6739 50.7492 67.7113 50.8241 67.7301C50.899 67.7489 50.9603 67.7862 50.9603 67.8129C50.9603 67.8396 50.9971 67.8615 51.042 67.8615C51.087 67.8615 51.1237 67.8982 51.1237 67.9432C51.1237 67.9881 51.1551 68.0249 51.1934 68.0249C51.2316 68.0249 51.3049 68.0739 51.3562 68.1338C51.4075 68.1937 51.4865 68.2428 51.5317 68.2428C51.577 68.2428 51.614 68.2673 51.614 68.2972C51.614 68.3272 51.6508 68.3517 51.6957 68.3517C51.7406 68.3517 51.7774 68.3885 51.7774 68.4334C51.7774 68.4784 51.8142 68.5151 51.8591 68.5151C51.9041 68.5151 51.9408 68.5519 51.9408 68.5968C51.9408 68.6418 51.9776 68.6785 52.0225 68.6785C52.0675 68.6785 52.1042 68.7153 52.1042 68.7603C52.1042 68.8052 52.141 68.842 52.1859 68.842C52.2309 68.842 52.2677 68.8698 52.2677 68.9038C52.2677 68.9378 52.326 69.0198 52.3975 69.0859C52.4689 69.1521 52.544 69.2591 52.5645 69.3237C52.5851 69.3883 52.6247 69.4412 52.6526 69.4412C52.6806 69.4412 52.7034 69.4779 52.7034 69.5229C52.7034 69.5678 52.7402 69.6046 52.7851 69.6046C52.8305 69.6046 52.8668 69.653 52.8668 69.7135C52.8668 69.774 52.9032 69.8225 52.9486 69.8225C52.9994 69.8225 53.0303 69.8739 53.0303 69.9586C53.0303 70.0434 53.0611 70.0948 53.112 70.0948C53.1664 70.0948 53.1937 70.1493 53.1937 70.2582C53.1937 70.3672 53.2209 70.4217 53.2754 70.4217C53.3299 70.4217 53.3571 70.4761 53.3571 70.5851C53.3571 70.694 53.3843 70.7485 53.4388 70.7485C53.4902 70.7485 53.5205 70.8003 53.5205 70.8885C53.5205 70.9656 53.5573 71.0654 53.6022 71.1103C53.849 71.3572 54.1243 71.3477 46.7115 71.3477H39.7391V68.9762V66.6047L43.9153 66.6203C47.1967 66.6325 48.0963 66.6504 48.1142 66.7039Z" fill="url(#paint0_linear_2535_25248)"/>
<defs>
<linearGradient id="paint0_linear_2535_25248" x1="150.425" y1="21.7" x2="29.1938" y2="-7.62927" gradientUnits="userSpaceOnUse">
<stop stop-color="#D65986"/>
<stop offset="1" stop-color="#A261F9"/>
</linearGradient>
</defs>
</svg>
