<svg width="80" height="60" viewBox="0 0 80 60" fill="none" xmlns="http://www.w3.org/2000/svg">
<path d="M52.9247 13.8045L53.1598 13.784C53.245 13.7744 53.3264 13.7434 53.3967 13.6936L53.395 13.6953C53.6201 14.4834 53.8956 15.3125 54.24 16.1808C54.6818 17.317 55.1169 18.2501 55.6041 19.1509L55.5369 19.0144C55.4965 19.6354 55.4478 20.2734 55.384 20.8909C55.356 21.2553 55.2832 21.6146 55.1673 21.9606L55.1757 21.9299C55.1555 21.9384 55.127 25.4782 55.127 25.4782C55.1276 26.5766 55.4921 27.6428 56.1619 28.5052C56.8316 29.3676 57.7677 29.9761 58.8193 30.2327L58.8529 30.2395C58.8996 30.1163 58.9819 30.0104 59.0889 29.9355C59.1959 29.8606 59.3227 29.8203 59.4526 29.8198H60.4169C60.5457 29.8216 60.6711 29.8618 60.7774 29.9356C60.8838 30.0093 60.9664 30.1132 61.0149 30.2344L61.0166 30.2395C62.0772 29.9905 63.0239 29.3853 63.7035 28.5217C64.3831 27.6582 64.7557 26.587 64.761 25.4816C64.761 25.4816 64.7022 21.9554 64.672 21.9316C64.5719 21.6018 64.5032 21.263 64.4671 20.9199L64.4654 20.8944C64.4066 20.2734 64.3679 19.6507 64.3125 19.0178C64.7274 18.257 65.1625 17.3255 65.5455 16.3651L65.6094 16.1843C65.9537 15.3159 66.2208 14.4885 66.4543 13.6987C66.5234 13.7485 66.6037 13.7796 66.6878 13.7891H66.6895L66.9264 13.8096C67.212 13.8403 67.4639 13.6015 67.4875 13.2313L67.7428 9.9371V9.93369C67.7427 9.80113 67.695 9.67315 67.6088 9.57364C67.5225 9.47413 67.4036 9.40989 67.2741 9.3929H67.2422C67.4659 7.67756 67.3273 5.93351 66.8357 4.27679L66.8575 4.36379C66.3837 3.2954 65.6631 2.35884 64.7568 1.63361C63.8505 0.90838 62.7853 0.415874 61.6516 0.197889L61.6079 0.191065C61.0583 0.0791523 60.5002 0.0152305 59.9398 0H59.9045C59.3183 0.0106606 58.7344 0.078066 58.1608 0.201301L58.2213 0.191065C57.0882 0.40465 56.022 0.89077 55.1118 1.60874C54.2017 2.3267 53.4742 3.25562 52.9902 4.31773L52.9717 4.36379C52.4881 6.01413 52.3592 7.75071 52.5937 9.45602L52.587 9.3929C52.4572 9.40717 52.3371 9.46951 52.2497 9.56802C52.1623 9.66652 52.1138 9.79428 52.1133 9.92686V9.9388L52.3686 13.233C52.3921 13.6117 52.6475 13.8403 52.923 13.8096L52.9247 13.8045Z" fill="url(#paint0_linear_2915_35038)"/>
<path d="M77.997 35.5659C77.8789 30.3808 77.3659 29.2073 77.0891 28.4125C76.9794 28.0935 76.89 25.9376 73.3665 24.539C71.2065 23.6793 68.4188 23.6623 66.0597 22.6542V25.4583C66.0573 26.8958 65.5603 28.2878 64.6539 29.3956C63.7476 30.5034 62.4883 31.2581 61.0918 31.5304L61.053 31.5372C61.0277 31.6885 60.9506 31.826 60.8353 31.9258C60.72 32.0255 60.5736 32.0812 60.4218 32.083H60.3915V34.198C60.3915 35.1905 60.7815 36.1423 61.4759 36.8441C62.1702 37.5459 63.1119 37.9402 64.0938 37.9402C65.0757 37.9402 66.0174 37.5459 66.7118 36.8441C67.4061 36.1423 67.7961 35.1905 67.7961 34.198V32.7209C67.2865 32.6454 66.8219 32.3837 66.4903 31.9853C66.1587 31.587 65.983 31.0796 65.9964 30.5591C66.0099 30.0387 66.2116 29.5413 66.5634 29.161C66.9152 28.7807 67.3927 28.5439 67.9056 28.4954C68.4184 28.4469 68.9311 28.5901 69.3465 28.8978C69.762 29.2056 70.0515 29.6566 70.1602 30.1655C70.269 30.6743 70.1894 31.2059 69.9366 31.6595C69.6838 32.1131 69.2753 32.4574 68.7884 32.6271L68.7732 32.6322V34.2782C68.7732 35.533 68.28 36.7365 67.4021 37.6238C66.5243 38.5111 65.3336 39.0096 64.0921 39.0096C62.8506 39.0096 61.66 38.5111 60.7821 37.6238C59.9042 36.7365 59.411 35.533 59.411 34.2782V34.1929V34.1963V32.0625C59.2665 32.0526 59.1296 31.9936 59.0224 31.8952C58.9152 31.7967 58.844 31.6646 58.8204 31.5202V31.5167C57.4224 31.2473 56.1606 30.4948 55.2512 29.3883C54.3418 28.2817 53.8413 26.89 53.8356 25.4515V22.6252C51.4664 23.6537 48.6618 23.6742 46.49 24.5356C42.9564 25.9325 42.8754 28.0833 42.7674 28.4074C42.4974 29.2056 41.9776 30.374 41.8595 35.5625C41.8393 36.2448 41.8595 37.2903 43.8946 38.2046C48.326 39.9614 54.0347 40.5072 59.6625 40.8995H60.2025C65.842 40.5106 71.5424 39.9665 75.9703 38.2046C77.997 37.2955 78.0155 36.255 77.997 35.5659ZM53.223 33.4509H51.1204V35.5847H49.6186V33.4578H47.516V31.9397H49.6186V29.8145H51.1204V31.9397H53.223V33.4509Z" fill="url(#paint1_linear_2915_35038)"/>
<path d="M69.2084 30.621C69.2082 30.3182 69.0909 30.0261 68.8821 29.8121C68.6734 29.5981 68.3905 29.4779 68.0955 29.478C67.8005 29.4781 67.5176 29.5985 67.3091 29.8127C67.1006 30.0269 66.9834 30.3173 66.9834 30.6202C66.9834 30.923 67.1006 31.2134 67.3091 31.4276C67.5176 31.6418 67.8005 31.7622 68.0955 31.7623C68.3905 31.7624 68.6734 31.6422 68.8821 31.4282C69.0909 31.2142 69.2082 30.9239 69.2084 30.621Z" fill="url(#paint2_linear_2915_35038)"/>
<path d="M21.2576 9.30503C19.0281 10.9647 18.429 13.5925 18.5387 14.9909C18.6792 16.701 19.0259 18.9271 19.0259 18.9271C19.0259 18.9271 18.339 19.3003 18.339 20.8019C18.5782 24.5712 19.8378 22.9445 20.0968 24.5975C20.72 28.5798 22.1442 27.8707 22.1442 30.0441C22.1442 33.6641 20.652 35.3567 15.9932 37.3632C11.319 39.3785 6.5 41.9141 6.5 46.3047V48.5H46V46.3047C46 41.9141 41.1788 39.3785 36.5024 37.3654C31.8436 35.3589 30.3558 33.6685 30.3558 30.0463C30.3558 27.8729 31.7756 28.582 32.401 24.5997C32.6622 22.9467 33.9196 24.5734 34.1632 20.804C34.1632 19.3025 33.4741 18.9293 33.4741 18.9293C33.4741 18.9293 33.8208 16.7032 33.9591 14.9931C34.1017 13.1995 33.0857 9.37089 28.9119 8.19641C28.1811 7.45 25.5911 8.72539 27.8382 7.53334C22.9227 7.30283 22.597 8.30803 21.2576 9.30503Z" fill="url(#paint3_linear_2915_35038)"/>
<rect x="3" y="50.363" width="46.8821" height="9.13711" fill="url(#paint4_linear_2915_35038)"/>
<defs>
<linearGradient id="paint0_linear_2915_35038" x1="74.3854" y1="1.00797" x2="50.005" y2="-2.04061" gradientUnits="userSpaceOnUse">
<stop stop-color="#D65986"/>
<stop offset="1" stop-color="#A261F9"/>
</linearGradient>
<linearGradient id="paint1_linear_2915_35038" x1="93.3606" y1="23.2344" x2="46.7673" y2="0.939831" gradientUnits="userSpaceOnUse">
<stop stop-color="#D65986"/>
<stop offset="1" stop-color="#A261F9"/>
</linearGradient>
<linearGradient id="paint2_linear_2915_35038" x1="70.1541" y1="29.5542" x2="66.8145" y2="28.7672" gradientUnits="userSpaceOnUse">
<stop stop-color="#D65986"/>
<stop offset="1" stop-color="#A261F9"/>
</linearGradient>
<linearGradient id="paint3_linear_2915_35038" x1="62.7875" y1="8.86665" x2="3.43285" y2="-4.96756" gradientUnits="userSpaceOnUse">
<stop stop-color="#D65986"/>
<stop offset="1" stop-color="#A261F9"/>
</linearGradient>
<linearGradient id="paint4_linear_2915_35038" x1="69.807" y1="50.6676" x2="40.5752" y2="14.3816" gradientUnits="userSpaceOnUse">
<stop stop-color="#D65986"/>
<stop offset="1" stop-color="#A261F9"/>
</linearGradient>
</defs>
</svg>
