<svg width="987" height="485" fill="none" xmlns="http://www.w3.org/2000/svg"><g filter="url(#a)" fill="#fff"><mask id="b"><path d="M83.45 18c0-9.941 8.06-18 18.001-18h867.548c9.941 0 18 8.059 18 18v449c0 9.941-8.059 18-18 18H101.451c-9.941 0-18-8.059-18-18V337.493c0-7.908-5.902-14.572-13.752-15.528-93.044-11.323-92.708-146.097.164-158.752 7.768-1.059 13.588-7.697 13.588-15.536V18Z"/></mask><path d="M83.45 18c0-9.941 8.06-18 18.001-18h867.548c9.941 0 18 8.059 18 18v449c0 9.941-8.059 18-18 18H101.451c-9.941 0-18-8.059-18-18V337.493c0-7.908-5.902-14.572-13.752-15.528-93.044-11.323-92.708-146.097.164-158.752 7.768-1.059 13.588-7.697 13.588-15.536V18Z" fill-opacity=".3"/><path d="M101.451 2h867.548v-4H101.451v4Zm883.548 16v449h4V18h-4Zm-16 465H101.451v4h867.548v-4ZM85.451 467V337.493h-4V467h4Zm0-319.323V80.681h-4v66.996h4Zm0-66.996V18h-4v62.68h4Zm0 256.812c0-8.919-6.657-16.436-15.51-17.513l-.484 3.971a13.642 13.642 0 0 1 11.994 13.542h4ZM70.133 165.194c8.754-1.193 15.318-8.673 15.318-17.517h-4c0 6.834-5.077 12.63-11.858 13.554l.54 3.963Zm-.54-3.963c-47.58 6.484-71.466 44.329-71.53 81.854-.064 37.533 23.707 75.062 71.394 80.866l.483-3.971c-45.356-5.52-67.939-41.039-67.877-76.888.06-35.856 22.779-71.726 68.07-77.898l-.54-3.963ZM101.45 483c-8.837 0-16-7.163-16-16h-4c0 11.046 8.954 20 20 20v-4Zm883.548-16c0 8.837-7.164 16-16 16v4c11.045 0 20-8.954 20-20h-4Zm-16-465c8.836 0 16 7.163 16 16h4c0-11.046-8.955-20-20-20v4ZM101.451-2c-11.046 0-20 8.954-20 20h4c0-8.837 7.163-16 16-16v-4Z" mask="url(#b)"/></g><defs><filter id="a" x="-29.938" y="-30" width="1046.94" height="545" filterUnits="userSpaceOnUse" color-interpolation-filters="sRGB"><feFlood flood-opacity="0" result="BackgroundImageFix"/><feGaussianBlur in="BackgroundImageFix" stdDeviation="15"/><feComposite in2="SourceAlpha" operator="in" result="effect1_backgroundBlur_2535_25205"/><feBlend in="SourceGraphic" in2="effect1_backgroundBlur_2535_25205" result="shape"/></filter></defs></svg>