<svg width="1920" height="1356" viewBox="0 0 1920 1356" fill="none" xmlns="http://www.w3.org/2000/svg">
<g clip-path="url(#clip0_1522_6073)">
<g opacity="0.2" filter="url(#filter0_f_1522_6073)">
<path d="M1199.54 687.939C1411.02 666.267 1180.69 1023.56 1332.05 1036.81C1483.41 1050.06 1354.59 1341.66 1822.46 1345.96C2080.77 1348.33 2292.09 1311.28 2288.41 1129.08C2464.25 757.956 2219.24 161.595 1885.74 -57.8365C1540.56 -284.957 377.833 79.6483 -183.163 -318.552L-197.19 -328.762C-192.557 -325.304 -187.881 -321.901 -183.163 -318.552L1199.54 687.939Z" fill="#EAD3D4"/>
<path d="M1199.54 687.939C1411.02 666.267 1180.69 1023.56 1332.05 1036.81C1483.41 1050.06 1354.59 1341.66 1822.46 1345.96C2080.77 1348.33 2292.09 1311.28 2288.41 1129.08C2464.25 757.956 2219.24 161.595 1885.74 -57.8365C1540.56 -284.957 377.833 79.6483 -183.163 -318.552L-197.19 -328.762C-192.557 -325.304 -187.881 -321.901 -183.163 -318.552L1199.54 687.939Z" fill="url(#paint0_linear_1522_6073)"/>
</g>
<g filter="url(#filter1_f_1522_6073)">
<path d="M828.577 -186.223C939.419 -239.775 1178.58 -153.203 1224.54 -142.517L2001.47 199.763L2235.76 857.577C1723.78 786.278 267.903 1202.98 -44.144 1174.85C-466.756 1136.75 -752.658 752.302 -562.237 485.735C-380.952 231.956 415.097 137.013 526.059 102.839C637.021 68.666 685.051 -116.88 828.577 -186.223Z" fill="#CFC3EC"/>
<path d="M828.577 -186.223C939.419 -239.775 1178.58 -153.203 1224.54 -142.517L2001.47 199.763L2235.76 857.577C1723.78 786.278 267.903 1202.98 -44.144 1174.85C-466.756 1136.75 -752.658 752.302 -562.237 485.735C-380.952 231.956 415.097 137.013 526.059 102.839C637.021 68.666 685.051 -116.88 828.577 -186.223Z" fill="white" fill-opacity="0.2"/>
<path d="M828.577 -186.223C939.419 -239.775 1178.58 -153.203 1224.54 -142.517L2001.47 199.763L2235.76 857.577C1723.78 786.278 267.903 1202.98 -44.144 1174.85C-466.756 1136.75 -752.658 752.302 -562.237 485.735C-380.952 231.956 415.097 137.013 526.059 102.839C637.021 68.666 685.051 -116.88 828.577 -186.223Z" fill="url(#paint1_linear_1522_6073)"/>
<path d="M828.577 -186.223C939.419 -239.775 1178.58 -153.203 1224.54 -142.517L2001.47 199.763L2235.76 857.577C1723.78 786.278 267.903 1202.98 -44.144 1174.85C-466.756 1136.75 -752.658 752.302 -562.237 485.735C-380.952 231.956 415.097 137.013 526.059 102.839C637.021 68.666 685.051 -116.88 828.577 -186.223Z" fill="url(#paint2_linear_1522_6073)" fill-opacity="0.8"/>
<path d="M828.577 -186.223C939.419 -239.775 1178.58 -153.203 1224.54 -142.517L2001.47 199.763L2235.76 857.577C1723.78 786.278 267.903 1202.98 -44.144 1174.85C-466.756 1136.75 -752.658 752.302 -562.237 485.735C-380.952 231.956 415.097 137.013 526.059 102.839C637.021 68.666 685.051 -116.88 828.577 -186.223Z" fill="url(#paint3_linear_1522_6073)"/>
<path d="M828.577 -186.223C939.419 -239.775 1178.58 -153.203 1224.54 -142.517L2001.47 199.763L2235.76 857.577C1723.78 786.278 267.903 1202.98 -44.144 1174.85C-466.756 1136.75 -752.658 752.302 -562.237 485.735C-380.952 231.956 415.097 137.013 526.059 102.839C637.021 68.666 685.051 -116.88 828.577 -186.223Z" fill="url(#paint4_linear_1522_6073)" fill-opacity="0.3"/>
<path d="M828.577 -186.223C939.419 -239.775 1178.58 -153.203 1224.54 -142.517L2001.47 199.763L2235.76 857.577C1723.78 786.278 267.903 1202.98 -44.144 1174.85C-466.756 1136.75 -752.658 752.302 -562.237 485.735C-380.952 231.956 415.097 137.013 526.059 102.839C637.021 68.666 685.051 -116.88 828.577 -186.223Z" fill="url(#paint5_radial_1522_6073)" fill-opacity="0.5"/>
</g>
</g>
<defs>
<filter id="filter0_f_1522_6073" x="-397.191" y="-528.762" width="2944.18" height="2074.83" filterUnits="userSpaceOnUse" color-interpolation-filters="sRGB">
<feFlood flood-opacity="0" result="BackgroundImageFix"/>
<feBlend mode="normal" in="SourceGraphic" in2="BackgroundImageFix" result="shape"/>
<feGaussianBlur stdDeviation="100" result="effect1_foregroundBlur_1522_6073"/>
</filter>
<filter id="filter1_f_1522_6073" x="-822.383" y="-403.567" width="3258.14" height="1779.78" filterUnits="userSpaceOnUse" color-interpolation-filters="sRGB">
<feFlood flood-opacity="0" result="BackgroundImageFix"/>
<feBlend mode="normal" in="SourceGraphic" in2="BackgroundImageFix" result="shape"/>
<feGaussianBlur stdDeviation="100" result="effect1_foregroundBlur_1522_6073"/>
</filter>
<linearGradient id="paint0_linear_1522_6073" x1="2007.05" y1="1279.27" x2="1114.95" y2="720.277" gradientUnits="userSpaceOnUse">
<stop stop-color="#F8F8F8"/>
<stop offset="1" stop-color="#FF3641"/>
<stop offset="1" stop-color="#FCD8D0" stop-opacity="0"/>
</linearGradient>
<linearGradient id="paint1_linear_1522_6073" x1="-399.669" y1="274.703" x2="147.259" y2="608.281" gradientUnits="userSpaceOnUse">
<stop stop-color="#E0DAFD"/>
<stop offset="1" stop-color="#E0DAFD" stop-opacity="0"/>
</linearGradient>
<linearGradient id="paint2_linear_1522_6073" x1="950.701" y1="312.568" x2="730.101" y2="799.166" gradientUnits="userSpaceOnUse">
<stop stop-color="#E7DDFF"/>
<stop offset="1" stop-color="#E7DDFF" stop-opacity="0"/>
</linearGradient>
<linearGradient id="paint3_linear_1522_6073" x1="1302.95" y1="278.212" x2="967.636" y2="752.768" gradientUnits="userSpaceOnUse">
<stop stop-color="#EFE6FF"/>
<stop offset="1" stop-color="#EFE6FF" stop-opacity="0"/>
</linearGradient>
<linearGradient id="paint4_linear_1522_6073" x1="328.637" y1="153.077" x2="405.748" y2="420.675" gradientUnits="userSpaceOnUse">
<stop stop-color="#EEEAFF"/>
<stop offset="1" stop-color="#EEEAFF" stop-opacity="0"/>
</linearGradient>
<radialGradient id="paint5_radial_1522_6073" cx="0" cy="0" r="1" gradientUnits="userSpaceOnUse" gradientTransform="translate(1285.58 325.347) rotate(141.321) scale(361.799 497.129)">
<stop stop-color="white"/>
<stop offset="1" stop-color="white" stop-opacity="0"/>
</radialGradient>
<clipPath id="clip0_1522_6073">
<rect width="1920" height="6649" fill="white"/>
</clipPath>
</defs>
</svg>
