<svg width="1920" height="6299" viewBox="0 0 1920 6299" fill="none" xmlns="http://www.w3.org/2000/svg">
<g clip-path="url(#clip0_1029_6396)">
<g opacity="0.1" filter="url(#filter0_f_1029_6396)">
<path d="M471.68 4372.18C280.904 4466.15 372.743 4049.86 226.206 4090.06C79.6683 4130.25 99.1401 3811.08 -341.091 3969.82C-584.14 4057.46 -769.426 4165.85 -702.667 4335.98C-738.598 4746.33 -301.633 5222.16 87.3421 5312.58C489.948 5406.16 1453.58 4658.59 2118 4838.04L2134.7 4842.77C2129.16 4841.13 2123.59 4839.55 2118 4838.04L471.68 4372.18Z" fill="#EAD3D4"/>
<path d="M471.68 4372.18C280.904 4466.15 372.743 4049.86 226.206 4090.06C79.6683 4130.25 99.1401 3811.08 -341.091 3969.82C-584.14 4057.46 -769.426 4165.85 -702.667 4335.98C-738.598 4746.33 -301.633 5222.16 87.3421 5312.58C489.948 5406.16 1453.58 4658.59 2118 4838.04L2134.7 4842.77C2129.16 4841.13 2123.59 4839.55 2118 4838.04L471.68 4372.18Z" fill="url(#paint0_linear_1029_6396)"/>
</g>
<g filter="url(#filter1_f_1029_6396)">
<path d="M824.421 5337.87C724.149 5368.47 528.42 5290.72 490.2 5280.01L-139.393 4984.03L-272.649 4500.3C157.981 4585.62 1445.78 4387.64 1709.81 4428.74C2067.39 4484.41 2272.7 4777.19 2082.61 4953.93C1901.65 5122.18 1771.6 5037.99 1736.37 5095.3C1661.24 5217.51 954.262 5298.25 824.421 5337.87Z" fill="#CFC3EC"/>
<path d="M824.421 5337.87C724.149 5368.47 528.42 5290.72 490.2 5280.01L-139.393 4984.03L-272.649 4500.3C157.981 4585.62 1445.78 4387.64 1709.81 4428.74C2067.39 4484.41 2272.7 4777.19 2082.61 4953.93C1901.65 5122.18 1771.6 5037.99 1736.37 5095.3C1661.24 5217.51 954.262 5298.25 824.421 5337.87Z" fill="white" fill-opacity="0.2"/>
<path d="M824.421 5337.87C724.149 5368.47 528.42 5290.72 490.2 5280.01L-139.393 4984.03L-272.649 4500.3C157.981 4585.62 1445.78 4387.64 1709.81 4428.74C2067.39 4484.41 2272.7 4777.19 2082.61 4953.93C1901.65 5122.18 1771.6 5037.99 1736.37 5095.3C1661.24 5217.51 954.262 5298.25 824.421 5337.87Z" fill="url(#paint1_linear_1029_6396)"/>
<path d="M824.421 5337.87C724.149 5368.47 528.42 5290.72 490.2 5280.01L-139.393 4984.03L-272.649 4500.3C157.981 4585.62 1445.78 4387.64 1709.81 4428.74C2067.39 4484.41 2272.7 4777.19 2082.61 4953.93C1901.65 5122.18 1771.6 5037.99 1736.37 5095.3C1661.24 5217.51 954.262 5298.25 824.421 5337.87Z" fill="url(#paint2_linear_1029_6396)" fill-opacity="0.8"/>
<path d="M824.421 5337.87C724.149 5368.47 528.42 5290.72 490.2 5280.01L-139.393 4984.03L-272.649 4500.3C157.981 4585.62 1445.78 4387.64 1709.81 4428.74C2067.39 4484.41 2272.7 4777.19 2082.61 4953.93C1901.65 5122.18 1771.6 5037.99 1736.37 5095.3C1661.24 5217.51 954.262 5298.25 824.421 5337.87Z" fill="url(#paint3_linear_1029_6396)"/>
<path d="M824.421 5337.87C724.149 5368.47 528.42 5290.72 490.2 5280.01L-139.393 4984.03L-272.649 4500.3C157.981 4585.62 1445.78 4387.64 1709.81 4428.74C2067.39 4484.41 2272.7 4777.19 2082.61 4953.93C1901.65 5122.18 1771.6 5037.99 1736.37 5095.3C1661.24 5217.51 954.262 5298.25 824.421 5337.87Z" fill="url(#paint4_linear_1029_6396)" fill-opacity="0.3"/>
<path d="M824.421 5337.87C724.149 5368.47 528.42 5290.72 490.2 5280.01L-139.393 4984.03L-272.649 4500.3C157.981 4585.62 1445.78 4387.64 1709.81 4428.74C2067.39 4484.41 2272.7 4777.19 2082.61 4953.93C1901.65 5122.18 1771.6 5037.99 1736.37 5095.3C1661.24 5217.51 954.262 5298.25 824.421 5337.87Z" fill="url(#paint5_radial_1029_6396)" fill-opacity="0.5"/>
</g>
<g opacity="0.1" filter="url(#filter2_f_1029_6396)">
<path d="M798.328 2586.01C1008.67 2617.35 794.313 2248.87 946.13 2242.49C1097.95 2236.11 982.118 1938.06 1449.78 1955.06C1707.98 1964.45 1917.49 2011.2 1905.76 2193.59C2065.06 2573.46 1793.92 3159.84 1451.01 3364.51C1096.09 3576.36 -49.5529 3158.07 -627.661 3531.5L-642.127 3541.1C-637.346 3537.84 -632.524 3534.65 -627.661 3531.5L798.328 2586.01Z" fill="#EAD3D4"/>
<path d="M798.328 2586.01C1008.67 2617.35 794.313 2248.87 946.13 2242.49C1097.95 2236.11 982.118 1938.06 1449.78 1955.06C1707.98 1964.45 1917.49 2011.2 1905.76 2193.59C2065.06 2573.46 1793.92 3159.84 1451.01 3364.51C1096.09 3576.36 -49.5529 3158.07 -627.661 3531.5L-642.127 3541.1C-637.346 3537.84 -632.524 3534.65 -627.661 3531.5L798.328 2586.01Z" fill="url(#paint6_linear_1029_6396)"/>
</g>
<g filter="url(#filter3_f_1029_6396)">
<path d="M852.579 3414.74C753.058 3457.16 554.53 3335.39 515.903 3318.27L-124.119 2858.28L-272.651 2134.3C161.477 2274.63 1445.67 2019.98 1711.5 2089.34C2071.52 2183.27 2286.31 2625.34 2101.34 2882.44C1925.24 3127.21 1792.32 2997.88 1758.8 3082.07C1687.31 3261.61 981.446 3359.81 852.579 3414.74Z" fill="#CFC3EC"/>
<path d="M852.579 3414.74C753.058 3457.16 554.53 3335.39 515.903 3318.27L-124.119 2858.28L-272.651 2134.3C161.477 2274.63 1445.67 2019.98 1711.5 2089.34C2071.52 2183.27 2286.31 2625.34 2101.34 2882.44C1925.24 3127.21 1792.32 2997.88 1758.8 3082.07C1687.31 3261.61 981.446 3359.81 852.579 3414.74Z" fill="white" fill-opacity="0.2"/>
<path d="M852.579 3414.74C753.058 3457.16 554.53 3335.39 515.903 3318.27L-124.119 2858.28L-272.651 2134.3C161.477 2274.63 1445.67 2019.98 1711.5 2089.34C2071.52 2183.27 2286.31 2625.34 2101.34 2882.44C1925.24 3127.21 1792.32 2997.88 1758.8 3082.07C1687.31 3261.61 981.446 3359.81 852.579 3414.74Z" fill="url(#paint7_linear_1029_6396)"/>
<path d="M852.579 3414.74C753.058 3457.16 554.53 3335.39 515.903 3318.27L-124.119 2858.28L-272.651 2134.3C161.477 2274.63 1445.67 2019.98 1711.5 2089.34C2071.52 2183.27 2286.31 2625.34 2101.34 2882.44C1925.24 3127.21 1792.32 2997.88 1758.8 3082.07C1687.31 3261.61 981.446 3359.81 852.579 3414.74Z" fill="url(#paint8_linear_1029_6396)" fill-opacity="0.8"/>
<path d="M852.579 3414.74C753.058 3457.16 554.53 3335.39 515.903 3318.27L-124.119 2858.28L-272.651 2134.3C161.477 2274.63 1445.67 2019.98 1711.5 2089.34C2071.52 2183.27 2286.31 2625.34 2101.34 2882.44C1925.24 3127.21 1792.32 2997.88 1758.8 3082.07C1687.31 3261.61 981.446 3359.81 852.579 3414.74Z" fill="url(#paint9_linear_1029_6396)"/>
<path d="M852.579 3414.74C753.058 3457.16 554.53 3335.39 515.903 3318.27L-124.119 2858.28L-272.651 2134.3C161.477 2274.63 1445.67 2019.98 1711.5 2089.34C2071.52 2183.27 2286.31 2625.34 2101.34 2882.44C1925.24 3127.21 1792.32 2997.88 1758.8 3082.07C1687.31 3261.61 981.446 3359.81 852.579 3414.74Z" fill="url(#paint10_linear_1029_6396)" fill-opacity="0.3"/>
<path d="M852.579 3414.74C753.058 3457.16 554.53 3335.39 515.903 3318.27L-124.119 2858.28L-272.651 2134.3C161.477 2274.63 1445.67 2019.98 1711.5 2089.34C2071.52 2183.27 2286.31 2625.34 2101.34 2882.44C1925.24 3127.21 1792.32 2997.88 1758.8 3082.07C1687.31 3261.61 981.446 3359.81 852.579 3414.74Z" fill="url(#paint11_radial_1029_6396)" fill-opacity="0.5"/>
</g>
<g opacity="0.2" filter="url(#filter4_f_1029_6396)">
<path d="M1199.54 687.939C1411.02 666.267 1180.69 1023.56 1332.05 1036.81C1483.41 1050.06 1354.59 1341.66 1822.46 1345.96C2080.77 1348.33 2292.09 1311.28 2288.41 1129.08C2464.25 757.956 2219.24 161.595 1885.74 -57.8365C1540.56 -284.957 377.833 79.6483 -183.163 -318.552L-197.19 -328.762C-192.557 -325.304 -187.881 -321.901 -183.163 -318.552L1199.54 687.939Z" fill="#EAD3D4"/>
<path d="M1199.54 687.939C1411.02 666.267 1180.69 1023.56 1332.05 1036.81C1483.41 1050.06 1354.59 1341.66 1822.46 1345.96C2080.77 1348.33 2292.09 1311.28 2288.41 1129.08C2464.25 757.956 2219.24 161.595 1885.74 -57.8365C1540.56 -284.957 377.833 79.6483 -183.163 -318.552L-197.19 -328.762C-192.557 -325.304 -187.881 -321.901 -183.163 -318.552L1199.54 687.939Z" fill="url(#paint12_linear_1029_6396)"/>
</g>
<g filter="url(#filter5_f_1029_6396)">
<path d="M828.577 -186.223C939.419 -239.775 1178.58 -153.203 1224.54 -142.517L2001.47 199.763L2235.76 857.577C1723.78 786.278 267.903 1202.98 -44.144 1174.85C-466.756 1136.75 -752.658 752.302 -562.237 485.735C-380.952 231.956 415.097 137.013 526.059 102.839C637.021 68.666 685.051 -116.88 828.577 -186.223Z" fill="#CFC3EC"/>
<path d="M828.577 -186.223C939.419 -239.775 1178.58 -153.203 1224.54 -142.517L2001.47 199.763L2235.76 857.577C1723.78 786.278 267.903 1202.98 -44.144 1174.85C-466.756 1136.75 -752.658 752.302 -562.237 485.735C-380.952 231.956 415.097 137.013 526.059 102.839C637.021 68.666 685.051 -116.88 828.577 -186.223Z" fill="white" fill-opacity="0.2"/>
<path d="M828.577 -186.223C939.419 -239.775 1178.58 -153.203 1224.54 -142.517L2001.47 199.763L2235.76 857.577C1723.78 786.278 267.903 1202.98 -44.144 1174.85C-466.756 1136.75 -752.658 752.302 -562.237 485.735C-380.952 231.956 415.097 137.013 526.059 102.839C637.021 68.666 685.051 -116.88 828.577 -186.223Z" fill="url(#paint13_linear_1029_6396)"/>
<path d="M828.577 -186.223C939.419 -239.775 1178.58 -153.203 1224.54 -142.517L2001.47 199.763L2235.76 857.577C1723.78 786.278 267.903 1202.98 -44.144 1174.85C-466.756 1136.75 -752.658 752.302 -562.237 485.735C-380.952 231.956 415.097 137.013 526.059 102.839C637.021 68.666 685.051 -116.88 828.577 -186.223Z" fill="url(#paint14_linear_1029_6396)" fill-opacity="0.8"/>
<path d="M828.577 -186.223C939.419 -239.775 1178.58 -153.203 1224.54 -142.517L2001.47 199.763L2235.76 857.577C1723.78 786.278 267.903 1202.98 -44.144 1174.85C-466.756 1136.75 -752.658 752.302 -562.237 485.735C-380.952 231.956 415.097 137.013 526.059 102.839C637.021 68.666 685.051 -116.88 828.577 -186.223Z" fill="url(#paint15_linear_1029_6396)"/>
<path d="M828.577 -186.223C939.419 -239.775 1178.58 -153.203 1224.54 -142.517L2001.47 199.763L2235.76 857.577C1723.78 786.278 267.903 1202.98 -44.144 1174.85C-466.756 1136.75 -752.658 752.302 -562.237 485.735C-380.952 231.956 415.097 137.013 526.059 102.839C637.021 68.666 685.051 -116.88 828.577 -186.223Z" fill="url(#paint16_linear_1029_6396)" fill-opacity="0.3"/>
<path d="M828.577 -186.223C939.419 -239.775 1178.58 -153.203 1224.54 -142.517L2001.47 199.763L2235.76 857.577C1723.78 786.278 267.903 1202.98 -44.144 1174.85C-466.756 1136.75 -752.658 752.302 -562.237 485.735C-380.952 231.956 415.097 137.013 526.059 102.839C637.021 68.666 685.051 -116.88 828.577 -186.223Z" fill="url(#paint17_radial_1029_6396)" fill-opacity="0.5"/>
</g>
</g>
<defs>
<filter id="filter0_f_1029_6396" x="-916.418" y="3725.23" width="3251.12" height="1795.49" filterUnits="userSpaceOnUse" color-interpolation-filters="sRGB">
<feFlood flood-opacity="0" result="BackgroundImageFix"/>
<feBlend mode="normal" in="SourceGraphic" in2="BackgroundImageFix" result="shape"/>
<feGaussianBlur stdDeviation="100" result="effect1_foregroundBlur_1029_6396"/>
</filter>
<filter id="filter1_f_1029_6396" x="-472.648" y="4223.05" width="2827.62" height="1321.9" filterUnits="userSpaceOnUse" color-interpolation-filters="sRGB">
<feFlood flood-opacity="0" result="BackgroundImageFix"/>
<feBlend mode="normal" in="SourceGraphic" in2="BackgroundImageFix" result="shape"/>
<feGaussianBlur stdDeviation="100" result="effect1_foregroundBlur_1029_6396"/>
</filter>
<filter id="filter2_f_1029_6396" x="-842.127" y="1754.36" width="2994.69" height="1986.74" filterUnits="userSpaceOnUse" color-interpolation-filters="sRGB">
<feFlood flood-opacity="0" result="BackgroundImageFix"/>
<feBlend mode="normal" in="SourceGraphic" in2="BackgroundImageFix" result="shape"/>
<feGaussianBlur stdDeviation="100" result="effect1_foregroundBlur_1029_6396"/>
</filter>
<filter id="filter3_f_1029_6396" x="-472.65" y="1877.11" width="2841.74" height="1746.54" filterUnits="userSpaceOnUse" color-interpolation-filters="sRGB">
<feFlood flood-opacity="0" result="BackgroundImageFix"/>
<feBlend mode="normal" in="SourceGraphic" in2="BackgroundImageFix" result="shape"/>
<feGaussianBlur stdDeviation="100" result="effect1_foregroundBlur_1029_6396"/>
</filter>
<filter id="filter4_f_1029_6396" x="-397.189" y="-528.762" width="2944.18" height="2074.83" filterUnits="userSpaceOnUse" color-interpolation-filters="sRGB">
<feFlood flood-opacity="0" result="BackgroundImageFix"/>
<feBlend mode="normal" in="SourceGraphic" in2="BackgroundImageFix" result="shape"/>
<feGaussianBlur stdDeviation="100" result="effect1_foregroundBlur_1029_6396"/>
</filter>
<filter id="filter5_f_1029_6396" x="-822.383" y="-403.567" width="3258.14" height="1779.78" filterUnits="userSpaceOnUse" color-interpolation-filters="sRGB">
<feFlood flood-opacity="0" result="BackgroundImageFix"/>
<feBlend mode="normal" in="SourceGraphic" in2="BackgroundImageFix" result="shape"/>
<feGaussianBlur stdDeviation="100" result="effect1_foregroundBlur_1029_6396"/>
</filter>
<linearGradient id="paint0_linear_1029_6396" x1="-491.014" y1="4096.79" x2="540.16" y2="4310.45" gradientUnits="userSpaceOnUse">
<stop stop-color="#F8F8F8"/>
<stop offset="1" stop-color="#FF3641"/>
<stop offset="1" stop-color="#FCD8D0" stop-opacity="0"/>
</linearGradient>
<linearGradient id="paint1_linear_1029_6396" x1="1922.03" y1="5093.04" x2="1552.87" y2="4749.4" gradientUnits="userSpaceOnUse">
<stop stop-color="#E0DAFD"/>
<stop offset="1" stop-color="#E0DAFD" stop-opacity="0"/>
</linearGradient>
<linearGradient id="paint2_linear_1029_6396" x1="770.874" y1="4974.83" x2="945.391" y2="4612.85" gradientUnits="userSpaceOnUse">
<stop stop-color="#E7DDFF"/>
<stop offset="1" stop-color="#E7DDFF" stop-opacity="0"/>
</linearGradient>
<linearGradient id="paint3_linear_1029_6396" x1="466.078" y1="4975.45" x2="732.035" y2="4610.13" gradientUnits="userSpaceOnUse">
<stop stop-color="#EFE6FF"/>
<stop offset="1" stop-color="#EFE6FF" stop-opacity="0"/>
</linearGradient>
<linearGradient id="paint4_linear_1029_6396" x1="1286.67" y1="5130.32" x2="1256.11" y2="4933.51" gradientUnits="userSpaceOnUse">
<stop stop-color="#EEEAFF"/>
<stop offset="1" stop-color="#EEEAFF" stop-opacity="0"/>
</linearGradient>
<radialGradient id="paint5_radial_1029_6396" cx="0" cy="0" r="1" gradientUnits="userSpaceOnUse" gradientTransform="translate(485.746 4943.1) rotate(-28.1713) scale(300.223 368.615)">
<stop stop-color="white"/>
<stop offset="1" stop-color="white" stop-opacity="0"/>
</radialGradient>
<linearGradient id="paint6_linear_1029_6396" x1="1631.27" y1="2030.29" x2="714.291" y2="2548.09" gradientUnits="userSpaceOnUse">
<stop stop-color="#F8F8F8"/>
<stop offset="1" stop-color="#FF3641"/>
<stop offset="1" stop-color="#FCD8D0" stop-opacity="0"/>
</linearGradient>
<linearGradient id="paint7_linear_1029_6396" x1="1944.75" y1="3084.48" x2="1435.55" y2="2769.84" gradientUnits="userSpaceOnUse">
<stop stop-color="#E0DAFD"/>
<stop offset="1" stop-color="#E0DAFD" stop-opacity="0"/>
</linearGradient>
<linearGradient id="paint8_linear_1029_6396" x1="787.659" y1="2872.83" x2="1099.72" y2="2448.84" gradientUnits="userSpaceOnUse">
<stop stop-color="#E7DDFF"/>
<stop offset="1" stop-color="#E7DDFF" stop-opacity="0"/>
</linearGradient>
<linearGradient id="paint9_linear_1029_6396" x1="482.28" y1="2864.3" x2="887.297" y2="2491.93" gradientUnits="userSpaceOnUse">
<stop stop-color="#EFE6FF"/>
<stop offset="1" stop-color="#EFE6FF" stop-opacity="0"/>
</linearGradient>
<linearGradient id="paint10_linear_1029_6396" x1="1309.3" y1="3120.23" x2="1251.22" y2="2830.7" gradientUnits="userSpaceOnUse">
<stop stop-color="#EEEAFF"/>
<stop offset="1" stop-color="#EEEAFF" stop-opacity="0"/>
</linearGradient>
<radialGradient id="paint11_radial_1029_6396" cx="0" cy="0" r="1" gradientUnits="userSpaceOnUse" gradientTransform="translate(500.983 2816.77) rotate(-37.8582) scale(330.299 499.25)">
<stop stop-color="white"/>
<stop offset="1" stop-color="white" stop-opacity="0"/>
</radialGradient>
<linearGradient id="paint12_linear_1029_6396" x1="2007.05" y1="1279.27" x2="1114.95" y2="720.277" gradientUnits="userSpaceOnUse">
<stop stop-color="#F8F8F8"/>
<stop offset="1" stop-color="#FF3641"/>
<stop offset="1" stop-color="#FCD8D0" stop-opacity="0"/>
</linearGradient>
<linearGradient id="paint13_linear_1029_6396" x1="-399.669" y1="274.703" x2="147.259" y2="608.281" gradientUnits="userSpaceOnUse">
<stop stop-color="#E0DAFD"/>
<stop offset="1" stop-color="#E0DAFD" stop-opacity="0"/>
</linearGradient>
<linearGradient id="paint14_linear_1029_6396" x1="950.701" y1="312.568" x2="730.101" y2="799.166" gradientUnits="userSpaceOnUse">
<stop stop-color="#E7DDFF"/>
<stop offset="1" stop-color="#E7DDFF" stop-opacity="0"/>
</linearGradient>
<linearGradient id="paint15_linear_1029_6396" x1="1302.95" y1="278.212" x2="967.636" y2="752.768" gradientUnits="userSpaceOnUse">
<stop stop-color="#EFE6FF"/>
<stop offset="1" stop-color="#EFE6FF" stop-opacity="0"/>
</linearGradient>
<linearGradient id="paint16_linear_1029_6396" x1="328.637" y1="153.077" x2="405.748" y2="420.675" gradientUnits="userSpaceOnUse">
<stop stop-color="#EEEAFF"/>
<stop offset="1" stop-color="#EEEAFF" stop-opacity="0"/>
</linearGradient>
<radialGradient id="paint17_radial_1029_6396" cx="0" cy="0" r="1" gradientUnits="userSpaceOnUse" gradientTransform="translate(1285.58 325.347) rotate(141.321) scale(361.799 497.129)">
<stop stop-color="white"/>
<stop offset="1" stop-color="white" stop-opacity="0"/>
</radialGradient>
<clipPath id="clip0_1029_6396">
<rect width="1920" height="6649" fill="white"/>
</clipPath>
</defs>
</svg>
