<svg width="400" height="109" viewBox="0 0 400 109" fill="none" xmlns="http://www.w3.org/2000/svg">
<g clip-path="url(#clip0_2057_17758)">
<path d="M73.8638 130.777L74.2402 130.681C82.1916 128.654 89.7029 125.787 95.4359 122.466L95.6865 122.899L95.4359 122.466C100.661 119.44 105.077 113.531 108.539 106.877C111.994 100.235 114.464 92.9186 115.831 87.1622L115.831 87.1612C116.927 82.5888 118.344 75.9062 118.272 70.9161C107.719 66.3963 96.1384 62.2866 84.8276 61.5784C73.4317 60.865 62.3245 63.6042 52.8044 72.8688L52.5295 73.1363L52.2 72.9402C51.6957 72.6401 51.1725 72.3567 50.6388 72.0677L49.9865 71.7146L50.5586 71.2425C51.9228 70.1163 53.0957 69.2992 54.0784 68.6146C54.1339 68.5759 54.1889 68.5376 54.2432 68.4997C55.2682 67.785 56.0472 67.2288 56.6507 66.5962C57.8055 65.3854 58.3773 63.831 58.3773 60.0664C58.3773 50.2907 53.8086 41.8161 47.4873 34.2957C41.956 27.7152 35.1218 21.9089 28.9036 16.6259C28.1218 15.9617 27.3497 15.3057 26.5912 14.6575C24.7131 16.2474 22.524 17.9032 20.1971 19.6632C19.1737 20.4374 18.1236 21.2317 17.0616 22.0493C13.4312 24.8446 9.63481 27.9326 6.18431 31.4881C-0.710922 38.593 -6.20515 47.5422 -6.20515 59.7063C-6.20515 63.4661 -5.57254 65.0609 -4.42479 66.3157C-3.84049 66.9545 -3.1109 67.5186 -2.18833 68.2319L-2.11855 68.2858C-1.17176 69.018 -0.0554199 69.888 1.21538 71.1049L1.71683 71.585L1.10246 71.9084C0.621735 72.1615 0.152893 72.4084 -0.296898 72.6718L-0.642273 72.8741L-0.915253 72.5814C-6.5008 66.592 -16.474 62.0516 -24.5682 61.4837L-24.5687 61.4836C-29.5522 61.1286 -38.2552 62.1608 -46.6192 64.0145C-50.7942 64.9398 -54.8677 66.0661 -58.3323 67.3178C-61.6826 68.5283 -64.4224 69.8417 -66.1401 71.1794C-65.9975 75.7788 -64.6201 81.7215 -63.5667 86.2664C-63.5074 86.5225 -63.449 86.7741 -63.392 87.0209C-61.1474 96.6919 -58.0261 105.399 -52.5896 113.508L-52.5893 113.509C-51.6432 114.923 -50.0146 116.735 -48.2104 118.426C-46.406 120.117 -44.4613 121.654 -42.8964 122.535L-42.896 122.536C-38.3386 125.108 -28.5171 129.125 -23.062 130.518L73.8638 130.777ZM73.8638 130.777V131.094C73.6446 131.689 73.41 132.282 73.1602 132.857L72.7689 133.757L73.7272 133.544C75.2066 133.215 76.9926 132.693 78.8323 132.156C79.5853 131.936 80.3474 131.713 81.1011 131.5C83.6334 130.784 86.0677 130.176 87.8786 130.071C92.6242 134.333 96.7361 141.453 99.6747 149.09C102.585 156.654 104.317 164.652 104.391 170.754L90.752 175.498C90.7517 175.498 90.7514 175.498 90.751 175.498C86.3854 176.999 80.4591 178.354 75.2371 178.497L75.2364 178.497C65.4196 178.779 55.7666 175.163 49.2099 167.535C49.1558 163.933 49.048 161.312 48.7659 158.859L48.685 158.157L48.0496 158.467C47.5797 158.697 47.1103 158.909 46.6412 159.103L46.2921 159.247L46.3356 159.622L46.3711 159.929L46.3714 159.931C47.2129 166.897 44.8755 173.333 40.9884 179.046C37.1741 184.652 31.8856 189.535 26.7175 193.494C26.3856 193.238 26.0557 192.984 25.7279 192.732C19.9184 188.261 14.7762 184.304 11.175 179.567C7.33533 174.517 5.24685 168.574 6.08577 160.155L6.08823 160.13V160.105V159.961V159.622L5.77345 159.497C5.28516 159.302 4.79558 159.089 4.29761 158.872L3.66045 158.595L3.60002 159.287C3.3494 162.159 3.31359 165.139 3.5641 168.319C3.57675 168.485 3.51232 168.736 3.29309 169.086C3.07866 169.429 2.74762 169.815 2.31525 170.233C1.45161 171.069 0.242889 171.976 -1.06655 172.849C-3.68451 174.596 -6.62665 176.157 -7.81299 176.685L-7.81418 176.685C-13.1586 179.078 -21.2162 178.906 -29.2587 177.422C-37.1282 175.97 -44.8687 173.283 -49.8231 170.658C-48.7788 155.752 -44.2858 140.562 -33.4721 130.19C-33.1055 130.24 -32.5388 130.364 -31.8236 130.548C-30.9711 130.766 -29.9522 131.057 -28.8997 131.364C-28.4329 131.5 -27.9586 131.64 -27.4896 131.778C-25.8572 132.259 -24.2879 132.722 -23.3166 132.949L-23.3161 132.949L-22.4646 133.147L-21.5369 133.363L-21.8861 132.476C-21.9346 132.353 -21.9828 132.232 -22.0305 132.112C-22.1947 131.698 -22.3532 131.299 -22.5019 130.887L-22.592 130.638L-22.8491 130.572L-23.0613 130.519L73.8638 130.777ZM48.3269 159.444C48.5678 161.764 48.6632 164.293 48.7126 167.723C55.3826 175.575 65.2457 179.284 75.2507 178.996C80.5371 178.852 86.5152 177.484 90.9146 175.971L104.893 171.108C104.875 158.664 97.8507 138.206 88.0586 129.562L48.3269 159.444ZM48.3269 159.444C48.3808 159.418 48.4348 159.392 48.4887 159.366L48.2692 158.917L47.7724 158.974C47.7789 159.03 47.7854 159.087 47.7917 159.144C47.4719 159.292 47.1521 159.433 46.8323 159.565L46.8678 159.871C48.5885 174.116 37.2885 186.092 26.7158 194.124C26.2764 193.785 25.8399 193.449 25.4067 193.116L48.3269 159.444Z" fill="white" fill-opacity="0.3" stroke="white"/>
<path d="M329.467 -77.3576C329.205 -79.8836 329.101 -82.6366 329.047 -86.3712C321.785 -94.9202 311.046 -98.9594 300.153 -98.6456C294.397 -98.4888 287.888 -96.9986 283.098 -95.3515L329.467 -77.3576ZM329.467 -77.3576C329.408 -77.3293 329.35 -77.3009 329.291 -77.2722L329.53 -76.7831L330.071 -76.8453C330.064 -76.907 330.057 -76.9688 330.05 -77.0307C330.398 -77.1922 330.746 -77.3449 331.094 -77.4889L331.056 -77.8223C329.182 -93.3319 341.486 -106.371 352.997 -115.116C353.475 -114.747 353.951 -114.381 354.422 -114.018C367.506 -103.951 377.79 -96.0374 376 -78.0772L329.467 -77.3576ZM301.253 -46.0401L301.663 -46.1446V-46.4904C301.902 -47.1382 302.157 -47.7834 302.429 -48.4094L302.855 -49.3897L301.812 -49.1579C300.201 -48.7999 298.256 -48.2316 296.253 -47.6463C295.433 -47.4067 294.604 -47.1642 293.783 -46.9321C291.026 -46.1524 288.375 -45.491 286.404 -45.3769C281.237 -50.0171 276.76 -57.7695 273.56 -66.084C270.391 -74.3193 268.506 -83.0281 268.426 -89.6714L283.275 -94.8367C288.029 -96.4712 294.482 -97.9465 300.168 -98.1014L300.168 -98.1015C310.857 -98.4093 321.367 -94.4717 328.506 -86.1669C328.565 -82.2446 328.682 -79.3907 328.989 -76.7208L329.077 -75.9558L329.769 -76.294C330.281 -76.544 330.792 -76.7746 331.302 -76.9859L331.683 -77.1431L331.635 -77.5516L331.597 -77.8849L331.596 -77.8876C330.68 -85.4726 333.225 -92.4792 337.457 -98.6997C341.61 -104.804 347.368 -110.12 352.995 -114.43C353.356 -114.152 353.716 -113.875 354.073 -113.601C360.398 -108.733 365.997 -104.424 369.918 -99.2671C374.098 -93.7685 376.372 -87.2977 375.459 -78.1311L375.456 -78.1042V-78.0772V-77.9203V-77.5513L375.799 -77.4146C376.33 -77.2026 376.863 -76.9707 377.406 -76.7348L378.099 -76.433L378.165 -77.1867C378.438 -80.313 378.477 -83.5584 378.204 -87.0205C378.19 -87.2009 378.261 -87.4747 378.499 -87.8557C378.733 -88.2283 379.093 -88.6489 379.564 -89.1043C380.504 -90.014 381.82 -91.0015 383.246 -91.9526C386.096 -93.8542 389.3 -95.5543 390.591 -96.1286L390.593 -96.1292C396.412 -98.7345 405.185 -98.5474 413.941 -96.9314C422.509 -95.3501 430.937 -92.4246 436.331 -89.5671C435.194 -73.3378 430.302 -56.7985 418.529 -45.5065C418.13 -45.5599 417.513 -45.6957 416.734 -45.8955C415.806 -46.1336 414.696 -46.4495 413.55 -46.7839C413.042 -46.9322 412.525 -47.0844 412.014 -47.235C410.237 -47.7588 408.529 -48.2623 407.471 -48.5095L407.471 -48.5096L406.544 -48.7253L405.534 -48.9603L405.914 -47.9955C405.967 -47.8611 406.019 -47.7287 406.071 -47.5977C406.25 -47.1476 406.423 -46.7131 406.584 -46.265L406.683 -45.9934L406.963 -45.9223L407.194 -45.8637C413.133 -44.3466 423.827 -39.9729 428.789 -37.172L428.79 -37.1718C430.494 -36.2119 432.611 -34.5387 434.576 -32.6975C436.54 -30.8565 438.313 -28.8837 439.343 -27.3435L439.344 -27.343C445.263 -18.5143 448.661 -9.03384 451.105 1.49577C451.167 1.76445 451.231 2.0385 451.295 2.31738C452.442 7.26586 453.942 13.7361 454.097 18.7439C452.227 20.2003 449.244 21.6304 445.596 22.9483C441.824 24.3112 437.389 25.5375 432.843 26.5449C423.736 28.5632 414.261 29.6871 408.835 29.3005L408.834 29.3005C400.021 28.6821 389.163 23.7385 383.081 17.2175L382.784 16.8988L382.408 17.119C381.918 17.4058 381.408 17.6746 380.884 17.9501L380.215 18.3022L380.761 18.8251C382.145 20.15 383.361 21.0972 384.391 21.8944L384.467 21.9531C385.472 22.7298 386.266 23.344 386.902 24.0395C388.152 25.4057 388.841 27.142 388.841 31.2357C388.841 44.4797 382.859 54.2236 375.351 61.9592C371.594 65.8303 367.461 69.1926 363.508 72.236C362.352 73.1263 361.209 73.9911 360.094 74.834C357.561 76.7503 355.177 78.5531 353.133 80.2841C352.307 79.5783 351.466 78.8641 350.615 78.1409C343.845 72.3889 336.404 66.0671 330.381 58.9023C323.499 50.7142 318.524 41.4872 318.524 30.8435C318.524 26.7447 319.147 25.0523 320.404 23.734C321.061 23.0452 321.909 22.4396 323.025 21.6615L323.205 21.5363C324.275 20.791 325.552 19.9013 327.037 18.6752L327.66 18.1612L326.95 17.7767C326.369 17.462 325.799 17.1535 325.25 16.8268L324.891 16.6133L324.592 16.9045C314.227 26.9917 302.133 29.9741 289.726 29.1973C277.411 28.4263 264.802 23.9517 253.312 19.0306C253.233 13.5975 254.777 6.32151 255.969 1.34317L255.97 1.34209C257.458 -4.92546 260.148 -12.8919 263.909 -20.1229C267.679 -27.3682 272.486 -33.8018 278.175 -37.0966L277.903 -37.5677L278.176 -37.0966C284.418 -40.7121 292.596 -43.8331 301.253 -46.0401ZM377.096 -77.4626C376.731 -77.6201 376.366 -77.7747 376 -77.9203L390.37 -96.626C387.724 -95.4496 377.449 -89.7633 377.661 -86.979C377.915 -83.7588 377.897 -80.7285 377.67 -77.8071C377.725 -77.7832 377.78 -77.7592 377.835 -77.7353L377.84 -77.7332L377.623 -77.234L377.08 -77.2814C377.086 -77.3417 377.091 -77.4021 377.096 -77.4626Z" fill="white" fill-opacity="0.3" stroke="white" stroke-width="1.08879"/>
</g>
<defs>
<clipPath id="clip0_2057_17758">
<rect width="400" height="109" rx="18" fill="white"/>
</clipPath>
</defs>
</svg>
