<svg width="312" height="95" viewBox="0 0 312 95" fill="none" xmlns="http://www.w3.org/2000/svg">
<g clip-path="url(#clip0_2879_11353)">
<path d="M16.5736 71.8783V7.97352C16.5736 4.95787 13.0689 2.51323 8.74626 2.51323H1.81237C0.846109 2.51323 0.0945766 1.92732 0.201219 1.25738C0.292008 0.684633 0.985897 0.251323 1.81237 0.251323H17.6545H20.1764H59.8069H298.671C305.834 0.251323 311.641 4.30208 311.641 9.29894V94.3717C311.641 94.5798 311.399 94.7487 311.1 94.7487C310.802 94.7487 310.56 94.5798 310.56 94.3717V87.8373C310.56 84.0202 306.124 80.9259 300.652 80.9259H29.5436C22.3806 80.9259 16.5736 76.8751 16.5736 71.8783Z" fill="#E9E5FD"/>
</g>
<defs>
<clipPath id="clip0_2879_11353">
<rect width="312" height="95" fill="white" transform="matrix(-1 0 0 1 312 0)"/>
</clipPath>
</defs>
</svg>
